<svg width="134" height="134" viewBox="0 0 134 134" fill="none" xmlns="http://www.w3.org/2000/svg">
<g opacity="0.15" clip-path="url(#clip0_51_6883)">
<path d="M67.0001 93.1668C81.4516 93.1668 93.1669 81.4515 93.1669 67C93.1669 52.5484 81.4516 40.8331 67.0001 40.8331C52.5485 40.8331 40.8333 52.5484 40.8333 67C40.8333 81.4515 52.5485 93.1668 67.0001 93.1668Z" stroke="#25262B" stroke-width="3" stroke-linecap="round" stroke-linejoin="round"/>
<path d="M67 34.0324V0.611938" stroke="#25262B" stroke-width="3" stroke-linecap="round" stroke-linejoin="round"/>
<path d="M67 133.388V99.9677" stroke="#25262B" stroke-width="3" stroke-linecap="round" stroke-linejoin="round"/>
<path d="M34.0325 67H0.612061" stroke="#25262B" stroke-width="3" stroke-linecap="round" stroke-linejoin="round"/>
<path d="M133.388 67H99.9678" stroke="#25262B" stroke-width="3" stroke-linecap="round" stroke-linejoin="round"/>
<path d="M43.6891 43.6889L26.9993 26.9991" stroke="#25262B" stroke-width="3" stroke-linecap="round" stroke-linejoin="round"/>
<path d="M107.001 107.001L90.3113 90.311" stroke="#25262B" stroke-width="3" stroke-linecap="round" stroke-linejoin="round"/>
<path d="M43.6891 90.311L26.9993 107.001" stroke="#25262B" stroke-width="3" stroke-linecap="round" stroke-linejoin="round"/>
<path d="M107.001 26.9991L90.3113 43.6889" stroke="#25262B" stroke-width="3" stroke-linecap="round" stroke-linejoin="round"/>
<path d="M54.6958 36.4149L45.8838 14.5195" stroke="#25262B" stroke-width="3" stroke-linecap="round" stroke-linejoin="round"/>
<path d="M88.1204 119.481L79.3083 97.5851" stroke="#25262B" stroke-width="3" stroke-linecap="round" stroke-linejoin="round"/>
<path d="M36.415 79.3083L14.5195 88.1203" stroke="#25262B" stroke-width="3" stroke-linecap="round" stroke-linejoin="round"/>
<path d="M119.481 45.8837L97.5852 54.6958" stroke="#25262B" stroke-width="3" stroke-linecap="round" stroke-linejoin="round"/>
<path d="M36.6721 54.0757L14.9602 44.8231" stroke="#25262B" stroke-width="3" stroke-linecap="round" stroke-linejoin="round"/>
<path d="M119.044 89.1769L97.3281 79.9243" stroke="#25262B" stroke-width="3" stroke-linecap="round" stroke-linejoin="round"/>
<path d="M54.0759 97.3281L44.8232 119.044" stroke="#25262B" stroke-width="3" stroke-linecap="round" stroke-linejoin="round"/>
<path d="M89.1769 14.96L79.9243 36.6719" stroke="#25262B" stroke-width="3" stroke-linecap="round" stroke-linejoin="round"/>
<path d="M40.0826 47.9684L29.9937 40.8331" stroke="#25262B" stroke-width="3" stroke-linecap="round" stroke-linejoin="round"/>
<path d="M104.007 93.1709L93.9177 86.0356" stroke="#25262B" stroke-width="3" stroke-linecap="round" stroke-linejoin="round"/>
<path d="M47.9686 93.9175L40.8333 104.011" stroke="#25262B" stroke-width="3" stroke-linecap="round" stroke-linejoin="round"/>
<path d="M93.1709 29.9935L86.0356 40.0825" stroke="#25262B" stroke-width="3" stroke-linecap="round" stroke-linejoin="round"/>
<path d="M34.7221 60.3053L22.6218 57.7963" stroke="#25262B" stroke-width="3" stroke-linecap="round" stroke-linejoin="round"/>
<path d="M111.382 76.2037L99.2822 73.6947" stroke="#25262B" stroke-width="3" stroke-linecap="round" stroke-linejoin="round"/>
<path d="M60.3054 99.2822L57.7964 111.382" stroke="#25262B" stroke-width="3" stroke-linecap="round" stroke-linejoin="round"/>
<path d="M76.2038 22.6216L73.6948 34.7219" stroke="#25262B" stroke-width="3" stroke-linecap="round" stroke-linejoin="round"/>
<path d="M34.5099 72.5768L22.3281 74.6656" stroke="#25262B" stroke-width="3" stroke-linecap="round" stroke-linejoin="round"/>
<path d="M111.672 59.3344L99.4944 61.4272" stroke="#25262B" stroke-width="3" stroke-linecap="round" stroke-linejoin="round"/>
<path d="M72.5769 99.4944L74.6657 111.672" stroke="#25262B" stroke-width="3" stroke-linecap="round" stroke-linejoin="round"/>
<path d="M59.3345 22.3279L61.4273 34.5097" stroke="#25262B" stroke-width="3" stroke-linecap="round" stroke-linejoin="round"/>
<path d="M48.9763 39.3971L42.2163 29.0511" stroke="#25262B" stroke-width="3" stroke-linecap="round" stroke-linejoin="round"/>
<path d="M91.784 104.949L85.0281 94.6029" stroke="#25262B" stroke-width="3" stroke-linecap="round" stroke-linejoin="round"/>
<path d="M39.3972 85.028L29.0513 91.7838" stroke="#25262B" stroke-width="3" stroke-linecap="round" stroke-linejoin="round"/>
<path d="M104.949 42.2162L94.603 48.9762" stroke="#25262B" stroke-width="3" stroke-linecap="round" stroke-linejoin="round"/>
<path d="M50.1798 67C50.1829 62.8798 51.3178 58.8395 53.4605 55.3203C55.6032 51.801 58.6715 48.938 62.3305 47.0437C65.9895 45.1494 70.0985 44.2966 74.2091 44.5784C78.3197 44.8602 82.2739 46.2657 85.6401 48.6416C81.9942 44.9463 77.3317 42.4188 72.2455 41.3804C67.1594 40.3421 61.8792 40.8397 57.0766 42.8101C52.274 44.7806 48.1659 48.1347 45.2747 52.4461C42.3834 56.7575 40.8396 61.8313 40.8396 67.0224C40.8396 72.2135 42.3834 77.2874 45.2747 81.5988C48.1659 85.9101 52.274 89.2643 57.0766 91.2347C61.8792 93.2051 67.1594 93.7028 72.2455 92.6644C77.3317 91.626 81.9942 89.0985 85.6401 85.4033C82.2704 87.7798 78.3123 89.1845 74.1983 89.4637C70.0843 89.7429 65.9727 88.886 62.3128 86.9866C58.6528 85.0871 55.5854 82.2183 53.4457 78.6934C51.3059 75.1686 50.1761 71.1235 50.1798 67Z" stroke="#25262B" stroke-width="3" stroke-linecap="round" stroke-linejoin="round"/>
<g clip-path="url(#clip1_51_6883)">
<path d="M68.9256 73.1628C68.4459 73.1282 67.9707 73.0463 67.5071 72.9184C67.0777 72.7975 66.6612 72.6348 66.2637 72.4325C66.1209 72.3687 65.9828 72.2951 65.8502 72.2121C65.8234 72.1966 65.7999 72.1758 65.7812 72.1511C65.7624 72.1264 65.7487 72.0983 65.7408 72.0683C65.733 72.0382 65.7311 72.007 65.7354 71.9763C65.7397 71.9455 65.75 71.916 65.7657 71.8892C65.7803 71.8606 65.8005 71.8353 65.8251 71.8147C65.8497 71.7941 65.8783 71.7787 65.909 71.7694C65.9397 71.7601 65.972 71.7571 66.0039 71.7606C66.0358 71.764 66.0667 71.7739 66.0947 71.7896L66.2003 71.847C66.2303 71.8424 66.2608 71.8424 66.2908 71.847H66.4116C66.4981 71.847 66.5856 71.847 66.6741 71.847C66.7958 71.8373 66.9167 71.8201 67.0363 71.7957C67.2579 71.7457 67.4766 71.6832 67.6912 71.6085H67.661C68.025 71.4864 68.3808 71.3413 68.7264 71.174C68.9044 71.0834 69.0825 70.9899 69.2545 70.8903C69.4266 70.7907 69.5775 70.6941 69.7314 70.5885C69.9161 70.4641 70.0935 70.329 70.2626 70.184C70.3881 70.0809 70.5079 69.9711 70.6217 69.8551C70.7062 69.7555 70.7816 69.6559 70.8571 69.5533C71.0383 69.2783 71.2036 68.9931 71.3521 68.6992C71.4657 68.4654 71.5664 68.2256 71.6539 67.9809C71.7161 67.8031 71.7675 67.6217 71.8078 67.4376C71.838 67.275 71.8591 67.1107 71.8712 66.9457C71.8777 66.8452 71.8777 66.7444 71.8712 66.6439C71.8546 66.4514 71.8274 66.26 71.7897 66.0705C71.7883 66.0795 71.7883 66.0886 71.7897 66.0976C71.7387 65.8687 71.6742 65.6429 71.5965 65.4216C71.5304 65.2388 71.4528 65.0604 71.3641 64.8874L71.3792 64.9116L71.34 64.8361V64.8603C71.2429 64.6624 71.1351 64.4699 71.0171 64.2838V64.2687C70.8479 64.0246 70.6655 63.7898 70.4708 63.5655C70.3202 63.3936 70.16 63.2304 69.9909 63.0766C69.7588 62.8849 69.5159 62.7066 69.2636 62.5424H69.2847C68.924 62.3035 68.5491 62.0868 68.162 61.8935C67.9658 61.797 67.7666 61.7094 67.5584 61.6219C67.4739 61.5827 67.3864 61.5495 67.2989 61.5163C67.2113 61.4831 67.1148 61.4318 67.1057 61.3292C67.1117 61.3069 67.1209 61.2855 67.1329 61.2658C67.1354 61.2359 67.147 61.2075 67.1661 61.1843C67.2213 61.1303 67.2942 61.0982 67.3713 61.0938C67.4648 61.0757 67.5614 61.0636 67.655 61.0515C67.8874 61.0213 68.1198 61.0032 68.3521 60.9912C68.8483 60.9675 69.3454 60.9786 69.84 61.0244C70.3253 61.0645 70.8049 61.1566 71.2706 61.299C71.7327 61.4441 72.1795 61.6341 72.6045 61.8664C72.8129 61.9813 73.0145 62.1083 73.2081 62.2467C73.4021 62.3839 73.5867 62.5342 73.7604 62.6963C73.9455 62.8684 74.1218 63.0497 74.2886 63.2396C74.4525 63.4322 74.6056 63.6337 74.7473 63.8432C74.8826 64.0475 75.0065 64.2591 75.1185 64.477C75.2362 64.7063 75.3509 64.9387 75.4475 65.1771C75.649 65.6621 75.7948 66.1683 75.8821 66.6862C75.9839 67.2898 75.9808 67.9065 75.873 68.509C75.7649 69.0087 75.5861 69.4904 75.3419 69.9396C75.2227 70.1481 75.0917 70.3496 74.9495 70.5432C74.8006 70.757 74.6351 70.9588 74.4546 71.1468C73.7339 71.8731 72.8563 72.4244 71.8893 72.7584C71.1027 73.0189 70.2792 73.1503 69.4507 73.1477C69.2757 73.1779 69.1127 73.1749 68.9256 73.1628Z" fill="#274C6C"/>
<path d="M69.5954 72.1096C69.5364 72.0842 69.486 72.0421 69.4506 71.9885C69.4152 71.9349 69.3963 71.872 69.3962 71.8078C69.3965 71.736 69.4197 71.6661 69.4626 71.6086C69.5068 71.5529 69.5668 71.5119 69.6347 71.4909C69.7041 71.4734 69.7773 71.4786 69.8436 71.5057C69.9099 71.5329 69.9657 71.5806 70.0029 71.6418C70.0317 71.6917 70.0467 71.7483 70.0465 71.8059C70.0464 71.8635 70.0309 71.92 70.0018 71.9697C69.9726 72.0193 69.9309 72.0604 69.8807 72.0887C69.8305 72.117 69.7737 72.1315 69.7161 72.1307C69.6749 72.132 69.6338 72.1248 69.5954 72.1096Z" fill="#828282"/>
<path d="M72.9907 70.7001C72.9004 70.6935 72.8128 70.6667 72.7342 70.6216C72.6465 70.5686 72.573 70.4951 72.5199 70.4074C72.4817 70.351 72.4558 70.2871 72.4438 70.2201C72.4319 70.153 72.4341 70.0842 72.4505 70.018C72.4607 69.9699 72.4848 69.9258 72.5199 69.8913C72.5306 69.8796 72.5428 69.8695 72.5561 69.8611V69.846C72.5668 69.7709 72.5969 69.7 72.6435 69.6401C72.6901 69.5803 72.7516 69.5337 72.8217 69.505C72.851 69.4932 72.8813 69.4841 72.9123 69.4778C72.9971 69.4318 73.092 69.4078 73.1884 69.4078C73.2849 69.4078 73.3798 69.4318 73.4646 69.4778C73.6058 69.5706 73.7059 69.7143 73.7441 69.8789C73.7823 70.0435 73.7557 70.2165 73.6698 70.3621C73.602 70.4843 73.496 70.5808 73.368 70.6367C73.2724 70.6763 73.1697 70.6959 73.0662 70.6941L72.9907 70.7001Z" fill="#828282"/>
<path d="M74.1618 67C74.1482 66.9256 74.1578 66.8488 74.1893 66.78C74.2209 66.7112 74.2729 66.6539 74.3382 66.6157C74.4036 66.5775 74.4791 66.5604 74.5545 66.5667C74.6299 66.573 74.7015 66.6023 74.7597 66.6508C74.8178 66.6992 74.8596 66.7644 74.8794 66.8374C74.8991 66.9105 74.8959 66.9878 74.8702 67.059C74.8444 67.1301 74.7974 67.1916 74.7354 67.2351C74.6735 67.2785 74.5996 67.3018 74.524 67.3018C74.438 67.3012 74.3549 67.2708 74.2888 67.2158C74.2228 67.1608 74.1779 67.0845 74.1618 67Z" fill="#828282"/>
<path d="M72.5683 64.9659C72.5481 64.9262 72.5376 64.8822 72.5376 64.8377C72.5376 64.7931 72.5481 64.7492 72.5683 64.7094C72.5683 64.7094 72.5683 64.7094 72.5683 64.6943C72.5439 64.6258 72.5372 64.5523 72.5488 64.4806C72.5604 64.4088 72.5899 64.3411 72.6346 64.2839C72.6892 64.2119 72.7627 64.1566 72.8469 64.124C72.9311 64.0915 73.0228 64.0831 73.1115 64.0998H73.1749C73.2959 64.118 73.4062 64.1793 73.4855 64.2725C73.5649 64.3657 73.6078 64.4844 73.6064 64.6068C73.6073 64.7389 73.5661 64.8679 73.4887 64.975C73.3986 65.1009 73.2636 65.1873 73.1115 65.2164C73.0804 65.2194 73.049 65.2194 73.0179 65.2164C72.927 65.221 72.8367 65.1999 72.7572 65.1556C72.6777 65.1113 72.6122 65.0456 72.5683 64.9659Z" fill="#828282"/>
<path d="M65.3853 67.0182L66.2334 66.9759L67.0664 66.9276C67.3682 66.9125 67.6971 66.9005 68.011 66.9065C68.2796 66.9065 68.5452 66.9276 68.8138 66.9457C68.9707 66.9457 69.1156 66.9699 69.2906 66.9729C69.3381 66.9805 69.3865 66.9786 69.4332 66.9672C69.4798 66.9558 69.5237 66.9352 69.5623 66.9065C69.5803 66.8906 69.5947 66.8711 69.6045 66.8493C69.6144 66.8274 69.6195 66.8037 69.6195 66.7797C69.6195 66.7558 69.6144 66.7321 69.6045 66.7102C69.5947 66.6883 69.5803 66.6688 69.5623 66.653C69.5184 66.6146 69.4634 66.5913 69.4053 66.5866L69.2303 66.5624C69.0432 66.5353 68.853 66.5172 68.6659 66.4991C68.2524 66.4598 67.839 66.4266 67.4225 66.3995L67.1841 66.3964H67.2203C66.7012 66.3633 66.1851 66.324 65.666 66.3119C65.1469 66.2999 64.6006 66.3119 64.0695 66.3119C63.816 66.3119 63.5624 66.3119 63.312 66.3301C63.1792 66.3301 63.0464 66.3301 62.9136 66.3301C62.7793 66.326 62.645 66.334 62.5122 66.3542C62.4105 66.3702 62.3183 66.4228 62.2526 66.5021C62.2004 66.5718 62.1718 66.6564 62.1711 66.7435C62.1716 66.8389 62.2063 66.931 62.2688 67.003C62.3314 67.075 62.4178 67.1221 62.5122 67.1359H62.648C62.7265 67.1359 62.8049 67.1359 62.8834 67.1359L63.2425 67.1178L63.9488 67.0876C64.4286 67.0664 64.9085 67.0483 65.3853 67.0182Z" fill="#828282"/>
<path d="M62.6812 63.4448L63.315 63.7466C63.4115 63.7919 63.5111 63.8372 63.6168 63.8734C63.7224 63.9096 63.831 63.9549 63.9397 63.9911C64.3924 64.148 64.8451 64.2929 65.3129 64.4166L66.1157 64.637C66.3752 64.7034 66.6378 64.7607 66.9034 64.818C67.4245 64.9103 67.9396 65.0343 68.4456 65.1893C68.5512 65.2285 68.6508 65.2707 68.7474 65.316C68.844 65.3613 68.9677 65.4367 69.0764 65.4971C69.1296 65.5287 69.1896 65.5473 69.2514 65.5514C69.2728 65.5516 69.294 65.5474 69.3137 65.5391C69.3335 65.5308 69.3513 65.5186 69.3661 65.5031C69.3821 65.4855 69.3941 65.4647 69.4012 65.442C69.4083 65.4192 69.4104 65.3952 69.4072 65.3717C69.404 65.3481 69.3957 65.3255 69.3829 65.3054C69.3701 65.2854 69.353 65.2684 69.3329 65.2557C69.2791 65.2101 69.2227 65.1677 69.1639 65.1289C68.9972 65.0161 68.8227 64.9153 68.6418 64.8271C68.2887 64.6551 67.9235 64.5072 67.5553 64.3623C67.2897 64.2597 67.0211 64.1601 66.7525 64.0605C66.4839 63.9609 66.2123 63.8734 65.9376 63.7829C65.663 63.6923 65.4366 63.6108 65.1831 63.5294C64.9296 63.4479 64.6791 63.3784 64.4256 63.2849L64.0001 63.137L63.6469 63.0223C63.4206 62.9378 63.2003 62.8352 62.983 62.7205C62.9353 62.7009 62.8841 62.691 62.8325 62.6914C62.781 62.6917 62.73 62.7023 62.6825 62.7225C62.6351 62.7427 62.5921 62.7722 62.5561 62.8091C62.5201 62.8461 62.4919 62.8898 62.4729 62.9378C62.4531 62.9846 62.4426 63.0348 62.4422 63.0856C62.4417 63.1364 62.4513 63.1868 62.4704 63.2339C62.4894 63.281 62.5176 63.3239 62.5532 63.3601C62.5889 63.3963 62.6314 63.4251 62.6782 63.4448H62.6812Z" fill="#828282"/>
<path d="M69.9727 68.0111C69.9634 67.9799 69.9454 67.952 69.9208 67.9306C69.8962 67.9092 69.8661 67.8953 69.8339 67.8904C69.794 67.8847 69.7533 67.8899 69.7162 67.9054C69.6437 67.9296 69.5743 67.9598 69.5019 67.9869C69.4295 68.0141 69.2937 68.0473 69.2001 68.0714C69.1065 68.0956 68.9647 68.1288 68.847 68.1529C68.6116 68.2042 68.3762 68.2555 68.1408 68.3129C67.6579 68.4306 67.178 68.5664 66.6891 68.666H66.7344L66.6559 68.6841L66.4748 68.7203C65.9912 68.7965 65.5117 68.8972 65.0383 69.0221L64.3139 69.2273L64.0121 69.3028C63.9091 69.3202 63.8081 69.3475 63.7103 69.3843C63.6519 69.4151 63.6051 69.4643 63.5773 69.5243C63.5495 69.5842 63.5422 69.6517 63.5564 69.7163C63.5751 69.7759 63.6119 69.8282 63.6616 69.8661C63.7114 69.9039 63.7716 69.9254 63.8341 69.9275H63.8733C63.9753 69.9094 64.076 69.8853 64.1751 69.8551L64.4558 69.7887C64.7033 69.7404 64.9537 69.7012 65.2042 69.671C65.6946 69.6202 66.1808 69.5344 66.6589 69.4145C67.169 69.2756 67.6669 69.0885 68.1679 68.9135C68.521 68.7927 68.8802 68.675 69.2333 68.5513C69.4118 68.4953 69.5846 68.4225 69.7494 68.334C69.855 68.2585 70.018 68.159 69.9727 68.0111Z" fill="#828282"/>
<path d="M65.6902 62.3644C65.7898 62.4127 65.8924 62.4519 65.992 62.4942L66.2938 62.63C66.4628 62.6994 66.6318 62.7748 66.7978 62.8593H66.7737H66.8039C67.0362 62.977 67.2596 63.1038 67.4829 63.2306L68.002 63.5324C68.171 63.632 68.34 63.7346 68.506 63.8342L68.9557 64.136C69.0299 64.1908 69.1098 64.2374 69.1941 64.2748C69.2304 64.2903 69.2694 64.2985 69.3088 64.2989C69.3438 64.2988 69.3782 64.2894 69.4084 64.2718L69.4295 64.2537C69.4462 64.2392 69.4595 64.2214 69.4686 64.2013C69.4778 64.1813 69.4825 64.1595 69.4825 64.1375C69.4825 64.1154 69.4778 64.0937 69.4686 64.0736C69.4595 64.0536 69.4462 64.0357 69.4295 64.0213L69.3631 63.973L69.1941 63.8493C69.0704 63.7647 68.9467 63.6802 68.8199 63.5988C68.5543 63.4086 68.2887 63.2366 68.0141 63.0766C67.7394 62.9167 67.3773 62.7024 67.0483 62.5274C66.7194 62.3523 66.4206 62.2256 66.1067 62.0596C66.0282 62.0203 65.9498 61.9781 65.8683 61.9449C65.8405 61.9329 65.8107 61.9266 65.7805 61.9262C65.7503 61.9258 65.7203 61.9313 65.6923 61.9426C65.6643 61.9538 65.6387 61.9704 65.6171 61.9915C65.5955 62.0126 65.5783 62.0378 65.5665 62.0656C65.5545 62.0932 65.5483 62.123 65.5483 62.1531C65.5483 62.1832 65.5545 62.213 65.5665 62.2406C65.5917 62.2953 65.6356 62.3391 65.6902 62.3644Z" fill="#828282"/>
<path d="M68.2072 65.7023C68.2115 65.6663 68.2042 65.6298 68.1863 65.5983C68.1683 65.5668 68.1407 65.5419 68.1076 65.5272C68.0655 65.5126 68.022 65.5025 67.9778 65.4971C67.8993 65.4971 67.8178 65.4759 67.7394 65.4699C67.5854 65.4699 67.4376 65.4397 67.2776 65.4246L66.6982 65.3643L66.0945 65.2979L65.5694 65.2405C65.3702 65.2164 65.171 65.1892 64.9658 65.1802C64.9095 65.1817 64.8558 65.2042 64.8151 65.2432C64.7745 65.2823 64.7499 65.3351 64.7461 65.3913C64.7423 65.4475 64.7597 65.5031 64.7947 65.5472C64.8298 65.5914 64.88 65.6208 64.9356 65.6299C65.0835 65.6299 65.2374 65.648 65.3793 65.654C65.4819 65.654 65.5875 65.654 65.6811 65.6721H65.6962H65.8259C66.2213 65.6993 66.6136 65.7295 67.009 65.7657L67.5704 65.8109L67.8722 65.8321H68.0019H68.0382C68.0771 65.8337 68.1153 65.8216 68.1462 65.7979C68.1771 65.7742 68.1987 65.7403 68.2072 65.7023Z" fill="#828282"/>
<path d="M68.7323 67.4346C68.6493 67.4211 68.5647 67.4211 68.4818 67.4346L68.18 67.4558C68.0049 67.4739 67.8299 67.495 67.6579 67.5252C67.2927 67.5825 66.9275 67.655 66.5593 67.6851C66.1911 67.7153 65.8682 67.6851 65.5241 67.7123C65.3521 67.7123 65.1801 67.7364 65.0081 67.7515C64.836 67.7666 64.658 67.7877 64.4829 67.8149C64.4363 67.8266 64.3954 67.8547 64.3679 67.8942C64.3404 67.9336 64.328 67.9817 64.3332 68.0295C64.3383 68.0773 64.3606 68.1216 64.3959 68.1543C64.4312 68.187 64.4771 68.2058 64.5252 68.2073H64.5493C64.7063 68.2073 64.8511 68.168 65.0171 68.1499C65.1831 68.1318 65.3189 68.1167 65.4487 68.1077C65.7203 68.0895 65.9919 68.1077 66.2605 68.0835C66.4524 68.078 66.6439 68.0619 66.834 68.0352C67.0211 68.0081 67.2052 67.9749 67.3923 67.9417C67.5794 67.9085 67.7575 67.8723 67.9416 67.8511C68.1257 67.83 68.2796 67.8149 68.4486 67.8028H68.6749H68.7444C68.7654 67.7946 68.7856 67.7845 68.8047 67.7727C68.8365 67.7466 68.8579 67.7102 68.8651 67.6698C68.8723 67.6293 68.8648 67.5877 68.844 67.5523C68.837 67.5248 68.823 67.4995 68.8035 67.4789C68.7839 67.4583 68.7594 67.4431 68.7323 67.4346Z" fill="#828282"/>
<path d="M69.4326 69.4144C69.4209 69.387 69.4009 69.3639 69.3755 69.3482C69.3501 69.3326 69.3205 69.3251 69.2908 69.3269C69.2284 69.3341 69.1674 69.3504 69.1097 69.3752L68.8894 69.4627L68.4246 69.6438L67.5403 69.9758L67.0816 70.1478L66.5957 70.3198C66.2577 70.4466 65.9196 70.5643 65.5816 70.688C65.5329 70.7099 65.4945 70.7497 65.4742 70.7991C65.454 70.8486 65.4536 70.9039 65.473 70.9536C65.4886 70.9901 65.5147 71.0211 65.5481 71.0426C65.5814 71.0641 65.6204 71.0752 65.6601 71.0744C65.6869 71.074 65.7135 71.0689 65.7386 71.0593C66.0615 70.9416 66.3784 70.8088 66.6953 70.682L67.5826 70.3319C67.8844 70.2082 68.2103 70.0905 68.5212 69.9698C68.6811 69.9034 68.8441 69.84 69.004 69.7706C69.0825 69.7374 69.161 69.7012 69.2364 69.6619C69.2951 69.6382 69.3492 69.6045 69.3964 69.5623C69.4156 69.5435 69.4291 69.5196 69.4355 69.4935C69.4419 69.4674 69.4409 69.44 69.4326 69.4144Z" fill="#828282"/>
<path d="M69.3998 69.5684L69.3962 69.5719L69.3998 69.5684Z" fill="#828282"/>
</g>
</g>
<defs>
<clipPath id="clip0_51_6883">
<rect width="134" height="134" fill="white"/>
</clipPath>
<clipPath id="clip1_51_6883">
<rect width="13.7954" height="12.2139" fill="white" transform="translate(62.1711 60.964)"/>
</clipPath>
</defs>
</svg>
