<svg width="186" height="195" viewBox="0 0 186 195" fill="none" xmlns="http://www.w3.org/2000/svg">
<g opacity="0.1" clip-path="url(#clip0_51_6937)">
<path d="M69.8772 60.9722C69.993 61.4869 70.1172 61.8972 70.1792 62.3167C70.5763 64.9492 70.98 67.5728 71.346 70.2099C72.6056 79.2326 73.8497 88.2577 75.0783 97.2851L75.2041 98.0286C75.3366 97.9178 75.4593 97.7959 75.571 97.6642C78.3731 94.2078 81.1848 90.7262 84.0059 87.2194L99.4297 68.0937C101.308 65.765 103.207 63.465 105.028 61.1766C105.216 60.9231 105.459 60.7149 105.738 60.5675C106.017 60.4201 106.325 60.3371 106.641 60.3246C113.33 59.7504 120.033 59.1213 126.748 58.4373L162.843 55.0389C164.304 54.9322 165.725 54.8791 167.159 54.8081C167.329 54.7639 167.509 54.7746 167.672 54.8386C167.836 54.9027 167.975 55.0168 168.069 55.1646C168.04 55.447 168.019 55.7915 167.952 56.1429C167.244 59.9486 166.552 63.7519 165.811 67.5467C163.479 79.5507 161.146 91.5548 158.814 103.559C158.722 103.924 158.655 104.295 158.613 104.669C158.591 104.895 158.508 105.111 158.373 105.294C158.238 105.476 158.055 105.618 157.845 105.704C155.669 106.775 153.549 107.901 151.394 109.001C120.33 124.808 89.2497 140.595 58.153 156.359C57.2094 156.849 57.2027 156.858 56.4331 156.163L49.5775 149.849L47.2595 147.702C47.139 147.596 46.9987 147.515 46.8467 147.464C46.6947 147.413 46.5341 147.393 46.3742 147.405L37.5 147.037L28.2348 146.656C28.102 146.642 27.9685 146.635 27.835 146.637C27.4965 146.665 27.1587 146.576 26.8778 146.385C26.5969 146.195 26.3897 145.913 26.2908 145.588C24.5823 141.818 22.8338 138.045 21.0876 134.287C20.7501 133.588 20.634 132.802 20.7545 132.035C22.6704 119.002 24.5781 105.968 26.4776 92.9331C26.5472 92.5279 26.7456 92.1558 27.0432 91.8721C31.4965 87.4125 35.9077 82.9909 40.403 78.4933C45.0809 73.799 49.7663 69.1196 54.4592 64.4548C54.6566 64.2269 54.8758 64.0187 55.1135 63.8332C55.3282 63.6825 55.5734 63.5809 55.8316 63.5355C59.2307 62.8645 62.6506 62.2088 66.0913 61.5686C67.0255 61.3896 67.944 61.2129 68.8738 61.0583C69.2066 61.0122 69.5415 60.9835 69.8772 60.9722ZM112.435 106.292L164.356 57.8623C164.138 57.9142 163.931 58.0042 163.744 58.1282L155.602 63.4081L127.33 81.5994C127.159 81.7183 126.982 81.827 126.799 81.9248C126.748 81.9616 126.69 81.9878 126.629 82.0019C126.568 82.016 126.505 82.0177 126.444 82.0069C126.382 81.996 126.323 81.9729 126.271 81.9389C126.218 81.9049 126.173 81.8607 126.138 81.8089C126.107 81.7554 126.086 81.696 126.078 81.6343C126.07 81.5725 126.075 81.5098 126.092 81.4499C126.109 81.3901 126.138 81.3344 126.178 81.2862C126.217 81.2381 126.266 81.1986 126.322 81.1701C126.594 80.9707 126.884 80.7845 127.159 80.6007L165.564 55.9909C165.717 55.8967 165.852 55.7892 166.011 55.686L106.519 61.3829C106.486 61.4823 106.461 61.5843 106.445 61.6877L101.62 97.7333L101.7 97.7928L102.15 97.5034C105.415 95.2617 108.662 93.0068 111.935 90.7716C114.857 88.8431 117.744 86.9436 120.621 84.9264C121.032 84.6567 121.457 84.4079 121.893 84.181C122.083 84.0732 122.302 83.9452 122.528 84.2927C122.359 84.5024 122.173 84.6975 121.971 84.8759C121.332 85.3842 120.69 85.8769 120.02 86.3342C114.265 90.3686 108.496 94.36 102.713 98.3087C102.512 98.4499 102.326 98.5888 102.054 98.7881L112.435 106.292ZM166.946 56.6423C149.249 73.1558 131.593 89.6343 113.976 106.078C113.938 106.119 113.905 106.164 113.876 106.212C113.876 106.212 113.876 106.212 113.956 106.271L157.699 104.392L166.946 56.6423ZM105.423 62.4516L105.334 62.3855C105.248 62.5016 105.162 62.6176 105.076 62.7337C100.425 68.509 95.7858 74.2694 91.1575 80.015C85.8816 86.5717 80.5998 93.124 75.3121 99.672C75.2327 99.7791 75.1532 99.8862 75.0738 99.9933C73.4002 102.903 71.7443 105.826 70.0287 108.773C66.6782 114.535 63.3298 120.293 59.9837 126.049L49.6673 143.69C49.5482 143.851 49.4759 144.06 49.3769 144.249L49.4661 144.315C66.4877 129.035 83.5197 113.754 100.562 98.4707C102.165 86.4696 103.785 74.4633 105.423 62.4516ZM155.937 105.576L155.898 105.479C155.716 105.482 155.532 105.47 155.343 105.482L127.153 106.717L113.244 107.306C113.039 107.305 112.835 107.347 112.646 107.428C112.457 107.51 112.288 107.629 112.147 107.78C111.648 108.267 111.128 108.726 110.602 109.193C103.42 115.6 96.2471 122.001 89.0842 128.394C79.5773 136.868 70.0453 145.333 60.4879 153.788C60.3754 153.94 60.2563 154.1 60.0724 154.199L60.1527 154.259L155.937 105.576ZM46.9138 146.491C51.4506 138.676 55.9722 130.919 60.4848 123.155C64.9974 115.392 69.4882 107.695 74.0471 99.8686C73.9193 99.813 73.7877 99.7663 73.6534 99.7288C70.6377 98.8764 67.6905 97.9502 64.7146 97.0442C64.5545 96.9955 64.3864 96.979 64.2199 96.9956C64.0534 97.0123 63.8918 97.0618 63.7445 97.1413C59.7894 99.0095 55.8034 100.938 51.859 102.717C51.1764 103.014 50.6193 103.541 50.285 104.207C48.0051 108.493 45.6896 112.753 43.3565 117.055C40.862 121.662 38.3675 126.269 35.873 130.875C33.2803 135.677 30.6697 140.465 28.0681 145.26C27.9754 145.385 27.9452 145.556 27.8508 145.777L46.9138 146.491ZM111.642 107.045C111.253 106.619 101.327 99.508 100.944 99.3904L47.8869 147.005L57.1162 155.521C75.3253 139.323 93.5004 123.164 111.642 107.045ZM36.1356 103.705L50.1578 102.272L54.8973 65.4852L54.8081 65.4191C45.7909 74.4131 36.748 83.4479 27.6793 92.5236L36.1356 103.705ZM56.0759 64.436C54.4624 76.9363 52.824 89.3212 51.2373 101.841L51.8357 101.593L57.1669 99.0989C59.1634 98.158 61.1598 97.2171 63.1674 96.2984C63.3374 96.2423 63.486 96.135 63.5927 95.9911C63.6993 95.8472 63.7589 95.6739 63.7631 95.4949C63.7706 95.3806 63.7856 95.267 63.8081 95.1547C65.5108 84.2609 67.2098 73.3597 68.9051 62.4512C68.9244 62.3133 68.9348 62.1688 68.9492 61.9443L56.0759 64.436ZM26.6839 144.22L26.8015 144.21C29.6173 130.821 32.43 117.412 35.2397 103.981L27.3982 93.6295C27.3288 93.9654 27.2919 94.1456 27.2706 94.3234L26.8279 97.3432C25.1028 109.124 23.3778 120.905 21.6527 132.687C21.6115 132.942 21.642 133.204 21.7408 133.444C23.3109 136.904 24.8957 140.358 26.4953 143.803L26.6839 144.22ZM36.0182 104.683C33.3523 117.547 30.6775 130.385 27.9936 143.199C35.2096 130.093 42.3255 116.955 49.4678 103.781C49.5407 103.682 49.5755 103.542 49.6216 103.424L49.5324 103.358L36.0182 104.683ZM69.5849 64.311L69.5224 64.2647C67.8879 74.8678 66.2569 85.4412 64.6294 95.985C65.8044 96.4688 73.8866 98.8365 74.2951 98.8073L69.5849 64.311Z" fill="#25262B"/>
<path d="M76.3326 24.0324C74.6726 28.0543 74.6002 32.5547 76.1299 36.624C77.3835 39.9976 79.6789 42.8828 82.6834 44.8617C85.6878 46.8405 89.2453 47.8102 92.8402 47.6301C96.7445 47.452 100.47 45.9346 103.391 43.333C102.181 46.1015 100.242 48.49 97.7813 50.2429C95.3207 51.9959 92.431 53.0475 89.4211 53.2853C85.9103 53.5925 82.3923 52.7987 79.3556 51.0141C76.319 49.2295 73.9142 46.5427 72.4753 43.3266C71.0363 40.1106 70.6346 36.5249 71.3258 33.0673C72.017 29.6098 73.767 26.4521 76.3326 24.0324Z" fill="white"/>
</g>
<defs>
<clipPath id="clip0_51_6937">
<rect width="114.598" height="157.456" fill="white" transform="translate(93.778) rotate(36.5542)"/>
</clipPath>
</defs>
</svg>
