<svg width="233" height="323" viewBox="0 0 233 323" fill="none" xmlns="http://www.w3.org/2000/svg">
<g clip-path="url(#clip0_416_8287)">
<path d="M73.2518 285.31C77.5385 285.31 81.0135 281.845 81.0135 277.569C81.0135 273.294 77.5385 269.828 73.2518 269.828C68.9652 269.828 65.4902 273.294 65.4902 277.569C65.4902 281.845 68.9652 285.31 73.2518 285.31Z" stroke="white" stroke-width="1.02" stroke-linecap="round" stroke-linejoin="round"/>
<path d="M193.106 38.8632C191.048 38.8632 189.074 39.6788 187.618 41.1306C186.162 42.5823 185.345 44.5513 185.345 46.6044C185.347 45.5872 185.148 44.5796 184.758 43.6394C184.369 42.6991 183.797 41.8449 183.076 41.1256C182.355 40.4063 181.499 39.8362 180.556 39.448C179.613 39.0597 178.603 38.861 177.583 38.8632C179.642 38.8632 181.616 38.0477 183.071 36.5959C184.527 35.1442 185.345 33.1752 185.345 31.1221C185.349 33.1738 186.168 35.1402 187.623 36.591C189.078 38.0417 191.049 38.8588 193.106 38.8632Z" stroke="white" stroke-width="1.02" stroke-linecap="round" stroke-linejoin="round"/>
<path d="M185.345 288.326V313.87" stroke="white" stroke-width="1.02" stroke-linecap="round" stroke-linejoin="round"/>
<path d="M172.539 301.098H198.168" stroke="white" stroke-width="1.02" stroke-linecap="round" stroke-linejoin="round"/>
<path d="M178.194 293.967L192.495 308.23" stroke="white" stroke-width="1.02" stroke-linecap="round" stroke-linejoin="round"/>
<path d="M178.194 308.23L192.495 293.967" stroke="white" stroke-width="1.02" stroke-linecap="round" stroke-linejoin="round"/>
<path d="M47.1641 100.403V125.964" stroke="white" stroke-width="1.02" stroke-linecap="round" stroke-linejoin="round"/>
<path d="M34.3584 113.192H59.97" stroke="white" stroke-width="1.02" stroke-linecap="round" stroke-linejoin="round"/>
<path d="M40.0137 106.062L54.3141 120.324" stroke="white" stroke-width="1.02" stroke-linecap="round" stroke-linejoin="round"/>
<path d="M40.0137 120.324L54.3141 106.062" stroke="white" stroke-width="1.02" stroke-linecap="round" stroke-linejoin="round"/>
<mask id="path-11-inside-1_416_8287" fill="white">
<path d="M56.6582 203.597C56.6582 255.922 1.51172 252.89 1.51172 252.89C37.9081 237.069 32.6601 189.199 32.6601 189.199C32.6582 183.871 34.2017 178.657 37.1046 174.184C40.0075 169.712 44.1457 166.173 49.0201 163.994C53.8945 161.814 59.297 161.088 64.5759 161.903C69.8548 162.717 74.7848 165.038 78.7712 168.584"/>
</mask>
<path d="M59.6582 203.597C59.6582 201.94 58.3151 200.597 56.6582 200.597C55.0014 200.597 53.6582 201.94 53.6582 203.597H59.6582ZM1.51172 252.89L0.315755 250.138C-0.959555 250.693 -1.68673 252.051 -1.44111 253.42C-1.19549 254.788 -0.0414705 255.809 1.34702 255.885L1.51172 252.89ZM32.6601 189.199L29.6601 189.2C29.6601 189.309 29.6661 189.417 29.6779 189.526L32.6601 189.199ZM76.7772 170.825C78.0151 171.927 79.9113 171.816 81.0126 170.578C82.1138 169.34 82.0031 167.444 80.7652 166.342L76.7772 170.825ZM53.6582 203.597C53.6582 216.122 50.3695 225.104 45.6195 231.603C40.85 238.129 34.4531 242.36 27.9246 245.099C21.3861 247.841 14.8025 249.048 9.82052 249.562C7.33791 249.818 5.27473 249.9 3.84292 249.918C3.12756 249.927 2.5714 249.921 2.20108 249.912C2.01597 249.908 1.87745 249.903 1.78886 249.899C1.74456 249.897 1.71277 249.896 1.69388 249.895C1.68444 249.895 1.67823 249.894 1.6753 249.894C1.67384 249.894 1.67319 249.894 1.67338 249.894C1.67347 249.894 1.67423 249.894 1.67427 249.894C1.67524 249.894 1.67642 249.894 1.51172 252.89C1.34702 255.885 1.34862 255.885 1.35042 255.885C1.35131 255.885 1.35333 255.886 1.35509 255.886C1.35863 255.886 1.36301 255.886 1.36822 255.886C1.37865 255.887 1.39243 255.888 1.40949 255.888C1.44362 255.89 1.49092 255.892 1.55097 255.895C1.67106 255.899 1.8422 255.905 2.06099 255.91C2.49849 255.92 3.12711 255.928 3.91967 255.918C5.50369 255.897 7.74882 255.807 10.4362 255.53C15.7942 254.977 22.9972 253.672 30.2453 250.632C37.5034 247.587 44.8931 242.766 50.4637 235.144C56.0536 227.495 59.6582 217.235 59.6582 203.597H53.6582ZM2.70768 255.641C22.1165 247.204 30.3048 230.228 33.6568 215.79C35.3361 208.557 35.8319 201.858 35.911 196.974C35.9506 194.528 35.8858 192.526 35.8101 191.125C35.7722 190.424 35.7316 189.873 35.6997 189.491C35.6838 189.3 35.6701 189.151 35.66 189.047C35.655 188.995 35.6509 188.955 35.6478 188.925C35.6463 188.91 35.6451 188.899 35.6441 188.89C35.6437 188.885 35.6433 188.882 35.6429 188.879C35.6428 188.877 35.6426 188.875 35.6425 188.875C35.6423 188.873 35.6422 188.872 32.6601 189.199C29.6779 189.526 29.6778 189.525 29.6777 189.524C29.6777 189.524 29.6777 189.523 29.6777 189.523C29.6777 189.523 29.6777 189.524 29.6779 189.525C29.6782 189.528 29.6787 189.533 29.6796 189.542C29.6813 189.559 29.6842 189.587 29.688 189.626C29.6955 189.704 29.7069 189.826 29.7205 189.989C29.7478 190.317 29.7843 190.809 29.8188 191.448C29.888 192.727 29.9488 194.588 29.9118 196.877C29.8375 201.464 29.3705 207.721 27.8122 214.433C24.6892 227.885 17.3033 242.754 0.315755 250.138L2.70768 255.641ZM35.6601 189.198C35.6584 184.451 37.0337 179.804 39.621 175.818L34.5882 172.551C31.3698 177.509 29.6579 183.292 29.6601 189.2L35.6601 189.198ZM39.621 175.818C42.2083 171.831 45.8975 168.676 50.2445 166.732L47.7957 161.255C42.3938 163.67 37.8066 167.593 34.5882 172.551L39.621 175.818ZM50.2445 166.732C54.5915 164.789 59.41 164.141 64.1185 164.868L65.0334 158.938C59.1839 158.035 53.1975 158.84 47.7957 161.255L50.2445 166.732ZM64.1185 164.868C68.8269 165.594 73.2231 167.664 76.7772 170.825L80.7652 166.342C76.3465 162.411 70.8828 159.84 65.0334 158.938L64.1185 164.868Z" fill="#F0EAD5" mask="url(#path-11-inside-1_416_8287)"/>
<mask id="path-13-inside-2_416_8287" fill="white">
<path d="M75.3916 203.189C75.4684 201.919 75.2839 200.646 74.8492 199.449C74.4145 198.252 73.7389 197.156 72.864 196.229C71.989 195.303 70.9332 194.564 69.7615 194.059C68.5897 193.554 67.3269 193.294 66.0505 193.294C64.7741 193.294 63.5112 193.554 62.3395 194.059C61.1677 194.564 60.1119 195.303 59.237 196.229C58.362 197.156 57.6864 198.252 57.2518 199.449C56.8171 200.646 56.6325 201.919 56.7094 203.189"/>
</mask>
<path d="M72.397 203.008C72.297 204.662 73.5566 206.084 75.2104 206.184C76.8643 206.284 78.2861 205.024 78.3861 203.371L72.397 203.008ZM66.0505 193.294L66.0505 190.294L66.0505 193.294ZM53.7148 203.371C53.8149 205.024 55.2367 206.284 56.8905 206.184C58.5443 206.084 59.8039 204.662 59.7039 203.008L53.7148 203.371ZM78.3861 203.371C78.4877 201.69 78.2436 200.007 77.669 198.425L72.0294 200.473C72.3241 201.284 72.4491 202.147 72.397 203.008L78.3861 203.371ZM77.669 198.425C77.0943 196.842 76.2014 195.395 75.0455 194.17L70.6824 198.289C71.2764 198.918 71.7347 199.661 72.0294 200.473L77.669 198.425ZM75.0455 194.17C73.8897 192.946 72.4953 191.97 70.9485 191.304L68.5745 196.814C69.3711 197.158 70.0884 197.659 70.6824 198.289L75.0455 194.17ZM70.9485 191.304C69.4017 190.638 67.7349 190.294 66.0505 190.294L66.0505 196.294C66.9188 196.294 67.7778 196.471 68.5745 196.814L70.9485 191.304ZM66.0505 190.294C64.3661 190.294 62.6992 190.638 61.1524 191.304L63.5265 196.814C64.3232 196.471 65.1821 196.294 66.0505 196.294L66.0505 190.294ZM61.1524 191.304C59.6056 191.97 58.2113 192.946 57.0554 194.17L61.4185 198.289C62.0126 197.659 62.7298 197.158 63.5265 196.814L61.1524 191.304ZM57.0554 194.17C55.8995 195.395 55.0066 196.842 54.432 198.425L60.0716 200.473C60.3663 199.661 60.8245 198.918 61.4185 198.289L57.0554 194.17ZM54.432 198.425C53.8573 200.007 53.6132 201.69 53.7148 203.371L59.7039 203.008C59.6518 202.147 59.7769 201.284 60.0716 200.473L54.432 198.425Z" fill="#F0EAD5" mask="url(#path-13-inside-2_416_8287)"/>
<mask id="path-15-inside-3_416_8287" fill="white">
<path d="M88.0275 148.29C88.0275 148.29 67.0015 170.836 88.0275 189.181Z"/>
</mask>
<path d="M90.2215 150.336C91.3515 149.124 91.2853 147.226 90.0736 146.096C88.8619 144.966 86.9635 145.032 85.8335 146.244L90.2215 150.336ZM86.0552 191.442C87.3037 192.531 89.1988 192.402 90.288 191.153C91.3773 189.905 91.2483 188.01 89.9998 186.921L86.0552 191.442ZM88.0275 148.29C85.8335 146.244 85.8325 146.245 85.8315 146.246C85.831 146.247 85.8298 146.248 85.8289 146.249C85.8271 146.251 85.8249 146.253 85.8224 146.256C85.8174 146.261 85.8112 146.268 85.8037 146.276C85.7888 146.292 85.7688 146.314 85.7442 146.341C85.695 146.396 85.6268 146.472 85.5418 146.569C85.3717 146.762 85.1337 147.04 84.8435 147.395C84.2636 148.103 83.4716 149.124 82.595 150.405C80.851 152.954 78.7245 156.6 77.2951 160.912C75.864 165.23 75.0982 170.321 76.2212 175.669C77.3532 181.059 80.3547 186.468 86.0552 191.442L89.9998 186.921C85.1874 182.722 82.9324 178.432 82.0931 174.436C81.2449 170.397 81.7933 166.412 82.9904 162.8C84.1893 159.183 86.0052 156.046 87.5465 153.794C88.3125 152.674 88.9988 151.791 89.4867 151.195C89.7303 150.897 89.9235 150.672 90.0512 150.527C90.115 150.454 90.1624 150.401 90.1914 150.369C90.206 150.353 90.2159 150.342 90.221 150.337C90.2235 150.334 90.2248 150.333 90.2249 150.332C90.225 150.332 90.2247 150.333 90.2241 150.333C90.2239 150.334 90.2232 150.334 90.2231 150.334C90.2223 150.335 90.2215 150.336 88.0275 148.29Z" fill="#F0EAD5" mask="url(#path-15-inside-3_416_8287)"/>
<mask id="path-17-inside-4_416_8287" fill="white">
<path d="M88.0273 148.29C88.0273 148.29 98.5913 159.605 97.2665 172.716Z"/>
</mask>
<path d="M90.2202 146.243C89.0896 145.032 87.1912 144.966 85.9801 146.097C84.769 147.228 84.7038 149.126 85.8345 150.337L90.2202 146.243ZM94.2817 172.415C94.1152 174.063 95.3165 175.534 96.965 175.701C98.6134 175.868 100.085 174.666 100.251 173.018L94.2817 172.415ZM88.0273 148.29C85.8345 150.337 85.8339 150.337 85.8333 150.336C85.8332 150.336 85.8326 150.335 85.8324 150.335C85.8318 150.334 85.8315 150.334 85.8312 150.334C85.8308 150.333 85.831 150.334 85.8318 150.334C85.8334 150.336 85.8374 150.341 85.8439 150.348C85.8568 150.362 85.8791 150.386 85.9104 150.421C85.9728 150.491 86.0705 150.602 86.1979 150.751C86.4531 151.049 86.8266 151.501 87.2758 152.087C88.1766 153.263 89.3686 154.963 90.5196 157.04C92.8503 161.247 94.8573 166.718 94.2817 172.415L100.251 173.018C101.001 165.603 98.3879 158.861 95.7678 154.133C94.4435 151.742 93.0772 149.794 92.0387 148.438C91.5182 147.759 91.0768 147.224 90.7594 146.853C90.6006 146.667 90.4726 146.522 90.381 146.419C90.3351 146.368 90.2983 146.328 90.2713 146.298C90.2578 146.283 90.2468 146.271 90.2382 146.262C90.2339 146.258 90.2303 146.254 90.2273 146.25C90.2258 146.249 90.2244 146.247 90.2233 146.246C90.2227 146.245 90.2219 146.245 90.2216 146.244C90.2209 146.244 90.2202 146.243 88.0273 148.29Z" fill="#F0EAD5" mask="url(#path-17-inside-4_416_8287)"/>
<mask id="path-19-inside-5_416_8287" fill="white">
<path d="M71.1964 195.415C67.7147 208.39 74.4233 222.111 83.4927 231.411C88.829 236.782 92.8611 243.301 95.2795 250.467C96.1338 253.056 96.837 255.691 97.3855 258.361"/>
</mask>
<path d="M74.0939 196.193C74.5233 194.592 73.5741 192.947 71.9739 192.518C70.3736 192.088 68.7283 193.037 68.2989 194.638L74.0939 196.193ZM83.4927 231.411L81.345 233.505C81.3514 233.512 81.3579 233.518 81.3645 233.525L83.4927 231.411ZM95.2795 250.467L98.1283 249.527C98.1262 249.521 98.1241 249.514 98.122 249.508L95.2795 250.467ZM94.4468 258.965C94.7803 260.587 96.3663 261.633 97.9892 261.299C99.6122 260.966 100.658 259.38 100.324 257.757L94.4468 258.965ZM68.2989 194.638C64.4248 209.075 71.9224 223.843 81.345 233.505L85.6404 229.316C76.9243 220.379 71.0047 207.705 74.0939 196.193L68.2989 194.638ZM81.3645 233.525C86.3779 238.571 90.1654 244.695 92.437 251.426L98.122 249.508C95.5567 241.906 91.2802 234.992 85.6209 229.296L81.3645 233.525ZM92.4306 251.407C93.2485 253.886 93.9217 256.409 94.4468 258.965L100.324 257.757C99.7522 254.974 99.019 252.226 98.1283 249.527L92.4306 251.407Z" fill="#F0EAD5" mask="url(#path-19-inside-5_416_8287)"/>
<mask id="path-21-inside-6_416_8287" fill="white">
<path d="M120.585 206.984C121.444 207.686 121.989 208.699 122.1 209.801C122.212 210.903 121.881 212.003 121.18 212.862C115.524 218.503 117.121 227.074 121.18 233.189C127.447 248.197 114.386 252.669 97.4023 258.344"/>
</mask>
<path d="M122.484 204.661C121.201 203.613 119.311 203.803 118.262 205.086C117.214 206.369 117.404 208.259 118.687 209.307L122.484 204.661ZM121.18 212.862L123.298 214.986C123.371 214.914 123.439 214.838 123.504 214.759L121.18 212.862ZM121.18 233.189L123.948 232.033C123.875 231.857 123.785 231.689 123.679 231.53L121.18 233.189ZM96.4517 255.498C94.8802 256.023 94.0319 257.723 94.557 259.294C95.082 260.866 96.7816 261.714 98.353 261.189L96.4517 255.498ZM118.687 209.307C118.931 209.507 119.084 209.793 119.116 210.103L125.085 209.499C124.894 207.605 123.957 205.866 122.484 204.661L118.687 209.307ZM119.116 210.103C119.147 210.412 119.054 210.722 118.856 210.965L123.504 214.759C124.707 213.285 125.277 211.393 125.085 209.499L119.116 210.103ZM119.061 210.738C111.88 217.9 114.316 228.273 118.68 234.848L123.679 231.53C119.925 225.875 119.168 219.106 123.298 214.986L119.061 210.738ZM118.411 234.345C119.821 237.721 119.998 240.154 119.575 241.974C119.158 243.766 118.066 245.372 116.13 246.929C114.156 248.516 111.433 249.947 108.019 251.357C104.617 252.762 100.719 254.073 96.4517 255.498L98.353 261.189C102.578 259.778 106.681 258.401 110.309 256.903C113.925 255.409 117.26 253.72 119.89 251.604C122.559 249.458 124.618 246.777 125.419 243.332C126.213 239.916 125.672 236.161 123.948 232.033L118.411 234.345Z" fill="#F0EAD5" mask="url(#path-21-inside-6_416_8287)"/>
<mask id="path-23-inside-7_416_8287" fill="white">
<path d="M123.218 178.696C129.124 179.649 134.41 182.901 137.913 187.739C141.416 192.576 142.85 198.603 141.9 204.495C136.429 206.887 132.134 211.347 129.956 216.895C127.778 222.443 127.896 228.626 130.283 234.087C128.702 234.188 127.116 233.977 125.616 233.467C124.116 232.956 122.732 232.155 121.543 231.111C120.354 230.066 119.382 228.798 118.685 227.379C117.987 225.96 117.577 224.417 117.478 222.84"/>
</mask>
<path d="M123.696 175.735C122.06 175.471 120.52 176.583 120.256 178.219C119.993 179.854 121.105 181.394 122.74 181.658L123.696 175.735ZM141.9 204.495L143.102 207.243C144.037 206.834 144.7 205.979 144.862 204.972L141.9 204.495ZM130.283 234.087L130.475 237.081C131.451 237.019 132.336 236.484 132.845 235.649C133.354 234.813 133.424 233.782 133.032 232.885L130.283 234.087ZM120.472 222.651C120.367 220.997 118.942 219.741 117.289 219.846C115.635 219.95 114.379 221.375 114.483 223.028L120.472 222.651ZM122.74 181.658C127.864 182.484 132.447 185.305 135.483 189.498L140.343 185.979C136.373 180.497 130.385 176.813 123.696 175.735L122.74 181.658ZM135.483 189.498C138.519 193.691 139.762 198.913 138.939 204.017L144.862 204.972C145.939 198.293 144.313 191.461 140.343 185.979L135.483 189.498ZM140.698 201.746C134.501 204.456 129.632 209.509 127.163 215.799L132.748 217.991C134.635 213.184 138.358 209.318 143.102 207.243L140.698 201.746ZM127.163 215.799C124.694 222.088 124.828 229.098 127.535 235.289L133.032 232.885C130.964 228.154 130.862 222.797 132.748 217.991L127.163 215.799ZM130.092 231.093C128.903 231.169 127.71 231.011 126.583 230.627L124.649 236.307C126.521 236.944 128.501 237.207 130.475 237.081L130.092 231.093ZM126.583 230.627C125.456 230.243 124.416 229.641 123.523 228.857L119.563 233.365C121.049 234.67 122.777 235.669 124.649 236.307L126.583 230.627ZM123.523 228.857C122.629 228.072 121.9 227.12 121.377 226.055L115.992 228.702C116.864 230.476 118.078 232.06 119.563 233.365L123.523 228.857ZM121.377 226.055C120.854 224.991 120.546 223.834 120.472 222.651L114.483 223.028C114.608 225 115.121 226.928 115.992 228.702L121.377 226.055Z" fill="#F0EAD5" mask="url(#path-23-inside-7_416_8287)"/>
<mask id="path-25-inside-8_416_8287" fill="white">
<path d="M93.5303 196.482C94.7586 197.705 95.7331 199.157 96.3981 200.756C97.063 202.354 97.4052 204.068 97.4052 205.799C97.4052 207.53 97.063 209.243 96.3981 210.842C95.7331 212.441 94.7586 213.893 93.5303 215.115"/>
</mask>
<path d="M95.6466 194.356C94.4722 193.187 92.5727 193.192 91.4039 194.366C90.2351 195.54 90.2396 197.44 91.414 198.609L95.6466 194.356ZM97.4052 205.799L100.405 205.799L97.4052 205.799ZM91.414 212.989C90.2396 214.158 90.2351 216.057 91.4039 217.232C92.5727 218.406 94.4722 218.411 95.6466 217.242L91.414 212.989ZM91.414 198.609C92.3627 199.553 93.115 200.674 93.6281 201.908L99.168 199.604C98.3513 197.64 97.1545 195.857 95.6466 194.356L91.414 198.609ZM93.6281 201.908C94.1412 203.142 94.4052 204.464 94.4052 205.799L100.405 205.799C100.405 203.673 99.9848 201.567 99.168 199.604L93.6281 201.908ZM94.4052 205.799C94.4052 207.134 94.1412 208.456 93.6281 209.69L99.168 211.994C99.9847 210.031 100.405 207.925 100.405 205.799L94.4052 205.799ZM93.6281 209.69C93.115 210.924 92.3627 212.045 91.414 212.989L95.6466 217.242C97.1545 215.741 98.3513 213.958 99.168 211.994L93.6281 209.69Z" fill="#F0EAD5" mask="url(#path-25-inside-8_416_8287)"/>
<mask id="path-27-inside-9_416_8287" fill="white">
<path d="M95.2969 158.674C102.911 151.086 113.235 146.823 124 146.823C134.764 146.823 145.088 151.086 152.702 158.674"/>
</mask>
<path d="M93.1792 156.549C92.0056 157.719 92.0023 159.618 93.1719 160.792C94.3414 161.965 96.2409 161.969 97.4145 160.799L93.1792 156.549ZM150.585 160.799C151.758 161.969 153.658 161.965 154.827 160.792C155.997 159.618 155.993 157.719 154.82 156.549L150.585 160.799ZM97.4145 160.799C104.466 153.772 114.028 149.823 124 149.823V143.823C112.443 143.823 101.357 148.4 93.1792 156.549L97.4145 160.799ZM124 149.823C133.971 149.823 143.533 153.772 150.585 160.799L154.82 156.549C146.642 148.4 135.556 143.823 124 143.823V149.823Z" fill="#F0EAD5" mask="url(#path-27-inside-9_416_8287)"/>
<mask id="path-29-inside-10_416_8287" fill="white">
<path d="M73.251 163.79C77.261 135.651 91.8146 110.073 113.98 92.209C136.145 74.3453 164.274 65.5237 192.701 67.5212C221.128 69.5187 247.739 82.187 267.174 102.974C286.609 123.761 297.423 151.121 297.437 179.543"/>
</mask>
<path d="M70.281 163.367C70.0472 165.007 71.1875 166.526 72.8277 166.76C74.468 166.994 75.9872 165.853 76.221 164.213L70.281 163.367ZM294.437 179.545C294.438 181.202 295.782 182.544 297.439 182.543C299.096 182.542 300.438 181.199 300.437 179.542L294.437 179.545ZM76.221 164.213C80.1236 136.827 94.2877 111.932 115.862 94.5448L112.097 89.8731C89.3415 108.213 74.3984 134.474 70.281 163.367L76.221 164.213ZM115.862 94.5448C137.437 77.157 164.819 68.5693 192.491 70.5138L192.911 64.5286C163.73 62.478 134.853 71.5337 112.097 89.8731L115.862 94.5448ZM192.491 70.5138C220.163 72.4583 246.066 84.7902 264.983 105.023L269.366 100.925C249.412 79.5837 222.093 66.5791 192.911 64.5286L192.491 70.5138ZM264.983 105.023C283.899 125.255 294.423 151.884 294.437 179.545L300.437 179.542C300.423 150.358 289.319 122.266 269.366 100.925L264.983 105.023Z" fill="#F0EAD5" mask="url(#path-29-inside-10_416_8287)"/>
<mask id="path-31-inside-11_416_8287" fill="white">
<path d="M153.874 231.258C147.237 224.811 141.45 217.548 136.652 209.644Z"/>
</mask>
<path d="M151.784 233.41C152.972 234.564 154.872 234.537 156.026 233.348C157.18 232.16 157.153 230.26 155.964 229.106L151.784 233.41ZM139.217 208.087C138.357 206.671 136.512 206.219 135.096 207.079C133.679 207.939 133.228 209.784 134.088 211.2L139.217 208.087ZM155.964 229.106C149.51 222.837 143.882 215.774 139.217 208.087L134.088 211.2C139.017 219.323 144.964 226.786 151.784 233.41L155.964 229.106Z" fill="#F0EAD5" mask="url(#path-31-inside-11_416_8287)"/>
<mask id="path-33-inside-12_416_8287" fill="white">
<path d="M309.106 227.312C298.959 238.245 286.652 246.965 272.962 252.923C259.271 258.882 244.492 261.95 229.554 261.935C228.416 261.935 227.278 261.935 226.157 261.935"/>
</mask>
<path d="M311.305 229.352C312.432 228.138 312.361 226.24 311.147 225.113C309.933 223.986 308.035 224.056 306.907 225.271L311.305 229.352ZM229.554 261.935L229.557 258.935H229.554V261.935ZM226.157 258.935C224.5 258.935 223.157 260.278 223.157 261.935C223.157 263.592 224.5 264.935 226.157 264.935V258.935ZM306.907 225.271C297.042 235.9 285.076 244.379 271.764 250.173L274.159 255.674C288.229 249.551 300.876 240.589 311.305 229.352L306.907 225.271ZM271.764 250.173C258.452 255.966 244.082 258.95 229.557 258.935L229.551 264.935C244.901 264.951 260.089 261.798 274.159 255.674L271.764 250.173ZM229.554 258.935C229.552 258.935 229.55 258.935 229.547 258.935C229.545 258.935 229.543 258.935 229.541 258.935C229.538 258.935 229.536 258.935 229.534 258.935C229.532 258.935 229.53 258.935 229.527 258.935C229.525 258.935 229.523 258.935 229.521 258.935C229.518 258.935 229.516 258.935 229.514 258.935C229.512 258.935 229.51 258.935 229.507 258.935C229.505 258.935 229.503 258.935 229.501 258.935C229.498 258.935 229.496 258.935 229.494 258.935C229.492 258.935 229.49 258.935 229.487 258.935C229.485 258.935 229.483 258.935 229.481 258.935C229.478 258.935 229.476 258.935 229.474 258.935C229.472 258.935 229.47 258.935 229.467 258.935C229.465 258.935 229.463 258.935 229.461 258.935C229.458 258.935 229.456 258.935 229.454 258.935C229.452 258.935 229.45 258.935 229.447 258.935C229.445 258.935 229.443 258.935 229.441 258.935C229.438 258.935 229.436 258.935 229.434 258.935C229.432 258.935 229.43 258.935 229.427 258.935C229.425 258.935 229.423 258.935 229.421 258.935C229.418 258.935 229.416 258.935 229.414 258.935C229.412 258.935 229.41 258.935 229.407 258.935C229.405 258.935 229.403 258.935 229.401 258.935C229.398 258.935 229.396 258.935 229.394 258.935C229.392 258.935 229.39 258.935 229.387 258.935C229.385 258.935 229.383 258.935 229.381 258.935C229.378 258.935 229.376 258.935 229.374 258.935C229.372 258.935 229.37 258.935 229.367 258.935C229.365 258.935 229.363 258.935 229.361 258.935C229.358 258.935 229.356 258.935 229.354 258.935C229.352 258.935 229.35 258.935 229.347 258.935C229.345 258.935 229.343 258.935 229.341 258.935C229.338 258.935 229.336 258.935 229.334 258.935C229.332 258.935 229.33 258.935 229.327 258.935C229.325 258.935 229.323 258.935 229.321 258.935C229.318 258.935 229.316 258.935 229.314 258.935C229.312 258.935 229.31 258.935 229.307 258.935C229.305 258.935 229.303 258.935 229.301 258.935C229.298 258.935 229.296 258.935 229.294 258.935C229.292 258.935 229.29 258.935 229.287 258.935C229.285 258.935 229.283 258.935 229.281 258.935C229.278 258.935 229.276 258.935 229.274 258.935C229.272 258.935 229.27 258.935 229.267 258.935C229.265 258.935 229.263 258.935 229.261 258.935C229.258 258.935 229.256 258.935 229.254 258.935C229.252 258.935 229.25 258.935 229.247 258.935C229.245 258.935 229.243 258.935 229.241 258.935C229.238 258.935 229.236 258.935 229.234 258.935C229.232 258.935 229.23 258.935 229.227 258.935C229.225 258.935 229.223 258.935 229.221 258.935C229.218 258.935 229.216 258.935 229.214 258.935C229.212 258.935 229.21 258.935 229.207 258.935C229.205 258.935 229.203 258.935 229.201 258.935C229.198 258.935 229.196 258.935 229.194 258.935C229.192 258.935 229.19 258.935 229.187 258.935C229.185 258.935 229.183 258.935 229.181 258.935C229.178 258.935 229.176 258.935 229.174 258.935C229.172 258.935 229.17 258.935 229.167 258.935C229.165 258.935 229.163 258.935 229.161 258.935C229.158 258.935 229.156 258.935 229.154 258.935C229.152 258.935 229.15 258.935 229.147 258.935C229.145 258.935 229.143 258.935 229.141 258.935C229.138 258.935 229.136 258.935 229.134 258.935C229.132 258.935 229.13 258.935 229.127 258.935C229.125 258.935 229.123 258.935 229.121 258.935C229.118 258.935 229.116 258.935 229.114 258.935C229.112 258.935 229.11 258.935 229.107 258.935C229.105 258.935 229.103 258.935 229.101 258.935C229.098 258.935 229.096 258.935 229.094 258.935C229.092 258.935 229.09 258.935 229.087 258.935C229.085 258.935 229.083 258.935 229.081 258.935C229.078 258.935 229.076 258.935 229.074 258.935C229.072 258.935 229.07 258.935 229.067 258.935C229.065 258.935 229.063 258.935 229.061 258.935C229.058 258.935 229.056 258.935 229.054 258.935C229.052 258.935 229.05 258.935 229.047 258.935C229.045 258.935 229.043 258.935 229.041 258.935C229.038 258.935 229.036 258.935 229.034 258.935C229.032 258.935 229.03 258.935 229.027 258.935C229.025 258.935 229.023 258.935 229.021 258.935C229.018 258.935 229.016 258.935 229.014 258.935C229.012 258.935 229.01 258.935 229.007 258.935C229.005 258.935 229.003 258.935 229.001 258.935C228.998 258.935 228.996 258.935 228.994 258.935C228.992 258.935 228.99 258.935 228.987 258.935C228.985 258.935 228.983 258.935 228.981 258.935C228.978 258.935 228.976 258.935 228.974 258.935C228.972 258.935 228.97 258.935 228.967 258.935C228.965 258.935 228.963 258.935 228.961 258.935C228.958 258.935 228.956 258.935 228.954 258.935C228.952 258.935 228.95 258.935 228.947 258.935C228.945 258.935 228.943 258.935 228.941 258.935C228.938 258.935 228.936 258.935 228.934 258.935C228.932 258.935 228.93 258.935 228.927 258.935C228.925 258.935 228.923 258.935 228.921 258.935C228.918 258.935 228.916 258.935 228.914 258.935C228.912 258.935 228.91 258.935 228.907 258.935C228.905 258.935 228.903 258.935 228.901 258.935C228.898 258.935 228.896 258.935 228.894 258.935C228.892 258.935 228.89 258.935 228.887 258.935C228.885 258.935 228.883 258.935 228.881 258.935C228.878 258.935 228.876 258.935 228.874 258.935C228.872 258.935 228.87 258.935 228.867 258.935C228.865 258.935 228.863 258.935 228.861 258.935C228.858 258.935 228.856 258.935 228.854 258.935C228.852 258.935 228.85 258.935 228.847 258.935C228.845 258.935 228.843 258.935 228.841 258.935C228.839 258.935 228.836 258.935 228.834 258.935C228.832 258.935 228.83 258.935 228.827 258.935C228.825 258.935 228.823 258.935 228.821 258.935C228.819 258.935 228.816 258.935 228.814 258.935C228.812 258.935 228.81 258.935 228.807 258.935C228.805 258.935 228.803 258.935 228.801 258.935C228.799 258.935 228.796 258.935 228.794 258.935C228.792 258.935 228.79 258.935 228.787 258.935C228.785 258.935 228.783 258.935 228.781 258.935C228.779 258.935 228.776 258.935 228.774 258.935C228.772 258.935 228.77 258.935 228.767 258.935C228.765 258.935 228.763 258.935 228.761 258.935C228.759 258.935 228.756 258.935 228.754 258.935C228.752 258.935 228.75 258.935 228.747 258.935C228.745 258.935 228.743 258.935 228.741 258.935C228.739 258.935 228.736 258.935 228.734 258.935C228.732 258.935 228.73 258.935 228.727 258.935C228.725 258.935 228.723 258.935 228.721 258.935C228.719 258.935 228.716 258.935 228.714 258.935C228.712 258.935 228.71 258.935 228.707 258.935C228.705 258.935 228.703 258.935 228.701 258.935C228.699 258.935 228.696 258.935 228.694 258.935C228.692 258.935 228.69 258.935 228.687 258.935C228.685 258.935 228.683 258.935 228.681 258.935C228.679 258.935 228.676 258.935 228.674 258.935C228.672 258.935 228.67 258.935 228.668 258.935C228.665 258.935 228.663 258.935 228.661 258.935C228.659 258.935 228.656 258.935 228.654 258.935C228.652 258.935 228.65 258.935 228.648 258.935C228.645 258.935 228.643 258.935 228.641 258.935C228.639 258.935 228.636 258.935 228.634 258.935C228.632 258.935 228.63 258.935 228.628 258.935C228.625 258.935 228.623 258.935 228.621 258.935C228.619 258.935 228.616 258.935 228.614 258.935C228.612 258.935 228.61 258.935 228.608 258.935C228.605 258.935 228.603 258.935 228.601 258.935C228.599 258.935 228.596 258.935 228.594 258.935C228.592 258.935 228.59 258.935 228.588 258.935C228.585 258.935 228.583 258.935 228.581 258.935C228.579 258.935 228.576 258.935 228.574 258.935C228.572 258.935 228.57 258.935 228.568 258.935C228.565 258.935 228.563 258.935 228.561 258.935C228.559 258.935 228.557 258.935 228.554 258.935C228.552 258.935 228.55 258.935 228.548 258.935C228.545 258.935 228.543 258.935 228.541 258.935C228.539 258.935 228.537 258.935 228.534 258.935C228.532 258.935 228.53 258.935 228.528 258.935C228.525 258.935 228.523 258.935 228.521 258.935C228.519 258.935 228.517 258.935 228.514 258.935C228.512 258.935 228.51 258.935 228.508 258.935C228.505 258.935 228.503 258.935 228.501 258.935C228.499 258.935 228.497 258.935 228.494 258.935C228.492 258.935 228.49 258.935 228.488 258.935C228.485 258.935 228.483 258.935 228.481 258.935C228.479 258.935 228.477 258.935 228.474 258.935C228.472 258.935 228.47 258.935 228.468 258.935C228.466 258.935 228.463 258.935 228.461 258.935C228.459 258.935 228.457 258.935 228.454 258.935C228.452 258.935 228.45 258.935 228.448 258.935C228.446 258.935 228.443 258.935 228.441 258.935C228.439 258.935 228.437 258.935 228.434 258.935C228.432 258.935 228.43 258.935 228.428 258.935C228.426 258.935 228.423 258.935 228.421 258.935C228.419 258.935 228.417 258.935 228.414 258.935C228.412 258.935 228.41 258.935 228.408 258.935C228.406 258.935 228.403 258.935 228.401 258.935C228.399 258.935 228.397 258.935 228.395 258.935C228.392 258.935 228.39 258.935 228.388 258.935C228.386 258.935 228.383 258.935 228.381 258.935C228.379 258.935 228.377 258.935 228.375 258.935C228.372 258.935 228.37 258.935 228.368 258.935C228.366 258.935 228.363 258.935 228.361 258.935C228.359 258.935 228.357 258.935 228.355 258.935C228.352 258.935 228.35 258.935 228.348 258.935C228.346 258.935 228.343 258.935 228.341 258.935C228.339 258.935 228.337 258.935 228.335 258.935C228.332 258.935 228.33 258.935 228.328 258.935C228.326 258.935 228.324 258.935 228.321 258.935C228.319 258.935 228.317 258.935 228.315 258.935C228.312 258.935 228.31 258.935 228.308 258.935C228.306 258.935 228.304 258.935 228.301 258.935C228.299 258.935 228.297 258.935 228.295 258.935C228.292 258.935 228.29 258.935 228.288 258.935C228.286 258.935 228.284 258.935 228.281 258.935C228.279 258.935 228.277 258.935 228.275 258.935C228.273 258.935 228.27 258.935 228.268 258.935C228.266 258.935 228.264 258.935 228.261 258.935C228.259 258.935 228.257 258.935 228.255 258.935C228.253 258.935 228.25 258.935 228.248 258.935C228.246 258.935 228.244 258.935 228.241 258.935C228.239 258.935 228.237 258.935 228.235 258.935C228.233 258.935 228.23 258.935 228.228 258.935C228.226 258.935 228.224 258.935 228.222 258.935C228.219 258.935 228.217 258.935 228.215 258.935C228.213 258.935 228.21 258.935 228.208 258.935C228.206 258.935 228.204 258.935 228.202 258.935C228.199 258.935 228.197 258.935 228.195 258.935C228.193 258.935 228.19 258.935 228.188 258.935C228.186 258.935 228.184 258.935 228.182 258.935C228.179 258.935 228.177 258.935 228.175 258.935C228.173 258.935 228.171 258.935 228.168 258.935C228.166 258.935 228.164 258.935 228.162 258.935C228.159 258.935 228.157 258.935 228.155 258.935C228.153 258.935 228.151 258.935 228.148 258.935C228.146 258.935 228.144 258.935 228.142 258.935C228.139 258.935 228.137 258.935 228.135 258.935C228.133 258.935 228.131 258.935 228.128 258.935C228.126 258.935 228.124 258.935 228.122 258.935C228.12 258.935 228.117 258.935 228.115 258.935C228.113 258.935 228.111 258.935 228.108 258.935C228.106 258.935 228.104 258.935 228.102 258.935C228.1 258.935 228.097 258.935 228.095 258.935C228.093 258.935 228.091 258.935 228.088 258.935C228.086 258.935 228.084 258.935 228.082 258.935C228.08 258.935 228.077 258.935 228.075 258.935C228.073 258.935 228.071 258.935 228.069 258.935C228.066 258.935 228.064 258.935 228.062 258.935C228.06 258.935 228.057 258.935 228.055 258.935C228.053 258.935 228.051 258.935 228.049 258.935C228.046 258.935 228.044 258.935 228.042 258.935C228.04 258.935 228.038 258.935 228.035 258.935C228.033 258.935 228.031 258.935 228.029 258.935C228.026 258.935 228.024 258.935 228.022 258.935C228.02 258.935 228.018 258.935 228.015 258.935C228.013 258.935 228.011 258.935 228.009 258.935C228.007 258.935 228.004 258.935 228.002 258.935C228 258.935 227.998 258.935 227.995 258.935C227.993 258.935 227.991 258.935 227.989 258.935C227.987 258.935 227.984 258.935 227.982 258.935C227.98 258.935 227.978 258.935 227.975 258.935C227.973 258.935 227.971 258.935 227.969 258.935C227.967 258.935 227.964 258.935 227.962 258.935C227.96 258.935 227.958 258.935 227.956 258.935C227.953 258.935 227.951 258.935 227.949 258.935C227.947 258.935 227.944 258.935 227.942 258.935C227.94 258.935 227.938 258.935 227.936 258.935C227.933 258.935 227.931 258.935 227.929 258.935C227.927 258.935 227.925 258.935 227.922 258.935C227.92 258.935 227.918 258.935 227.916 258.935C227.913 258.935 227.911 258.935 227.909 258.935C227.907 258.935 227.905 258.935 227.902 258.935C227.9 258.935 227.898 258.935 227.896 258.935C227.894 258.935 227.891 258.935 227.889 258.935C227.887 258.935 227.885 258.935 227.882 258.935C227.88 258.935 227.878 258.935 227.876 258.935C227.874 258.935 227.871 258.935 227.869 258.935C227.867 258.935 227.865 258.935 227.863 258.935C227.86 258.935 227.858 258.935 227.856 258.935C227.854 258.935 227.851 258.935 227.849 258.935C227.847 258.935 227.845 258.935 227.843 258.935C227.84 258.935 227.838 258.935 227.836 258.935C227.834 258.935 227.832 258.935 227.829 258.935C227.827 258.935 227.825 258.935 227.823 258.935C227.82 258.935 227.818 258.935 227.816 258.935C227.814 258.935 227.812 258.935 227.809 258.935C227.807 258.935 227.805 258.935 227.803 258.935C227.801 258.935 227.798 258.935 227.796 258.935C227.794 258.935 227.792 258.935 227.789 258.935C227.787 258.935 227.785 258.935 227.783 258.935C227.781 258.935 227.778 258.935 227.776 258.935C227.774 258.935 227.772 258.935 227.77 258.935C227.767 258.935 227.765 258.935 227.763 258.935C227.761 258.935 227.758 258.935 227.756 258.935C227.754 258.935 227.752 258.935 227.75 258.935C227.747 258.935 227.745 258.935 227.743 258.935C227.741 258.935 227.739 258.935 227.736 258.935C227.734 258.935 227.732 258.935 227.73 258.935C227.727 258.935 227.725 258.935 227.723 258.935C227.721 258.935 227.719 258.935 227.716 258.935C227.714 258.935 227.712 258.935 227.71 258.935C227.708 258.935 227.705 258.935 227.703 258.935C227.701 258.935 227.699 258.935 227.697 258.935C227.694 258.935 227.692 258.935 227.69 258.935C227.688 258.935 227.685 258.935 227.683 258.935C227.681 258.935 227.679 258.935 227.677 258.935C227.674 258.935 227.672 258.935 227.67 258.935C227.668 258.935 227.666 258.935 227.663 258.935C227.661 258.935 227.659 258.935 227.657 258.935C227.654 258.935 227.652 258.935 227.65 258.935C227.648 258.935 227.646 258.935 227.643 258.935C227.641 258.935 227.639 258.935 227.637 258.935C227.635 258.935 227.632 258.935 227.63 258.935C227.628 258.935 227.626 258.935 227.624 258.935C227.621 258.935 227.619 258.935 227.617 258.935C227.615 258.935 227.612 258.935 227.61 258.935C227.608 258.935 227.606 258.935 227.604 258.935C227.601 258.935 227.599 258.935 227.597 258.935C227.595 258.935 227.593 258.935 227.59 258.935C227.588 258.935 227.586 258.935 227.584 258.935C227.581 258.935 227.579 258.935 227.577 258.935C227.575 258.935 227.573 258.935 227.57 258.935C227.568 258.935 227.566 258.935 227.564 258.935C227.562 258.935 227.559 258.935 227.557 258.935C227.555 258.935 227.553 258.935 227.551 258.935C227.548 258.935 227.546 258.935 227.544 258.935C227.542 258.935 227.539 258.935 227.537 258.935C227.535 258.935 227.533 258.935 227.531 258.935C227.528 258.935 227.526 258.935 227.524 258.935C227.522 258.935 227.52 258.935 227.517 258.935C227.515 258.935 227.513 258.935 227.511 258.935C227.509 258.935 227.506 258.935 227.504 258.935C227.502 258.935 227.5 258.935 227.497 258.935C227.495 258.935 227.493 258.935 227.491 258.935C227.489 258.935 227.486 258.935 227.484 258.935C227.482 258.935 227.48 258.935 227.478 258.935C227.475 258.935 227.473 258.935 227.471 258.935C227.469 258.935 227.467 258.935 227.464 258.935C227.462 258.935 227.46 258.935 227.458 258.935C227.455 258.935 227.453 258.935 227.451 258.935C227.449 258.935 227.447 258.935 227.444 258.935C227.442 258.935 227.44 258.935 227.438 258.935C227.436 258.935 227.433 258.935 227.431 258.935C227.429 258.935 227.427 258.935 227.425 258.935C227.422 258.935 227.42 258.935 227.418 258.935C227.416 258.935 227.413 258.935 227.411 258.935C227.409 258.935 227.407 258.935 227.405 258.935C227.402 258.935 227.4 258.935 227.398 258.935C227.396 258.935 227.394 258.935 227.391 258.935C227.389 258.935 227.387 258.935 227.385 258.935C227.383 258.935 227.38 258.935 227.378 258.935C227.376 258.935 227.374 258.935 227.372 258.935C227.369 258.935 227.367 258.935 227.365 258.935C227.363 258.935 227.36 258.935 227.358 258.935C227.356 258.935 227.354 258.935 227.352 258.935C227.349 258.935 227.347 258.935 227.345 258.935C227.343 258.935 227.341 258.935 227.338 258.935C227.336 258.935 227.334 258.935 227.332 258.935C227.33 258.935 227.327 258.935 227.325 258.935C227.323 258.935 227.321 258.935 227.319 258.935C227.316 258.935 227.314 258.935 227.312 258.935C227.31 258.935 227.307 258.935 227.305 258.935C227.303 258.935 227.301 258.935 227.299 258.935C227.296 258.935 227.294 258.935 227.292 258.935C227.29 258.935 227.288 258.935 227.285 258.935C227.283 258.935 227.281 258.935 227.279 258.935C227.277 258.935 227.274 258.935 227.272 258.935C227.27 258.935 227.268 258.935 227.266 258.935C227.263 258.935 227.261 258.935 227.259 258.935C227.257 258.935 227.254 258.935 227.252 258.935C227.25 258.935 227.248 258.935 227.246 258.935C227.243 258.935 227.241 258.935 227.239 258.935C227.237 258.935 227.235 258.935 227.232 258.935C227.23 258.935 227.228 258.935 227.226 258.935C227.224 258.935 227.221 258.935 227.219 258.935C227.217 258.935 227.215 258.935 227.213 258.935C227.21 258.935 227.208 258.935 227.206 258.935C227.204 258.935 227.202 258.935 227.199 258.935C227.197 258.935 227.195 258.935 227.193 258.935C227.19 258.935 227.188 258.935 227.186 258.935C227.184 258.935 227.182 258.935 227.179 258.935C227.177 258.935 227.175 258.935 227.173 258.935C227.171 258.935 227.168 258.935 227.166 258.935C227.164 258.935 227.162 258.935 227.16 258.935C227.157 258.935 227.155 258.935 227.153 258.935C227.151 258.935 227.149 258.935 227.146 258.935C227.144 258.935 227.142 258.935 227.14 258.935C227.138 258.935 227.135 258.935 227.133 258.935C227.131 258.935 227.129 258.935 227.127 258.935C227.124 258.935 227.122 258.935 227.12 258.935C227.118 258.935 227.115 258.935 227.113 258.935C227.111 258.935 227.109 258.935 227.107 258.935C227.104 258.935 227.102 258.935 227.1 258.935C227.098 258.935 227.096 258.935 227.093 258.935C227.091 258.935 227.089 258.935 227.087 258.935C227.085 258.935 227.082 258.935 227.08 258.935C227.078 258.935 227.076 258.935 227.074 258.935C227.071 258.935 227.069 258.935 227.067 258.935C227.065 258.935 227.063 258.935 227.06 258.935C227.058 258.935 227.056 258.935 227.054 258.935C227.052 258.935 227.049 258.935 227.047 258.935C227.045 258.935 227.043 258.935 227.041 258.935C227.038 258.935 227.036 258.935 227.034 258.935C227.032 258.935 227.029 258.935 227.027 258.935C227.025 258.935 227.023 258.935 227.021 258.935C227.018 258.935 227.016 258.935 227.014 258.935C227.012 258.935 227.01 258.935 227.007 258.935C227.005 258.935 227.003 258.935 227.001 258.935C226.999 258.935 226.996 258.935 226.994 258.935C226.992 258.935 226.99 258.935 226.988 258.935C226.985 258.935 226.983 258.935 226.981 258.935C226.979 258.935 226.977 258.935 226.974 258.935C226.972 258.935 226.97 258.935 226.968 258.935C226.966 258.935 226.963 258.935 226.961 258.935C226.959 258.935 226.957 258.935 226.955 258.935C226.952 258.935 226.95 258.935 226.948 258.935C226.946 258.935 226.944 258.935 226.941 258.935C226.939 258.935 226.937 258.935 226.935 258.935C226.933 258.935 226.93 258.935 226.928 258.935C226.926 258.935 226.924 258.935 226.922 258.935C226.919 258.935 226.917 258.935 226.915 258.935C226.913 258.935 226.911 258.935 226.908 258.935C226.906 258.935 226.904 258.935 226.902 258.935C226.9 258.935 226.897 258.935 226.895 258.935C226.893 258.935 226.891 258.935 226.888 258.935C226.886 258.935 226.884 258.935 226.882 258.935C226.88 258.935 226.877 258.935 226.875 258.935C226.873 258.935 226.871 258.935 226.869 258.935C226.866 258.935 226.864 258.935 226.862 258.935C226.86 258.935 226.858 258.935 226.855 258.935C226.853 258.935 226.851 258.935 226.849 258.935C226.847 258.935 226.844 258.935 226.842 258.935C226.84 258.935 226.838 258.935 226.836 258.935C226.833 258.935 226.831 258.935 226.829 258.935C226.827 258.935 226.825 258.935 226.822 258.935C226.82 258.935 226.818 258.935 226.816 258.935C226.814 258.935 226.811 258.935 226.809 258.935C226.807 258.935 226.805 258.935 226.803 258.935C226.8 258.935 226.798 258.935 226.796 258.935C226.794 258.935 226.792 258.935 226.789 258.935C226.787 258.935 226.785 258.935 226.783 258.935C226.781 258.935 226.778 258.935 226.776 258.935C226.774 258.935 226.772 258.935 226.77 258.935C226.767 258.935 226.765 258.935 226.763 258.935C226.761 258.935 226.759 258.935 226.756 258.935C226.754 258.935 226.752 258.935 226.75 258.935C226.748 258.935 226.745 258.935 226.743 258.935C226.741 258.935 226.739 258.935 226.737 258.935C226.734 258.935 226.732 258.935 226.73 258.935C226.728 258.935 226.726 258.935 226.723 258.935C226.721 258.935 226.719 258.935 226.717 258.935C226.715 258.935 226.712 258.935 226.71 258.935C226.708 258.935 226.706 258.935 226.704 258.935C226.701 258.935 226.699 258.935 226.697 258.935C226.695 258.935 226.693 258.935 226.69 258.935C226.688 258.935 226.686 258.935 226.684 258.935C226.682 258.935 226.679 258.935 226.677 258.935C226.675 258.935 226.673 258.935 226.671 258.935C226.668 258.935 226.666 258.935 226.664 258.935C226.662 258.935 226.66 258.935 226.657 258.935C226.655 258.935 226.653 258.935 226.651 258.935C226.649 258.935 226.646 258.935 226.644 258.935C226.642 258.935 226.64 258.935 226.638 258.935C226.635 258.935 226.633 258.935 226.631 258.935C226.629 258.935 226.627 258.935 226.624 258.935C226.622 258.935 226.62 258.935 226.618 258.935C226.616 258.935 226.613 258.935 226.611 258.935C226.609 258.935 226.607 258.935 226.605 258.935C226.603 258.935 226.6 258.935 226.598 258.935C226.596 258.935 226.594 258.935 226.592 258.935C226.589 258.935 226.587 258.935 226.585 258.935C226.583 258.935 226.581 258.935 226.578 258.935C226.576 258.935 226.574 258.935 226.572 258.935C226.57 258.935 226.567 258.935 226.565 258.935C226.563 258.935 226.561 258.935 226.559 258.935C226.556 258.935 226.554 258.935 226.552 258.935C226.55 258.935 226.548 258.935 226.545 258.935C226.543 258.935 226.541 258.935 226.539 258.935C226.537 258.935 226.534 258.935 226.532 258.935C226.53 258.935 226.528 258.935 226.526 258.935C226.523 258.935 226.521 258.935 226.519 258.935C226.517 258.935 226.515 258.935 226.512 258.935C226.51 258.935 226.508 258.935 226.506 258.935C226.504 258.935 226.501 258.935 226.499 258.935C226.497 258.935 226.495 258.935 226.493 258.935C226.49 258.935 226.488 258.935 226.486 258.935C226.484 258.935 226.482 258.935 226.48 258.935C226.477 258.935 226.475 258.935 226.473 258.935C226.471 258.935 226.469 258.935 226.466 258.935C226.464 258.935 226.462 258.935 226.46 258.935C226.458 258.935 226.455 258.935 226.453 258.935C226.451 258.935 226.449 258.935 226.447 258.935C226.444 258.935 226.442 258.935 226.44 258.935C226.438 258.935 226.436 258.935 226.433 258.935C226.431 258.935 226.429 258.935 226.427 258.935C226.425 258.935 226.422 258.935 226.42 258.935C226.418 258.935 226.416 258.935 226.414 258.935C226.411 258.935 226.409 258.935 226.407 258.935C226.405 258.935 226.403 258.935 226.401 258.935C226.398 258.935 226.396 258.935 226.394 258.935C226.392 258.935 226.39 258.935 226.387 258.935C226.385 258.935 226.383 258.935 226.381 258.935C226.379 258.935 226.376 258.935 226.374 258.935C226.372 258.935 226.37 258.935 226.368 258.935C226.365 258.935 226.363 258.935 226.361 258.935C226.359 258.935 226.357 258.935 226.354 258.935C226.352 258.935 226.35 258.935 226.348 258.935C226.346 258.935 226.343 258.935 226.341 258.935C226.339 258.935 226.337 258.935 226.335 258.935C226.333 258.935 226.33 258.935 226.328 258.935C226.326 258.935 226.324 258.935 226.322 258.935C226.319 258.935 226.317 258.935 226.315 258.935C226.313 258.935 226.311 258.935 226.308 258.935C226.306 258.935 226.304 258.935 226.302 258.935C226.3 258.935 226.297 258.935 226.295 258.935C226.293 258.935 226.291 258.935 226.289 258.935C226.286 258.935 226.284 258.935 226.282 258.935C226.28 258.935 226.278 258.935 226.276 258.935C226.273 258.935 226.271 258.935 226.269 258.935C226.267 258.935 226.265 258.935 226.262 258.935C226.26 258.935 226.258 258.935 226.256 258.935C226.254 258.935 226.251 258.935 226.249 258.935C226.247 258.935 226.245 258.935 226.243 258.935C226.24 258.935 226.238 258.935 226.236 258.935C226.234 258.935 226.232 258.935 226.229 258.935C226.227 258.935 226.225 258.935 226.223 258.935C226.221 258.935 226.219 258.935 226.216 258.935C226.214 258.935 226.212 258.935 226.21 258.935C226.208 258.935 226.205 258.935 226.203 258.935C226.201 258.935 226.199 258.935 226.197 258.935C226.194 258.935 226.192 258.935 226.19 258.935C226.188 258.935 226.186 258.935 226.184 258.935C226.181 258.935 226.179 258.935 226.177 258.935C226.175 258.935 226.173 258.935 226.17 258.935C226.168 258.935 226.166 258.935 226.164 258.935C226.162 258.935 226.159 258.935 226.157 258.935V264.935C226.159 264.935 226.162 264.935 226.164 264.935C226.166 264.935 226.168 264.935 226.17 264.935C226.173 264.935 226.175 264.935 226.177 264.935C226.179 264.935 226.181 264.935 226.184 264.935C226.186 264.935 226.188 264.935 226.19 264.935C226.192 264.935 226.194 264.935 226.197 264.935C226.199 264.935 226.201 264.935 226.203 264.935C226.205 264.935 226.208 264.935 226.21 264.935C226.212 264.935 226.214 264.935 226.216 264.935C226.219 264.935 226.221 264.935 226.223 264.935C226.225 264.935 226.227 264.935 226.229 264.935C226.232 264.935 226.234 264.935 226.236 264.935C226.238 264.935 226.24 264.935 226.243 264.935C226.245 264.935 226.247 264.935 226.249 264.935C226.251 264.935 226.254 264.935 226.256 264.935C226.258 264.935 226.26 264.935 226.262 264.935C226.265 264.935 226.267 264.935 226.269 264.935C226.271 264.935 226.273 264.935 226.276 264.935C226.278 264.935 226.28 264.935 226.282 264.935C226.284 264.935 226.286 264.935 226.289 264.935C226.291 264.935 226.293 264.935 226.295 264.935C226.297 264.935 226.3 264.935 226.302 264.935C226.304 264.935 226.306 264.935 226.308 264.935C226.311 264.935 226.313 264.935 226.315 264.935C226.317 264.935 226.319 264.935 226.322 264.935C226.324 264.935 226.326 264.935 226.328 264.935C226.33 264.935 226.333 264.935 226.335 264.935C226.337 264.935 226.339 264.935 226.341 264.935C226.343 264.935 226.346 264.935 226.348 264.935C226.35 264.935 226.352 264.935 226.354 264.935C226.357 264.935 226.359 264.935 226.361 264.935C226.363 264.935 226.365 264.935 226.368 264.935C226.37 264.935 226.372 264.935 226.374 264.935C226.376 264.935 226.379 264.935 226.381 264.935C226.383 264.935 226.385 264.935 226.387 264.935C226.39 264.935 226.392 264.935 226.394 264.935C226.396 264.935 226.398 264.935 226.401 264.935C226.403 264.935 226.405 264.935 226.407 264.935C226.409 264.935 226.411 264.935 226.414 264.935C226.416 264.935 226.418 264.935 226.42 264.935C226.422 264.935 226.425 264.935 226.427 264.935C226.429 264.935 226.431 264.935 226.433 264.935C226.436 264.935 226.438 264.935 226.44 264.935C226.442 264.935 226.444 264.935 226.447 264.935C226.449 264.935 226.451 264.935 226.453 264.935C226.455 264.935 226.458 264.935 226.46 264.935C226.462 264.935 226.464 264.935 226.466 264.935C226.469 264.935 226.471 264.935 226.473 264.935C226.475 264.935 226.477 264.935 226.48 264.935C226.482 264.935 226.484 264.935 226.486 264.935C226.488 264.935 226.49 264.935 226.493 264.935C226.495 264.935 226.497 264.935 226.499 264.935C226.501 264.935 226.504 264.935 226.506 264.935C226.508 264.935 226.51 264.935 226.512 264.935C226.515 264.935 226.517 264.935 226.519 264.935C226.521 264.935 226.523 264.935 226.526 264.935C226.528 264.935 226.53 264.935 226.532 264.935C226.534 264.935 226.537 264.935 226.539 264.935C226.541 264.935 226.543 264.935 226.545 264.935C226.548 264.935 226.55 264.935 226.552 264.935C226.554 264.935 226.556 264.935 226.559 264.935C226.561 264.935 226.563 264.935 226.565 264.935C226.567 264.935 226.57 264.935 226.572 264.935C226.574 264.935 226.576 264.935 226.578 264.935C226.581 264.935 226.583 264.935 226.585 264.935C226.587 264.935 226.589 264.935 226.592 264.935C226.594 264.935 226.596 264.935 226.598 264.935C226.6 264.935 226.603 264.935 226.605 264.935C226.607 264.935 226.609 264.935 226.611 264.935C226.613 264.935 226.616 264.935 226.618 264.935C226.62 264.935 226.622 264.935 226.624 264.935C226.627 264.935 226.629 264.935 226.631 264.935C226.633 264.935 226.635 264.935 226.638 264.935C226.64 264.935 226.642 264.935 226.644 264.935C226.646 264.935 226.649 264.935 226.651 264.935C226.653 264.935 226.655 264.935 226.657 264.935C226.66 264.935 226.662 264.935 226.664 264.935C226.666 264.935 226.668 264.935 226.671 264.935C226.673 264.935 226.675 264.935 226.677 264.935C226.679 264.935 226.682 264.935 226.684 264.935C226.686 264.935 226.688 264.935 226.69 264.935C226.693 264.935 226.695 264.935 226.697 264.935C226.699 264.935 226.701 264.935 226.704 264.935C226.706 264.935 226.708 264.935 226.71 264.935C226.712 264.935 226.715 264.935 226.717 264.935C226.719 264.935 226.721 264.935 226.723 264.935C226.726 264.935 226.728 264.935 226.73 264.935C226.732 264.935 226.734 264.935 226.737 264.935C226.739 264.935 226.741 264.935 226.743 264.935C226.745 264.935 226.748 264.935 226.75 264.935C226.752 264.935 226.754 264.935 226.756 264.935C226.759 264.935 226.761 264.935 226.763 264.935C226.765 264.935 226.767 264.935 226.77 264.935C226.772 264.935 226.774 264.935 226.776 264.935C226.778 264.935 226.781 264.935 226.783 264.935C226.785 264.935 226.787 264.935 226.789 264.935C226.792 264.935 226.794 264.935 226.796 264.935C226.798 264.935 226.8 264.935 226.803 264.935C226.805 264.935 226.807 264.935 226.809 264.935C226.811 264.935 226.814 264.935 226.816 264.935C226.818 264.935 226.82 264.935 226.822 264.935C226.825 264.935 226.827 264.935 226.829 264.935C226.831 264.935 226.833 264.935 226.836 264.935C226.838 264.935 226.84 264.935 226.842 264.935C226.844 264.935 226.847 264.935 226.849 264.935C226.851 264.935 226.853 264.935 226.855 264.935C226.858 264.935 226.86 264.935 226.862 264.935C226.864 264.935 226.866 264.935 226.869 264.935C226.871 264.935 226.873 264.935 226.875 264.935C226.877 264.935 226.88 264.935 226.882 264.935C226.884 264.935 226.886 264.935 226.888 264.935C226.891 264.935 226.893 264.935 226.895 264.935C226.897 264.935 226.9 264.935 226.902 264.935C226.904 264.935 226.906 264.935 226.908 264.935C226.911 264.935 226.913 264.935 226.915 264.935C226.917 264.935 226.919 264.935 226.922 264.935C226.924 264.935 226.926 264.935 226.928 264.935C226.93 264.935 226.933 264.935 226.935 264.935C226.937 264.935 226.939 264.935 226.941 264.935C226.944 264.935 226.946 264.935 226.948 264.935C226.95 264.935 226.952 264.935 226.955 264.935C226.957 264.935 226.959 264.935 226.961 264.935C226.963 264.935 226.966 264.935 226.968 264.935C226.97 264.935 226.972 264.935 226.974 264.935C226.977 264.935 226.979 264.935 226.981 264.935C226.983 264.935 226.985 264.935 226.988 264.935C226.99 264.935 226.992 264.935 226.994 264.935C226.996 264.935 226.999 264.935 227.001 264.935C227.003 264.935 227.005 264.935 227.007 264.935C227.01 264.935 227.012 264.935 227.014 264.935C227.016 264.935 227.018 264.935 227.021 264.935C227.023 264.935 227.025 264.935 227.027 264.935C227.029 264.935 227.032 264.935 227.034 264.935C227.036 264.935 227.038 264.935 227.041 264.935C227.043 264.935 227.045 264.935 227.047 264.935C227.049 264.935 227.052 264.935 227.054 264.935C227.056 264.935 227.058 264.935 227.06 264.935C227.063 264.935 227.065 264.935 227.067 264.935C227.069 264.935 227.071 264.935 227.074 264.935C227.076 264.935 227.078 264.935 227.08 264.935C227.082 264.935 227.085 264.935 227.087 264.935C227.089 264.935 227.091 264.935 227.093 264.935C227.096 264.935 227.098 264.935 227.1 264.935C227.102 264.935 227.104 264.935 227.107 264.935C227.109 264.935 227.111 264.935 227.113 264.935C227.115 264.935 227.118 264.935 227.12 264.935C227.122 264.935 227.124 264.935 227.127 264.935C227.129 264.935 227.131 264.935 227.133 264.935C227.135 264.935 227.138 264.935 227.14 264.935C227.142 264.935 227.144 264.935 227.146 264.935C227.149 264.935 227.151 264.935 227.153 264.935C227.155 264.935 227.157 264.935 227.16 264.935C227.162 264.935 227.164 264.935 227.166 264.935C227.168 264.935 227.171 264.935 227.173 264.935C227.175 264.935 227.177 264.935 227.179 264.935C227.182 264.935 227.184 264.935 227.186 264.935C227.188 264.935 227.19 264.935 227.193 264.935C227.195 264.935 227.197 264.935 227.199 264.935C227.202 264.935 227.204 264.935 227.206 264.935C227.208 264.935 227.21 264.935 227.213 264.935C227.215 264.935 227.217 264.935 227.219 264.935C227.221 264.935 227.224 264.935 227.226 264.935C227.228 264.935 227.23 264.935 227.232 264.935C227.235 264.935 227.237 264.935 227.239 264.935C227.241 264.935 227.243 264.935 227.246 264.935C227.248 264.935 227.25 264.935 227.252 264.935C227.254 264.935 227.257 264.935 227.259 264.935C227.261 264.935 227.263 264.935 227.266 264.935C227.268 264.935 227.27 264.935 227.272 264.935C227.274 264.935 227.277 264.935 227.279 264.935C227.281 264.935 227.283 264.935 227.285 264.935C227.288 264.935 227.29 264.935 227.292 264.935C227.294 264.935 227.296 264.935 227.299 264.935C227.301 264.935 227.303 264.935 227.305 264.935C227.307 264.935 227.31 264.935 227.312 264.935C227.314 264.935 227.316 264.935 227.319 264.935C227.321 264.935 227.323 264.935 227.325 264.935C227.327 264.935 227.33 264.935 227.332 264.935C227.334 264.935 227.336 264.935 227.338 264.935C227.341 264.935 227.343 264.935 227.345 264.935C227.347 264.935 227.349 264.935 227.352 264.935C227.354 264.935 227.356 264.935 227.358 264.935C227.36 264.935 227.363 264.935 227.365 264.935C227.367 264.935 227.369 264.935 227.372 264.935C227.374 264.935 227.376 264.935 227.378 264.935C227.38 264.935 227.383 264.935 227.385 264.935C227.387 264.935 227.389 264.935 227.391 264.935C227.394 264.935 227.396 264.935 227.398 264.935C227.4 264.935 227.402 264.935 227.405 264.935C227.407 264.935 227.409 264.935 227.411 264.935C227.413 264.935 227.416 264.935 227.418 264.935C227.42 264.935 227.422 264.935 227.425 264.935C227.427 264.935 227.429 264.935 227.431 264.935C227.433 264.935 227.436 264.935 227.438 264.935C227.44 264.935 227.442 264.935 227.444 264.935C227.447 264.935 227.449 264.935 227.451 264.935C227.453 264.935 227.455 264.935 227.458 264.935C227.46 264.935 227.462 264.935 227.464 264.935C227.467 264.935 227.469 264.935 227.471 264.935C227.473 264.935 227.475 264.935 227.478 264.935C227.48 264.935 227.482 264.935 227.484 264.935C227.486 264.935 227.489 264.935 227.491 264.935C227.493 264.935 227.495 264.935 227.497 264.935C227.5 264.935 227.502 264.935 227.504 264.935C227.506 264.935 227.509 264.935 227.511 264.935C227.513 264.935 227.515 264.935 227.517 264.935C227.52 264.935 227.522 264.935 227.524 264.935C227.526 264.935 227.528 264.935 227.531 264.935C227.533 264.935 227.535 264.935 227.537 264.935C227.539 264.935 227.542 264.935 227.544 264.935C227.546 264.935 227.548 264.935 227.551 264.935C227.553 264.935 227.555 264.935 227.557 264.935C227.559 264.935 227.562 264.935 227.564 264.935C227.566 264.935 227.568 264.935 227.57 264.935C227.573 264.935 227.575 264.935 227.577 264.935C227.579 264.935 227.581 264.935 227.584 264.935C227.586 264.935 227.588 264.935 227.59 264.935C227.593 264.935 227.595 264.935 227.597 264.935C227.599 264.935 227.601 264.935 227.604 264.935C227.606 264.935 227.608 264.935 227.61 264.935C227.612 264.935 227.615 264.935 227.617 264.935C227.619 264.935 227.621 264.935 227.624 264.935C227.626 264.935 227.628 264.935 227.63 264.935C227.632 264.935 227.635 264.935 227.637 264.935C227.639 264.935 227.641 264.935 227.643 264.935C227.646 264.935 227.648 264.935 227.65 264.935C227.652 264.935 227.654 264.935 227.657 264.935C227.659 264.935 227.661 264.935 227.663 264.935C227.666 264.935 227.668 264.935 227.67 264.935C227.672 264.935 227.674 264.935 227.677 264.935C227.679 264.935 227.681 264.935 227.683 264.935C227.685 264.935 227.688 264.935 227.69 264.935C227.692 264.935 227.694 264.935 227.697 264.935C227.699 264.935 227.701 264.935 227.703 264.935C227.705 264.935 227.708 264.935 227.71 264.935C227.712 264.935 227.714 264.935 227.716 264.935C227.719 264.935 227.721 264.935 227.723 264.935C227.725 264.935 227.727 264.935 227.73 264.935C227.732 264.935 227.734 264.935 227.736 264.935C227.739 264.935 227.741 264.935 227.743 264.935C227.745 264.935 227.747 264.935 227.75 264.935C227.752 264.935 227.754 264.935 227.756 264.935C227.758 264.935 227.761 264.935 227.763 264.935C227.765 264.935 227.767 264.935 227.77 264.935C227.772 264.935 227.774 264.935 227.776 264.935C227.778 264.935 227.781 264.935 227.783 264.935C227.785 264.935 227.787 264.935 227.789 264.935C227.792 264.935 227.794 264.935 227.796 264.935C227.798 264.935 227.801 264.935 227.803 264.935C227.805 264.935 227.807 264.935 227.809 264.935C227.812 264.935 227.814 264.935 227.816 264.935C227.818 264.935 227.82 264.935 227.823 264.935C227.825 264.935 227.827 264.935 227.829 264.935C227.832 264.935 227.834 264.935 227.836 264.935C227.838 264.935 227.84 264.935 227.843 264.935C227.845 264.935 227.847 264.935 227.849 264.935C227.851 264.935 227.854 264.935 227.856 264.935C227.858 264.935 227.86 264.935 227.863 264.935C227.865 264.935 227.867 264.935 227.869 264.935C227.871 264.935 227.874 264.935 227.876 264.935C227.878 264.935 227.88 264.935 227.882 264.935C227.885 264.935 227.887 264.935 227.889 264.935C227.891 264.935 227.894 264.935 227.896 264.935C227.898 264.935 227.9 264.935 227.902 264.935C227.905 264.935 227.907 264.935 227.909 264.935C227.911 264.935 227.913 264.935 227.916 264.935C227.918 264.935 227.92 264.935 227.922 264.935C227.925 264.935 227.927 264.935 227.929 264.935C227.931 264.935 227.933 264.935 227.936 264.935C227.938 264.935 227.94 264.935 227.942 264.935C227.944 264.935 227.947 264.935 227.949 264.935C227.951 264.935 227.953 264.935 227.956 264.935C227.958 264.935 227.96 264.935 227.962 264.935C227.964 264.935 227.967 264.935 227.969 264.935C227.971 264.935 227.973 264.935 227.975 264.935C227.978 264.935 227.98 264.935 227.982 264.935C227.984 264.935 227.987 264.935 227.989 264.935C227.991 264.935 227.993 264.935 227.995 264.935C227.998 264.935 228 264.935 228.002 264.935C228.004 264.935 228.007 264.935 228.009 264.935C228.011 264.935 228.013 264.935 228.015 264.935C228.018 264.935 228.02 264.935 228.022 264.935C228.024 264.935 228.026 264.935 228.029 264.935C228.031 264.935 228.033 264.935 228.035 264.935C228.038 264.935 228.04 264.935 228.042 264.935C228.044 264.935 228.046 264.935 228.049 264.935C228.051 264.935 228.053 264.935 228.055 264.935C228.057 264.935 228.06 264.935 228.062 264.935C228.064 264.935 228.066 264.935 228.069 264.935C228.071 264.935 228.073 264.935 228.075 264.935C228.077 264.935 228.08 264.935 228.082 264.935C228.084 264.935 228.086 264.935 228.088 264.935C228.091 264.935 228.093 264.935 228.095 264.935C228.097 264.935 228.1 264.935 228.102 264.935C228.104 264.935 228.106 264.935 228.108 264.935C228.111 264.935 228.113 264.935 228.115 264.935C228.117 264.935 228.12 264.935 228.122 264.935C228.124 264.935 228.126 264.935 228.128 264.935C228.131 264.935 228.133 264.935 228.135 264.935C228.137 264.935 228.139 264.935 228.142 264.935C228.144 264.935 228.146 264.935 228.148 264.935C228.151 264.935 228.153 264.935 228.155 264.935C228.157 264.935 228.159 264.935 228.162 264.935C228.164 264.935 228.166 264.935 228.168 264.935C228.171 264.935 228.173 264.935 228.175 264.935C228.177 264.935 228.179 264.935 228.182 264.935C228.184 264.935 228.186 264.935 228.188 264.935C228.19 264.935 228.193 264.935 228.195 264.935C228.197 264.935 228.199 264.935 228.202 264.935C228.204 264.935 228.206 264.935 228.208 264.935C228.21 264.935 228.213 264.935 228.215 264.935C228.217 264.935 228.219 264.935 228.222 264.935C228.224 264.935 228.226 264.935 228.228 264.935C228.23 264.935 228.233 264.935 228.235 264.935C228.237 264.935 228.239 264.935 228.241 264.935C228.244 264.935 228.246 264.935 228.248 264.935C228.25 264.935 228.253 264.935 228.255 264.935C228.257 264.935 228.259 264.935 228.261 264.935C228.264 264.935 228.266 264.935 228.268 264.935C228.27 264.935 228.273 264.935 228.275 264.935C228.277 264.935 228.279 264.935 228.281 264.935C228.284 264.935 228.286 264.935 228.288 264.935C228.29 264.935 228.292 264.935 228.295 264.935C228.297 264.935 228.299 264.935 228.301 264.935C228.304 264.935 228.306 264.935 228.308 264.935C228.31 264.935 228.312 264.935 228.315 264.935C228.317 264.935 228.319 264.935 228.321 264.935C228.324 264.935 228.326 264.935 228.328 264.935C228.33 264.935 228.332 264.935 228.335 264.935C228.337 264.935 228.339 264.935 228.341 264.935C228.343 264.935 228.346 264.935 228.348 264.935C228.35 264.935 228.352 264.935 228.355 264.935C228.357 264.935 228.359 264.935 228.361 264.935C228.363 264.935 228.366 264.935 228.368 264.935C228.37 264.935 228.372 264.935 228.375 264.935C228.377 264.935 228.379 264.935 228.381 264.935C228.383 264.935 228.386 264.935 228.388 264.935C228.39 264.935 228.392 264.935 228.395 264.935C228.397 264.935 228.399 264.935 228.401 264.935C228.403 264.935 228.406 264.935 228.408 264.935C228.41 264.935 228.412 264.935 228.414 264.935C228.417 264.935 228.419 264.935 228.421 264.935C228.423 264.935 228.426 264.935 228.428 264.935C228.43 264.935 228.432 264.935 228.434 264.935C228.437 264.935 228.439 264.935 228.441 264.935C228.443 264.935 228.446 264.935 228.448 264.935C228.45 264.935 228.452 264.935 228.454 264.935C228.457 264.935 228.459 264.935 228.461 264.935C228.463 264.935 228.466 264.935 228.468 264.935C228.47 264.935 228.472 264.935 228.474 264.935C228.477 264.935 228.479 264.935 228.481 264.935C228.483 264.935 228.485 264.935 228.488 264.935C228.49 264.935 228.492 264.935 228.494 264.935C228.497 264.935 228.499 264.935 228.501 264.935C228.503 264.935 228.505 264.935 228.508 264.935C228.51 264.935 228.512 264.935 228.514 264.935C228.517 264.935 228.519 264.935 228.521 264.935C228.523 264.935 228.525 264.935 228.528 264.935C228.53 264.935 228.532 264.935 228.534 264.935C228.537 264.935 228.539 264.935 228.541 264.935C228.543 264.935 228.545 264.935 228.548 264.935C228.55 264.935 228.552 264.935 228.554 264.935C228.557 264.935 228.559 264.935 228.561 264.935C228.563 264.935 228.565 264.935 228.568 264.935C228.57 264.935 228.572 264.935 228.574 264.935C228.576 264.935 228.579 264.935 228.581 264.935C228.583 264.935 228.585 264.935 228.588 264.935C228.59 264.935 228.592 264.935 228.594 264.935C228.596 264.935 228.599 264.935 228.601 264.935C228.603 264.935 228.605 264.935 228.608 264.935C228.61 264.935 228.612 264.935 228.614 264.935C228.616 264.935 228.619 264.935 228.621 264.935C228.623 264.935 228.625 264.935 228.628 264.935C228.63 264.935 228.632 264.935 228.634 264.935C228.636 264.935 228.639 264.935 228.641 264.935C228.643 264.935 228.645 264.935 228.648 264.935C228.65 264.935 228.652 264.935 228.654 264.935C228.656 264.935 228.659 264.935 228.661 264.935C228.663 264.935 228.665 264.935 228.668 264.935C228.67 264.935 228.672 264.935 228.674 264.935C228.676 264.935 228.679 264.935 228.681 264.935C228.683 264.935 228.685 264.935 228.687 264.935C228.69 264.935 228.692 264.935 228.694 264.935C228.696 264.935 228.699 264.935 228.701 264.935C228.703 264.935 228.705 264.935 228.707 264.935C228.71 264.935 228.712 264.935 228.714 264.935C228.716 264.935 228.719 264.935 228.721 264.935C228.723 264.935 228.725 264.935 228.727 264.935C228.73 264.935 228.732 264.935 228.734 264.935C228.736 264.935 228.739 264.935 228.741 264.935C228.743 264.935 228.745 264.935 228.747 264.935C228.75 264.935 228.752 264.935 228.754 264.935C228.756 264.935 228.759 264.935 228.761 264.935C228.763 264.935 228.765 264.935 228.767 264.935C228.77 264.935 228.772 264.935 228.774 264.935C228.776 264.935 228.779 264.935 228.781 264.935C228.783 264.935 228.785 264.935 228.787 264.935C228.79 264.935 228.792 264.935 228.794 264.935C228.796 264.935 228.799 264.935 228.801 264.935C228.803 264.935 228.805 264.935 228.807 264.935C228.81 264.935 228.812 264.935 228.814 264.935C228.816 264.935 228.819 264.935 228.821 264.935C228.823 264.935 228.825 264.935 228.827 264.935C228.83 264.935 228.832 264.935 228.834 264.935C228.836 264.935 228.839 264.935 228.841 264.935C228.843 264.935 228.845 264.935 228.847 264.935C228.85 264.935 228.852 264.935 228.854 264.935C228.856 264.935 228.858 264.935 228.861 264.935C228.863 264.935 228.865 264.935 228.867 264.935C228.87 264.935 228.872 264.935 228.874 264.935C228.876 264.935 228.878 264.935 228.881 264.935C228.883 264.935 228.885 264.935 228.887 264.935C228.89 264.935 228.892 264.935 228.894 264.935C228.896 264.935 228.898 264.935 228.901 264.935C228.903 264.935 228.905 264.935 228.907 264.935C228.91 264.935 228.912 264.935 228.914 264.935C228.916 264.935 228.918 264.935 228.921 264.935C228.923 264.935 228.925 264.935 228.927 264.935C228.93 264.935 228.932 264.935 228.934 264.935C228.936 264.935 228.938 264.935 228.941 264.935C228.943 264.935 228.945 264.935 228.947 264.935C228.95 264.935 228.952 264.935 228.954 264.935C228.956 264.935 228.958 264.935 228.961 264.935C228.963 264.935 228.965 264.935 228.967 264.935C228.97 264.935 228.972 264.935 228.974 264.935C228.976 264.935 228.978 264.935 228.981 264.935C228.983 264.935 228.985 264.935 228.987 264.935C228.99 264.935 228.992 264.935 228.994 264.935C228.996 264.935 228.998 264.935 229.001 264.935C229.003 264.935 229.005 264.935 229.007 264.935C229.01 264.935 229.012 264.935 229.014 264.935C229.016 264.935 229.018 264.935 229.021 264.935C229.023 264.935 229.025 264.935 229.027 264.935C229.03 264.935 229.032 264.935 229.034 264.935C229.036 264.935 229.038 264.935 229.041 264.935C229.043 264.935 229.045 264.935 229.047 264.935C229.05 264.935 229.052 264.935 229.054 264.935C229.056 264.935 229.058 264.935 229.061 264.935C229.063 264.935 229.065 264.935 229.067 264.935C229.07 264.935 229.072 264.935 229.074 264.935C229.076 264.935 229.078 264.935 229.081 264.935C229.083 264.935 229.085 264.935 229.087 264.935C229.09 264.935 229.092 264.935 229.094 264.935C229.096 264.935 229.098 264.935 229.101 264.935C229.103 264.935 229.105 264.935 229.107 264.935C229.11 264.935 229.112 264.935 229.114 264.935C229.116 264.935 229.118 264.935 229.121 264.935C229.123 264.935 229.125 264.935 229.127 264.935C229.13 264.935 229.132 264.935 229.134 264.935C229.136 264.935 229.138 264.935 229.141 264.935C229.143 264.935 229.145 264.935 229.147 264.935C229.15 264.935 229.152 264.935 229.154 264.935C229.156 264.935 229.158 264.935 229.161 264.935C229.163 264.935 229.165 264.935 229.167 264.935C229.17 264.935 229.172 264.935 229.174 264.935C229.176 264.935 229.178 264.935 229.181 264.935C229.183 264.935 229.185 264.935 229.187 264.935C229.19 264.935 229.192 264.935 229.194 264.935C229.196 264.935 229.198 264.935 229.201 264.935C229.203 264.935 229.205 264.935 229.207 264.935C229.21 264.935 229.212 264.935 229.214 264.935C229.216 264.935 229.218 264.935 229.221 264.935C229.223 264.935 229.225 264.935 229.227 264.935C229.23 264.935 229.232 264.935 229.234 264.935C229.236 264.935 229.238 264.935 229.241 264.935C229.243 264.935 229.245 264.935 229.247 264.935C229.25 264.935 229.252 264.935 229.254 264.935C229.256 264.935 229.258 264.935 229.261 264.935C229.263 264.935 229.265 264.935 229.267 264.935C229.27 264.935 229.272 264.935 229.274 264.935C229.276 264.935 229.278 264.935 229.281 264.935C229.283 264.935 229.285 264.935 229.287 264.935C229.29 264.935 229.292 264.935 229.294 264.935C229.296 264.935 229.298 264.935 229.301 264.935C229.303 264.935 229.305 264.935 229.307 264.935C229.31 264.935 229.312 264.935 229.314 264.935C229.316 264.935 229.318 264.935 229.321 264.935C229.323 264.935 229.325 264.935 229.327 264.935C229.33 264.935 229.332 264.935 229.334 264.935C229.336 264.935 229.338 264.935 229.341 264.935C229.343 264.935 229.345 264.935 229.347 264.935C229.35 264.935 229.352 264.935 229.354 264.935C229.356 264.935 229.358 264.935 229.361 264.935C229.363 264.935 229.365 264.935 229.367 264.935C229.37 264.935 229.372 264.935 229.374 264.935C229.376 264.935 229.378 264.935 229.381 264.935C229.383 264.935 229.385 264.935 229.387 264.935C229.39 264.935 229.392 264.935 229.394 264.935C229.396 264.935 229.398 264.935 229.401 264.935C229.403 264.935 229.405 264.935 229.407 264.935C229.41 264.935 229.412 264.935 229.414 264.935C229.416 264.935 229.418 264.935 229.421 264.935C229.423 264.935 229.425 264.935 229.427 264.935C229.43 264.935 229.432 264.935 229.434 264.935C229.436 264.935 229.438 264.935 229.441 264.935C229.443 264.935 229.445 264.935 229.447 264.935C229.45 264.935 229.452 264.935 229.454 264.935C229.456 264.935 229.458 264.935 229.461 264.935C229.463 264.935 229.465 264.935 229.467 264.935C229.47 264.935 229.472 264.935 229.474 264.935C229.476 264.935 229.478 264.935 229.481 264.935C229.483 264.935 229.485 264.935 229.487 264.935C229.49 264.935 229.492 264.935 229.494 264.935C229.496 264.935 229.498 264.935 229.501 264.935C229.503 264.935 229.505 264.935 229.507 264.935C229.51 264.935 229.512 264.935 229.514 264.935C229.516 264.935 229.518 264.935 229.521 264.935C229.523 264.935 229.525 264.935 229.527 264.935C229.53 264.935 229.532 264.935 229.534 264.935C229.536 264.935 229.538 264.935 229.541 264.935C229.543 264.935 229.545 264.935 229.547 264.935C229.55 264.935 229.552 264.935 229.554 264.935V258.935Z" fill="#F0EAD5" mask="url(#path-33-inside-12_416_8287)"/>
<mask id="path-35-inside-13_416_8287" fill="white">
<path d="M197.012 259.495C184.58 259.495 172.657 254.569 163.866 245.802C155.075 237.034 150.137 225.143 150.137 212.743C150.137 200.344 155.075 188.452 163.866 179.685C172.657 170.917 184.58 165.991 197.012 165.991"/>
</mask>
<path d="M197.012 262.495C198.669 262.495 200.012 261.152 200.012 259.495C200.012 257.838 198.669 256.495 197.012 256.495V262.495ZM197.012 168.991C198.669 168.991 200.012 167.648 200.012 165.991C200.012 164.334 198.669 162.991 197.012 162.991V168.991ZM197.012 256.495C185.373 256.495 174.212 251.884 165.985 243.678L161.748 247.926C171.102 257.255 183.787 262.495 197.012 262.495V256.495ZM165.985 243.678C157.757 235.472 153.137 224.344 153.137 212.743H147.137C147.137 225.941 152.393 238.596 161.748 247.926L165.985 243.678ZM153.137 212.743C153.137 201.142 157.757 190.014 165.985 181.809L161.748 177.56C152.393 186.89 147.137 199.546 147.137 212.743H153.137ZM165.985 181.809C174.212 173.603 185.373 168.991 197.012 168.991V162.991C183.787 162.991 171.102 168.231 161.748 177.56L165.985 181.809Z" fill="#F0EAD5" mask="url(#path-35-inside-13_416_8287)"/>
<path d="M196.962 259.563L246.198 308.67" stroke="#F0EAD5" stroke-width="3" stroke-linecap="round" stroke-linejoin="round"/>
<mask id="path-38-inside-14_416_8287" fill="white">
<path d="M253.79 308.111V303.317C253.79 302.086 253.299 300.905 252.427 300.035C251.554 299.165 250.37 298.676 249.136 298.676H248.151L205.691 227.769"/>
</mask>
<path d="M250.79 308.111C250.79 309.768 252.133 311.111 253.79 311.111C255.446 311.111 256.79 309.768 256.79 308.111H250.79ZM248.151 298.676L245.577 300.217C246.119 301.122 247.096 301.676 248.151 301.676V298.676ZM208.265 226.227C207.414 224.806 205.572 224.344 204.15 225.195C202.729 226.046 202.266 227.888 203.118 229.31L208.265 226.227ZM256.79 308.111V303.317H250.79V308.111H256.79ZM256.79 303.317C256.79 301.288 255.981 299.343 254.545 297.911L250.308 302.159C250.617 302.468 250.79 302.884 250.79 303.317H256.79ZM254.545 297.911C253.109 296.479 251.163 295.676 249.136 295.676V301.676C249.577 301.676 249.999 301.851 250.308 302.159L254.545 297.911ZM249.136 295.676H248.151V301.676H249.136V295.676ZM250.725 297.134L208.265 226.227L203.118 229.31L245.577 300.217L250.725 297.134Z" fill="#F0EAD5" mask="url(#path-38-inside-14_416_8287)"/>
<mask id="path-40-inside-15_416_8287" fill="white">
<path d="M153.109 252.331C148.796 248.022 145.61 242.722 143.834 236.897C142.057 231.072 141.742 224.901 142.919 218.927"/>
</mask>
<path d="M150.989 254.453C152.161 255.624 154.06 255.623 155.231 254.451C156.402 253.279 156.401 251.379 155.229 250.208L150.989 254.453ZM145.862 219.506C146.182 217.881 145.124 216.303 143.498 215.983C141.872 215.663 140.295 216.722 139.975 218.347L145.862 219.506ZM155.229 250.208C151.264 246.247 148.336 241.375 146.703 236.022L140.964 237.773C142.885 244.069 146.328 249.797 150.989 254.453L155.229 250.208ZM146.703 236.022C145.07 230.668 144.781 224.997 145.862 219.506L139.975 218.347C138.704 224.805 139.043 231.476 140.964 237.773L146.703 236.022Z" fill="#F0EAD5" mask="url(#path-40-inside-15_416_8287)"/>
<path d="M153.194 252.33L96.4512 308.924" stroke="#F0EAD5" stroke-width="3" stroke-linecap="round" stroke-linejoin="round"/>
<path d="M101.292 319.993H87.7449C88.0712 317.615 89.1669 315.391 90.8876 313.672C92.9659 311.597 95.7859 310.428 98.7287 310.424H105.261V316.038C105.261 317.086 104.844 318.091 104.1 318.833C103.356 319.575 102.346 319.993 101.292 319.993Z" stroke="#F0EAD5" stroke-width="3" stroke-linecap="round" stroke-linejoin="round"/>
<mask id="path-44-inside-16_416_8287" fill="white">
<path d="M101.903 308.924H106.71C107.944 308.924 109.128 308.435 110 307.564C110.873 306.694 111.363 305.513 111.363 304.282V303.3L186.822 258.462"/>
</mask>
<path d="M101.903 305.924C100.246 305.924 98.9033 307.267 98.9033 308.924C98.9033 310.58 100.246 311.924 101.903 311.924V305.924ZM111.363 303.3L109.831 300.721C108.921 301.261 108.363 302.241 108.363 303.3H111.363ZM188.355 261.041C189.779 260.195 190.248 258.354 189.402 256.929C188.555 255.505 186.714 255.036 185.29 255.883L188.355 261.041ZM101.903 311.924H106.71V305.924H101.903V311.924ZM106.71 311.924C108.737 311.924 110.683 311.12 112.119 309.688L107.882 305.44C107.572 305.749 107.151 305.924 106.71 305.924V311.924ZM112.119 309.688C113.555 308.256 114.363 306.311 114.363 304.282H108.363C108.363 304.715 108.191 305.132 107.882 305.44L112.119 309.688ZM114.363 304.282V303.3H108.363V304.282H114.363ZM112.896 305.879L188.355 261.041L185.29 255.883L109.831 300.721L112.896 305.879Z" fill="#F0EAD5" mask="url(#path-44-inside-16_416_8287)"/>
<path d="M40.7617 321.492H345.893" stroke="#F0EAD5" stroke-width="3" stroke-linecap="round" stroke-linejoin="round"/>
<mask id="path-47-inside-17_416_8287" fill="white">
<path d="M56.6583 193.061C56.6583 226.16 34.5793 237.102 18.3428 240.659Z"/>
</mask>
<path d="M59.6583 193.061C59.6583 191.404 58.3151 190.061 56.6583 190.061C55.0014 190.061 53.6583 191.404 53.6583 193.061H59.6583ZM17.7007 237.729C16.0823 238.084 15.0577 239.683 15.4123 241.301C15.7669 242.92 17.3663 243.945 18.9848 243.59L17.7007 237.729ZM53.6583 193.061C53.6583 208.867 48.4198 219.078 41.5012 225.784C34.498 232.572 25.5138 236.017 17.7007 237.729L18.9848 243.59C27.4083 241.744 37.5819 237.939 45.6773 230.092C53.8573 222.163 59.6583 210.353 59.6583 193.061H53.6583Z" fill="#F0EAD5" mask="url(#path-47-inside-17_416_8287)"/>
<mask id="path-49-inside-18_416_8287" fill="white">
<path d="M56.6752 192.62C56.5983 191.349 56.7829 190.076 57.2176 188.88C57.6523 187.683 58.3279 186.587 59.2028 185.66C60.0777 184.733 61.1335 183.995 62.3053 183.49C63.477 182.985 64.7399 182.725 66.0163 182.725C67.2927 182.725 68.5556 182.985 69.7273 183.49C70.899 183.995 71.9548 184.733 72.8298 185.66C73.7047 186.587 74.3803 187.683 74.815 188.88C75.2497 190.076 75.4343 191.349 75.3574 192.62V198.515"/>
</mask>
<path d="M53.6807 192.801C53.7807 194.455 55.2025 195.715 56.8563 195.615C58.5102 195.515 59.7698 194.093 59.6697 192.439L53.6807 192.801ZM66.0163 182.725L66.0163 179.725L66.0163 182.725ZM75.3574 192.62L72.3629 192.439C72.3592 192.499 72.3574 192.56 72.3574 192.62H75.3574ZM72.3574 198.515C72.3574 200.172 73.7005 201.515 75.3574 201.515C77.0143 201.515 78.3574 200.172 78.3574 198.515H72.3574ZM59.6697 192.439C59.6176 191.578 59.7427 190.715 60.0374 189.904L54.3978 187.855C53.8231 189.438 53.579 191.121 53.6807 192.801L59.6697 192.439ZM60.0374 189.904C60.3321 189.092 60.7903 188.349 61.3843 187.719L57.0212 183.601C55.8654 184.825 54.9724 186.273 54.3978 187.855L60.0374 189.904ZM61.3843 187.719C61.9784 187.09 62.6956 186.588 63.4923 186.245L61.1182 180.735C59.5714 181.401 58.1771 182.376 57.0212 183.601L61.3843 187.719ZM63.4923 186.245C64.289 185.902 65.148 185.725 66.0163 185.725L66.0163 179.725C64.3319 179.725 62.665 180.068 61.1182 180.735L63.4923 186.245ZM66.0163 185.725C66.8846 185.725 67.7436 185.902 68.5403 186.245L70.9143 180.735C69.3675 180.068 67.7007 179.725 66.0163 179.725L66.0163 185.725ZM68.5403 186.245C69.3369 186.588 70.0542 187.09 70.6482 187.719L75.0113 183.601C73.8555 182.376 72.4611 181.401 70.9143 180.735L68.5403 186.245ZM70.6482 187.719C71.2423 188.349 71.7005 189.092 71.9952 189.904L77.6348 187.855C77.0602 186.273 76.1672 184.825 75.0113 183.601L70.6482 187.719ZM71.9952 189.904C72.2899 190.715 72.415 191.578 72.3629 192.439L78.3519 192.801C78.4536 191.121 78.2095 189.438 77.6348 187.855L71.9952 189.904ZM72.3574 192.62V198.515H78.3574V192.62H72.3574Z" fill="#F0EAD5" mask="url(#path-49-inside-18_416_8287)"/>
<mask id="path-51-inside-19_416_8287" fill="white">
<path d="M229.774 133.096C229.774 141.766 226.324 150.083 220.182 156.219C214.039 162.355 205.706 165.809 197.013 165.822"/>
</mask>
<path d="M232.774 133.096C232.774 131.439 231.431 130.096 229.774 130.096C228.118 130.096 226.774 131.439 226.774 133.096L232.774 133.096ZM197.008 162.822C195.351 162.825 194.01 164.17 194.013 165.827C194.015 167.484 195.36 168.825 197.017 168.822L197.008 162.822ZM226.774 133.096C226.774 140.969 223.642 148.522 218.062 154.096L222.302 158.341C229.007 151.643 232.774 142.564 232.774 133.096L226.774 133.096ZM218.062 154.096C212.481 159.671 204.909 162.81 197.008 162.822L197.017 168.822C206.503 168.807 215.597 165.039 222.302 158.341L218.062 154.096Z" fill="#F0EAD5" mask="url(#path-51-inside-19_416_8287)"/>
</g>
<defs>
<clipPath id="clip0_416_8287">
<rect width="233" height="323" fill="white"/>
</clipPath>
</defs>
</svg>
