<svg width="318" height="444" viewBox="0 0 318 444" fill="none" xmlns="http://www.w3.org/2000/svg">
<g clip-path="url(#clip0_6_617)">
<path d="M96 308.702C143.884 308.702 182.702 269.884 182.702 222C182.702 174.116 143.884 135.298 96 135.298C48.1158 135.298 9.29797 174.116 9.29797 222C9.29797 269.884 48.1158 308.702 96 308.702Z" stroke="#25262B" stroke-width="3" stroke-linecap="round" stroke-linejoin="round"/>
<path d="M96 112.764V2.02765" stroke="#25262B" stroke-width="3" stroke-linecap="round" stroke-linejoin="round"/>
<path d="M96 441.972V331.236" stroke="#25262B" stroke-width="3" stroke-linecap="round" stroke-linejoin="round"/>
<path d="M315.972 222H205.236" stroke="#25262B" stroke-width="3" stroke-linecap="round" stroke-linejoin="round"/>
<path d="M18.7603 144.76L-36.5403 89.4597" stroke="#25262B" stroke-width="3" stroke-linecap="round" stroke-linejoin="round"/>
<path d="M228.54 354.54L173.24 299.24" stroke="#25262B" stroke-width="3" stroke-linecap="round" stroke-linejoin="round"/>
<path d="M18.7603 299.24L-36.5403 354.54" stroke="#25262B" stroke-width="3" stroke-linecap="round" stroke-linejoin="round"/>
<path d="M228.54 89.4597L173.24 144.76" stroke="#25262B" stroke-width="3" stroke-linecap="round" stroke-linejoin="round"/>
<path d="M55.2309 120.658L26.0328 48.1092" stroke="#25262B" stroke-width="3" stroke-linecap="round" stroke-linejoin="round"/>
<path d="M165.981 395.891L136.783 323.342" stroke="#25262B" stroke-width="3" stroke-linecap="round" stroke-linejoin="round"/>
<path d="M269.891 152.033L197.342 181.231" stroke="#25262B" stroke-width="3" stroke-linecap="round" stroke-linejoin="round"/>
<path d="M268.444 295.482L196.49 264.824" stroke="#25262B" stroke-width="3" stroke-linecap="round" stroke-linejoin="round"/>
<path d="M53.1762 322.49L22.5182 394.444" stroke="#25262B" stroke-width="3" stroke-linecap="round" stroke-linejoin="round"/>
<path d="M169.482 49.5691L138.824 121.51" stroke="#25262B" stroke-width="3" stroke-linecap="round" stroke-linejoin="round"/>
<path d="M6.81069 158.94L-26.6184 135.298" stroke="#25262B" stroke-width="3" stroke-linecap="round" stroke-linejoin="round"/>
<path d="M218.618 308.716L185.189 285.073" stroke="#25262B" stroke-width="3" stroke-linecap="round" stroke-linejoin="round"/>
<path d="M32.9403 311.189L9.29797 344.632" stroke="#25262B" stroke-width="3" stroke-linecap="round" stroke-linejoin="round"/>
<path d="M182.716 99.3816L159.073 132.811" stroke="#25262B" stroke-width="3" stroke-linecap="round" stroke-linejoin="round"/>
<path d="M243.058 252.496L202.965 244.182" stroke="#25262B" stroke-width="3" stroke-linecap="round" stroke-linejoin="round"/>
<path d="M73.8176 328.965L65.5043 369.058" stroke="#25262B" stroke-width="3" stroke-linecap="round" stroke-linejoin="round"/>
<path d="M126.496 74.9552L118.182 115.049" stroke="#25262B" stroke-width="3" stroke-linecap="round" stroke-linejoin="round"/>
<path d="M244.018 196.6L203.668 203.535" stroke="#25262B" stroke-width="3" stroke-linecap="round" stroke-linejoin="round"/>
<path d="M114.479 329.668L121.4 370.018" stroke="#25262B" stroke-width="3" stroke-linecap="round" stroke-linejoin="round"/>
<path d="M70.6004 73.982L77.535 114.346" stroke="#25262B" stroke-width="3" stroke-linecap="round" stroke-linejoin="round"/>
<path d="M36.2791 130.54L13.8804 96.259" stroke="#25262B" stroke-width="3" stroke-linecap="round" stroke-linejoin="round"/>
<path d="M178.12 347.741L155.734 313.46" stroke="#25262B" stroke-width="3" stroke-linecap="round" stroke-linejoin="round"/>
<path d="M4.53974 281.734L-29.741 304.12" stroke="#25262B" stroke-width="3" stroke-linecap="round" stroke-linejoin="round"/>
<path d="M221.741 139.88L187.46 162.279" stroke="#25262B" stroke-width="3" stroke-linecap="round" stroke-linejoin="round"/>
<path d="M40.2668 222C40.277 208.348 44.0372 194.961 51.1371 183.3C58.2369 171.639 68.4035 162.153 80.5272 155.876C92.6509 149.6 106.266 146.774 119.886 147.708C133.506 148.641 146.608 153.298 157.762 161.171C145.682 148.927 130.233 140.552 113.38 137.111C96.5273 133.671 79.032 135.32 63.1189 141.849C47.2058 148.377 33.5938 159.491 24.0138 173.777C14.4338 188.062 9.31854 204.874 9.31854 222.074C9.31854 239.275 14.4338 256.087 24.0138 270.372C33.5938 284.658 47.2058 295.771 63.1189 302.3C79.032 308.829 96.5273 310.478 113.38 307.037C130.233 303.597 145.682 295.222 157.762 282.978C146.597 290.853 133.482 295.507 119.85 296.432C106.219 297.357 92.5954 294.518 80.4685 288.224C68.3415 281.931 58.1778 272.425 51.0879 260.745C43.9979 249.066 40.2546 235.663 40.2668 222Z" stroke="#25262B" stroke-width="3" stroke-linecap="round" stroke-linejoin="round"/>
<g clip-path="url(#clip1_6_617)">
<path d="M102.38 242.42C100.79 242.305 99.2162 242.034 97.68 241.61C96.2572 241.21 94.8773 240.67 93.56 240C93.087 239.789 92.6292 239.545 92.19 239.27C92.1011 239.218 92.0234 239.15 91.9612 239.068C91.899 238.986 91.8536 238.893 91.8275 238.793C91.8015 238.694 91.7954 238.59 91.8095 238.488C91.8237 238.387 91.8578 238.289 91.91 238.2C91.9583 238.105 92.0253 238.021 92.1069 237.953C92.1884 237.885 92.2829 237.834 92.3847 237.803C92.4865 237.772 92.5935 237.762 92.6992 237.774C92.8049 237.785 92.9072 237.818 93 237.87L93.35 238.06C93.4494 238.045 93.5505 238.045 93.65 238.06H94.05C94.3366 238.06 94.6266 238.06 94.92 238.06C95.3231 238.028 95.7238 237.971 96.12 237.89C96.8544 237.724 97.5789 237.517 98.29 237.27H98.19C99.396 236.865 100.575 236.384 101.72 235.83C102.31 235.53 102.9 235.22 103.47 234.89C104.04 234.56 104.54 234.24 105.05 233.89C105.662 233.478 106.25 233.03 106.81 232.55C107.226 232.208 107.623 231.844 108 231.46C108.28 231.13 108.53 230.8 108.78 230.46C109.38 229.549 109.928 228.604 110.42 227.63C110.797 226.856 111.13 226.061 111.42 225.25C111.626 224.661 111.796 224.06 111.93 223.45C112.03 222.911 112.1 222.367 112.14 221.82C112.162 221.487 112.162 221.153 112.14 220.82C112.085 220.182 111.995 219.548 111.87 218.92C111.865 218.95 111.865 218.98 111.87 219.01C111.701 218.251 111.487 217.503 111.23 216.77C111.011 216.164 110.754 215.573 110.46 215L110.51 215.08L110.38 214.83V214.91C110.058 214.254 109.701 213.617 109.31 213V212.95C108.749 212.141 108.145 211.363 107.5 210.62C107.001 210.05 106.47 209.509 105.91 209C105.141 208.365 104.336 207.774 103.5 207.23H103.57C102.375 206.438 101.133 205.72 99.85 205.08C99.2 204.76 98.54 204.47 97.85 204.18C97.57 204.05 97.28 203.94 96.99 203.83C96.7 203.72 96.38 203.55 96.35 203.21C96.3699 203.136 96.4002 203.065 96.44 203C96.4484 202.901 96.4868 202.807 96.55 202.73C96.733 202.551 96.9745 202.445 97.23 202.43C97.54 202.37 97.86 202.33 98.17 202.29C98.94 202.19 99.71 202.13 100.48 202.09C102.124 202.012 103.771 202.048 105.41 202.2C107.018 202.333 108.607 202.638 110.15 203.11C111.681 203.591 113.162 204.22 114.57 204.99C115.261 205.371 115.928 205.792 116.57 206.25C117.213 206.705 117.824 207.203 118.4 207.74C119.013 208.31 119.597 208.911 120.15 209.54C120.693 210.178 121.2 210.846 121.67 211.54C122.118 212.217 122.529 212.918 122.9 213.64C123.29 214.4 123.67 215.17 123.99 215.96C124.658 217.567 125.141 219.244 125.43 220.96C125.767 222.96 125.757 225.003 125.4 227C125.042 228.656 124.449 230.252 123.64 231.74C123.245 232.431 122.811 233.099 122.34 233.74C121.846 234.448 121.298 235.117 120.7 235.74C118.312 238.146 115.404 239.973 112.2 241.08C109.594 241.943 106.865 242.379 104.12 242.37C103.54 242.47 103 242.46 102.38 242.42Z" fill="#274C6C"/>
<path d="M104.6 238.93C104.404 238.846 104.238 238.707 104.12 238.529C104.003 238.351 103.94 238.143 103.94 237.93C103.941 237.692 104.018 237.461 104.16 237.27C104.306 237.086 104.505 236.95 104.73 236.88C104.96 236.822 105.203 236.839 105.422 236.929C105.642 237.019 105.827 237.177 105.95 237.38C106.045 237.545 106.095 237.733 106.095 237.924C106.094 238.115 106.043 238.302 105.946 238.466C105.85 238.631 105.711 238.767 105.545 238.861C105.379 238.955 105.191 239.003 105 239C104.863 239.004 104.727 238.98 104.6 238.93Z" fill="#828282"/>
<path d="M115.85 234.26C115.551 234.238 115.26 234.149 115 234C114.709 233.824 114.466 233.581 114.29 233.29C114.163 233.103 114.077 232.892 114.038 232.669C113.998 232.447 114.006 232.219 114.06 232C114.094 231.84 114.174 231.694 114.29 231.58C114.325 231.541 114.366 231.508 114.41 231.48V231.43C114.445 231.181 114.545 230.946 114.7 230.748C114.854 230.55 115.057 230.395 115.29 230.3C115.387 230.261 115.487 230.231 115.59 230.21C115.871 230.058 116.185 229.978 116.505 229.978C116.825 229.978 117.139 230.058 117.42 230.21C117.888 230.518 118.22 230.993 118.346 231.539C118.473 232.084 118.385 232.658 118.1 233.14C117.875 233.545 117.524 233.865 117.1 234.05C116.783 234.181 116.443 234.246 116.1 234.24L115.85 234.26Z" fill="#828282"/>
<path d="M119.73 222C119.685 221.753 119.717 221.499 119.821 221.271C119.926 221.043 120.098 220.853 120.315 220.727C120.531 220.6 120.781 220.543 121.031 220.564C121.281 220.585 121.518 220.682 121.711 220.843C121.904 221.003 122.042 221.219 122.108 221.461C122.173 221.703 122.163 221.96 122.077 222.195C121.992 222.431 121.836 222.635 121.631 222.779C121.425 222.923 121.181 223 120.93 223C120.645 222.998 120.37 222.897 120.151 222.715C119.932 222.533 119.783 222.28 119.73 222Z" fill="#828282"/>
<path d="M114.45 215.26C114.383 215.128 114.348 214.983 114.348 214.835C114.348 214.687 114.383 214.542 114.45 214.41C114.45 214.41 114.45 214.41 114.45 214.36C114.369 214.133 114.347 213.89 114.385 213.652C114.424 213.414 114.522 213.19 114.67 213C114.851 212.762 115.094 212.578 115.373 212.47C115.652 212.363 115.956 212.335 116.25 212.39H116.46C116.861 212.45 117.227 212.654 117.489 212.962C117.752 213.271 117.895 213.665 117.89 214.07C117.893 214.508 117.756 214.935 117.5 215.29C117.201 215.707 116.754 215.994 116.25 216.09C116.147 216.1 116.043 216.1 115.94 216.09C115.639 216.105 115.34 216.035 115.076 215.889C114.813 215.742 114.596 215.524 114.45 215.26Z" fill="#828282"/>
<path d="M90.65 222.06L93.46 221.92L96.22 221.76C97.22 221.71 98.31 221.67 99.35 221.69C100.24 221.69 101.12 221.76 102.01 221.82C102.53 221.82 103.01 221.9 103.59 221.91C103.747 221.935 103.908 221.929 104.062 221.891C104.217 221.853 104.362 221.785 104.49 221.69C104.55 221.637 104.597 221.573 104.63 221.5C104.663 221.428 104.68 221.349 104.68 221.27C104.68 221.191 104.663 221.112 104.63 221.04C104.597 220.967 104.55 220.903 104.49 220.85C104.345 220.723 104.162 220.646 103.97 220.63L103.39 220.55C102.77 220.46 102.14 220.4 101.52 220.34C100.15 220.21 98.78 220.1 97.4 220.01L96.61 220H96.73C95.01 219.89 93.3 219.76 91.58 219.72C89.86 219.68 88.05 219.72 86.29 219.72C85.45 219.72 84.61 219.72 83.78 219.78C83.34 219.78 82.9 219.78 82.46 219.78C82.0152 219.766 81.57 219.793 81.13 219.86C80.7932 219.913 80.4874 220.087 80.27 220.35C80.0968 220.581 80.0021 220.861 80 221.15C80.0015 221.466 80.1164 221.771 80.3237 222.01C80.5311 222.248 80.8172 222.405 81.13 222.45H81.58C81.84 222.45 82.1 222.45 82.36 222.45L83.55 222.39L85.89 222.29C87.48 222.22 89.07 222.16 90.65 222.06Z" fill="#828282"/>
<path d="M81.69 210.22L83.79 211.22C84.11 211.37 84.44 211.52 84.79 211.64C85.14 211.76 85.5 211.91 85.86 212.03C87.36 212.55 88.86 213.03 90.41 213.44L93.07 214.17C93.93 214.39 94.8 214.58 95.68 214.77C97.4068 215.076 99.1133 215.486 100.79 216C101.14 216.13 101.47 216.27 101.79 216.42C102.11 216.57 102.52 216.82 102.88 217.02C103.057 217.125 103.255 217.186 103.46 217.2C103.531 217.201 103.601 217.187 103.667 217.159C103.732 217.132 103.791 217.091 103.84 217.04C103.893 216.982 103.933 216.913 103.956 216.837C103.98 216.762 103.987 216.683 103.976 216.604C103.966 216.526 103.938 216.451 103.896 216.385C103.853 216.318 103.797 216.262 103.73 216.22C103.552 216.069 103.365 215.929 103.17 215.8C102.618 215.426 102.04 215.092 101.44 214.8C100.27 214.23 99.06 213.74 97.84 213.26C96.96 212.92 96.07 212.59 95.18 212.26C94.29 211.93 93.39 211.64 92.48 211.34C91.57 211.04 90.82 210.77 89.98 210.5C89.14 210.23 88.31 210 87.47 209.69L86.06 209.2L84.89 208.82C84.14 208.54 83.41 208.2 82.69 207.82C82.5319 207.755 82.3625 207.722 82.1915 207.723C82.0206 207.724 81.8517 207.76 81.6944 207.827C81.5372 207.894 81.3948 207.991 81.2756 208.114C81.1564 208.236 81.0627 208.381 81 208.54C80.9341 208.695 80.8995 208.861 80.898 209.03C80.8965 209.198 80.9283 209.365 80.9915 209.521C81.0546 209.677 81.148 209.819 81.2661 209.939C81.3843 210.059 81.5249 210.155 81.68 210.22H81.69Z" fill="#828282"/>
<path d="M105.85 225.35C105.819 225.247 105.759 225.154 105.678 225.083C105.597 225.013 105.497 224.966 105.39 224.95C105.258 224.931 105.123 224.948 105 225C104.76 225.08 104.53 225.18 104.29 225.27C104.05 225.36 103.6 225.47 103.29 225.55C102.98 225.63 102.51 225.74 102.12 225.82C101.34 225.99 100.56 226.16 99.78 226.35C98.18 226.74 96.59 227.19 94.97 227.52H95.12L94.86 227.58L94.26 227.7C92.6574 227.952 91.0687 228.286 89.5 228.7L87.1 229.38L86.1 229.63C85.7588 229.688 85.4239 229.778 85.1 229.9C84.9063 230.002 84.7514 230.165 84.6593 230.364C84.5672 230.563 84.5428 230.786 84.59 231C84.652 231.198 84.7738 231.371 84.9386 231.496C85.1034 231.622 85.3031 231.693 85.51 231.7H85.64C85.9779 231.64 86.3118 231.56 86.64 231.46L87.57 231.24C88.39 231.08 89.22 230.95 90.05 230.85C91.6749 230.682 93.2856 230.398 94.87 230C96.56 229.54 98.21 228.92 99.87 228.34C101.04 227.94 102.23 227.55 103.4 227.14C103.991 226.954 104.564 226.713 105.11 226.42C105.46 226.17 106 225.84 105.85 225.35Z" fill="#828282"/>
<path d="M91.66 206.64C91.99 206.8 92.33 206.93 92.66 207.07L93.66 207.52C94.22 207.75 94.78 208 95.33 208.28H95.25H95.35C96.12 208.67 96.86 209.09 97.6 209.51L99.32 210.51C99.88 210.84 100.44 211.18 100.99 211.51L102.48 212.51C102.726 212.692 102.991 212.846 103.27 212.97C103.39 213.021 103.519 213.048 103.65 213.05C103.766 213.05 103.88 213.018 103.98 212.96L104.05 212.9C104.105 212.852 104.149 212.793 104.18 212.727C104.21 212.66 104.226 212.588 104.226 212.515C104.226 212.442 104.21 212.37 104.18 212.303C104.149 212.237 104.105 212.178 104.05 212.13L103.83 211.97L103.27 211.56C102.86 211.28 102.45 211 102.03 210.73C101.15 210.1 100.27 209.53 99.36 209C98.45 208.47 97.25 207.76 96.16 207.18C95.07 206.6 94.08 206.18 93.04 205.63C92.78 205.5 92.52 205.36 92.25 205.25C92.1581 205.21 92.0593 205.189 91.9592 205.188C91.8592 205.187 91.7598 205.205 91.6669 205.242C91.574 205.279 91.4894 205.335 91.4178 205.405C91.3463 205.475 91.2892 205.558 91.25 205.65C91.2104 205.742 91.1899 205.84 91.1899 205.94C91.1899 206.04 91.2104 206.138 91.25 206.23C91.3337 206.411 91.479 206.556 91.66 206.64Z" fill="#828282"/>
<path d="M100 217.7C100.015 217.581 99.9903 217.46 99.9308 217.355C99.8714 217.251 99.78 217.168 99.67 217.12C99.5307 217.071 99.3865 217.038 99.24 217.02C98.98 217.02 98.71 216.95 98.45 216.93C97.94 216.93 97.45 216.83 96.92 216.78L95 216.58L93 216.36L91.26 216.17C90.6 216.09 89.94 216 89.26 215.97C89.0734 215.975 88.8954 216.05 88.7607 216.179C88.6261 216.308 88.5446 216.483 88.5321 216.67C88.5196 216.856 88.577 217.04 88.6931 217.186C88.8093 217.332 88.9757 217.43 89.16 217.46C89.65 217.46 90.16 217.52 90.63 217.54C90.97 217.54 91.32 217.54 91.63 217.6H91.68H92.11C93.42 217.69 94.72 217.79 96.03 217.91L97.89 218.06L98.89 218.13H99.32H99.44C99.569 218.135 99.6957 218.095 99.7981 218.017C99.9005 217.938 99.972 217.826 100 217.7Z" fill="#828282"/>
<path d="M101.74 223.44C101.465 223.395 101.185 223.395 100.91 223.44L99.91 223.51C99.33 223.57 98.75 223.64 98.18 223.74C96.97 223.93 95.76 224.17 94.54 224.27C93.32 224.37 92.25 224.27 91.11 224.36C90.54 224.36 89.97 224.44 89.4 224.49C88.83 224.54 88.24 224.61 87.66 224.7C87.5054 224.739 87.37 224.832 87.2788 224.963C87.1876 225.093 87.1468 225.253 87.1638 225.411C87.1809 225.569 87.2547 225.716 87.3716 225.825C87.4886 225.933 87.6407 225.995 87.8 226H87.88C88.4 226 88.88 225.87 89.43 225.81C89.98 225.75 90.43 225.7 90.86 225.67C91.76 225.61 92.66 225.67 93.55 225.59C94.1858 225.572 94.8201 225.518 95.45 225.43C96.07 225.34 96.68 225.23 97.3 225.12C97.92 225.01 98.51 224.89 99.12 224.82C99.73 224.75 100.24 224.7 100.8 224.66H101.55H101.78C101.85 224.633 101.916 224.599 101.98 224.56C102.085 224.474 102.156 224.353 102.18 224.219C102.204 224.085 102.179 223.947 102.11 223.83C102.087 223.739 102.041 223.655 101.976 223.587C101.911 223.518 101.83 223.468 101.74 223.44Z" fill="#828282"/>
<path d="M104.06 230C104.021 229.909 103.955 229.833 103.871 229.781C103.787 229.729 103.689 229.704 103.59 229.71C103.383 229.734 103.181 229.788 102.99 229.87L102.26 230.16L100.72 230.76L97.79 231.86L96.27 232.43L94.66 233C93.54 233.42 92.42 233.81 91.3 234.22C91.1386 234.293 91.0113 234.424 90.9443 234.588C90.8773 234.752 90.8757 234.935 90.94 235.1C90.9918 235.221 91.0784 235.323 91.1889 235.395C91.2994 235.466 91.4286 235.503 91.56 235.5C91.649 235.499 91.737 235.482 91.82 235.45C92.89 235.06 93.94 234.62 94.99 234.2L97.93 233.04C98.93 232.63 100.01 232.24 101.04 231.84C101.57 231.62 102.11 231.41 102.64 231.18C102.9 231.07 103.16 230.95 103.41 230.82C103.604 230.741 103.784 230.63 103.94 230.49C104.004 230.428 104.048 230.349 104.07 230.262C104.091 230.176 104.087 230.085 104.06 230Z" fill="#828282"/>
<path d="M103.95 230.51L103.94 230.52L103.95 230.51Z" fill="#828282"/>
</g>
</g>
<defs>
<clipPath id="clip0_6_617">
<rect width="444" height="444" fill="white" transform="translate(-126)"/>
</clipPath>
<clipPath id="clip1_6_617">
<rect width="45.71" height="40.47" fill="white" transform="translate(80 202)"/>
</clipPath>
</defs>
</svg>
