<svg width="131" height="234" viewBox="0 0 131 234" fill="none" xmlns="http://www.w3.org/2000/svg">
<g clip-path="url(#clip0_12_2073)">
<path d="M72.5315 15.6733L72.8299 14.3482C73.1923 12.5453 73.7743 10.7938 74.5629 9.13333C75.1643 7.83613 76.1011 6.72422 77.2761 5.91322C78.3756 5.05456 79.7455 4.61975 81.1373 4.68772C82.5291 4.75569 83.8505 5.32194 84.8616 6.28367C86.4155 7.69602 87.4217 9.61371 87.7027 11.698C88.3196 15.2529 88.6757 18.8484 88.768 22.4555C89.0521 30.748 89.0095 39.0548 88.768 47.3473C88.7109 50.8102 88.8531 54.2736 89.1942 57.7201C89.6061 62.1513 90.0323 66.5825 90.43 71.0137C90.8278 75.445 91.1971 79.691 91.6091 84.0225C91.7511 85.6183 91.9642 87.1998 92.1773 88.7814C92.1813 89.0273 92.2364 89.2696 92.3392 89.4928C92.4419 89.7161 92.59 89.9154 92.7739 90.078C92.9302 89.7788 93.0864 89.5223 93.2001 89.2516C93.8796 87.2852 94.4114 85.2706 94.791 83.2245C95.554 79.4285 96.0289 75.58 96.2116 71.7119C96.3962 68.3066 96.6093 64.887 96.5951 61.4816C96.5809 58.0763 96.311 54.9132 96.1263 51.6218C95.7419 46.5498 95.9709 41.4499 96.8082 36.4331C97.0502 35.165 97.4561 33.934 98.0156 32.7713C98.4659 31.6959 99.1334 30.7256 99.9759 29.9216C100.442 29.4093 101.022 29.0136 101.668 28.7661C102.314 28.5187 103.009 28.4265 103.698 28.4968C104.359 28.521 104.988 28.7937 105.459 29.2607C105.93 29.7278 106.209 30.3552 106.24 31.0187C106.382 32.2298 106.439 33.441 106.468 34.6378C106.61 40.1092 107.05 45.5663 107.647 51.0091C108.073 54.9701 108.57 58.9312 109.067 62.8922C109.129 63.4458 109.162 64.0022 109.167 64.5593C109.167 68.7198 109.167 72.8803 109.081 77.0408C109.081 82.4979 108.982 87.9407 109.081 93.3836C109.081 96.1335 109.493 98.8834 109.806 101.619C110.549 107.764 110.844 113.954 110.687 120.142C110.601 122.464 110.573 124.787 110.502 127.109C110.192 137.299 109.009 147.443 106.965 157.43C105.599 164.531 103.47 171.463 100.615 178.104C97.847 184.513 94.1203 190.462 89.5635 195.743C89.4383 195.893 89.3056 196.035 89.1658 196.171C89.0161 196.309 88.8999 196.48 88.8261 196.67C88.7522 196.86 88.7226 197.065 88.7396 197.268C88.696 201.6 89.0527 205.926 89.805 210.191C90.7384 215.09 91.9959 219.922 93.5694 224.653C93.7256 225.138 93.8393 225.622 93.9671 226.078C94.0539 226.32 94.0498 226.585 93.9556 226.823C93.8615 227.062 93.6837 227.258 93.4557 227.375C91.6907 228.564 89.7812 229.522 87.7737 230.224C84.0909 231.534 80.2824 232.455 76.4096 232.974C70.295 233.847 64.1106 234.123 57.9428 233.801C49.8643 233.56 41.8494 232.287 34.0924 230.011C32.8707 229.626 31.6775 229.184 30.4843 228.714C29.291 228.244 29.3479 228.116 29.6036 227.018C30.1291 224.682 30.6973 222.359 31.2087 220.008C32.0259 215.978 32.581 211.9 32.8707 207.798C33.1524 204.638 33.2425 201.464 33.1406 198.294C33.1406 196.655 32.9844 195.017 32.8565 193.364C32.8303 193.057 32.7057 192.767 32.5014 192.538C30.382 190.249 28.5719 187.691 27.1177 184.929C22.4809 176.395 19.13 167.219 17.174 157.7C16.6769 155.378 16.3643 153.027 15.9666 150.69C15.3374 147.183 14.2682 143.769 12.7846 140.531C12.0886 138.935 11.3641 137.382 10.5118 135.829C9.29017 133.464 7.9833 131.142 6.81848 128.705C5.36961 126.102 4.7128 123.13 4.92919 120.156C5.17068 115.882 5.28432 111.45 5.14227 107.105C5.01442 103.5 4.80134 99.8951 4.64509 96.2903C4.55986 94.21 4.48883 92.1297 4.47462 90.0495C4.48753 89.2047 4.59232 88.3638 4.78714 87.5418C4.81336 87.3259 4.88218 87.1173 4.98958 86.9284C5.09699 86.7394 5.24084 86.5738 5.41273 86.4411C5.58462 86.3085 5.78112 86.2115 5.99077 86.1559C6.20041 86.1002 6.41901 86.087 6.63381 86.117C7.60254 86.0958 8.56585 86.2675 9.46801 86.6221C10.3702 86.9767 11.1933 87.5072 11.8897 88.183C12.838 89.0951 13.6215 90.1654 14.2052 91.3461C16.0942 94.86 17.1673 98.7565 17.3445 102.745C17.3445 104.269 17.4439 105.794 17.3445 107.318C17.2573 110.28 17.9015 113.216 19.2196 115.867C20.91 119.23 22.643 122.593 24.4187 125.841C25.7113 128.278 27.0892 130.671 28.4245 133.079C28.546 133.324 28.7267 133.535 28.9501 133.692C28.9501 133.55 28.9501 133.393 28.9501 133.25C28.3251 130.401 27.6717 127.551 27.0892 124.602C26.2667 120.246 26.0231 115.799 26.3648 111.379C26.6773 106.122 27.5012 100.935 28.2114 95.7061C28.4529 93.9678 28.595 92.201 28.7512 90.4484C28.9075 88.6959 29.1064 86.8294 29.1632 85.0198C29.3195 79.463 29.4615 73.8919 29.5325 68.3351C29.6812 63.5858 30.089 58.8483 30.7542 54.1437C31.3366 49.4133 31.9048 44.6829 32.402 39.8954C32.9418 34.8515 33.3253 29.7791 33.9077 24.7352C34.3197 21.1304 34.9163 17.6111 35.4703 13.9635C35.6324 13.1787 35.8801 12.4142 36.209 11.6838C36.6513 10.5827 37.3948 9.6294 38.3539 8.93386C39.0573 8.34331 39.9275 7.98862 40.8421 7.91962C41.7568 7.85062 42.6701 8.07078 43.4536 8.54915C44.8693 9.28189 45.9445 10.5392 46.4509 12.0542C46.9763 13.6633 47.3193 15.3266 47.4736 17.0126C47.8287 21.1608 47.8287 25.3318 47.4736 29.4799C47.1611 34.3101 46.664 39.126 46.3514 43.9562C46.0957 47.7463 45.8969 51.5506 45.8827 55.3548C45.9176 57.7411 46.1217 60.1218 46.4935 62.479C47.0901 66.7535 47.7862 71.028 48.5106 75.388C49.093 78.8361 49.7891 82.2842 50.4425 85.718C50.6293 86.7743 51.0359 87.7792 51.6358 88.6674C51.8155 88.955 52.059 89.1972 52.3473 89.3751C52.6355 89.553 52.9608 89.6619 53.2978 89.6933C53.5137 89.7246 53.734 89.6912 53.9311 89.5975C54.1282 89.5037 54.2933 89.3536 54.4058 89.1661C54.7426 88.6556 54.9161 88.0541 54.9029 87.442C54.9029 83.823 54.9029 80.1897 54.7325 76.5563C54.562 72.923 54.3063 69.6032 54.0648 66.1266C53.937 64.2458 53.7523 62.365 53.5961 60.4273C53.4233 57.4013 53.5518 54.3657 53.9796 51.3653C54.5478 46.3927 55.0308 41.3915 55.4001 36.4046C55.5848 33.6404 55.8547 30.862 56.0251 28.0836C56.1956 25.3052 56.2666 22.769 56.3945 20.1045C56.5246 15.506 57.1195 10.9327 58.1701 6.45465C58.4333 5.06616 58.9382 3.73499 59.6617 2.52212C60.274 1.54413 61.1812 0.787479 62.2516 0.362124C63.322 -0.0632316 64.4997 -0.135123 65.6136 0.156899C67.0511 0.530884 68.3034 1.4173 69.1365 2.65035C70.48 4.52416 71.3877 6.67615 71.7929 8.94811C72.131 10.83 72.321 12.7356 72.3611 14.6474C72.3611 14.9894 72.3611 15.3313 72.3611 15.6591L72.5315 15.6733ZM33.7515 212.058H33.9077C34.0024 211.842 34.1116 211.632 34.2344 211.431C34.9305 210.191 35.655 208.937 36.3652 207.726C36.9887 206.714 37.7761 205.814 38.6949 205.062C39.3125 204.517 40.0319 204.1 40.8114 203.836C41.4068 203.627 42.0464 203.578 42.6668 203.693C43.2872 203.808 43.8669 204.083 44.3485 204.492C44.981 205.022 45.4984 205.677 45.8685 206.415C46.4034 207.45 46.7952 208.552 47.0333 209.693C47.6506 212.758 47.8228 215.896 47.5447 219.011C47.5447 219.324 47.5447 219.638 47.5447 219.966H47.7151L48.1697 219.353C49.1057 217.993 50.3035 216.836 51.6926 215.948C52.7207 215.295 53.9307 214.99 55.1444 215.078C55.8928 215.154 56.6175 215.384 57.2727 215.754C57.928 216.124 58.4996 216.627 58.9514 217.23C59.9762 218.565 60.7029 220.105 61.0822 221.747L61.2953 222.473H61.4515C61.4515 222.188 61.5936 221.889 61.6788 221.604C62.1618 219.98 62.6021 218.341 63.0993 216.745C63.7657 214.775 64.7234 212.916 65.9403 211.231C66.7361 210.067 67.7792 209.094 68.9945 208.382C69.7293 207.949 70.5709 207.733 71.4227 207.758C72.2745 207.783 73.1019 208.049 73.81 208.524C74.4849 208.943 75.0891 209.468 75.5999 210.077C76.2854 210.888 76.8719 211.777 77.3471 212.727C78.0147 214.152 78.5119 215.648 79.0659 217.116C79.0659 217.273 79.208 217.415 79.2648 217.572C79.3613 217.434 79.4156 217.27 79.421 217.102C79.5707 215.486 79.9092 213.893 80.4296 212.357C80.7115 211.59 81.0734 210.854 81.5092 210.163C81.8525 209.667 82.2922 209.245 82.8019 208.923C83.237 208.672 83.7329 208.548 84.2344 208.563C84.736 208.578 85.2235 208.732 85.6429 209.009C86.677 209.642 87.548 210.511 88.1856 211.545C88.3277 211.744 88.4697 211.958 88.626 212.157H88.7538C87.8044 207.47 87.3709 202.692 87.4612 197.909L86.8219 198.408C85.6713 199.291 84.5349 200.175 83.3701 201.044C83.0168 201.292 82.6353 201.498 82.2337 201.657C81.9496 201.785 81.6513 201.785 81.566 201.315C81.6752 201.138 81.7987 200.972 81.9354 200.816C82.2561 200.494 82.5978 200.194 82.9581 199.918C85.48 198.079 87.757 195.925 89.734 193.506C92.3273 190.285 94.6282 186.837 96.6093 183.205C99.925 177.021 102.454 170.444 104.138 163.628C105.817 157.212 107.093 150.698 107.959 144.122C108.879 137.068 109.354 129.963 109.38 122.849C109.38 119.344 109.536 115.825 109.38 112.32C109.223 108.815 108.854 105.195 108.471 101.619C108.13 98.5985 107.789 95.5636 107.732 92.5144C107.632 85.6468 107.732 78.7648 107.888 71.8971C108.077 68.2705 107.968 64.6343 107.561 61.0257C107.036 57.4209 106.652 53.7733 106.311 50.14C105.97 46.7204 105.715 43.3008 105.488 39.8669C105.345 37.5017 105.303 35.1365 105.203 32.7428C105.186 32.0927 105.12 31.4449 105.005 30.805C104.848 29.9644 104.493 29.7079 103.584 29.6509C102.757 29.592 101.939 29.8519 101.297 30.3776C100.396 31.0823 99.6675 31.9838 99.1662 33.0135C98.6077 34.2365 98.2205 35.5311 98.0156 36.8605C97.2493 41.986 97.0777 47.1833 97.5042 52.3485C97.7173 55.9533 97.9588 59.5581 97.9304 63.1629C97.89 68.3146 97.5294 73.4587 96.8508 78.5653C96.4446 81.8111 95.794 85.0214 94.9047 88.1687C94.6902 89.1142 94.305 90.0124 93.7683 90.8189C93.6779 90.9852 93.5472 91.1259 93.3882 91.228C93.2292 91.3302 93.0471 91.3904 92.8587 91.4032C92.6703 91.416 92.4818 91.3809 92.3105 91.3012C92.1393 91.2214 91.9908 91.0997 91.879 90.9471C91.5381 90.5734 91.2898 90.1243 91.1545 89.6363C90.9242 88.7002 90.7675 87.7473 90.6857 86.7866C90.43 84.3074 90.217 81.8282 90.0039 79.349C89.6772 75.8439 89.3647 72.3531 89.0379 68.8623C88.7112 65.3714 88.3987 62.1655 88.1004 58.8884C87.7385 55.6432 87.5677 52.3795 87.589 49.1141C87.589 46.1789 87.8447 43.258 87.8305 40.3229C87.8305 35.0795 87.7169 29.8219 87.6032 24.6497C87.5707 20.5352 87.224 16.4292 86.5662 12.3677C86.3671 10.4449 85.4907 8.65646 84.0945 7.3238C83.3616 6.5876 82.4047 6.11776 81.3755 5.98872C80.3463 5.85967 79.3035 6.0788 78.4125 6.61138C77.2237 7.25919 76.258 8.25259 75.6425 9.46105C74.6303 11.5786 73.9591 13.8437 73.6538 16.172C73.2276 19.0217 72.8583 21.9283 72.5457 24.892C71.9775 30.3776 71.4235 35.8632 71.2815 41.3773C71.2815 42.8021 71.1679 44.2269 71.1394 45.6518C71.1394 47.8032 70.9832 49.9262 71.0542 52.1062C71.1678 55.2979 71.4662 58.4752 71.5656 61.6669C71.7361 67.4517 71.8213 73.2365 71.9207 79.0213C72.006 83.538 71.9207 88.069 72.4605 92.5714C72.4676 92.6711 72.4676 92.771 72.4605 92.8707C72.4605 93.1841 72.3185 93.4406 71.9775 93.4833C71.9047 93.4955 71.8301 93.4929 71.7583 93.4757C71.6865 93.4585 71.6188 93.4271 71.5592 93.3833C71.4997 93.3394 71.4494 93.2841 71.4115 93.2206C71.3736 93.157 71.3487 93.0865 71.3383 93.0131C71.2529 92.7104 71.1958 92.4004 71.1678 92.087C71.0826 90.8189 70.9548 89.5365 70.9264 88.2542C70.7559 80.3464 70.5996 72.4243 70.415 64.5165C70.415 61.6669 70.2161 58.8172 70.1025 56.0388C70.003 53.6451 69.8326 51.2513 69.79 48.9146C69.79 47.2761 69.9036 45.6233 69.9746 43.9847C70.2019 39.7102 70.3724 35.279 70.6565 30.9332C70.9974 25.8609 71.2957 20.7885 71.1394 15.7018C71.1398 13.3767 70.9115 11.0572 70.4576 8.77713C69.9869 6.52174 68.9779 4.41451 67.5171 2.63611C67.0933 2.21826 66.5904 1.88959 66.0382 1.66939C65.4859 1.4492 64.8953 1.34193 64.3012 1.35387C63.707 1.36582 63.1212 1.49675 62.5781 1.73896C62.0351 1.98117 61.5458 2.32979 61.139 2.76434C60.6135 3.4537 60.1923 4.21709 59.889 5.02982C59.4171 6.43042 59.0282 7.85773 58.7241 9.30431C58.0344 13.0694 57.6072 16.8782 57.4457 20.703C57.0763 26.0746 56.7638 31.4604 56.4371 36.8463C56.1388 41.9472 55.6132 47.0338 55.0166 52.1062C54.6899 54.528 54.59 56.9752 54.7183 59.4156C54.8603 61.3961 55.045 63.3767 55.2155 65.3429C55.7268 71.5694 56.1388 77.7959 56.082 84.051C56.082 86.3734 56.0109 88.6959 55.9541 91.0184C55.931 91.4018 55.8787 91.7828 55.7979 92.1582C55.7801 92.2942 55.7116 92.4184 55.6061 92.5057C55.5007 92.5929 55.3661 92.6368 55.2297 92.6284C54.9171 92.6284 54.7893 92.3435 54.7467 92.0728C54.7183 91.8791 54.7183 91.6823 54.7467 91.4886V90.7477C54.4058 90.7477 54.1359 90.9044 53.8518 90.9329C53.2008 91.0216 52.5383 90.9097 51.9522 90.6119C51.3662 90.3142 50.8842 89.8447 50.5704 89.2658C49.8136 88.0202 49.298 86.6425 49.0504 85.2051C48.4064 81.7855 47.7956 78.3611 47.218 74.932C46.5645 70.9852 45.8827 67.0527 45.3429 63.1059C44.9853 60.5405 44.7624 57.958 44.6752 55.3691C44.5994 51.3779 44.7655 47.3858 45.1724 43.4148C45.5559 38.5418 46.1242 33.6832 46.3372 28.796C46.529 25.3886 46.529 21.9731 46.3372 18.5657C46.2654 16.5538 45.97 14.5562 45.4565 12.6099C45.1293 11.5101 44.4504 10.5488 43.5246 9.87425C42.9315 9.40862 42.2037 9.14857 41.4507 9.13315C40.6976 9.11774 39.9599 9.34779 39.3483 9.78876C38.439 10.4013 37.7358 11.2755 37.3312 12.2965C36.9979 13.1777 36.7134 14.0767 36.4789 14.9894C35.8404 17.9472 35.4132 20.947 35.2004 23.9658C34.6322 29.5084 34.1634 35.051 33.581 40.5794C33.0696 45.3525 32.5014 50.0972 31.8906 54.8277C31.2312 59.798 30.866 64.8032 30.7968 69.8169C30.7968 74.2909 30.5837 78.7648 30.5411 83.2388C30.4222 88.0092 30.0095 92.7677 29.3052 97.4871C28.7086 102.047 28.0694 106.592 27.7427 111.194C27.3527 116.364 27.7213 121.563 28.8365 126.625C29.632 130.23 30.257 133.877 31.0241 137.511C31.0682 137.755 31.0919 138.003 31.0951 138.252C30.4843 138.707 30.1149 138.593 29.6746 137.867C28.4813 135.758 27.2313 133.692 26.0949 131.555C23.5095 126.805 20.9573 122.004 18.4383 117.15C16.8045 114.089 16.015 110.645 16.1513 107.176C16.1513 106.065 16.1513 104.939 16.1513 103.828C16.0957 99.7958 15.0983 95.8331 13.2392 92.258C12.7821 91.3246 12.2299 90.4413 11.5914 89.622C10.5028 88.2648 8.93704 87.3776 7.21622 87.1428C6.90371 87.1428 6.56278 87.1428 6.19345 87.1428C6.06669 87.3878 5.96667 87.6457 5.89514 87.9122C5.77777 88.5618 5.70657 89.2189 5.68206 89.8785C5.68206 90.9614 5.68206 92.0443 5.7957 93.1414C5.99458 97.4634 6.19818 101.79 6.40653 106.122C6.60785 110.69 6.56043 115.265 6.26447 119.828C6.07114 121.836 6.32839 123.861 7.01735 125.756C7.61396 127.181 8.19638 128.605 8.89243 130.03C9.94361 132.068 11.1084 134.077 12.188 136.129C14.8293 141.014 16.6257 146.314 17.5008 151.802C18.253 157.12 19.4602 162.364 21.1089 167.475C23.0789 173.683 25.6728 179.674 28.8507 185.356C31.04 189.293 34.0663 192.698 37.7147 195.33C37.943 195.502 38.1525 195.698 38.3397 195.914C38.3888 195.96 38.428 196.015 38.4547 196.076C38.4815 196.137 38.4954 196.204 38.4954 196.271C38.4954 196.338 38.4815 196.404 38.4547 196.465C38.428 196.526 38.3888 196.581 38.3397 196.627C38.0744 196.711 37.7917 196.723 37.5201 196.663C37.2484 196.603 36.9971 196.473 36.7914 196.285C36.0527 195.729 35.3708 195.145 34.6322 194.575C34.4901 194.461 34.3339 194.376 34.0498 194.176C34.5914 200.13 34.4914 206.125 33.7515 212.058ZM92.8165 226.306L92.575 225.537L90.4585 219.21C89.8666 217.313 89.096 215.476 88.1572 213.725C87.5978 212.649 86.8794 211.664 86.0264 210.804C85.7193 210.495 85.3702 210.231 84.9895 210.02C84.695 209.814 84.3334 209.727 83.9775 209.777C83.6216 209.827 83.298 210.011 83.0718 210.291C82.6654 210.706 82.3338 211.188 82.0916 211.716C81.6609 212.793 81.3189 213.903 81.0688 215.036C80.5273 218.038 80.3461 221.095 80.529 224.14C80.5575 224.501 80.5575 224.863 80.529 225.223C80.5257 225.36 80.4711 225.49 80.3763 225.587C80.2815 225.685 80.1534 225.743 80.0177 225.75C79.871 225.771 79.7222 225.733 79.6028 225.646C79.4834 225.558 79.4029 225.427 79.3784 225.28C79.2987 224.953 79.2464 224.619 79.2222 224.283C78.983 221.802 78.5073 219.349 77.8017 216.959C77.2682 215.071 76.418 213.289 75.2873 211.687C74.8233 211.037 74.2792 210.448 73.668 209.935C73.0868 209.426 72.355 209.122 71.5851 209.071C70.8153 209.019 70.0498 209.223 69.4064 209.65C68.5794 210.107 67.8695 210.751 67.3325 211.531C66.5723 212.601 65.9069 213.735 65.3437 214.922C64.593 216.599 63.9478 218.321 63.4118 220.08C62.6187 222.571 62.0995 225.141 61.8635 227.745C61.8635 228.401 61.5936 228.572 60.9117 228.5C60.6669 228.179 60.5504 227.778 60.585 227.375C60.443 225.95 60.3577 224.525 60.1162 223.2C59.8547 221.441 59.1777 219.77 58.1417 218.327C57.8437 217.845 57.4498 217.431 56.9846 217.109C56.5193 216.787 55.9929 216.565 55.4381 216.456C54.8834 216.348 54.3123 216.356 53.7607 216.479C53.2091 216.602 52.6888 216.839 52.2324 217.173C51.3244 217.731 50.5214 218.445 49.8601 219.282C48.6372 220.712 47.6755 222.347 47.0191 224.112C46.8202 224.682 46.6213 224.782 45.9821 224.696C45.627 224.397 45.7122 224.012 45.7832 223.627C46.3912 220.34 46.5963 216.991 46.3941 213.654C46.3112 211.864 45.9813 210.095 45.4139 208.396C45.1432 207.515 44.7095 206.693 44.1354 205.974C43.7712 205.463 43.2312 205.106 42.6198 204.972C42.0084 204.838 41.3692 204.936 40.8256 205.247C40.2702 205.535 39.7545 205.894 39.2915 206.316C38.7642 206.802 38.2881 207.342 37.871 207.926C35.396 211.249 33.6266 215.046 32.6719 219.082C32.0279 221.761 31.3934 224.444 30.7684 227.132C30.7684 227.261 30.7684 227.403 30.6974 227.517C30.7438 227.562 30.7964 227.601 30.8536 227.631L31.4644 227.859C40.1867 230.736 49.2766 232.339 58.4542 232.618C62.8164 232.813 67.1867 232.723 71.5372 232.347C75.6289 232.033 79.6841 231.351 83.6542 230.31C86.5395 229.595 89.3089 228.473 91.879 226.976C92.1915 226.791 92.4756 226.548 92.8165 226.335V226.306Z" stroke="#E3B773" stroke-width="1.5"/>
<path d="M81.8501 121.267C81.6797 123.704 81.5234 125.984 81.353 128.292L82.1769 128.805C88.8844 132.671 94.9594 137.549 100.189 143.267C101.737 144.991 103.115 146.857 104.564 148.667C104.717 148.857 104.841 149.068 104.934 149.294C105.09 149.65 105.033 149.949 104.522 150.149C104.29 149.98 104.072 149.794 103.868 149.593C103.286 148.923 102.718 148.168 102.164 147.527C96.5223 140.523 89.6526 134.613 81.8928 130.087L81.2819 129.774C81.2819 130.059 81.1825 130.272 81.1683 130.5C80.8416 133.578 80.5433 136.67 80.2023 139.747C79.4069 146.843 78.4078 153.905 77.2051 160.935C76.4806 165.209 75.6283 169.484 74.8328 173.758C74.7476 174.228 74.6197 174.698 74.4919 175.183C74.4666 175.368 74.387 175.542 74.263 175.681C74.139 175.821 73.9764 175.92 73.7958 175.967C73.618 175.824 73.4904 175.628 73.4316 175.408C73.3728 175.187 73.386 174.954 73.4691 174.741C73.6964 173.402 73.9379 172.063 74.1936 170.737C75.6141 163.357 76.8925 155.933 77.8869 148.467C78.6114 142.982 79.208 137.468 79.8472 131.968C79.9609 131.013 80.0177 130.044 80.1029 128.99C78.4267 128.149 76.7931 127.266 75.1169 126.468C73.4407 125.67 71.7929 124.943 70.0883 124.259C68.3837 123.576 66.6222 122.92 64.8608 122.35C63.0993 121.78 61.3095 121.239 59.5054 120.783C57.7014 120.327 55.9399 119.928 54.1359 119.6C52.3318 119.273 50.4709 119.002 48.6243 118.802C46.7776 118.603 44.9309 118.46 43.0701 118.361C41.2092 118.261 39.4051 118.261 37.5727 118.261C35.7402 118.261 33.9077 118.489 32.1179 118.532C31.9474 118.019 32.1179 117.876 32.4304 117.805C32.8977 117.681 33.3721 117.586 33.8509 117.52C36.5856 117.209 39.3408 117.119 42.0899 117.249C49.2367 117.394 56.3317 118.501 63.1846 120.541C68.7791 122.223 74.194 124.457 79.35 127.209L80.245 127.665C80.4154 125.171 80.5859 122.792 80.7563 120.412L79.8046 119.686C72.7926 114.513 65.1558 110.252 57.0763 107.005C50.7065 104.349 44.1314 102.219 37.4164 100.636C37.0711 100.547 36.7408 100.408 36.4362 100.223C36.8282 100.063 37.2597 100.028 37.6721 100.123C38.8369 100.308 40.0017 100.479 41.1524 100.75C47.3496 102.226 53.409 104.233 59.2639 106.748C66.6466 109.817 73.6376 113.758 80.0887 118.489L80.799 118.959C81.0973 113.545 81.2393 108.259 81.1967 102.873H80.3728C76.3408 102.993 72.3076 102.682 68.341 101.947C65.0159 101.342 61.7957 100.258 58.781 98.7265C58.5202 98.5914 58.2687 98.4391 58.0281 98.2705C57.9592 98.2311 57.899 98.1778 57.8514 98.1142C57.8037 98.0505 57.7695 97.9778 57.7509 97.9004C57.7322 97.823 57.7296 97.7426 57.7431 97.6642C57.7565 97.5857 57.7858 97.5108 57.8292 97.4441C57.9084 97.32 58.0305 97.2296 58.172 97.1902C58.3136 97.1507 58.4646 97.1651 58.5963 97.2304L58.923 97.3871C62.259 99.1594 65.8713 100.35 69.6053 100.906C73.1958 101.54 76.8439 101.784 80.4865 101.633H80.9978L81.2109 101.533C81.424 100.308 81.0689 99.0542 81.3672 97.7006L82.3189 98.0853V101.505C82.6172 101.505 82.8019 101.505 82.9724 101.505C89.7784 101.156 96.4067 99.2037 102.32 95.8056C102.46 95.6844 102.628 95.5991 102.809 95.5569C102.989 95.5148 103.177 95.517 103.357 95.5634C103.183 95.8036 102.983 96.0235 102.76 96.2188C101.694 97.021 100.584 97.763 99.4361 98.4415C95.8709 100.263 92.0319 101.486 88.072 102.061C86.41 102.331 84.7196 102.488 83.0434 102.688L82.3615 102.787C82.2337 108.487 82.0916 114.1 81.9638 119.885L82.4752 120.355C88.0732 124.833 93.2989 129.761 98.1008 135.088C98.5412 135.558 98.939 136.086 99.3367 136.599C99.4436 136.721 99.5025 136.878 99.5025 137.04C99.5025 137.203 99.4436 137.36 99.3367 137.482C98.9105 137.624 98.6549 137.311 98.4134 137.069C97.6179 136.257 96.8366 135.43 96.0553 134.618C91.8506 130.072 87.3265 125.834 82.5178 121.937C82.3899 121.709 82.2195 121.552 81.8501 121.267Z" stroke="#E3B773" stroke-width="1.5"/>
<path d="M36.7203 126.439C36.9902 126.796 37.2459 127.166 37.5442 127.508C39.4335 129.645 41.2944 131.783 43.2263 133.906C48.634 139.712 53.6052 145.913 58.0991 152.457C62.7046 159.197 66.5629 166.421 69.6053 174C71.5142 178.763 72.7987 183.753 73.4265 188.847C73.7933 191.634 73.8552 194.453 73.6111 197.254C73.581 197.636 73.5288 198.017 73.4549 198.393C73.4305 198.607 73.3508 198.81 73.2236 198.982C73.0965 199.155 72.9264 199.291 72.7304 199.377C72.6466 199.266 72.5839 199.14 72.5458 199.006C72.4868 198.624 72.463 198.238 72.4747 197.852C72.8174 188.893 71.0662 179.979 67.3609 171.82C64.2355 164.714 60.4296 157.928 55.9967 151.559C52.1275 146.041 47.9443 140.751 43.4678 135.715C41.6353 133.621 39.8739 131.441 38.1125 129.318C37.6696 128.704 37.2754 128.056 36.9334 127.38C36.7999 127.107 36.6951 126.82 36.6209 126.525L36.7203 126.439Z" stroke="#E3B773" stroke-width="1.5"/>
<path d="M39.1352 164.241C39.2915 163.884 39.3909 163.642 39.5046 163.414C40.2006 161.875 40.9251 160.322 41.6211 158.812C41.8791 158.318 42.2042 157.863 42.5871 157.458C43.0872 156.808 43.7842 156.339 44.5732 156.12C45.3622 155.902 46.2006 155.947 46.9623 156.247C47.733 156.517 48.4018 157.019 48.8772 157.685C49.3527 158.351 49.6116 159.147 49.6186 159.966C49.634 160.69 49.5576 161.413 49.3914 162.118C49.0205 163.737 48.3921 165.286 47.5305 166.705C45.8272 169.728 43.8541 172.589 41.6353 175.254C41.5045 175.426 41.3621 175.587 41.2092 175.739C41.0895 175.903 40.9363 176.039 40.7598 176.139C40.5832 176.238 40.3875 176.299 40.1857 176.317C39.9839 176.334 39.7807 176.308 39.5897 176.241C39.3987 176.173 39.2244 176.065 39.0784 175.924C38.2022 175.285 37.3716 174.585 36.5925 173.83C34.7067 171.957 33.0301 169.883 31.5923 167.646C30.523 166.057 29.7972 164.261 29.4615 162.374C29.2766 161.52 29.2766 160.635 29.4615 159.781C29.5891 159.147 29.9559 158.587 30.4853 158.218C31.0147 157.849 31.6658 157.699 32.3025 157.8C33.3526 157.936 34.3402 158.377 35.1436 159.068C36.2587 160.04 37.2171 161.179 37.9846 162.445L39.1352 164.241ZM40.1154 175.183C40.3853 174.898 40.641 174.656 40.8683 174.385C41.6353 173.388 42.445 172.419 43.1269 171.365C44.4338 169.341 45.7122 167.29 46.9197 165.209C47.7001 163.814 48.1838 162.271 48.3402 160.678C48.4333 159.954 48.2887 159.219 47.9282 158.584C47.7355 158.241 47.4702 157.944 47.1508 157.715C46.8314 157.486 46.4658 157.33 46.0798 157.258C45.6938 157.186 45.2967 157.2 44.9166 157.298C44.5365 157.397 44.1825 157.578 43.8797 157.829C43.1463 158.465 42.5722 159.266 42.2035 160.166C41.5217 161.59 40.9109 163.186 40.2716 164.696C40.1303 165.084 39.9593 165.461 39.7603 165.822C39.4193 166.406 38.9648 166.435 38.567 165.893C38.1693 165.352 37.9136 164.882 37.5869 164.369C36.9618 163.414 36.3794 162.445 35.7118 161.519C35.2515 160.927 34.7327 160.383 34.1634 159.895C33.622 159.405 32.9418 159.096 32.2173 159.011C32.0391 158.965 31.853 158.958 31.6718 158.991C31.4906 159.024 31.3186 159.095 31.1675 159.201C31.0165 159.306 30.8899 159.443 30.7965 159.602C30.7031 159.762 30.645 159.939 30.6263 160.123C30.5245 160.643 30.5006 161.177 30.5553 161.704C30.7469 163.415 31.3409 165.056 32.2883 166.492C34.211 169.665 36.6613 172.484 39.533 174.827C39.7745 174.955 39.9165 175.055 40.1154 175.254V175.183Z" stroke="#E3B773" stroke-width="1.5"/>
<path d="M97.7599 106.178C98.0582 106.677 97.7599 107.005 97.6037 107.333C96.9125 108.358 96.4787 109.536 96.3394 110.766C96.1673 111.898 96.2698 113.055 96.6383 114.139C97.0067 115.223 97.6302 116.202 98.456 116.993C99.1456 117.716 100.038 118.211 101.014 118.415C101.99 118.618 103.005 118.52 103.925 118.133C104.057 118.07 104.195 118.023 104.337 117.99C104.444 117.963 104.556 117.965 104.662 117.995C104.767 118.026 104.863 118.084 104.94 118.163C105.016 118.243 105.07 118.341 105.097 118.448C105.123 118.556 105.121 118.668 105.09 118.774C105.036 118.959 104.95 119.133 104.834 119.287C103.891 120.652 102.578 121.719 101.05 122.36C99.5222 123.001 97.8433 123.191 96.2116 122.906C94.5459 122.74 92.9713 122.064 91.701 120.971C90.4306 119.878 89.5258 118.42 89.109 116.793C88.7772 115.601 88.7103 114.35 88.913 113.129C89.1156 111.908 89.5829 110.746 90.2818 109.726C90.9808 108.705 91.8943 107.851 92.9582 107.224C94.022 106.596 95.2101 106.21 96.4388 106.093C96.8807 106.09 97.3221 106.119 97.7599 106.178ZM102.76 119.686H102.277C101.285 119.724 100.297 119.53 99.3926 119.119C98.4879 118.709 97.6907 118.093 97.0639 117.321C95.9427 115.99 95.2535 114.348 95.0885 112.614C94.9235 110.88 95.2905 109.137 96.1405 107.618C96.2258 107.461 96.2968 107.29 96.3962 107.105C93.5552 107.247 90.7142 110.111 90.1318 113.189C89.8443 114.802 90.1089 116.465 90.8825 117.908C91.6561 119.351 92.8933 120.49 94.3933 121.139C95.7741 121.758 97.3073 121.95 98.7975 121.691C100.288 121.432 101.667 120.734 102.76 119.686Z" stroke="#E3B773" stroke-width="1.5"/>
<path d="M62.2896 86.3164C62.1391 85.7099 61.8352 85.1525 61.4072 84.6983C60.9792 84.244 60.4416 83.9081 59.8463 83.7232C59.5338 83.6235 59.1361 83.5807 59.2497 83.0535C59.3981 82.9162 59.582 82.8234 59.7803 82.7856C59.9787 82.7478 60.1837 82.7666 60.3719 82.8398C61.2555 83.0179 62.0379 83.5275 62.5595 84.2646C62.9005 84.7633 63.1846 85.2905 63.5397 85.8604H64.7897C64.9034 85.6182 65.0028 85.3618 65.1165 85.1053C65.2857 84.5838 65.5844 84.114 65.9845 83.7401C66.3846 83.3662 66.8729 83.1006 67.4035 82.968C67.7802 82.9116 68.1632 82.9116 68.5399 82.968C68.824 82.968 69.0087 83.2103 68.8666 83.6377C68.6023 83.7399 68.3318 83.8255 68.0569 83.8942C67.5156 84.0138 67.0309 84.3145 66.6824 84.7469C66.3339 85.1793 66.1424 85.7177 66.1392 86.2736C66.8255 86.6253 67.4082 87.1509 67.8293 87.7983C68.2504 88.4457 68.4954 89.1923 68.5399 89.964C68.5852 90.5584 68.5034 91.1557 68.3001 91.716C68.0968 92.2762 67.7766 92.7864 67.3609 93.2126C66.9702 93.6448 66.4955 93.9922 65.9659 94.2335C65.4363 94.4748 64.8631 94.6047 64.2816 94.6154C63.7001 94.6261 63.1225 94.5172 62.5845 94.2956C62.0465 94.0739 61.5594 93.7442 61.1532 93.3266C60.6416 92.8441 60.26 92.2397 60.0439 91.5696C59.8278 90.8994 59.7843 90.1853 59.9174 89.4938C60.056 88.822 60.3405 88.189 60.7505 87.6399C61.1604 87.0908 61.6859 86.6389 62.2896 86.3164ZM64.2357 93.4406C64.8582 93.4405 65.4668 93.2557 65.9848 92.9094C66.5027 92.5631 66.9069 92.0707 67.1464 91.4944C67.3859 90.9181 67.45 90.2835 67.3306 89.6707C67.2112 89.0579 66.9137 88.4943 66.4755 88.0508C66.0373 87.6073 65.478 87.3038 64.8682 87.1786C64.2583 87.0533 63.6252 87.1119 63.0485 87.347C62.4718 87.582 61.9773 87.983 61.6274 88.4994C61.2775 89.0158 61.0878 89.6246 61.0822 90.2489C61.0803 90.6648 61.1606 91.077 61.3184 91.4616C61.4762 91.8463 61.7084 92.1957 62.0016 92.4898C62.2949 92.7839 62.6432 93.0168 63.0267 93.1751C63.4102 93.3334 63.8211 93.4139 64.2357 93.412V93.4406Z" stroke="#E3B773" stroke-width="1.5"/>
<path d="M104.365 90.8048L105.175 91.389C105.313 91.4695 105.414 91.6012 105.457 91.7556C105.499 91.9101 105.48 92.0752 105.402 92.2154C105.36 92.2887 105.303 92.3529 105.236 92.4041C105.168 92.4554 105.091 92.4927 105.009 92.5139C104.927 92.5351 104.842 92.5398 104.758 92.5277C104.675 92.5156 104.594 92.4869 104.522 92.4433C104.31 92.3286 104.106 92.2001 103.911 92.0586C103.502 91.7696 103.027 91.5892 102.531 91.5344C102.034 91.4796 101.531 91.5521 101.07 91.7452L99.8623 92.2296C99.6978 92.3323 99.5141 92.4002 99.3225 92.4291C99.1236 92.4291 98.8253 92.3578 98.7685 92.2296C98.7344 92.1223 98.7256 92.0085 98.7429 91.8973C98.7601 91.786 98.8029 91.6803 98.8679 91.5884C99.1765 91.3311 99.5042 91.0977 99.8481 90.8903C99.8481 88.4253 99.7486 85.9461 99.706 83.4526C99.1662 83.0109 98.0866 83.1677 98.1435 82.0278C98.3892 82.0055 98.6364 82.0055 98.8821 82.0278L101.382 82.441C101.738 82.5101 102.105 82.5053 102.459 82.4269C102.813 82.3485 103.148 82.1981 103.442 81.9851C103.685 81.8289 103.936 81.6862 104.195 81.5576C104.323 81.4665 104.48 81.425 104.637 81.4408C104.794 81.4565 104.939 81.5283 105.047 81.6431C105.289 82.498 104.351 82.6405 104.01 83.1819C104.138 85.6469 104.252 88.2116 104.365 90.8048ZM103.058 90.2491C103.058 88.0121 102.931 85.8606 102.86 83.6521H100.857C100.942 85.9176 101.013 88.1261 101.098 90.3631L103.058 90.2491Z" stroke="#E3B773" stroke-width="1.5"/>
<path d="M34.8737 89.7643C34.8765 88.7858 35.1687 87.8302 35.7133 87.0184C36.2579 86.2066 37.0304 85.5752 37.933 85.204C38.8356 84.8328 39.8277 84.7386 40.7837 84.9333C41.7397 85.128 42.6166 85.6029 43.3034 86.2978C43.9902 86.9926 44.4559 87.8763 44.6418 88.8368C44.8276 89.7974 44.7251 90.7916 44.3472 91.6937C43.9694 92.5958 43.3332 93.3651 42.5192 93.9043C41.7052 94.4435 40.7499 94.7284 39.7745 94.7227C39.1262 94.7266 38.4837 94.6006 37.8846 94.3523C37.2854 94.1039 36.7418 93.7382 36.2854 93.2764C35.829 92.8146 35.469 92.2661 35.2266 91.6631C34.9842 91.06 34.8642 90.4145 34.8737 89.7643ZM39.7745 93.5544C40.5224 93.5572 41.2543 93.3373 41.8776 92.9226C42.5008 92.5078 42.9873 91.9169 43.2755 91.2246C43.5637 90.5323 43.6405 89.7698 43.4964 89.0337C43.3522 88.2975 42.9934 87.6209 42.4655 87.0894C41.9377 86.5579 41.2644 86.1956 40.5311 86.0482C39.7977 85.9008 39.0372 85.975 38.346 86.2614C37.6547 86.5479 37.0637 87.0336 36.6479 87.6572C36.2321 88.2808 36.0101 89.0141 36.0101 89.7643C36.0063 90.2619 36.101 90.7552 36.2887 91.2158C36.4764 91.6765 36.7533 92.0951 37.1034 92.4476C37.4535 92.8001 37.8699 93.0795 38.3284 93.2694C38.7869 93.4594 39.2784 93.5563 39.7745 93.5544Z" stroke="#E3B773" stroke-width="1.5"/>
<path d="M74.7476 89.5651C74.8482 89.4508 74.9847 89.3744 75.1345 89.3485C75.2843 89.3226 75.4385 89.3487 75.5715 89.4226C76.0402 89.6078 76.509 89.7931 76.992 90.0068C77.4382 90.258 77.9511 90.3641 78.46 90.3106C78.9688 90.257 79.4486 90.0463 79.833 89.7076C80.1401 89.47 80.4738 89.2692 80.8274 89.1092C81.225 88.8813 81.6716 88.7533 82.1292 88.7359C82.5867 88.7186 83.0417 88.8124 83.4553 89.0094C84.123 89.3086 84.8048 89.5366 85.4725 89.8216C85.8136 90.0037 86.1941 90.0989 86.5805 90.0989C86.9669 90.0989 87.3474 90.0037 87.6885 89.8216C87.7737 89.8216 87.8731 89.8216 88.0578 89.7218C88.2283 89.9213 88.3987 90.1493 88.555 90.3488C88.265 90.7737 87.8432 91.0907 87.3551 91.2505C86.8671 91.4102 86.34 91.4038 85.856 91.2321C85.0233 90.9821 84.2112 90.6677 83.4269 90.2918C82.999 90.0379 82.5007 89.9299 82.0065 89.9838C81.5123 90.0378 81.0488 90.2508 80.6853 90.591C80.0594 91.1547 79.2597 91.4862 78.4196 91.5302C77.5796 91.5743 76.7498 91.3283 76.0686 90.8332C75.7419 90.6337 75.401 90.4627 75.0601 90.2775C74.7192 90.0923 74.6197 89.9498 74.7476 89.5651Z" stroke="#E3B773" stroke-width="1.5"/>
<path d="M88.072 86.3024C88.0503 86.5533 87.9306 86.7854 87.7391 86.9482C87.5475 87.111 87.2995 87.1912 87.0492 87.1715C85.9374 87.305 84.8145 87.0373 83.8815 86.4164L82.6883 85.6042C82.4947 85.4552 82.2575 85.3744 82.0135 85.3744C81.7695 85.3744 81.5323 85.4552 81.3388 85.6042C80.9126 85.8892 80.5291 86.2169 80.1313 86.5303C79.6082 87.0317 78.9686 87.3941 78.2704 87.5847C76.9674 87.8026 75.6307 87.512 74.5345 86.7726C74.2646 86.6016 74.2788 86.5731 74.293 85.9889C74.5926 86.0019 74.8913 86.0304 75.1879 86.0744L76.9494 86.4876C77.2936 86.5546 77.6484 86.5433 77.9876 86.4545C78.3269 86.3658 78.642 86.2018 78.9097 85.9747C79.35 85.6184 79.7478 85.248 80.2024 84.906C80.6652 84.4457 81.2907 84.1875 81.9425 84.1875C82.5943 84.1875 83.2197 84.4457 83.6826 84.906C83.8673 85.0343 84.052 85.1483 84.2224 85.2907C84.644 85.615 85.1279 85.8482 85.6438 85.9757C86.1596 86.1032 86.6962 86.1223 87.2197 86.0316C87.6174 85.8749 87.93 85.8749 88.072 86.3024Z" stroke="#E3B773" stroke-width="1.5"/>
<path d="M56.3519 51.0662C57.6445 51.1802 58.923 51.3797 60.2015 51.394C61.5217 51.387 62.8404 51.3014 64.1505 51.1375C65.4432 50.9808 66.7074 50.7385 67.9433 50.5391C68.2842 50.9095 68.1564 51.1802 67.8438 51.3655C67.5921 51.509 67.3186 51.6101 67.0342 51.6647C64.2393 52.2994 61.3573 52.4536 58.5111 52.1206C57.9378 52.008 57.3729 51.8556 56.8206 51.6647C56.5934 51.5792 56.3235 51.4652 56.3519 51.0662Z" stroke="#E3B773" stroke-width="1.5"/>
<path d="M85.231 51.8642C85.1607 52.026 85.0458 52.1642 84.8998 52.2626C84.7539 52.3611 84.5829 52.4156 84.4071 52.4199C83.0718 52.6479 81.7507 52.9044 80.4154 53.0326C78.5144 53.2071 76.5979 53.087 74.7334 52.6764C74.4256 52.6211 74.1253 52.5303 73.8384 52.4057C73.6822 52.3344 73.5969 52.135 73.4691 51.9925L73.5685 51.8073C73.9805 51.8073 74.4066 51.8073 74.8186 51.907C77.1373 52.2278 79.4889 52.2278 81.8075 51.907C82.674 51.8073 83.5264 51.6505 84.3929 51.5508C84.6912 51.5793 85.0179 51.451 85.231 51.8642Z" stroke="#E3B773" stroke-width="1.5"/>
<path d="M43.3257 54.9561C43.482 55.412 43.1979 55.5402 42.928 55.6257C42.381 55.8145 41.8207 55.9622 41.2518 56.0674C39.0872 56.4338 36.872 56.3709 34.7316 55.8822C34.448 55.8222 34.1717 55.7315 33.9077 55.6115C33.8083 55.6115 33.7515 55.412 33.6094 55.2268C33.95 55.2053 34.2916 55.2053 34.6322 55.2268C37.2836 55.6778 39.9983 55.5906 42.6155 54.9703C42.8505 54.9333 43.0894 54.9285 43.3257 54.9561Z" stroke="#E3B773" stroke-width="1.5"/>
<path d="M99.6776 60.7124C100.402 60.7124 101.098 60.7124 101.908 60.7124C102.718 60.7124 103.399 60.5414 104.124 60.4132C104.848 60.285 105.544 60.1282 106.326 60C106.638 60.399 106.539 60.6269 106.24 60.7979C106.094 60.8848 105.936 60.9519 105.772 60.9974C104.121 61.4521 102.41 61.6397 100.7 61.5531C100.461 61.5371 100.223 61.499 99.9901 61.4391C99.706 61.2681 99.5072 61.1541 99.6776 60.7124Z" stroke="#E3B773" stroke-width="1.5"/>
<path d="M81.9496 50.3394C81.389 50.7381 80.7547 51.0203 80.0839 51.1696C79.413 51.3188 78.7192 51.3321 78.0432 51.2086C77.3521 51.2493 76.666 51.0697 76.0829 50.6956C76.2107 50.5674 76.2533 50.4677 76.2959 50.4677C78.0053 50.501 79.7147 50.4058 81.4098 50.1827C81.5518 50.1542 81.7223 50.2682 81.9496 50.3394Z" stroke="#E3B773" stroke-width="1.5"/>
<path d="M40.7688 89.6649C40.7584 89.9691 40.6343 90.2581 40.4211 90.4746C40.2079 90.6911 39.9212 90.8192 39.6182 90.8333C39.3093 90.8333 39.013 90.7102 38.7945 90.4911C38.5761 90.272 38.4534 89.9748 38.4534 89.6649C38.4534 89.3551 38.5761 89.0579 38.7945 88.8388C39.013 88.6197 39.3093 88.4966 39.6182 88.4966C39.9224 88.5074 40.2109 88.6344 40.4248 88.8516C40.6387 89.0688 40.7618 89.3597 40.7688 89.6649Z" stroke="#E3B773" stroke-width="1.5"/>
<path d="M8.72197 47.8174C8.62821 48.0166 8.56133 48.2274 8.5231 48.4443C8.45207 49.4417 8.38105 50.4248 8.35264 51.408C8.35264 53.417 8.28161 55.426 8.239 57.435C8.2483 57.6011 8.2483 57.7676 8.239 57.9337H1.13642C0.426157 57.9337 0.0710283 58.1902 0.0852335 58.6319C0.0994386 59.0735 0.426157 59.3158 1.10801 59.33C3.18196 59.33 5.25591 59.33 7.32987 59.33H8.2532C8.2532 61.3818 8.2532 63.3765 8.2532 65.3713C8.2532 67.3661 8.2532 69.3751 8.2532 71.3271C9.00607 71.6691 9.33279 71.5266 9.3612 70.8427C9.3612 69.8168 9.3612 68.8051 9.3612 67.7935C9.3612 65.2716 9.3612 62.7639 9.3612 60.2419V59.3158L10.6397 59.2303L15.8388 59.0593C16.1797 59.0593 16.5348 59.0593 16.6342 58.6176C16.7337 58.1759 16.3643 58.1759 16.0802 58.1617L13.2392 58.0192L9.94362 57.9194C9.7427 57.8931 9.54349 57.8551 9.347 57.8054C9.347 56.1384 9.347 54.4713 9.347 52.8185C9.35665 51.1665 9.26652 49.5154 9.0771 47.8744L8.72197 47.8174Z" fill="white"/>
<path d="M113.073 192.837H105.97C105.303 192.837 104.962 193.093 104.962 193.521C104.962 193.948 105.274 194.219 105.956 194.233H112.036H113.144V206.202C113.911 206.601 114.238 206.43 114.266 205.689C114.266 204.672 114.266 203.661 114.266 202.654C114.266 200.16 114.266 197.667 114.266 195.174V194.233C114.692 194.233 115.062 194.148 115.445 194.133L120.715 193.962C121.056 193.962 121.412 193.962 121.539 193.535C121.667 193.108 121.298 193.093 121 193.079L118.159 192.922L114.835 192.808C114.692 192.808 114.565 192.808 114.337 192.723C114.337 192.139 114.337 191.569 114.337 190.999C114.337 189.93 114.337 188.862 114.337 187.807C114.337 186.382 114.252 185.043 114.195 183.675C114.158 183.361 114.091 183.051 113.996 182.749C113.542 182.749 113.542 183.034 113.528 183.276C113.528 184.145 113.386 185.015 113.357 185.884C113.357 187.978 113.272 190.087 113.244 192.181C113.116 192.352 113.101 192.58 113.073 192.837Z" fill="white"/>
<path d="M101.297 8.96255C102.651 8.93616 104.003 8.8315 105.345 8.64909C105.544 8.29288 105.473 8.07915 105.189 7.99366C104.911 7.91733 104.625 7.86959 104.337 7.85118L101.311 7.7087V6.49759C101.311 4.91603 101.311 3.34871 101.311 1.7814C101.311 1.41094 101.311 1.41094 100.999 1.12598C100.587 1.28271 100.644 1.65316 100.629 1.96663L100.431 7.12452C100.442 7.31433 100.442 7.50463 100.431 7.69445C99.2089 7.96517 97.9446 7.69445 96.6377 7.89392C96.6377 8.1219 96.6377 8.33562 96.6377 8.66333L100.388 8.86281C100.402 9.11433 100.402 9.36645 100.388 9.61797V14.4054C100.388 14.7759 100.388 15.1321 100.388 15.4455C100.97 15.6878 101.098 15.6593 101.226 15.2461C101.295 14.9907 101.329 14.727 101.325 14.4624C101.325 12.9236 101.325 11.3705 101.325 9.81745L101.297 8.96255Z" fill="white"/>
<path d="M125.844 177.962C126.483 178.19 126.596 178.161 126.724 177.748C126.786 177.486 126.82 177.219 126.824 176.95C126.824 175.411 126.824 173.858 126.824 172.305V171.464C127.122 171.464 127.349 171.464 127.591 171.464C128.4 171.464 129.224 171.464 130.048 171.379C130.327 171.354 130.603 171.302 130.872 171.222C131.057 170.852 130.972 170.652 130.687 170.567C130.433 170.495 130.171 170.452 129.906 170.439L126.866 170.296C126.866 169.897 126.866 169.555 126.866 169.199C126.866 167.603 126.866 166.007 126.866 164.412C126.866 163.97 126.866 163.97 126.525 163.713C126.113 163.87 126.199 164.255 126.184 164.568C126.184 166.292 126.071 168.002 126.014 169.726C126.025 169.911 126.025 170.097 126.014 170.282C124.778 170.538 123.514 170.282 122.221 170.453V171.251L125.929 171.436L125.844 177.962Z" fill="white"/>
</g>
<defs>
<clipPath id="clip0_12_2073">
<rect width="131" height="234" fill="white"/>
</clipPath>
</defs>
</svg>
