<svg width="190" height="273" viewBox="0 0 190 273" fill="none" xmlns="http://www.w3.org/2000/svg">
<g clip-path="url(#clip0_94_6)">
<path d="M-109.703 235.33C-110.119 235.148 -110.452 234.818 -110.638 234.404C-110.824 233.991 -110.85 233.523 -110.71 233.091C-110.316 230.299 -109.918 227.485 -109.301 224.724C-107.162 215.149 -103.96 205.843 -99.7529 196.979C-91.9761 180.694 -81.5469 165.814 -68.8908 152.945C-60.2583 144.112 -50.8302 136.093 -40.7259 128.989C-36.1815 125.895 -32.8643 121.31 -31.3496 116.028C-30.7767 114.041 -30.3682 112.011 -30.128 109.958C-29.497 103.169 -28.3488 96.4384 -26.6933 89.8244C-25.4815 85.4389 -24.0685 81.0819 -22.5882 76.8938C-19.6819 68.4188 -16.4945 60.0519 -12.9589 51.8025C-11.8079 49.1399 -10.4204 46.5791 -9.09688 43.9864C-8.77875 43.3478 -8.44484 42.5976 -7.60541 42.4655C-7.04282 42.841 -7.15688 43.3262 -7.23915 43.7474C-7.86974 48.2149 -8.68263 52.52 -9.4826 56.8952C-10.2826 61.2705 -11.0831 65.3267 -11.9504 69.5329C-12.9255 74.1796 -13.923 78.8232 -14.9875 83.4572C-16.052 88.0913 -17.0311 92.2818 -18.1088 96.6862C-18.9697 100.396 -20.0713 104.045 -21.4066 107.612C-22.6383 110.875 -24.4153 113.906 -26.6618 116.576C-27.6494 117.757 -28.6754 118.889 -29.6407 120.074C-30.2368 120.649 -30.663 121.377 -30.8725 122.178C-30.1572 122.279 -29.6855 121.844 -29.1911 121.572C-24.8597 119.154 -20.5189 116.668 -16.1714 114.297C-14.0726 113.158 -11.9578 112.067 -9.77251 111.122C-9.02198 110.83 -8.34508 110.376 -7.78991 109.793C-7.23475 109.21 -6.81493 108.512 -6.56028 107.748C-5.62369 105.164 -4.82586 102.531 -4.1702 99.8611C-2.75485 93.2261 -1.54987 86.7893 -0.262079 80.2502C1.37369 71.8921 2.85297 63.5119 4.70912 55.2077C6.5815 46.0019 9.22912 36.971 12.6237 28.2112C13.6664 25.67 14.904 23.2019 16.1192 20.7307C16.2107 20.4012 16.3707 20.0947 16.5886 19.831C16.8065 19.5674 17.0775 19.3526 17.384 19.2005C18.0552 19.6142 17.7465 20.1858 17.6356 20.6486C17.2555 22.3719 16.7445 24.0541 16.3868 25.7806C14.5256 34.2496 13.1191 42.8121 12.1733 51.4313C11.8423 53.7768 11.6453 56.1411 11.3558 58.5152C10.6576 64.4313 10.0232 70.3791 9.21001 76.3017C8.49091 81.8566 7.26744 87.3345 5.55475 92.6676C4.75137 95.1286 3.7723 97.5421 2.72933 99.9237C1.70285 102.163 0.295724 104.207 -1.42958 105.966C-1.77694 106.327 -2.08276 106.717 -2.46824 107.187C-2.26367 107.24 -2.05366 107.27 -1.84232 107.275C4.50355 104.799 10.862 102.234 17.4633 99.7252C17.7256 99.0107 17.9429 98.2804 18.1139 97.5388C18.7714 93.8497 19.3619 90.1511 20.0033 86.4142C20.7681 81.9656 21.5325 77.3576 22.3546 72.826C23.5284 67.1157 25.2406 61.5294 27.4683 56.1419C30.4544 48.6645 33.8238 41.3458 37.563 34.2147C39.3637 30.6642 41.1421 27.1106 43.0515 23.5982C44.0188 21.7526 45.2099 20.0981 46.3435 18.3672C46.5469 17.8947 46.9548 17.4283 47.7343 17.7206C47.9083 18.5932 47.7805 19.499 47.3717 20.2894C46.6867 22.881 45.9793 25.4695 45.2049 28.0485C43.1831 34.7802 41.0272 41.4929 39.047 48.2532C37.5775 53.1718 36.239 58.1317 34.9452 63.098C33.4431 68.8861 31.5076 74.5531 29.1551 80.0511L23.4702 93.351C22.7643 94.9601 21.9752 96.5118 21.1355 98.2614C21.4463 98.3589 21.771 98.4047 22.0967 98.3971L34.3345 94.8845C35.8588 93.512 37.1243 91.8773 38.0709 90.058C43.8901 78.1899 51.2907 67.1641 60.071 57.2809C65.9756 50.2316 71.9207 43.2184 77.9063 36.2413C80.7451 32.9284 83.6509 29.625 86.6497 26.4715C86.9552 26.1657 87.2846 25.8846 87.6347 25.6309C88.2775 26.2456 87.9752 26.7725 87.7748 27.2226C86.9924 28.8892 86.2323 30.559 85.3668 32.1683C80.912 40.6297 76.0254 48.5973 70.8768 56.4824C67.7884 61.2408 64.6584 65.9707 61.4868 70.6718C57.8949 75.9266 53.886 80.8843 49.499 85.4971C47.1391 88.1255 44.4373 90.426 41.4656 92.337C41.1485 92.5811 40.8452 92.8425 40.5571 93.1201C40.9806 93.1587 41.4064 93.1655 41.831 93.1404C47.2632 92.1302 52.6953 91.1199 58.0891 90.0586C58.8416 89.9185 59.5539 89.6146 60.1755 89.1684C61.3507 88.3148 62.4532 87.3655 63.4717 86.3302C66.1328 83.6302 68.663 80.8889 71.0747 78.017C77.0018 71.076 83.6233 64.7585 90.8359 59.163C97.5473 53.9362 104.435 48.9166 111.242 43.8173C114.807 41.1765 118.451 38.6153 122.077 36.0286C122.692 35.4762 123.457 35.1166 124.275 34.9947C124.224 35.3069 124.119 35.6081 123.967 35.8853C123.215 36.8499 122.441 37.8115 121.651 38.7251C116.92 44.1328 112.004 49.2939 106.902 54.2087C100.86 60.1905 95.0181 66.2007 89.0872 72.1983C86.9838 74.3392 84.922 76.5086 82.7802 78.5985C78.9688 82.3991 74.4533 85.4218 69.4857 87.4981C69.0039 87.6807 68.5542 87.9589 67.8907 88.2982C68.1707 88.4642 68.4808 88.5732 68.8031 88.6187C69.1254 88.6642 69.4536 88.6453 69.7685 88.5632C74.1291 88.1991 78.4705 87.8094 82.8279 87.4676C84.4176 87.3503 86.0329 87.2138 87.6484 87.2368C93.1081 87.3239 98.4506 86.1415 103.807 85.8269C108.54 85.3954 113.296 85.2601 118.046 85.4217C121.708 85.6425 125.365 86.0675 129.009 86.5818C136.006 87.5695 142.857 89.2656 149.715 90.917C154.566 92.0803 159.447 93.0426 164.314 94.0941C169.182 95.1457 174.41 96.0659 179.519 96.696C180.115 96.8174 180.702 96.984 181.273 97.1942C180.797 97.4749 180.291 97.7015 179.764 97.8697C176.125 98.3546 172.457 98.598 168.785 98.5983C162.189 98.6227 155.599 98.1949 149.062 97.3179C141.305 96.223 133.536 95.377 125.779 94.4416C115.557 93.2037 105.414 91.567 95.3217 89.7324C92.5118 89.3134 89.6624 89.2248 86.8319 89.4681C82.5573 89.7077 78.2861 90.0844 73.9958 90.4357C73.359 90.4617 72.7409 90.6576 72.2057 91.0032C72.5022 91.1495 72.817 91.2553 73.1417 91.3176C74.8854 91.5637 76.6514 91.813 78.401 91.8549C85.1703 92.1027 91.8052 93.8165 97.8471 96.878C102.854 99.3619 107.735 102.101 112.691 104.783C116.922 107.112 121.147 109.485 125.366 111.903C129.818 114.445 134.235 117.074 138.658 119.657C140.512 120.739 142.391 121.802 144.223 122.88C144.621 123.167 144.996 123.487 145.342 123.836C144.784 124.554 144.231 124.271 143.775 124.116C141.382 123.3 138.992 122.461 136.609 121.578C119.571 115.323 102.908 108.027 86.1565 101.037C80.7089 98.7648 75.4206 96.3325 69.9123 94.0057C67.9345 93.157 65.9091 92.4838 64.005 91.7594C57.6988 92.395 51.4628 93.5964 45.3724 95.349C45.9397 95.845 46.6392 96.1654 47.3855 96.2711C51.1837 97.4679 54.9788 98.687 58.812 99.7977C65.8842 101.866 72.607 104.981 78.7572 109.038C85.7934 113.556 92.5589 118.482 99.0188 123.79C102.773 126.917 106.6 130.009 110.405 133.098C114.459 136.376 118.343 139.86 122.041 143.534C122.585 144.044 123.074 144.614 123.906 145.506C123.423 145.49 122.944 145.422 122.475 145.304C120.558 144.35 118.587 143.457 116.73 142.397C108.046 137.367 99.3978 132.25 90.6985 127.332C84.3737 123.682 78.0299 120.167 71.7177 116.428C61.7562 110.523 52.1676 104.011 43.0062 96.9287C42.6578 96.6517 42.2582 96.4131 41.8458 96.1043C39.6669 96.3941 37.5137 96.8518 35.4054 97.4734C33.0502 98.0067 30.9537 98.6449 28.7615 99.3151C26.5838 99.86 24.4539 100.58 22.3927 101.469C22.5851 101.751 22.799 102.017 23.0327 102.266C24.2189 103.23 25.3733 104.259 26.6294 105.051C30.8074 108.041 34.8046 111.276 38.6001 114.738C42.2071 117.935 45.811 121.155 49.4435 124.333C58.6894 132.688 67.4383 141.576 75.6454 150.951C78.2337 153.888 80.5337 157.065 82.5138 160.441C82.7499 160.836 82.9586 161.246 83.1386 161.669C83.1386 161.669 83.1007 161.937 83.0566 162.249C82.6396 162.178 82.2357 162.044 81.8586 161.852C80.9358 161.175 80.0342 160.456 79.1538 159.694C68.6909 150.471 57.7342 141.839 46.529 133.514C43.0188 130.922 39.5722 128.203 36.2567 125.525C34.6996 124.28 33.2635 122.824 31.748 121.608C26.4543 116.988 22.2348 111.269 19.3848 104.849L18.6798 103.383C18.6798 103.383 18.4815 103.172 18.3823 103.067C11.5135 104.958 4.85892 107.554 -1.47524 110.813C-1.31052 111.137 -1.11768 111.446 -0.898926 111.737L6.95825 120.683C12.6654 127.093 18.363 133.517 24.0511 139.955C24.6089 140.585 25.1242 141.251 25.5935 141.95C30.2958 148.856 35.046 155.746 39.6495 162.707C41.8249 166.317 43.6462 170.13 45.0878 174.091C45.0878 174.091 45.0468 174.381 45.0247 174.538C45.0026 174.694 44.3354 174.736 44.0858 174.405C43.4845 173.819 42.9119 173.191 42.3617 172.567C35.6595 164.968 29.0051 157.354 22.2743 149.797C19.5167 146.719 16.5806 143.776 13.6923 140.817C10.0715 137.07 6.58141 133.206 3.32718 129.124C0.657443 125.847 -1.57681 122.239 -3.31993 118.389C-4.15018 116.518 -4.7603 114.541 -5.51745 112.475C-5.86434 112.515 -6.2051 112.597 -6.5323 112.719C-14.6894 116.552 -22.6028 120.883 -30.2278 125.686C-30.6041 125.929 -30.9228 126.249 -31.3819 126.594C-31.1387 127.002 -30.8476 127.38 -30.5147 127.719C-26.8722 130.898 -23.4961 134.369 -20.4201 138.098C-15.4527 143.826 -10.5385 149.608 -5.67732 155.443C1.52452 164.108 7.84087 173.471 13.1773 183.393C13.7058 184.333 14.2598 185.254 14.7659 186.191C14.9613 186.584 15.0834 187.011 15.2342 187.397C14.7017 187.777 14.3595 187.455 14.0941 187.236C12.6806 185.943 11.213 184.71 9.8792 183.337C4.94353 178.084 -0.0589356 172.981 -4.92724 167.897C-10.224 162.456 -15.6068 157.14 -20.8875 151.747C-23.8298 148.829 -26.5424 145.689 -29.0009 142.354C-30.0597 140.929 -31.0459 139.452 -31.9556 137.927C-33.3443 135.62 -34.1794 133.022 -34.3956 130.338C-34.4632 129.826 -34.559 129.318 -34.6824 128.817C-35.0501 128.92 -35.4061 129.06 -35.7448 129.236C-58.0065 144.161 -76.9068 162.407 -90.6421 185.575C-96.4342 195.327 -100.972 205.77 -104.149 216.657C-105.437 221.074 -106.474 225.56 -107.254 230.094C-107.437 231.389 -107.751 232.643 -108.068 233.92C-108.322 234.909 -108.366 234.903 -109.703 235.33Z" fill="#25262B" fill-opacity="0.38"/>
</g>
<defs>
<clipPath id="clip0_94_6">
<rect width="237.478" height="270.123" fill="white" transform="translate(189.663 37.7542) rotate(98.0344)"/>
</clipPath>
</defs>
</svg>
