<svg width="98" height="98" viewBox="0 0 98 98" fill="none" xmlns="http://www.w3.org/2000/svg">
<g clip-path="url(#clip0_24_1676)">
<path d="M53.2281 44.7764C52.8779 38.076 51.8568 25.0253 49.0087 17.7722C46.1564 25.0127 45.1311 38.0633 44.7893 44.7764C38.6079 45.0928 21.4602 48.9958 21.4602 48.9958C28.7007 51.8523 38.0889 52.8734 44.7893 53.2152C45.1353 59.9156 46.1606 72.962 49.0087 80.2194C51.8653 72.9789 52.8864 59.9325 53.2281 53.2152C59.9286 52.865 69.3167 51.8439 76.553 48.9958C76.553 49 59.9159 45.1224 53.2281 44.7764Z" stroke="#130047" stroke-width="3" stroke-linecap="round" stroke-linejoin="round"/>
<path d="M0.633179 49H16.3209" stroke="#130047" stroke-width="3" stroke-linecap="round" stroke-linejoin="round"/>
<path d="M81.6838 49H97.3674" stroke="#130047" stroke-width="3" stroke-linecap="round" stroke-linejoin="round"/>
<path d="M49.0002 0.632935V13.5907" stroke="#130047" stroke-width="3" stroke-linecap="round" stroke-linejoin="round"/>
<path d="M49.0002 84.4093V97.3671" stroke="#130047" stroke-width="3" stroke-linecap="round" stroke-linejoin="round"/>
<path d="M23.2028 23.2026L31.3083 31.3081" stroke="#130047" stroke-width="3" stroke-linecap="round" stroke-linejoin="round"/>
<path d="M17.0172 17.0169L20.5994 20.5992" stroke="#130047" stroke-width="3" stroke-linecap="round" stroke-linejoin="round"/>
<path d="M74.8526 74.8524L66.7429 66.7427" stroke="#130047" stroke-width="3" stroke-linecap="round" stroke-linejoin="round"/>
<path d="M81.034 81.0338L77.4517 77.4515" stroke="#130047" stroke-width="3" stroke-linecap="round" stroke-linejoin="round"/>
<path d="M31.3083 66.692L22.8188 75.1857" stroke="#130047" stroke-width="3" stroke-linecap="round" stroke-linejoin="round"/>
<path d="M74.8526 23.2026L66.7429 31.3081" stroke="#130047" stroke-width="3" stroke-linecap="round" stroke-linejoin="round"/>
<path d="M81.034 17.0169L77.4517 20.5992" stroke="#130047" stroke-width="3" stroke-linecap="round" stroke-linejoin="round"/>
<path d="M17.0172 81.0338L20.5994 77.4515" stroke="#130047" stroke-width="3" stroke-linecap="round" stroke-linejoin="round"/>
<path d="M14.937 34.4895L25.9834 39.1941" stroke="#130047" stroke-width="3" stroke-linecap="round" stroke-linejoin="round"/>
<path d="M72.0172 58.8059L83.0678 63.5148" stroke="#130047" stroke-width="3" stroke-linecap="round" stroke-linejoin="round"/>
<path d="M63.515 14.9367L58.8062 25.9831" stroke="#130047" stroke-width="3" stroke-linecap="round" stroke-linejoin="round"/>
<path d="M39.1944 72.0168L34.4897 83.0675" stroke="#130047" stroke-width="3" stroke-linecap="round" stroke-linejoin="round"/>
<path d="M35.1733 14.6498L39.6585 25.7891" stroke="#130047" stroke-width="3" stroke-linecap="round" stroke-linejoin="round"/>
<path d="M58.342 72.2109L62.8273 83.3502" stroke="#130047" stroke-width="3" stroke-linecap="round" stroke-linejoin="round"/>
<path d="M83.3505 35.173L72.2112 39.6583" stroke="#130047" stroke-width="3" stroke-linecap="round" stroke-linejoin="round"/>
<path d="M25.7893 58.3418L14.6501 62.827" stroke="#130047" stroke-width="3" stroke-linecap="round" stroke-linejoin="round"/>
</g>
<defs>
<clipPath id="clip0_24_1676">
<rect width="98" height="98" fill="white" transform="translate(0.000244141)"/>
</clipPath>
</defs>
</svg>
