<svg width="139" height="248" viewBox="0 0 139 248" fill="none" xmlns="http://www.w3.org/2000/svg">
<g clip-path="url(#clip0_87_16044)">
<path d="M161.897 194.903C161.849 195.124 161.766 195.336 161.651 195.531C160.981 196.372 160.321 197.201 159.627 197.999C158.164 199.587 156.768 201.238 155.327 202.847C155.223 202.96 155.129 203.061 154.963 203.241L160.596 208.432C161.159 208.951 161.254 209.413 160.911 209.763C160.567 210.113 160.153 210.065 159.591 209.568L154.668 205.031L154.003 204.419C152.509 206.041 151.055 207.618 149.602 209.195C148.149 210.772 146.685 212.361 145.274 213.893C144.417 213.624 144.272 213.262 144.748 212.7C145.481 211.904 146.218 211.104 146.959 210.301C148.796 208.307 150.623 206.324 152.46 204.33L153.135 203.598L152.195 202.607C150.82 201.34 149.518 199.973 148.185 198.662C147.926 198.423 147.633 198.153 147.886 197.72C148.14 197.287 148.423 197.59 148.659 197.786L151.016 199.75L153.735 202.088C153.913 202.214 154.099 202.33 154.291 202.434L157.924 198.491C159.125 197.184 160.399 195.944 161.74 194.78L161.897 194.903Z" fill="white"/>
<path d="M39.0416 104.279L44.6742 109.469C45.2036 109.957 45.2871 110.409 44.9654 110.758C44.6436 111.107 44.2089 111.082 43.6578 110.595C42.0582 109.121 40.4473 107.636 38.8364 106.152L37.9577 105.342L29.2384 114.805C28.3395 114.56 28.2049 114.186 28.7222 113.58C29.4591 112.78 30.1961 111.98 30.9435 111.169L37.0677 104.522C36.7185 104.201 36.4879 103.863 36.1941 103.572C34.8501 102.25 33.4532 100.963 32.0563 99.6756C31.786 99.4265 31.5043 99.167 31.7144 98.7356C31.9244 98.3042 32.2389 98.5732 32.4746 98.7696L34.8418 100.722L37.5608 103.06L38.0278 103.345C38.443 102.894 38.8582 102.444 39.2838 101.982C40.0519 101.148 40.8304 100.303 41.6089 99.4585C42.6469 98.332 43.6799 97.3466 44.7318 96.2954C44.9871 96.0781 45.2623 95.8854 45.5538 95.7198C45.9143 96.0519 45.7067 96.2772 45.5528 96.4895C44.9196 97.1767 44.3982 97.946 43.7875 98.6539C42.2513 100.321 40.7411 102.096 39.2793 103.727C39.3192 103.91 39.2163 104.044 39.0416 104.279Z" fill="white"/>
<path d="M39.7512 83.1868C39.0886 82.8887 39.0192 82.7831 39.2189 82.363C39.3472 82.1272 39.5059 81.9094 39.691 81.715C40.8121 80.4983 41.9435 79.2704 43.0749 78.0425L43.6977 77.3666C43.4612 77.1487 43.2809 76.9826 43.1007 76.8165C42.4473 76.2145 41.7939 75.6124 41.2141 74.9532C41.0392 74.6966 40.8833 74.4276 40.7476 74.1483C40.871 73.7205 41.0943 73.6138 41.3715 73.7651C41.6251 73.8959 41.8641 74.0533 42.0845 74.2346L44.6094 76.332C44.8897 76.0279 45.1388 75.7575 45.3983 75.4759C46.5609 74.2142 47.7234 72.9525 48.886 71.6908C49.2078 71.3416 49.2078 71.3416 49.6754 71.3767C49.8775 71.8129 49.5296 72.0548 49.3126 72.313C48.0566 73.6761 46.9011 75.1109 45.7005 76.5042C45.576 76.6394 45.4514 76.7746 45.2853 76.9548C46.0889 78.0494 47.268 78.7817 48.1685 79.8615L47.5976 80.4811L44.5121 77.9296L39.7512 83.1868Z" fill="white"/>
<path d="M116.836 164.256C116.418 164.891 115.956 165.528 115.644 166.115C114.441 168.025 113.961 170.302 114.291 172.534C114.344 172.961 114.516 173.364 114.789 173.697C115.062 174.029 115.423 174.277 115.832 174.412C116.752 174.71 117.737 174.745 118.676 174.512C118.959 174.505 119.229 174.395 119.437 174.203C119.644 174.011 119.775 173.75 119.804 173.469C120.369 170.844 121.065 168.257 121.717 165.629L121.941 164.752C122.09 164.894 122.195 165.076 122.243 165.275C122.292 165.475 122.282 165.685 122.215 165.879C122.047 167.295 121.808 168.701 121.498 170.093C120.749 172.986 119.847 175.841 119.065 178.724C118.668 180.15 118.348 181.605 118.093 183.057C117.881 184.289 117.915 185.551 118.191 186.771C118.281 187.453 118.515 188.108 118.877 188.693C119.239 189.278 119.721 189.779 120.291 190.165C120.86 190.55 121.505 190.81 122.183 190.928C122.861 191.047 123.556 191.02 124.222 190.85C125.557 190.61 126.827 190.097 127.955 189.344C129.082 188.591 130.042 187.614 130.775 186.473C132.842 183.185 134.361 179.582 135.272 175.807C136.012 173.12 136.268 170.324 136.029 167.548C136.027 167.373 136.041 167.198 136.073 167.025L136.222 166.976C136.353 167.239 136.455 167.514 136.527 167.798C136.727 168.867 136.837 169.95 136.855 171.037C136.544 176.941 134.601 182.642 131.24 187.506C131.116 187.7 131.001 187.9 130.896 188.105C131.782 188.52 132.766 188.684 133.739 188.577C134.711 188.47 135.636 188.098 136.411 187.5C137.024 187.019 137.583 186.473 138.079 185.871C139.066 184.616 139.819 183.193 140.303 181.672C141.526 177.983 142.144 174.122 142.134 170.236C142.134 163.725 140.876 157.276 138.43 151.243C137.026 147.482 135.031 143.97 132.519 140.839C132.064 140.294 131.565 139.772 131.18 139.354L127.279 139.926C127.279 139.926 127.279 139.926 127.227 139.982C127.51 142.705 127.454 145.453 127.062 148.163C126.931 149.486 126.658 150.791 126.246 152.055C125.567 154.013 124.757 155.932 123.902 157.832C123.088 159.751 121.899 161.487 120.403 162.94C119.966 163.439 119.41 163.821 118.787 164.051C118.164 164.281 117.494 164.352 116.836 164.256Z" fill="white"/>
<path d="M80.8782 116.271L80.8559 116.521C80.5962 116.532 80.3477 116.553 80.0983 116.552C79.849 116.552 79.0576 116.552 78.5399 116.616C72.3618 117.336 66.509 119.772 61.645 123.649C60.5959 124.492 59.737 125.547 59.1246 126.745C58.5122 127.944 58.1602 129.258 58.0917 130.602C57.9433 131.848 58.2877 133.103 59.0515 134.098C59.8152 135.094 60.9378 135.751 62.1797 135.931C63.2578 136.13 64.3624 136.14 65.4439 135.96C67.1875 135.678 68.8922 135.194 70.5233 134.517C73.3294 133.415 76.1467 132.325 78.9893 131.319C80.3784 130.889 81.7897 130.535 83.2171 130.258C83.3922 130.181 83.5871 130.162 83.7739 130.203C83.9606 130.244 84.1295 130.343 84.2563 130.486C83.6781 130.662 83.1846 130.79 82.7034 130.951L75.603 133.344C75.2715 133.455 74.9513 133.577 74.8806 133.97C74.5384 135.186 74.673 136.487 75.257 137.608C75.4185 137.907 75.6534 138.16 75.9396 138.344C76.2259 138.528 76.5541 138.636 76.8935 138.657C78.3651 138.801 79.8495 138.591 81.2241 138.047C82.5987 137.502 83.8239 136.638 84.7984 135.527C84.9995 135.303 85.1111 135.012 85.112 134.712C85.1031 134.058 85.2716 133.414 85.5996 132.849C86.1094 131.904 86.7789 131.055 87.5784 130.339C88.8178 129.246 90.1661 128.283 91.602 127.465C96.6912 124.405 102.546 122.857 108.483 123.002C108.56 123.002 108.637 122.988 108.709 122.96L108.917 119.299C108.782 119.174 108.624 119.029 108.477 118.894C107.054 117.76 105.517 116.777 103.891 115.959C96.4999 112.276 88.3279 110.434 80.0714 110.591C75.5897 110.64 71.1529 111.49 66.9701 113.1C65.0322 113.797 63.2465 114.86 61.7103 116.231C60.7208 117.019 60.0201 118.113 59.7173 119.341C59.4146 120.569 59.5268 121.863 60.0365 123.021C60.109 123.169 60.1946 123.311 60.2923 123.444C60.3546 123.376 60.4534 123.405 60.4845 123.371C60.744 123.089 61.0815 122.859 61.3973 122.629C65.6949 119.305 70.7551 117.108 76.1178 116.238C77.3736 115.999 78.6587 115.954 79.9282 116.104C80.2538 116.112 80.5613 116.208 80.8782 116.271Z" fill="white"/>
<path d="M80.473 139.769C80.0419 139.83 79.7943 139.872 79.5346 139.883C78.5822 139.922 77.6203 139.994 76.6644 139.946C76.1405 139.922 75.6324 139.76 75.1921 139.475C74.7518 139.19 74.3953 138.793 74.159 138.325C73.6488 137.533 73.3778 136.61 73.3782 135.668C73.3919 135.473 73.4592 135.264 73.5204 134.904C73.0175 135.065 72.75 135.152 72.4938 135.249C70.8475 135.815 69.235 136.412 67.6163 136.858C65.9137 137.376 64.1203 137.527 62.355 137.301C61.1295 137.171 59.9683 136.687 59.0133 135.909C58.1881 135.243 57.5474 134.376 57.1522 133.392C56.7571 132.408 56.6208 131.34 56.7563 130.288C56.9821 128.341 57.6716 126.476 58.7672 124.85L59.1148 124.337C59.1148 124.337 59.2186 124.225 59.2349 124.094C59.1956 123.955 59.1466 123.82 59.0882 123.688C58.4062 122.536 58.1129 121.196 58.2517 119.864C58.3906 118.533 58.9542 117.282 59.8592 116.296C61.0707 114.854 62.5699 113.682 64.2607 112.853C67.4431 111.291 70.8558 110.251 74.3684 109.773C75.3163 109.626 76.3188 109.487 77.227 109.428L77.9153 109.292L77.3427 109.077C73.3967 108.021 69.9884 105.526 67.7881 102.085C63.6658 96.1749 61.1472 89.2968 60.4784 82.1224C60.1286 78.1423 60.5916 74.1327 61.8395 70.3371C62.8302 67.2687 64.7219 64.5698 67.2683 62.5917C68.6648 61.4831 70.0829 60.3736 71.5245 59.3065C73.5956 57.8554 75.0403 55.6737 75.5677 53.2005C76.0569 50.8461 76.5001 48.5189 76.8975 46.2189C77.372 43.24 77.7261 40.2335 78.1901 37.2659C78.4828 35.1362 79.0118 33.0457 79.7674 31.0331C80.4674 28.9489 81.7647 27.1165 83.4979 25.7637C84.6577 24.8855 86.0144 24.3039 87.4502 24.0695C88.8859 23.8351 90.3572 23.955 91.736 24.4187C93.8151 25.1009 95.7239 26.2205 97.334 27.7022C99.8431 29.9378 102.047 32.4938 103.889 35.3046C106.972 40.0357 109.52 45.0944 111.487 50.3876C116.563 63.5773 120.089 77.3118 121.996 91.3151C122.567 95.2161 122.887 99.0731 123.317 102.947L123.405 103.778C123.473 103.841 123.518 103.882 123.54 103.903C125.194 103.532 126.826 103.14 128.481 102.79C129.332 102.523 130.094 102.031 130.689 101.367C131.463 100.685 132.203 99.9498 133.013 99.3421C133.93 98.5651 135.015 98.0099 136.182 97.7197C137.348 97.4294 138.567 97.4119 139.741 97.6685C140.147 97.7712 140.56 97.7977 141.072 97.8743C141.573 97.1275 142.107 96.3902 142.574 95.6339C146.136 90.0538 148.67 83.8813 150.057 77.4084C151.196 72.2935 151.395 67.0141 150.645 61.828L150.486 60.848L149.846 61.1126C148.245 61.7514 146.503 61.9572 144.797 61.7093C144.642 61.6916 144.49 61.6503 144.348 61.5868C143.841 61.3907 143.739 61.0263 144.07 60.6225C144.216 60.4336 144.397 60.2752 144.604 60.1562C146.237 59.1597 148.001 58.3945 149.844 57.8822L149.291 56.0185C148.806 56.2825 148.305 56.5166 147.791 56.7195C146.39 57.1306 144.923 57.2642 143.471 57.1129C143.222 57.113 142.978 57.0527 142.758 56.937C142.537 56.8214 142.349 56.6539 142.208 56.4491C142.356 56.2396 142.53 56.0503 142.727 55.8858C144.227 55.1849 145.677 54.5836 147.158 53.9485C147.538 53.826 147.925 53.7234 148.316 53.6409L147.338 51.4694C145.502 52.6145 143.33 53.0973 141.182 52.8377C140.882 52.7376 140.596 52.5999 140.331 52.428C140.541 52.1305 140.788 51.8616 141.068 51.6282C142.574 50.5837 144.188 49.7036 145.882 49.0031L145.065 47.5838C143.379 48.7886 141.344 49.4086 139.273 49.3492C139.026 49.4088 138.766 49.3748 138.543 49.2538C138.319 49.1328 138.149 48.9333 138.064 48.694C138.117 48.4807 138.222 48.2842 138.371 48.1227C138.52 47.9612 138.707 47.8399 138.915 47.7702C140.336 46.9966 141.757 46.2231 143.26 45.3161L142.036 44.0219C141.798 44.5796 141.42 45.067 140.94 45.4376C140.46 45.8083 139.893 46.0499 139.293 46.1395C138.259 46.3772 137.214 46.5611 136.161 46.6904C135.976 46.7014 135.79 46.6908 135.607 46.6588C135.429 46.6759 135.25 46.6326 135.1 46.5358C134.949 46.439 134.836 46.2944 134.778 46.1253C134.719 45.9561 134.72 45.7723 134.779 45.6034C134.838 45.4346 134.952 45.2904 135.103 45.1943C135.237 45.0478 135.383 44.8901 135.585 44.8059C136.976 43.9195 138.463 43.1932 140.017 42.6409C140.017 42.6409 140.111 42.5395 140.303 42.4666L138.522 41.0543C136.793 43.0654 134.457 43.2043 132.1 43.344C131.899 43.3779 131.693 43.3464 131.512 43.2543C131.33 43.1622 131.183 43.0143 131.092 42.8323C131.151 42.4072 131.513 42.2406 131.829 42.0325L136.163 39.5896C135.48 39.0643 134.721 38.6458 133.912 38.3483C133.746 38.8226 133.449 39.24 133.054 39.5517C132.66 39.8634 132.186 40.0566 131.686 40.1088C130.476 40.412 129.23 40.5468 127.984 40.5095C127.735 40.5249 127.487 40.4735 127.265 40.3605C127.043 40.2476 126.856 40.0773 126.722 39.8673C126.955 39.6543 127.205 39.4592 127.468 39.2839C128.634 38.6508 129.812 38.0281 130.968 37.4062L131.381 37.1617L129.839 36.5743C129.379 36.827 128.868 36.9732 128.344 37.0022C127.82 37.0311 127.296 36.942 126.811 36.7415C125.58 36.3365 124.368 35.8657 123.125 35.4287C122.81 35.2621 122.521 35.0512 122.265 34.8026C122.258 34.109 122.69 34.0481 123.069 34.0434C124.053 34.0135 125.039 34.0383 126.021 34.1178C126.846 34.2381 127.659 34.4298 128.451 34.6906C128.84 34.7968 129.194 35.0072 129.473 35.2993C130.137 35.9117 131.009 36.0062 131.918 36.24L130.185 32.56C130.055 32.2943 129.902 32.0078 129.793 31.7196C129.753 31.642 129.729 31.557 129.724 31.4699C129.719 31.3828 129.732 31.2956 129.762 31.2138C129.792 31.132 129.839 31.0574 129.9 30.9947C129.961 30.9321 130.034 30.8828 130.115 30.85C130.372 30.8544 130.626 30.9124 130.86 31.0204C131.094 31.1285 131.303 31.2841 131.474 31.4774C132.549 32.3833 133.477 33.4497 134.227 34.6388C134.512 34.9814 134.685 35.4036 134.723 35.8481C134.76 36.2925 134.66 36.7378 134.437 37.1235L136.692 38.2021C136.69 37.8878 136.715 37.7025 136.696 37.4973C136.571 36.5701 136.436 35.6542 136.333 34.7261C136.296 34.2463 136.294 33.7644 136.328 33.2845C136.315 33.1802 136.325 33.0743 136.356 32.9741C136.388 32.874 136.442 32.782 136.513 32.7047C136.584 32.6274 136.672 32.5666 136.769 32.5267C136.866 32.4867 136.971 32.4685 137.076 32.4734C138.707 33.3932 139.757 37.3396 139.007 39.6685L140.592 40.7962C140.93 39.2322 141.262 37.8093 141.582 36.3544C141.64 36.0206 141.732 35.6936 141.856 35.3784C142.019 35.1482 142.211 34.94 142.427 34.7588C142.671 35.0647 142.884 35.3936 143.063 35.7409C143.681 37.4106 143.935 39.1926 143.808 40.9682C143.645 41.6628 143.407 42.3376 143.099 42.981L144.226 44.019C144.697 43.0783 145.146 42.1385 145.66 41.1744C145.976 40.2059 146.419 39.2837 146.978 38.432C147.079 38.3977 147.186 38.3881 147.29 38.404C147.395 38.4199 147.494 38.4608 147.58 38.5233C147.665 38.5858 147.735 38.6679 147.782 38.7628C147.829 38.8577 147.852 38.9626 147.85 39.0685C147.956 39.4957 147.992 39.937 147.958 40.3758C147.835 41.6166 147.658 42.8489 147.448 44.0716C147.395 44.5215 147.219 44.9481 146.939 45.304C146.659 45.6599 146.285 45.9312 145.86 46.0878L147.394 48.3342C148.511 46.76 149.598 45.2412 150.675 43.7337C150.84 43.4984 151.035 43.2862 151.256 43.1028C151.331 43.0267 151.426 42.9726 151.529 42.9465C151.633 42.9204 151.742 42.9234 151.844 42.955C151.946 42.9867 152.037 43.0458 152.108 43.1259C152.179 43.2061 152.226 43.3041 152.245 43.4093C152.366 43.7212 152.413 44.057 152.382 44.3902C152.203 46.1084 151.574 47.7492 150.56 49.1479C150.324 49.4733 150.017 49.7407 149.662 49.9299C149.308 50.119 148.915 50.225 148.513 50.2398L149.637 52.5462C150.788 51.5235 151.814 50.636 152.892 49.6921C153.203 49.3542 153.525 49.005 153.926 48.7501C154.021 48.6474 154.146 48.5773 154.283 48.5501C154.42 48.5229 154.562 48.5399 154.688 48.5987C154.815 48.6574 154.92 48.7549 154.987 48.877C155.055 48.9991 155.082 49.1396 155.065 49.2781C155.077 49.5637 155.033 49.849 154.936 50.1181C154.424 51.6564 153.525 53.0371 152.325 54.1275C151.788 54.4828 151.22 54.789 150.628 55.0424L151.276 57.0974C152.26 56.5042 153.17 55.9684 154.068 55.4004C154.855 54.7484 155.726 54.2059 156.658 53.7877C157.25 54.208 157.312 54.3897 157.159 54.8947C156.97 55.4897 156.705 56.058 156.372 56.5855C155.92 57.2518 155.413 57.8782 154.854 58.4579C154.518 58.8994 154.078 59.2518 153.573 59.484C153.069 59.7163 152.515 59.8215 151.96 59.7904L152.26 61.5452C153.256 68.1367 152.855 74.8641 151.083 81.2907C149.64 86.7492 147.458 91.9848 144.597 96.8521C144.41 97.0549 144.335 97.3398 144.163 97.6395C147.289 98.2706 149.339 99.8887 149.641 103.291C149.927 103.117 150.16 102.999 150.371 102.839C156.932 98.1639 164.378 94.8754 172.253 93.1738C176.793 92.1991 181.459 91.9497 186.077 92.4352L186.643 92.4771C186.637 90.2225 188.156 88.9353 189.722 87.7114C190.184 87.3742 190.686 87.0951 191.216 86.8806C191.314 86.8266 191.422 86.795 191.533 86.7881C191.644 86.7812 191.756 86.7991 191.859 86.8405C191.962 86.8819 192.055 86.9459 192.131 87.0277C192.207 87.1095 192.263 87.2071 192.296 87.3134C191.949 88.3189 191.455 89.2671 190.829 90.127C190.368 91.0564 189.896 91.9755 189.406 92.982L191.701 93.4302C191.802 92.6705 192.084 91.946 192.522 91.3171C192.96 90.6883 193.542 90.1732 194.22 89.8149C194.832 89.3772 195.48 88.9917 196.157 88.6625C196.413 88.5348 196.698 88.4746 196.984 88.4877C197.115 88.4751 197.246 88.5018 197.361 88.5644C197.477 88.6269 197.571 88.7225 197.631 88.8388C197.692 88.9551 197.716 89.0868 197.702 89.2172C197.687 89.3475 197.634 89.4705 197.549 89.5704C197.294 89.9602 196.982 90.2982 196.706 90.6889C195.852 91.8187 195.01 92.9589 194.105 94.1667L196.496 95.0988C196.512 94.4466 196.724 93.8144 197.104 93.2845C197.485 92.7546 198.016 92.3516 198.629 92.128C199.57 91.6466 200.542 91.2267 201.537 90.8708C201.934 90.7412 202.354 90.7017 202.768 90.7554C203.541 90.843 203.747 91.3658 203.262 91.9602C202.957 92.3136 202.618 92.6361 202.25 92.923C201.486 93.5939 200.721 94.2431 199.915 94.9373C199.453 95.3031 198.979 95.6585 198.496 96.0252C198.541 96.0876 198.599 96.1404 198.665 96.1809L200.818 97.4154C201.063 96.8366 201.468 96.3396 201.985 95.9825C202.502 95.6254 203.11 95.4229 203.739 95.3989C204.903 95.1586 206.079 94.9767 207.261 94.8538C207.491 94.798 207.734 94.8333 207.939 94.9521C208.144 95.071 208.295 95.2643 208.36 95.4918C208.31 95.6913 208.21 95.8751 208.07 96.0265C207.931 96.178 207.756 96.2923 207.561 96.3592L203.269 98.757C203.193 98.8258 203.124 98.9012 203.061 98.9823L204.289 100.114C204.827 99.6111 205.477 99.245 206.186 99.0462C206.895 98.8475 207.641 98.8219 208.362 98.9716C209.258 99.0502 210.15 99.1765 211.033 99.3502C211.42 99.4557 211.793 99.6041 212.146 99.7925C212.285 100.275 212.175 100.507 211.855 100.628C211.548 100.758 211.234 100.872 210.915 100.97C209.503 101.418 208.045 101.825 206.559 102.33L207.824 103.85C208.35 103.553 208.93 103.363 209.529 103.29C210.129 103.217 210.737 103.263 211.319 103.425C212.16 103.584 212.99 103.792 213.805 104.05C214.082 104.121 214.341 104.248 214.566 104.424C214.792 104.599 214.979 104.819 215.116 105.07C215.132 105.175 215.124 105.282 215.093 105.383C215.063 105.484 215.009 105.578 214.937 105.656C214.866 105.734 214.777 105.794 214.679 105.833C214.58 105.872 214.474 105.889 214.368 105.881C213.881 105.951 213.389 105.979 212.897 105.963C212.007 105.934 211.116 105.884 210.247 105.833C209.996 105.81 209.734 105.756 209.483 105.712L209.417 105.964L210.673 108.037C211.857 107.295 212.931 107.848 213.856 108.471C214.781 109.094 215.611 109.754 216.452 110.446C216.894 110.777 217.189 111.266 217.277 111.811C217.251 111.901 217.205 111.985 217.143 112.056C217.08 112.126 217.003 112.182 216.917 112.22C216.831 112.258 216.737 112.276 216.643 112.273C216.549 112.271 216.456 112.248 216.372 112.206C216.098 112.119 215.844 112.011 215.568 111.903L211.748 110.465C212.1 111.394 212.179 112.258 212.981 112.789C213.286 113.034 213.522 113.353 213.669 113.715C214.443 115.403 214.826 117.244 214.789 119.1C214.758 119.39 214.708 119.678 214.64 119.963C214.385 119.933 214.135 119.87 213.896 119.776C213.731 119.697 213.594 119.571 213.501 119.413C212.589 117.955 211.893 116.374 211.434 114.717C211.246 114.036 211.321 113.309 211.643 112.681L210.974 111.147C210.467 112.285 209.999 113.29 209.552 114.295C209.364 114.725 209.197 115.155 208.976 115.576C208.854 115.754 208.707 115.913 208.54 116.049C208.352 115.928 208.196 115.764 208.085 115.57C207.973 115.377 207.909 115.16 207.898 114.937C207.675 113.322 207.773 111.678 208.188 110.101C208.278 109.755 208.452 109.435 208.694 109.172C208.937 108.909 209.241 108.709 209.579 108.592L208.144 106.374C207.968 106.565 207.952 106.718 207.893 106.85C207.204 108.299 206.61 109.689 205.941 111.093C205.797 111.356 205.625 111.602 205.429 111.829C205.231 111.773 205.058 111.652 204.935 111.487C204.813 111.321 204.749 111.12 204.752 110.914C204.575 109.075 204.853 107.221 205.561 105.515C205.82 105.07 206.135 104.66 206.498 104.295L205.065 102.662C204.444 104.173 203.874 105.605 203.26 107.04C203.087 107.443 202.85 107.815 202.558 108.142C202.039 108.705 201.437 108.567 201.222 107.828C201.142 107.581 201.098 107.323 201.093 107.063C201.017 105.925 201.128 104.781 201.421 103.678C201.496 103.127 201.704 102.602 202.028 102.148C202.351 101.695 202.78 101.327 203.277 101.077L201.886 99.941C201.18 101.498 200.587 102.91 199.899 104.359C199.825 104.567 199.709 104.758 199.559 104.921C199.41 105.083 199.228 105.214 199.027 105.305C198.384 105.233 198.268 104.772 198.203 104.254C198.031 102.178 198.494 100.099 199.531 98.2919L198.166 97.513C197.72 98.5394 197.349 99.5302 196.867 100.482C196.5 101.469 195.965 102.386 195.287 103.192C195.089 103.138 194.914 103.02 194.79 102.856C194.666 102.693 194.599 102.493 194.6 102.288C194.235 100.396 194.485 98.4367 195.314 96.6973C195.378 96.5848 195.432 96.4665 195.473 96.3439C194.788 95.9982 194.068 95.726 193.326 95.5319C193.001 96.6076 192.72 97.6815 192.309 98.7607C192.022 99.8838 191.577 100.96 190.987 101.958C190.804 101.835 190.641 101.684 190.503 101.512C190.315 101.174 190.19 100.804 190.133 100.422C190.07 99.2004 190.078 97.9766 190.156 96.7564C190.282 96.102 190.473 95.4621 190.729 94.8467L188.848 94.4467C188.507 96.2974 187.901 98.0893 187.049 99.7671C186.861 100.198 186.632 100.695 186.076 100.62C185.52 100.545 185.456 100.049 185.415 99.5737C185.047 97.8865 185.152 96.1305 185.717 94.4988L185.85 94.038L184.502 93.9414C178.658 93.6615 172.816 94.5264 167.304 96.4874C161.351 98.5461 155.791 101.6 150.86 105.518L150.125 106.112C150.036 106.189 149.956 106.276 149.886 106.371C149.927 106.575 149.947 106.802 150.011 107.027C150.337 108.13 150.411 109.292 150.226 110.428C150.042 111.563 149.604 112.643 148.945 113.586C148.391 114.452 147.781 115.281 147.117 116.067C146.298 116.985 145.794 118.142 145.68 119.367C145.595 120.726 145.291 122.05 145.125 123.564C145.419 123.584 145.713 123.605 146.005 123.603C152.239 123.62 158.494 123.884 164.709 124.487C177.343 125.6 189.822 128.062 201.933 131.832C206.993 133.363 211.857 135.482 216.424 138.145C218.875 139.574 221.15 141.286 223.202 143.245C224.657 144.591 225.848 146.197 226.713 147.98C227.432 149.362 227.78 150.907 227.722 152.464C227.664 154.021 227.202 155.536 226.383 156.861C225.446 158.374 224.134 159.619 222.573 160.475C220.673 161.563 218.631 162.38 216.504 162.902C213.199 163.731 209.869 164.474 206.539 165.218C204.174 165.714 201.84 166.345 199.548 167.108C197.228 167.87 195.255 169.435 193.983 171.52C193.494 172.299 193.016 173.066 192.505 173.824C191.78 174.905 191.066 175.997 190.306 177.047C188.477 179.504 185.968 181.371 183.089 182.416C179.244 183.928 175.127 184.624 170.999 184.46C164.029 184.184 157.237 182.178 151.236 178.623C147.774 176.718 145.132 173.609 143.811 169.885C143.731 169.731 143.599 169.609 143.439 169.543L143.418 170.357C143.418 174.371 142.768 178.358 141.494 182.165C140.817 184.279 139.665 186.21 138.126 187.81C137.321 188.632 136.338 189.259 135.252 189.64C133.859 190.116 132.338 190.046 130.994 189.445L130.31 189.148C130.103 189.374 129.805 189.516 129.563 189.71C128.08 190.905 126.334 191.731 124.469 192.119C123.644 192.321 122.785 192.353 121.947 192.211C121.109 192.069 120.309 191.758 119.595 191.296C118.882 190.833 118.271 190.23 117.799 189.523C117.327 188.816 117.005 188.02 116.852 187.183C116.544 185.761 116.484 184.297 116.675 182.854C116.955 180.897 117.391 178.965 117.979 177.077C118.112 176.669 118.175 176.241 118.165 175.812C117.949 175.899 117.721 175.956 117.489 175.981C117.02 176.002 116.551 175.974 116.087 175.897C115.207 175.799 114.393 175.381 113.802 174.721C113.211 174.061 112.884 173.206 112.884 172.321C112.817 171.601 112.788 170.879 112.796 170.156C112.776 169.929 112.799 169.701 112.804 169.288C112.492 169.626 112.295 169.84 112.019 169.982C111.296 170.586 110.617 171.232 109.858 171.761C109.3 172.217 108.643 172.535 107.94 172.69C107.236 172.845 106.506 172.832 105.808 172.653C105.476 173.014 105.011 173.315 104.623 173.645C102.09 175.886 99.1166 177.573 95.8933 178.598C94.9945 178.854 94.0699 179.008 93.1369 179.058C92.1823 179.111 91.2411 178.814 90.4901 178.223C90.0851 178.391 89.6904 178.548 89.3182 178.726C87.931 179.379 86.475 179.875 84.9774 180.204C83.2529 180.663 81.4191 180.46 79.8373 179.634C79.5837 179.796 79.3726 179.935 79.1511 180.085C77.4877 181.213 75.5907 181.95 73.6021 182.241C73.3448 182.283 73.0851 182.308 72.8246 182.317C71.5467 182.347 70.9644 181.894 70.9434 180.583C70.9161 179.622 71.0042 178.661 71.2058 177.721C71.4956 176.394 72.0042 175.124 72.7107 173.963C72.786 173.842 72.8533 173.716 72.9121 173.586C72.9121 173.586 72.9059 173.435 72.8825 173.392C72.0531 171.967 71.7292 170.303 71.9632 168.671C72.1399 167.142 72.4969 165.639 73.0268 164.194C73.1926 163.742 73.3576 163.269 73.4923 162.852L73.4402 162.637C73.0048 162.117 72.6926 161.505 72.5268 160.848C72.361 160.19 72.3459 159.503 72.4826 158.839C72.6591 157.207 73.0607 155.607 73.6759 154.085C74.5871 151.698 75.8351 149.453 77.3818 147.418C77.5272 147.261 77.6621 147.114 77.7398 146.894C77.7415 146.788 77.7262 146.683 77.6945 146.582C77.5155 146.049 77.4517 145.484 77.5074 144.925C77.563 144.366 77.7368 143.825 78.0172 143.338C78.5532 142.395 79.1888 141.501 79.8019 140.587C80.0104 140.384 80.2067 140.148 80.473 139.769ZM132.324 138.722L132.735 139.225C133.696 140.444 134.718 141.594 135.585 142.914C138.354 147.207 140.413 151.918 141.685 156.866C142.691 160.543 143.634 164.245 144.641 167.922C145.155 169.919 146.071 171.79 147.332 173.422C148.594 175.053 150.174 176.41 151.978 177.411C157.807 180.857 164.402 182.797 171.169 183.055C175.317 183.205 179.448 182.448 183.274 180.836C185.768 179.806 187.919 178.09 189.478 175.888C190.544 174.371 191.565 172.833 192.531 171.265C194.103 168.524 196.672 166.497 199.703 165.605C200.903 165.253 202.09 164.847 203.304 164.569C205.935 163.974 208.525 163.423 211.157 162.828C213.379 162.293 215.599 161.714 217.795 161.071C219.563 160.571 221.238 159.785 222.752 158.744C224.43 157.673 225.637 156.004 226.13 154.075C226.623 152.147 226.364 150.103 225.406 148.359C225.081 147.706 224.7 147.084 224.268 146.497C222.405 144.114 220.142 142.072 217.582 140.461C214.055 138.145 210.274 136.241 206.314 134.786C199.714 132.357 192.934 130.449 186.036 129.078C172.674 126.28 159.064 124.828 145.412 124.744C145.185 124.743 144.947 124.774 144.688 124.785C142.434 130.801 138.029 135.767 132.324 138.722ZM122.25 104.444C122.226 104.109 122.214 103.806 122.168 103.493C121.823 100.363 121.5 97.2327 121.071 94.1498C119.253 79.8159 115.793 65.7385 110.759 52.1953C108.898 47.0052 106.515 42.0176 103.646 37.3092C101.589 33.86 98.992 30.7635 95.9534 28.1381C94.5851 26.9591 92.9877 26.0759 91.2617 25.5439C89.801 25.073 88.2315 25.0584 86.7622 25.5019C85.293 25.9454 83.9937 26.8261 83.0376 28.0266C82.0979 29.1107 81.3829 30.3706 80.9343 31.7334C80.1265 33.9883 79.5606 36.3226 79.246 38.697C78.8228 41.869 78.3969 44.976 77.8993 48.1835C77.6298 50.3015 77.186 52.3936 76.5723 54.4386C75.9019 56.6706 74.5444 58.6343 72.6932 60.0501C71.2439 61.1934 69.7608 62.3056 68.3116 63.4489C65.6799 65.4519 63.7737 68.2589 62.882 71.4436C61.9892 74.4895 61.6133 77.6635 61.7699 80.8337C62.2002 88.2305 64.6962 95.3583 68.9746 101.407C70.3823 103.587 72.3204 105.372 74.6071 106.597C76.3895 107.46 78.2922 108.047 80.2504 108.34C83.0233 108.812 85.7961 109.284 88.5689 109.756C92.0043 110.332 95.3838 111.202 98.6703 112.357C102.43 113.602 105.952 115.473 109.087 117.893C109.189 117.956 109.301 118.003 109.418 118.031C110.614 115.08 112.349 112.377 114.534 110.06C116.716 107.701 119.332 105.783 122.238 104.412L122.25 104.444ZM125.895 138.443C126.3 138.003 126.656 138.227 127.006 138.3C127.549 138.466 128.117 138.538 128.684 138.513C129.527 138.378 130.354 138.155 131.151 137.848C132.705 137.241 134.149 136.384 135.426 135.31C138.02 133.329 140.199 130.857 141.839 128.034C143.285 125.57 144.154 122.81 144.382 119.962C144.392 119.68 144.478 119.406 144.477 119.113C144.548 117.66 145.133 116.28 146.129 115.219C146.859 114.338 147.524 113.405 148.118 112.427C148.578 111.662 148.878 110.811 148.999 109.927C149.119 109.042 149.058 108.142 148.818 107.282C148.51 106.261 148.35 105.202 148.342 104.136C148.339 103.011 148.004 101.912 147.378 100.977C146.981 100.267 146.373 99.6988 145.638 99.3501C144.903 99.0014 144.078 98.8898 143.277 99.0308C142.062 99.1936 140.829 99.1487 139.629 98.8981C138.595 98.6717 137.523 98.6913 136.498 98.9554C135.473 99.2195 134.524 99.7207 133.729 100.419C132.993 100.995 132.29 101.614 131.626 102.272C130.673 103.286 129.404 103.945 128.027 104.142C124.68 104.574 121.498 105.85 118.78 107.849C115.874 110.002 113.465 112.755 111.716 115.921C110.793 117.493 110.211 119.242 110.008 121.053C109.888 121.804 110.011 122.574 110.358 123.251C110.475 123.395 110.533 123.578 110.521 123.764C110.508 123.949 110.426 124.123 110.29 124.251L109.596 124.236C108.375 124.159 107.152 124.159 105.931 124.234C104.129 124.427 102.332 124.75 100.558 125.115C99.4864 125.336 98.4364 125.651 97.4201 126.056C94.7967 127.066 92.3094 128.398 90.0155 130.023C88.9444 130.723 88.0139 131.618 87.2722 132.661C87.0294 133.029 86.8517 133.436 86.7469 133.864C86.6812 134.044 86.6576 134.236 86.6777 134.427C86.6978 134.617 86.7612 134.801 86.8631 134.963C86.9649 135.125 87.1024 135.262 87.2652 135.362C87.4279 135.463 87.6116 135.526 87.8021 135.545C88.2306 135.665 88.6754 135.716 89.12 135.697C90.3624 135.592 91.6048 135.487 92.8315 135.263C94.0582 135.039 94.7393 134.73 95.6603 134.454C96.1001 134.338 96.5579 134.135 97.0233 134.647C96.8745 134.934 96.7046 135.209 96.5149 135.47C95.8559 136.321 95.1735 137.13 94.5032 137.97C93.5881 139.038 92.8574 140.252 92.3409 141.56C91.9943 142.389 91.8778 143.296 92.0038 144.186C92.0232 144.497 92.1134 144.798 92.2675 145.069C92.4215 145.339 92.6353 145.57 92.8926 145.745C93.1498 145.919 93.4436 146.033 93.7515 146.076C94.0594 146.12 94.3731 146.093 94.6687 145.996C95.5646 145.829 96.4377 145.557 97.2699 145.185C98.5239 144.57 99.7303 143.849 100.937 143.149C101.435 142.858 101.5 142.855 101.942 143.325C101.827 143.566 101.695 143.8 101.548 144.024C101.319 144.272 101.091 144.519 100.863 144.767C100.31 145.391 99.91 146.135 99.694 146.94C99.5938 147.253 99.5562 147.582 99.5837 147.91C99.6111 148.237 99.7029 148.556 99.8538 148.848C100.005 149.14 100.212 149.4 100.463 149.611C100.715 149.823 101.005 149.983 101.319 150.082C102.022 150.376 102.806 150.413 103.534 150.187C104.221 149.956 104.894 149.686 105.55 149.378C106.125 149.116 106.654 148.791 107.217 148.518C107.78 148.246 108.098 148.331 108.58 148.983C108.388 149.327 108.209 149.725 107.997 150.091C107.298 151.195 106.777 152.401 106.452 153.667C106.126 154.851 106.124 156.102 106.448 157.287C106.51 157.563 106.628 157.822 106.795 158.049C106.962 158.276 107.174 158.466 107.418 158.607C107.662 158.748 107.933 158.836 108.213 158.867C108.494 158.898 108.777 158.87 109.046 158.786C109.692 158.589 110.3 158.282 110.841 157.878C111.522 157.317 112.167 156.715 112.773 156.075C113.323 155.478 113.811 154.948 114.413 154.295C114.683 154.002 114.994 153.664 115.494 153.958C115.994 154.252 115.553 154.617 115.447 154.936C114.987 156.239 114.804 157.623 114.909 159.001C114.977 160.214 115.504 161.355 116.384 162.193C116.686 162.536 117.112 162.745 117.568 162.776C118.024 162.806 118.474 162.654 118.818 162.354C119.51 161.895 120.12 161.324 120.625 160.665C121.462 159.508 122.21 158.289 122.861 157.018C124.491 154.018 125.531 150.733 125.923 147.342L126.237 143.611C126.34 142.119 126.235 140.62 125.925 139.157C125.948 138.928 125.927 138.68 125.895 138.443ZM116.836 164.256C116.418 164.891 115.956 165.528 115.644 166.115C114.441 168.025 113.961 170.302 114.291 172.534C114.344 172.961 114.516 173.364 114.789 173.696C115.062 174.029 115.423 174.277 115.832 174.412C116.752 174.71 117.737 174.745 118.676 174.512C118.959 174.505 119.229 174.395 119.437 174.203C119.644 174.011 119.775 173.75 119.804 173.469C120.369 170.844 121.065 168.257 121.717 165.628L121.941 164.752C122.09 164.894 122.195 165.076 122.243 165.275C122.292 165.475 122.282 165.685 122.215 165.879C122.047 167.295 121.808 168.701 121.498 170.093C120.749 172.985 119.847 175.841 119.065 178.724C118.668 180.149 118.348 181.604 118.093 183.057C117.881 184.289 117.915 185.551 118.191 186.771C118.281 187.453 118.515 188.108 118.877 188.693C119.239 189.278 119.721 189.779 120.291 190.165C120.86 190.55 121.505 190.81 122.183 190.928C122.861 191.046 123.556 191.02 124.222 190.85C125.557 190.61 126.827 190.097 127.955 189.344C129.082 188.591 130.042 187.614 130.775 186.473C132.842 183.185 134.361 179.582 135.272 175.807C136.012 173.12 136.268 170.324 136.029 167.547C136.027 167.372 136.041 167.198 136.073 167.025L136.222 166.976C136.353 167.238 136.455 167.514 136.527 167.798C136.727 168.867 136.837 169.95 136.855 171.037C136.544 176.94 134.601 182.642 131.24 187.506C131.116 187.7 131.001 187.9 130.896 188.105C131.782 188.52 132.766 188.683 133.739 188.577C134.711 188.47 135.636 188.098 136.411 187.5C137.024 187.019 137.583 186.473 138.079 185.871C139.066 184.616 139.819 183.193 140.303 181.672C141.526 177.983 142.144 174.121 142.134 170.236C142.134 163.725 140.876 157.276 138.43 151.243C137.026 147.482 135.031 143.97 132.519 140.839C132.064 140.294 131.565 139.772 131.18 139.354L127.279 139.925C127.279 139.925 127.279 139.925 127.227 139.982C127.51 142.705 127.454 145.453 127.062 148.162C126.931 149.486 126.658 150.791 126.246 152.055C125.567 154.012 124.757 155.932 123.902 157.831C123.088 159.75 121.899 161.487 120.403 162.939C119.966 163.439 119.41 163.821 118.787 164.051C118.164 164.281 117.494 164.351 116.836 164.256ZM80.8783 116.271L80.856 116.521C80.5962 116.532 80.3478 116.553 80.0984 116.552C79.849 116.552 79.0577 116.552 78.5399 116.616C72.3619 117.336 66.509 119.772 61.645 123.649C60.596 124.492 59.7371 125.547 59.1247 126.745C58.5123 127.944 58.1602 129.258 58.0917 130.602C57.9434 131.848 58.2878 133.102 59.0515 134.098C59.8153 135.094 60.9378 135.751 62.1797 135.931C63.2578 136.13 64.3624 136.14 65.4439 135.96C67.1875 135.678 68.8922 135.194 70.5234 134.517C73.3295 133.415 76.1468 132.324 78.9893 131.319C80.3784 130.889 81.7897 130.535 83.2171 130.258C83.3922 130.181 83.5872 130.162 83.7739 130.203C83.9607 130.244 84.1296 130.343 84.2563 130.486C83.6781 130.661 83.1847 130.79 82.7034 130.951L75.6031 133.344C75.2716 133.455 74.9513 133.577 74.8807 133.97C74.5385 135.186 74.6731 136.487 75.2571 137.608C75.4185 137.907 75.6534 138.16 75.9397 138.344C76.226 138.528 76.5542 138.635 76.8936 138.657C78.3651 138.8 79.8496 138.591 81.2242 138.047C82.5987 137.502 83.824 136.638 84.7985 135.526C84.9995 135.303 85.1112 135.012 85.1121 134.711C85.1032 134.058 85.2717 133.414 85.5996 132.849C86.1095 131.904 86.779 131.055 87.5784 130.339C88.8179 129.246 90.1661 128.283 91.602 127.465C96.6913 124.405 102.546 122.857 108.483 123.002C108.56 123.002 108.637 122.988 108.709 122.96L108.917 119.298C108.782 119.174 108.624 119.029 108.477 118.894C107.054 117.76 105.517 116.776 103.891 115.959C96.5 112.276 88.328 110.434 80.0715 110.591C75.5898 110.64 71.1529 111.49 66.9701 113.1C65.0322 113.796 63.2465 114.86 61.7103 116.231C60.7209 117.019 60.0202 118.113 59.7174 119.341C59.4146 120.569 59.5269 121.863 60.0366 123.021C60.1091 123.169 60.1947 123.311 60.2924 123.444C60.3547 123.376 60.4534 123.405 60.4846 123.371C60.744 123.089 61.0815 122.859 61.3974 122.629C65.695 119.305 70.7551 117.108 76.1179 116.238C77.3737 115.999 78.6588 115.954 79.9283 116.104C80.2539 116.112 80.5613 116.208 80.8783 116.271ZM104.129 162.336C104.235 162.353 104.335 162.394 104.423 162.456C104.51 162.518 104.582 162.6 104.632 162.695C104.682 162.79 104.709 162.895 104.712 163.002C104.714 163.109 104.691 163.216 104.646 163.313C104.475 163.927 104.273 164.553 104.115 165.177C103.765 166.303 103.695 167.496 103.91 168.655C103.967 169.037 104.101 169.405 104.303 169.735C104.505 170.065 104.771 170.352 105.085 170.577C105.4 170.803 105.756 170.963 106.134 171.049C106.511 171.134 106.902 171.143 107.283 171.075C108.542 170.983 109.736 170.481 110.683 169.646C112.153 168.356 113.482 166.913 114.648 165.343C115.146 164.802 115.517 164.061 115.903 163.438C115.036 162.677 114.383 161.702 114.01 160.61C113.711 159.503 113.594 158.354 113.665 157.209C113.289 157.488 112.935 157.796 112.607 158.131C111.75 159.08 110.644 159.77 109.415 160.126C108.562 160.354 107.653 160.235 106.888 159.795C106.122 159.355 105.562 158.63 105.33 157.778C105.171 157.23 105.076 156.667 105.044 156.098C104.975 154.448 105.326 152.808 106.064 151.33C106.162 151.087 106.271 150.834 106.45 150.436C106.013 150.617 105.737 150.758 105.448 150.846C104.581 151.168 103.681 151.394 102.765 151.519C102.12 151.613 101.463 151.542 100.853 151.314C100.243 151.085 99.7014 150.706 99.2777 150.211C98.8539 149.717 98.5621 149.123 98.4294 148.486C98.2967 147.848 98.3274 147.187 98.5188 146.565C98.5528 146.378 98.574 146.189 98.5823 145.999C98.2093 146.155 97.9332 146.296 97.645 146.406C96.6881 146.788 95.7044 147.1 94.702 147.339C94.2777 147.435 93.8383 147.444 93.4104 147.366C92.9825 147.287 92.575 147.123 92.2125 146.882C91.85 146.641 91.5401 146.33 91.3015 145.966C91.0628 145.602 90.9005 145.194 90.8242 144.766C90.587 143.961 90.5745 143.107 90.7883 142.296C90.9892 141.438 91.2977 140.61 91.7065 139.83C92.3797 138.781 93.1053 137.767 93.8805 136.792C94.0466 136.612 94.2127 136.432 94.5137 136.105C93.7303 136.3 93.1408 136.465 92.527 136.566C90.4641 137.176 88.2507 137.028 86.2874 136.149C85.2509 137.047 84.1694 137.905 83.1892 138.855C81.8136 140.133 80.6287 141.602 79.6709 143.216C79.1402 144.104 78.916 145.142 79.0328 146.169C79.053 146.59 79.2209 146.991 79.5072 147.3C79.7935 147.61 80.1797 147.809 80.598 147.861C81.1348 147.968 81.6824 148.012 82.2293 147.99C83.547 147.871 84.8629 147.709 86.2204 147.501C86.5978 147.454 86.9952 147.361 87.3848 147.345C87.5279 147.327 87.6734 147.35 87.8037 147.412C87.9341 147.474 88.0438 147.572 88.1198 147.695C88.1957 147.818 88.2347 147.96 88.232 148.104C88.2293 148.248 88.185 148.389 88.1045 148.509C88.0043 148.716 87.8894 148.917 87.7604 149.108C86.6114 150.953 85.941 153.056 85.8099 155.226C85.7165 156.664 86.0704 158.096 86.8231 159.326C87.1305 159.905 87.6035 160.381 88.1817 160.691C88.76 161.001 89.4175 161.133 90.0706 161.068C90.8988 161.008 91.7133 160.825 92.4876 160.525C93.6681 159.979 94.8193 159.371 95.9363 158.704C96.594 158.352 97.2672 157.847 97.8609 157.519C98.0295 157.393 98.2294 157.316 98.4389 157.296C98.6484 157.276 98.8593 157.314 99.0487 157.406C99.3279 157.871 99.0183 158.253 98.8282 158.64C98.4618 159.489 97.9967 160.311 97.6858 161.191C97.4024 162.008 97.3558 162.89 97.5512 163.733C97.5687 163.91 97.6219 164.082 97.7077 164.238C97.7935 164.394 97.91 164.531 98.0503 164.641C98.1906 164.751 98.3517 164.831 98.5238 164.877C98.696 164.923 98.8756 164.933 99.0519 164.907C99.5979 164.888 100.135 164.759 100.63 164.528C101.606 164.012 102.523 163.356 103.463 162.765C103.686 162.658 103.917 162.475 104.129 162.336ZM86.4709 148.857L85.6182 148.946C84.3438 149.063 83.0824 149.234 81.8157 149.275C80.6862 149.342 79.5717 148.99 78.6857 148.287C78.6294 148.235 78.5843 148.193 78.367 148.18C77.9173 148.849 77.4019 149.499 76.9756 150.21C75.4662 152.501 74.4046 155.056 73.8471 157.742C73.6905 158.551 73.6296 159.376 73.6657 160.2C73.6584 160.678 73.8288 161.142 74.1439 161.501C74.459 161.861 74.8965 162.091 75.3714 162.146C76.1855 162.335 77.0333 162.323 77.8416 162.11C78.6683 161.914 79.5217 161.576 80.3051 161.381C80.776 161.232 81.2772 161.027 81.6957 161.454C82.1143 161.881 81.7839 162.285 81.6925 162.701C81.3759 163.971 81.0038 165.212 80.785 166.489C80.6919 167.194 80.7396 167.911 80.9254 168.597C80.974 168.88 81.0784 169.151 81.2324 169.394C81.3863 169.637 81.5869 169.847 81.8225 170.011C82.058 170.176 82.3239 170.293 82.6048 170.354C82.8856 170.415 83.1758 170.42 83.4587 170.369C84.1038 170.289 84.7328 170.11 85.3232 169.837C86.2588 169.387 87.1354 168.82 88.0466 168.306C88.3334 168.13 88.6311 167.973 88.938 167.836C89.0224 167.794 89.115 167.771 89.2092 167.768C89.3035 167.766 89.3971 167.784 89.4835 167.822C89.5698 167.86 89.6468 167.916 89.709 167.987C89.7711 168.058 89.8169 168.142 89.8432 168.232C89.7586 168.55 89.6663 168.944 89.5307 169.34C89.091 170.482 88.8757 171.698 88.8966 172.922C88.901 173.576 89.0406 174.223 89.3066 174.821C89.5727 175.419 89.9595 175.955 90.4427 176.397C90.926 176.838 91.4952 177.175 92.1148 177.386C92.7344 177.596 93.3908 177.677 94.043 177.622C94.8194 177.578 95.5863 177.43 96.3232 177.182C98.9382 176.274 101.365 174.897 103.485 173.117C103.817 172.756 104.239 172.457 104.647 172.104C102.086 170.182 102.222 167.661 102.824 164.905C102.463 165.093 102.219 165.222 101.987 165.362C101.088 165.899 100.077 166.222 99.0332 166.307C98.7018 166.35 98.3651 166.328 98.0422 166.242C97.7193 166.155 97.4167 166.006 97.1517 165.802C96.8866 165.598 96.6642 165.345 96.4974 165.055C96.3305 164.765 96.2224 164.446 96.1792 164.114C95.9547 162.942 96.0551 161.731 96.4696 160.612L96.7269 159.745L95.9324 160.2C94.8913 160.719 93.8744 161.303 92.7986 161.77C91.7497 162.244 90.6001 162.451 89.4518 162.373C88.7632 162.34 88.0907 162.153 87.4843 161.825C86.8779 161.497 86.3531 161.036 85.9487 160.478C84.914 159.057 84.3854 157.331 84.4474 155.574C84.5209 153.451 85.1095 151.377 86.1624 149.531L86.4709 148.857ZM80.3289 162.757C78.5514 163.554 76.5567 163.727 74.6685 163.248C73.9477 164.896 73.4535 166.634 73.1994 168.414C72.9351 169.76 73.1099 171.155 73.6981 172.394C73.8229 172.61 73.8889 172.854 73.8896 173.104C73.8903 173.353 73.8256 173.598 73.702 173.814C73.4638 174.306 73.26 174.815 73.0921 175.335C72.5244 176.679 72.18 178.106 72.0724 179.561C72.077 179.94 72.1146 180.329 72.1453 180.816C72.5393 180.894 72.9406 180.928 73.342 180.919C74.2246 180.814 75.0953 180.626 75.9425 180.357C77.0586 179.939 78.1432 179.442 79.1881 178.869C79.4738 178.691 79.7992 178.587 80.135 178.566C80.4709 178.545 80.8068 178.607 81.1127 178.747C81.9375 179.081 82.8359 179.19 83.7166 179.063C85.5772 178.812 87.3826 178.25 89.0582 177.403C89.1205 177.336 89.1827 177.268 89.3073 177.133C88.4117 176.123 87.8087 174.888 87.5634 173.561C87.3181 172.234 87.4398 170.865 87.9153 169.601C87.4921 169.857 87.2481 169.986 87.0153 170.126C85.9677 170.818 84.7785 171.267 83.5349 171.439C82.7666 171.542 81.9856 171.394 81.3081 171.018C80.6305 170.641 80.0927 170.056 79.7745 169.349C79.4271 168.595 79.3025 167.757 79.4156 166.935C79.5635 165.78 79.8205 164.642 80.0446 163.495C80.0879 163.493 80.2072 163.228 80.3401 162.767L80.3289 162.757Z" fill="#25262B"/>
<path d="M112.982 93.5918C112.708 93.7023 112.425 93.79 112.137 93.854C111.799 93.8627 111.461 93.8439 111.126 93.7977C109.877 93.7074 108.623 93.8963 107.456 94.3506C106.289 94.8049 105.237 95.5133 104.378 96.4244C103.519 97.3355 102.873 98.4264 102.487 99.6182C102.102 100.81 101.986 102.072 102.149 103.314C102.211 103.767 102.381 104.215 102.465 104.667C102.548 105.119 102.517 105.153 102.564 105.509C102.22 105.484 101.878 105.44 101.54 105.377C100.13 105.068 98.8076 104.448 97.6686 103.562C96.5296 102.676 95.6031 101.547 94.9568 100.257C94.3104 98.9671 93.9606 97.5489 93.933 96.1062C93.9053 94.6636 94.2005 93.233 94.7969 91.9191C95.3933 90.6052 96.2758 89.4413 97.38 88.5124C98.4842 87.5835 99.782 86.9132 101.179 86.5504C102.575 86.1877 104.035 86.1417 105.452 86.4159C106.868 86.69 108.206 87.2774 109.366 88.135C110.887 89.2465 112.043 90.7836 112.691 92.5521C112.814 92.8908 112.912 93.2384 112.982 93.5918ZM111.271 92.556C110.494 89.4656 106.3 87.1221 102.579 87.5886C100.54 87.8714 98.6728 88.8875 97.328 90.4469C95.9831 92.0062 95.2523 94.0021 95.2722 96.0612C95.3489 99.5271 98.1646 103.434 100.786 103.641C100.559 102.182 100.667 100.691 101.103 99.2808C101.538 97.8703 102.288 96.5773 103.297 95.4998C104.306 94.4223 105.547 93.5885 106.926 93.0617C108.305 92.5349 109.785 92.3288 111.256 92.459L111.271 92.556Z" fill="#25262B"/>
<path d="M90.0233 77.1853C89.6359 77.0487 89.2595 76.8829 88.8972 76.6893C87.0146 75.5187 85.5835 73.7454 84.8368 71.658C84.0901 69.5706 84.0718 67.292 84.7847 65.1929C85.2736 63.7684 86.0886 62.4778 87.1646 61.4242C88.2407 60.3705 89.5481 59.5829 90.9825 59.1241C92.4169 58.6653 93.9388 58.548 95.4265 58.7816C96.9143 59.0152 98.327 59.5933 99.5518 60.4697C100.537 61.1891 101.397 62.0659 102.097 63.0649L102.342 63.4777C102.544 63.6645 102.623 64.0082 102.395 64.256C102.167 64.5039 101.825 64.3769 101.547 64.204C100.626 63.5885 99.5898 63.1656 98.501 62.9605C97.4121 62.7554 96.2931 62.7723 95.211 63.0104C93.8701 63.2831 92.6159 63.8783 91.5567 64.7445C90.4975 65.6107 89.6652 66.7218 89.1318 67.9818C88.5983 69.2419 88.3798 70.6128 88.4951 71.9763C88.6104 73.3397 89.056 74.6545 89.7935 75.8071C89.9656 76.0869 90.1017 76.3872 90.1986 76.7011C90.2775 76.7738 90.1321 76.9315 90.0233 77.1853ZM87.3496 73.3052C87.0326 71.6902 87.1267 70.0214 87.6232 68.4522C88.1197 66.8831 89.0027 65.4639 90.1909 64.3251C91.3792 63.1864 92.8346 62.3645 94.4235 61.9352C96.0123 61.5059 97.6836 61.4829 99.2837 61.8682C97.7559 60.5684 95.8092 59.8656 93.8035 59.8898C91.7977 59.914 89.8685 60.6636 88.3726 61.9999C86.7757 63.3879 85.7775 65.3397 85.5868 67.4468C85.3962 69.5539 86.0278 71.6532 87.3496 73.3052Z" fill="#25262B"/>
<path d="M120.271 115.159C121.567 113.745 123.253 112.746 125.116 112.289C126.979 111.833 128.936 111.94 130.739 112.596C132.542 113.252 134.109 114.428 135.243 115.975C136.377 117.523 137.027 119.372 137.11 121.288C137.193 123.205 136.705 125.103 135.709 126.743C134.713 128.382 133.253 129.689 131.514 130.499C129.774 131.308 127.834 131.583 125.938 131.29C124.042 130.996 122.276 130.146 120.863 128.849C118.986 127.102 117.871 124.687 117.76 122.125C117.649 119.564 118.551 117.061 120.271 115.159ZM133.553 127.398C134.676 126.178 135.414 124.653 135.672 123.015C135.929 121.377 135.696 119.699 135.002 118.193C134.307 116.687 133.182 115.421 131.769 114.554C130.355 113.687 128.716 113.258 127.059 113.321C125.402 113.384 123.801 113.937 122.458 114.909C121.114 115.881 120.089 117.23 119.511 118.784C118.933 120.339 118.829 122.029 119.211 123.643C119.593 125.257 120.444 126.721 121.657 127.851C122.467 128.618 123.423 129.213 124.468 129.604C125.512 129.994 126.625 130.17 127.739 130.123C128.853 130.075 129.946 129.804 130.954 129.327C131.961 128.849 132.863 128.174 133.605 127.341L133.553 127.398Z" fill="#25262B"/>
<path d="M133.439 158.038C135.317 160.747 135.463 174.129 133.639 175.906C133.619 175.773 133.618 175.638 133.633 175.505C134.55 170.723 134.529 165.809 133.573 161.035C133.422 160.272 133.304 159.496 133.175 158.732C133.098 158.431 133.01 158.142 133.439 158.038Z" fill="#25262B"/>
<path d="M90.0129 118.294C89.9268 118.839 89.5873 118.756 89.3934 118.785C88.5561 118.722 87.73 118.669 86.9134 118.583C83.4157 118.208 79.8838 118.294 76.4085 118.839C75.2675 119.037 74.1309 119.344 72.9917 119.586L72.2186 119.769C72.3178 119.277 72.6857 119.262 72.9411 119.143C74.5415 118.523 76.2154 118.112 77.9211 117.921C81.5108 117.488 85.1415 117.522 88.7225 118.021C89.1575 118.088 89.5883 118.179 90.0129 118.294Z" fill="#25262B"/>
</g>
<defs>
<clipPath id="clip0_87_16044">
<rect width="194.296" height="157.885" fill="white" transform="translate(106.988) rotate(42.6587)"/>
</clipPath>
</defs>
</svg>
