<svg width="245" height="325" viewBox="0 0 245 325" fill="none" xmlns="http://www.w3.org/2000/svg">
<g clip-path="url(#clip0_4_471)">
<path d="M247.173 0.514699C247.622 0.455013 248.078 0.564596 248.451 0.822159C248.825 1.07971 249.089 1.46684 249.192 1.90829C250.301 4.50115 251.418 7.11474 252.319 9.79635C255.447 19.0955 257.526 28.7153 258.516 38.4769C260.294 56.4352 259.076 74.5655 254.912 92.1282C252.099 104.154 248.185 115.896 243.219 127.206C240.933 132.205 240.469 137.846 241.908 143.149C242.447 145.145 243.148 147.093 244.006 148.974C246.981 155.109 249.484 161.462 251.492 167.977C252.726 172.357 253.773 176.816 254.675 181.165C256.576 189.921 258.181 198.729 259.428 207.617C259.822 210.491 259.96 213.4 260.17 216.304C260.229 217.015 260.332 217.83 259.682 218.377C259.006 218.347 258.853 217.873 258.705 217.47C256.931 213.322 255.398 209.218 253.817 205.06C252.236 200.903 250.821 197.018 249.385 192.971C247.813 188.49 246.262 184.001 244.774 179.485C243.285 174.97 241.953 170.878 240.595 166.552C239.411 162.932 238.463 159.24 237.759 155.497C237.123 152.067 237.074 148.554 237.614 145.107C237.847 143.585 238.139 142.086 238.351 140.572C238.564 139.772 238.551 138.928 238.316 138.134C237.651 138.418 237.473 139.034 237.191 139.523C234.737 143.835 232.311 148.209 229.819 152.488C228.613 154.549 227.369 156.578 225.988 158.517C225.497 159.156 225.153 159.895 224.98 160.681C224.807 161.467 224.81 162.282 224.987 163.067C225.524 165.763 226.205 168.429 227.026 171.052C229.25 177.461 231.552 183.592 233.836 189.853C236.764 197.851 239.838 205.786 242.549 213.852C245.714 222.697 248.124 231.794 249.756 241.046C250.179 243.76 250.398 246.512 250.638 249.255C250.731 249.585 250.752 249.93 250.702 250.268C250.653 250.607 250.532 250.931 250.348 251.219C249.56 251.213 249.528 250.564 249.383 250.111C248.816 248.44 248.383 246.736 247.795 245.074C245.002 236.865 241.772 228.811 238.119 220.947C237.187 218.769 236.132 216.644 235.15 214.464C232.684 209.041 230.148 203.624 227.777 198.136C225.516 193.011 223.727 187.691 222.43 182.242C221.844 179.72 221.432 177.149 221.091 174.571C220.81 172.124 220.955 169.646 221.52 167.248C221.63 166.759 221.69 166.268 221.777 165.666C221.574 165.726 221.379 165.81 221.196 165.915C217.049 171.319 212.937 176.806 208.588 182.369C208.734 183.117 208.926 183.854 209.164 184.577C210.511 188.073 211.921 191.543 213.307 195.073C214.956 199.274 216.688 203.612 218.331 207.915C220.283 213.408 221.711 219.074 222.594 224.836C223.911 232.78 224.818 240.785 225.311 248.822C225.609 252.792 225.927 256.753 226.112 260.747C226.24 262.826 226.078 264.859 226.004 266.926C226.075 267.436 225.967 268.046 225.149 268.2C224.548 267.543 224.189 266.702 224.129 265.814C223.374 263.242 222.639 260.662 221.966 258.054C220.21 251.248 218.579 244.389 216.773 237.58C215.483 232.611 214.06 227.675 212.596 222.756C210.884 217.027 209.606 211.176 208.772 205.255L206.75 190.933C206.52 189.191 206.392 187.455 206.204 185.523C205.888 185.601 205.587 185.73 205.312 185.905L196.661 195.246C196.067 197.209 195.831 199.263 195.963 201.31C197.129 214.476 196.507 227.741 194.112 240.742C192.71 249.83 191.255 258.908 189.747 267.977C189.034 272.281 188.258 276.611 187.325 280.862C187.222 281.282 187.086 281.693 186.918 282.091C186.049 281.898 186.035 281.291 185.974 280.802C185.78 278.971 185.566 277.149 185.473 275.324C184.903 265.778 184.959 256.432 185.281 247.02C185.459 241.35 185.688 235.683 185.968 230.019C186.32 223.664 187.183 217.347 188.548 211.129C189.206 207.658 190.326 204.291 191.879 201.118C192.024 200.745 192.148 200.364 192.251 199.977C191.868 200.164 191.501 200.378 191.15 200.619C187.026 204.296 182.902 207.973 178.837 211.674C178.266 212.183 177.813 212.812 177.513 213.516C176.949 214.854 176.497 216.237 176.162 217.65C175.283 221.338 174.538 224.993 173.962 228.699C172.485 237.706 170.091 246.539 166.817 255.061C163.782 263.007 160.489 270.868 157.305 278.755C155.622 282.86 153.83 286.938 152.068 291.028C151.828 291.819 151.36 292.523 150.723 293.051C150.605 292.757 150.538 292.445 150.525 292.129C150.669 290.915 150.834 289.691 151.036 288.501C152.284 281.425 153.817 274.464 155.637 267.618C157.71 259.372 159.596 251.205 161.564 243.003C162.255 240.083 162.896 237.159 163.646 234.262C164.939 229.037 167.237 224.113 170.412 219.765C170.73 219.359 170.971 218.889 171.363 218.255C171.037 218.258 170.715 218.325 170.416 218.453C170.117 218.581 169.846 218.767 169.619 219C166.077 221.57 162.564 224.151 159.014 226.699C157.714 227.623 156.403 228.576 155.009 229.393C150.293 232.145 146.335 235.923 141.915 238.965C138.089 241.785 134.09 244.363 129.943 246.684C126.695 248.391 123.347 249.921 119.963 251.368C113.466 254.145 106.726 256.242 100.004 258.379C95.2511 259.896 90.5778 261.6 85.869 263.22C81.1602 264.841 76.211 266.76 71.5135 268.867C70.9405 269.072 70.3527 269.233 69.7553 269.349C70.0173 268.862 70.333 268.406 70.6965 267.989C73.5589 265.69 76.5705 263.583 79.7115 261.682C85.342 258.246 91.2014 255.2 97.2485 252.565C104.452 249.486 111.537 246.187 118.657 242.971C128.043 238.737 137.568 234.886 147.152 231.23C149.773 230.134 152.257 228.735 154.552 227.061C158.085 224.643 161.544 222.109 165.033 219.587C165.564 219.235 165.992 218.747 166.271 218.175C165.941 218.203 165.617 218.276 165.307 218.39C163.688 219.083 162.048 219.784 160.529 220.654C154.61 223.947 148.046 225.916 141.292 226.425C135.722 226.892 130.129 227.075 124.5 227.348C119.674 227.546 114.83 227.703 109.969 227.819C104.844 227.949 99.7047 227.987 94.5827 228.067C92.4367 228.101 90.2788 228.165 88.1536 228.19C87.6638 228.151 87.1781 228.072 86.7015 227.952C86.8063 227.049 87.4258 227.005 87.8972 226.901C90.3669 226.361 92.8454 225.841 95.3417 225.363C113.157 221.893 131.19 219.507 149.14 216.813C154.977 215.937 160.761 215.28 166.678 214.419C168.81 214.121 170.891 213.648 172.895 213.282C177.961 209.473 182.674 205.216 186.977 200.564C186.235 200.433 185.471 200.521 184.777 200.817C180.908 201.76 177.03 202.682 173.176 203.716C166.054 205.608 158.69 206.424 151.328 206.138C142.969 205.916 134.631 205.204 126.356 204.007C121.525 203.276 116.65 202.612 111.796 201.939C106.63 201.234 101.503 200.264 96.4364 199.036C95.7075 198.881 94.9934 198.647 93.82 198.314C94.2414 198.078 94.6868 197.888 95.1486 197.746C97.2829 197.57 99.4321 197.313 101.569 197.258C111.603 197.066 121.651 196.966 131.64 196.67C138.941 196.517 146.188 196.24 153.524 196.17C165.104 196.065 176.679 196.672 188.183 197.987C188.625 198.044 189.09 198.041 189.603 198.092C191.317 196.715 192.922 195.209 194.404 193.586C196.143 191.91 197.606 190.278 199.135 188.57C200.716 186.976 202.165 185.257 203.468 183.43C203.158 183.288 202.837 183.171 202.508 183.08C200.994 182.868 199.474 182.586 197.989 182.558C192.866 182.164 187.772 181.466 182.732 180.469C177.991 179.602 173.241 178.713 168.487 177.874C156.251 175.514 144.165 172.44 132.289 168.669C128.555 167.497 124.941 165.969 121.5 164.106C121.093 163.89 120.702 163.648 120.33 163.379C120.33 163.379 120.223 163.13 120.099 162.84C120.493 162.685 120.908 162.59 121.329 162.559C122.469 162.661 123.613 162.809 124.761 163.006C138.488 165.479 152.331 167.191 166.228 168.512C170.572 168.911 174.929 169.453 179.152 170.027C181.129 170.286 183.111 170.788 185.037 171.044C191.958 172.256 198.529 174.964 204.291 178.981L205.654 179.87C205.654 179.87 205.932 179.948 206.072 179.986C210.969 174.812 215.318 169.146 219.05 163.078C218.741 162.886 218.416 162.721 218.078 162.586L206.724 159C198.523 156.471 190.322 153.925 182.123 151.363C181.32 151.113 180.534 150.809 179.771 150.455C172.172 146.981 164.541 143.546 156.998 139.974C153.268 138.011 149.735 135.693 146.451 133.05C146.451 133.05 146.336 132.781 146.274 132.636C146.212 132.49 146.761 132.109 147.146 132.263C147.964 132.453 148.779 132.693 149.573 132.943C159.241 135.973 168.876 139.043 178.547 142.023C182.5 143.228 186.536 144.226 190.539 145.262C195.576 146.593 200.563 148.092 205.461 149.899C209.441 151.32 213.221 153.25 216.705 155.641C218.385 156.812 219.93 158.188 221.648 159.563C221.924 159.349 222.173 159.103 222.39 158.829C227.384 151.326 231.911 143.524 235.948 135.467C236.144 135.064 236.251 134.625 236.465 134.092C236.046 133.869 235.601 133.697 235.141 133.579C230.379 132.745 225.693 131.524 221.131 129.926C213.915 127.597 206.717 125.195 199.537 122.72C188.89 119.036 178.638 114.296 168.935 108.571C167.996 108.04 167.046 107.538 166.127 106.999C165.757 106.764 165.431 106.462 165.103 106.21C165.361 105.609 165.821 105.707 166.161 105.757C168.04 106.132 169.934 106.426 171.786 106.91C178.728 108.849 185.65 110.625 192.448 112.454C199.796 114.366 207.154 116.128 214.464 118.007C218.492 118.98 222.438 120.262 226.268 121.842C227.912 122.513 229.52 123.266 231.088 124.099C233.471 125.355 235.53 127.145 237.105 129.329C237.428 129.732 237.773 130.117 238.138 130.482C238.399 130.204 238.631 129.899 238.83 129.573C250.148 105.279 256.87 79.8825 256.626 52.9504C256.532 41.6084 255.008 30.3242 252.089 19.365C250.904 14.9196 249.468 10.545 247.788 6.26227C247.274 5.0592 246.893 3.82359 246.503 2.56727C246.208 1.58947 246.249 1.57173 247.173 0.514699Z" fill="#25262B" fill-opacity="0.38"/>
</g>
<defs>
<clipPath id="clip0_4_471">
<rect width="237.478" height="270.123" fill="white" transform="translate(93.3529 324.545) rotate(-113.148)"/>
</clipPath>
</defs>
</svg>
