<svg width="139" height="248" viewBox="0 0 139 248" fill="none" xmlns="http://www.w3.org/2000/svg">
<g clip-path="url(#clip0_24_1119)">
<path d="M50.8963 194.903C50.8484 195.124 50.7656 195.336 50.651 195.531C49.9807 196.372 49.3208 197.201 48.6271 197.999C47.1635 199.587 45.7675 201.238 44.3264 202.847C44.2226 202.96 44.1292 203.061 43.9631 203.241L49.5957 208.432C50.1589 208.951 50.2537 209.413 49.9103 209.763C49.5668 210.113 49.1529 210.065 48.5906 209.568L43.6677 205.031L43.0031 204.419C41.5084 206.041 40.0552 207.618 38.6019 209.195C37.1487 210.772 35.6851 212.361 34.2734 213.893C33.4169 213.624 33.272 213.262 33.7477 212.7C34.4812 211.904 35.2182 211.104 35.9587 210.301C37.7959 208.307 39.6228 206.324 41.4601 204.33L42.1348 203.598L41.1945 202.607C39.8202 201.34 38.5176 199.973 37.1848 198.662C36.9257 198.423 36.6328 198.153 36.8861 197.72C37.1394 197.287 37.4228 197.59 37.6585 197.786L40.0153 199.75L42.7344 202.088C42.9129 202.214 43.0986 202.33 43.2905 202.434L46.9236 198.491C48.1249 197.184 49.3989 195.944 50.7395 194.78L50.8963 194.903Z" fill="white"/>
<path d="M60.6513 71.0402C59.5898 70.0434 58.5972 68.9757 57.6804 67.8444C57.7822 67.4175 57.9942 67.3004 58.2818 67.4404C58.5558 67.5868 58.8137 67.7615 59.0511 67.9618L61.5648 70.0489L62.4471 69.0914C63.5889 67.8522 64.7411 66.6018 65.8829 65.3626C66.1528 65.0697 66.1528 65.0697 66.6195 65.0832C66.832 65.5081 66.5058 65.7491 66.2783 66.0186C65.0327 67.3704 63.8668 68.8165 62.6662 70.2098C62.5417 70.345 62.4275 70.4689 62.251 70.6604C63.0235 71.7888 64.2337 72.4873 65.1248 73.6C64.9483 73.7915 64.7926 73.9605 64.5642 74.2083L61.4337 71.6153C61.2468 71.8181 61.06 72.0208 60.8731 72.2236C59.7106 73.4853 58.548 74.747 57.3854 76.0087C57.1259 76.2903 56.8664 76.5719 56.6277 76.831C56.011 76.5961 55.9304 76.4801 56.1196 76.0713C56.2479 75.8167 56.4096 75.5804 56.6004 75.3686C57.7319 74.1408 58.8633 72.9129 59.9843 71.6962L60.6513 71.0402Z" fill="white"/>
<path d="M5.83622 164.256C5.41772 164.891 4.95592 165.528 4.64388 166.115C3.44108 168.025 2.96122 170.302 3.29105 172.534C3.34331 172.961 3.51587 173.364 3.78859 173.697C4.06131 174.029 4.42295 174.277 4.8313 174.412C5.75142 174.71 6.73677 174.745 7.67566 174.512C7.95836 174.505 8.22876 174.395 8.43636 174.203C8.64396 174.011 8.77456 173.75 8.8038 173.469C9.3686 170.844 10.065 168.257 10.7164 165.629L10.9408 164.752C11.0897 164.894 11.1946 165.076 11.2432 165.275C11.2917 165.475 11.2818 165.685 11.2145 165.879C11.047 167.295 10.8078 168.701 10.4979 170.093C9.74886 172.986 8.84659 175.841 8.06469 178.724C7.66766 180.15 7.34772 181.605 7.09271 183.057C6.8812 184.289 6.91439 185.551 7.19038 186.771C7.28097 187.453 7.51495 188.108 7.8769 188.693C8.23886 189.278 8.72058 189.779 9.29038 190.165C9.86018 190.55 10.5051 190.81 11.1828 190.928C11.8604 191.047 12.5554 191.02 13.2219 190.85C14.5564 190.61 15.827 190.097 16.9545 189.344C18.082 188.591 19.0422 187.614 19.7751 186.473C21.8421 183.185 23.3607 179.582 24.2714 175.807C25.0115 173.12 25.2679 170.324 25.0287 167.548C25.0264 167.373 25.0411 167.198 25.0724 167.025L25.2221 166.976C25.3524 167.239 25.4545 167.514 25.5268 167.798C25.7268 168.867 25.8364 169.95 25.8543 171.037C25.5439 176.941 23.6003 182.642 20.2401 187.506C20.1154 187.7 20.0006 187.9 19.896 188.105C20.7822 188.52 21.7655 188.684 22.7383 188.577C23.7111 188.47 24.6357 188.098 25.4108 187.5C26.024 187.019 26.5832 186.473 27.0787 185.871C28.0654 184.616 28.8187 183.193 29.3028 181.672C30.5257 177.983 31.1439 174.122 31.1335 170.236C31.1336 163.725 29.876 157.276 27.4299 151.243C26.0262 147.482 24.0308 143.97 21.5192 140.839C21.0633 140.294 20.565 139.772 20.1793 139.354L16.2784 139.926C16.2784 139.926 16.2784 139.926 16.2265 139.982C16.5093 142.705 16.4541 145.453 16.0622 148.163C15.9311 149.486 15.6573 150.791 15.2457 152.055C14.5669 154.013 13.7565 155.932 12.9018 157.832C12.088 159.751 10.8984 161.487 9.40317 162.94C8.96551 163.439 8.40993 163.821 7.78695 164.051C7.16398 164.281 6.4934 164.352 5.83622 164.256Z" fill="white"/>
<path d="M-30.5272 139.769C-30.9583 139.83 -31.2059 139.872 -31.4657 139.883C-32.4181 139.922 -33.3799 139.994 -34.3359 139.946C-34.8597 139.922 -35.3679 139.76 -35.8081 139.475C-36.2484 139.19 -36.605 138.793 -36.8413 138.325C-37.3514 137.533 -37.6225 136.61 -37.622 135.668C-37.6084 135.473 -37.541 135.264 -37.4798 134.904C-37.9827 135.065 -38.2502 135.152 -38.5064 135.249C-40.1527 135.815 -41.7653 136.412 -43.384 136.858C-45.0866 137.376 -46.88 137.527 -48.6453 137.301C-49.8708 137.171 -51.0319 136.687 -51.9869 135.909C-52.8121 135.243 -53.4529 134.376 -53.848 133.392C-54.2431 132.408 -54.3794 131.34 -54.2439 130.288C-54.0182 128.341 -53.3286 126.476 -52.2331 124.85L-51.8855 124.337C-51.8855 124.337 -51.7817 124.225 -51.7653 124.094C-51.8046 123.955 -51.8536 123.82 -51.912 123.688C-52.5941 122.536 -52.8874 121.196 -52.7485 119.864C-52.6097 118.533 -52.0461 117.282 -51.141 116.296C-49.9295 114.854 -48.4304 113.682 -46.7396 112.853C-43.5572 111.291 -40.1444 110.251 -36.6319 109.773C-35.6839 109.626 -34.6814 109.487 -33.7732 109.428L-33.085 109.292L-33.6575 109.077C-37.6036 108.021 -41.0119 105.526 -43.2121 102.085C-47.3344 96.1749 -49.853 89.2968 -50.5219 82.1224C-50.8717 78.1423 -50.4086 74.1327 -49.1608 70.3371C-48.1701 67.2687 -46.2783 64.5698 -43.7319 62.5917C-42.3354 61.4831 -40.9173 60.3736 -39.4758 59.3065C-37.4046 57.8554 -35.96 55.6737 -35.4325 53.2005C-34.9434 50.8461 -34.5001 48.5189 -34.1027 46.2189C-33.6283 43.24 -33.2742 40.2335 -32.8101 37.2659C-32.5174 35.1362 -31.9884 33.0457 -31.2329 31.0331C-30.5329 28.9489 -29.2355 27.1165 -27.5023 25.7637C-26.3426 24.8855 -24.9858 24.3039 -23.5501 24.0695C-22.1143 23.8351 -20.6431 23.955 -19.2642 24.4187C-17.1851 25.1009 -15.2763 26.2205 -13.6663 27.7022C-11.1571 29.9378 -8.9532 32.4938 -7.11121 35.3046C-4.0284 40.0357 -1.48012 45.0944 0.486855 50.3876C5.56241 63.5773 9.08886 77.3118 10.9953 91.3151C11.5668 95.2161 11.8871 99.0731 12.3165 102.947L12.4047 103.778C12.4723 103.841 12.5173 103.882 12.5399 103.903C14.1941 103.532 15.8259 103.14 17.4811 102.79C18.3314 102.523 19.0939 102.031 19.6886 101.367C20.4629 100.685 21.2025 99.9498 22.0124 99.3421C22.9301 98.5651 24.0144 98.0099 25.1813 97.7197C26.3483 97.4294 27.5663 97.4119 28.7411 97.6685C29.1464 97.7712 29.5594 97.7977 30.0721 97.8743C30.5727 97.1275 31.1063 96.3902 31.574 95.6339C35.1357 90.0538 37.6699 83.8813 39.0569 77.4084C40.196 72.2935 40.3952 67.0141 39.6449 61.828L39.4856 60.848L38.846 61.1126C37.2446 61.7514 35.5032 61.9572 33.797 61.7093C33.6418 61.6916 33.4902 61.6503 33.3475 61.5868C32.8408 61.3907 32.7392 61.0263 33.0696 60.6225C33.2153 60.4336 33.3966 60.2752 33.6034 60.1562C35.2368 59.1597 37.0005 58.3945 38.844 57.8822L38.2908 56.0185C37.8056 56.2825 37.3047 56.5166 36.7909 56.7195C35.3902 57.1306 33.9227 57.2642 32.4708 57.1129C32.2222 57.113 31.9773 57.0527 31.7573 56.937C31.5372 56.8214 31.3486 56.6539 31.2078 56.4491C31.3556 56.2396 31.5301 56.0503 31.7268 55.8858C33.2267 55.1849 34.6764 54.5836 36.1573 53.9485C36.5378 53.826 36.9244 53.7234 37.3155 53.6409L36.3378 51.4694C34.5021 52.6145 32.33 53.0973 30.182 52.8377C29.8821 52.7376 29.596 52.5999 29.3306 52.428C29.5404 52.1305 29.7881 51.8616 30.0675 51.6282C31.5739 50.5837 33.1879 49.7036 34.8819 49.0031L34.065 47.5838C32.3785 48.7886 30.3442 49.4086 28.2724 49.3492C28.0256 49.4088 27.7655 49.3748 27.5423 49.2538C27.3191 49.1328 27.1487 48.9333 27.064 48.694C27.1164 48.4807 27.222 48.2842 27.3708 48.1227C27.5196 47.9612 27.7069 47.8399 27.9151 47.7702C29.3361 46.9966 30.7572 46.2231 32.2595 45.3161L31.0358 44.0219C30.7973 44.5796 30.42 45.067 29.9399 45.4376C29.4598 45.8083 28.8928 46.0499 28.2929 46.1395C27.2591 46.3772 26.2137 46.5611 25.1608 46.6904C24.9755 46.7014 24.7895 46.6908 24.6066 46.6588C24.4286 46.6759 24.25 46.6326 24.0995 46.5358C23.9491 46.439 23.8356 46.2944 23.7774 46.1253C23.7191 45.9561 23.7195 45.7723 23.7785 45.6034C23.8374 45.4346 23.9515 45.2904 24.1023 45.1943C24.2372 45.0478 24.3826 44.8901 24.5851 44.8059C25.9761 43.9195 27.4629 43.1932 29.0171 42.6409C29.0171 42.6409 29.1105 42.5395 29.3027 42.4666L27.5213 41.0543C25.7931 43.0654 23.4572 43.2043 21.0997 43.344C20.8991 43.3779 20.693 43.3464 20.5116 43.2543C20.3302 43.1622 20.1832 43.0143 20.0923 42.8323C20.1508 42.4072 20.5125 42.2406 20.8292 42.0325L25.1632 39.5896C24.4799 39.0643 23.7207 38.6458 22.9118 38.3483C22.7458 38.8226 22.4484 39.24 22.0542 39.5517C21.66 39.8634 21.1854 40.0566 20.6855 40.1088C19.4759 40.412 18.2301 40.5468 16.9836 40.5095C16.735 40.5249 16.4869 40.4735 16.2649 40.3605C16.0429 40.2476 15.8553 40.0773 15.7215 39.8673C15.955 39.6543 16.2043 39.4592 16.4673 39.2839C17.6339 38.6508 18.8118 38.0281 19.968 37.4062L20.3808 37.1617L18.839 36.5743C18.3789 36.827 17.8679 36.9732 17.3438 37.0022C16.8196 37.0311 16.2956 36.942 15.8105 36.7415C14.5798 36.3365 13.3681 35.8657 12.1252 35.4287C11.81 35.2621 11.5203 35.0512 11.2649 34.8026C11.2582 34.109 11.6893 34.0481 12.0686 34.0434C13.0531 34.0135 14.0385 34.0383 15.0203 34.1178C15.8453 34.2381 16.6584 34.4298 17.4503 34.6906C17.8401 34.7968 18.1935 35.0072 18.4725 35.2993C19.1372 35.9117 20.0083 36.0062 20.9176 36.24L19.1844 32.56C19.0543 32.2943 18.9017 32.0078 18.7923 31.7196C18.7524 31.642 18.729 31.557 18.7237 31.4699C18.7185 31.3828 18.7314 31.2956 18.7617 31.2138C18.792 31.132 18.8391 31.0574 18.8998 30.9947C18.9605 30.9321 19.0337 30.8828 19.1145 30.85C19.3722 30.8544 19.6262 30.9124 19.8602 31.0204C20.0942 31.1285 20.3031 31.2841 20.4736 31.4774C21.5483 32.3833 22.4768 33.4497 23.2263 34.6388C23.5118 34.9814 23.6851 35.4036 23.7227 35.8481C23.7602 36.2925 23.6602 36.7378 23.4363 37.1235L25.6919 38.2021C25.6898 37.8878 25.7148 37.7025 25.6956 37.4973C25.5709 36.5701 25.4359 35.6542 25.3329 34.7261C25.2955 34.2463 25.2939 33.7644 25.3282 33.2845C25.3148 33.1802 25.3243 33.0743 25.3562 32.9741C25.3881 32.874 25.4416 32.782 25.5128 32.7047C25.584 32.6274 25.6713 32.5666 25.7685 32.5267C25.8658 32.4867 25.9705 32.4685 26.0755 32.4734C27.7067 33.3932 28.757 37.3396 28.0067 39.6685L29.5921 40.7962C29.9293 39.2322 30.2614 37.8093 30.5813 36.3544C30.6396 36.0206 30.7315 35.6936 30.8558 35.3784C31.0188 35.1482 31.2107 34.94 31.4267 34.7588C31.6703 35.0647 31.8835 35.3936 32.0631 35.7409C32.6803 37.4106 32.9343 39.1926 32.808 40.9682C32.6449 41.6628 32.4072 42.3376 32.0989 42.981L33.2254 44.019C33.6965 43.0783 34.1459 42.1385 34.6594 41.1744C34.9756 40.2059 35.4191 39.2837 35.9782 38.432C36.0784 38.3977 36.1854 38.3881 36.2901 38.404C36.3948 38.4199 36.4942 38.4608 36.5797 38.5233C36.6652 38.5858 36.7344 38.6679 36.7815 38.7628C36.8285 38.8577 36.8519 38.9626 36.8498 39.0685C36.9553 39.4957 36.9916 39.937 36.9575 40.3758C36.8347 41.6166 36.6575 42.8489 36.4473 44.0716C36.3949 44.5215 36.2188 44.9481 35.9387 45.304C35.6585 45.6599 35.2852 45.9312 34.8602 46.0878L36.3939 48.3342C37.5112 46.76 38.5982 45.2412 39.6748 43.7337C39.8395 43.4984 40.035 43.2862 40.2561 43.1028C40.331 43.0267 40.4255 42.9726 40.5291 42.9465C40.6327 42.9204 40.7415 42.9234 40.8436 42.955C40.9456 42.9867 41.037 43.0458 41.1077 43.1259C41.1784 43.2061 41.2256 43.3041 41.2443 43.4093C41.3655 43.7212 41.4127 44.057 41.382 44.3902C41.2024 46.1084 40.5741 47.7492 39.5601 49.1479C39.324 49.4733 39.0169 49.7407 38.6622 49.9299C38.3074 50.119 37.9143 50.225 37.5125 50.2398L38.6367 52.5462C39.7873 51.5235 40.8134 50.636 41.8914 49.6921C42.2028 49.3542 42.5246 49.005 42.9261 48.7501C43.0207 48.6474 43.1454 48.5773 43.2824 48.5501C43.4193 48.5229 43.5613 48.5399 43.6879 48.5987C43.8146 48.6574 43.9193 48.7549 43.9869 48.877C44.0546 48.9991 44.0817 49.1396 44.0643 49.2781C44.0764 49.5637 44.0328 49.849 43.936 50.1181C43.4239 51.6564 42.5247 53.0371 41.3248 54.1275C40.7877 54.4828 40.2197 54.789 39.6277 55.0424L40.2754 57.0974C41.2593 56.5042 42.1697 55.9684 43.068 55.4004C43.8546 54.7484 44.7258 54.2059 45.658 53.7877C46.2497 54.208 46.3114 54.3897 46.1585 54.8947C45.9697 55.4897 45.7051 56.058 45.3713 56.5855C44.92 57.2518 44.4125 57.8782 43.8542 58.4579C43.5173 58.8994 43.0774 59.2518 42.5729 59.484C42.0683 59.7163 41.5146 59.8215 40.9601 59.7904L41.2595 61.5452C42.2554 68.1367 41.8545 74.8641 40.0829 81.2907C38.6402 86.7492 36.4579 91.9848 33.5969 96.8521C33.41 97.0549 33.3349 97.3398 33.1629 97.6395C36.2891 98.2706 38.3391 99.8887 38.6408 103.291C38.9264 103.117 39.1601 102.999 39.3703 102.839C45.9322 98.1639 53.3778 94.8754 61.2528 93.1738C65.7929 92.1991 70.4588 91.9497 75.0769 92.4352L75.6424 92.4771C75.6369 90.2225 77.1562 88.9353 78.7214 87.7114C79.1836 87.3742 79.6856 87.0951 80.216 86.8806C80.3134 86.8266 80.4217 86.795 80.5329 86.7881C80.644 86.7812 80.7554 86.7991 80.8588 86.8405C80.9622 86.8819 81.0551 86.9459 81.1307 87.0277C81.2063 87.1095 81.2628 87.2071 81.296 87.3134C80.9491 88.3189 80.4544 89.2671 79.8283 90.127C79.3677 91.0564 78.8957 91.9755 78.4057 92.982L80.7005 93.4302C80.802 92.6705 81.0835 91.946 81.5217 91.3171C81.9599 90.6883 82.542 90.1732 83.2195 89.8149C83.8317 89.3772 84.4795 88.9917 85.1563 88.6625C85.4128 88.5348 85.6976 88.4746 85.9838 88.4877C86.1144 88.4751 86.2458 88.5018 86.361 88.5644C86.4763 88.6269 86.5703 88.7225 86.631 88.8388C86.6916 88.9551 86.7162 89.0868 86.7015 89.2172C86.6868 89.3475 86.6335 89.4705 86.5485 89.5704C86.2934 89.9602 85.982 90.2982 85.7053 90.6889C84.8517 91.8187 84.0094 92.9589 83.1048 94.1667L85.4953 95.0988C85.5113 94.4466 85.7235 93.8144 86.104 93.2845C86.4845 92.7546 87.0158 92.3516 87.6287 92.128C88.5699 91.6466 89.5413 91.2267 90.5368 90.8708C90.9335 90.7412 91.3541 90.7017 91.7679 90.7554C92.5412 90.843 92.7468 91.3658 92.2616 91.9602C91.9567 92.3136 91.6176 92.6361 91.2495 92.923C90.4855 93.5939 89.7207 94.2431 88.9143 94.9373C88.4523 95.3031 87.979 95.6585 87.4953 96.0252C87.5411 96.0876 87.5984 96.1404 87.6643 96.1809L89.8179 97.4154C90.0629 96.8366 90.4677 96.3396 90.9848 95.9825C91.502 95.6254 92.1102 95.4229 92.7383 95.3989C93.9027 95.1586 95.0783 94.9767 96.2609 94.8538C96.491 94.798 96.7338 94.8333 96.9386 94.9521C97.1434 95.071 97.2945 95.2643 97.3602 95.4918C97.3094 95.6913 97.2098 95.8751 97.0702 96.0265C96.9307 96.178 96.7557 96.2923 96.5609 96.3592L92.2685 98.757C92.1927 98.8258 92.1233 98.9012 92.0609 98.9823L93.2888 100.114C93.8266 99.6111 94.4772 99.245 95.186 99.0462C95.8947 98.8475 96.6408 98.8219 97.3616 98.9716C98.2581 99.0502 99.1499 99.1765 100.033 99.3502C100.419 99.4557 100.793 99.6041 101.146 99.7925C101.285 100.275 101.175 100.507 100.855 100.628C100.548 100.758 100.234 100.872 99.9149 100.97C98.5023 101.418 97.0446 101.825 95.5584 102.33L96.8239 103.85C97.3499 103.553 97.9294 103.363 98.5291 103.29C99.1288 103.217 99.737 103.263 100.319 103.425C101.159 103.584 101.99 103.792 102.805 104.05C103.082 104.121 103.341 104.248 103.566 104.424C103.792 104.599 103.978 104.819 104.115 105.07C104.132 105.175 104.124 105.282 104.093 105.383C104.062 105.484 104.009 105.578 103.937 105.656C103.865 105.734 103.777 105.794 103.678 105.833C103.58 105.872 103.474 105.889 103.368 105.881C102.881 105.951 102.389 105.979 101.897 105.963C101.007 105.934 100.116 105.884 99.2465 105.833C98.9962 105.81 98.7338 105.756 98.4827 105.712L98.4171 105.964L99.6727 108.037C100.857 107.295 101.931 107.848 102.856 108.471C103.781 109.094 104.61 109.754 105.452 110.446C105.893 110.777 106.189 111.266 106.277 111.811C106.251 111.901 106.205 111.985 106.142 112.056C106.08 112.126 106.003 112.182 105.917 112.22C105.83 112.258 105.737 112.276 105.643 112.273C105.549 112.271 105.456 112.248 105.372 112.206C105.097 112.119 104.844 112.011 104.568 111.903L100.748 110.465C101.1 111.394 101.179 112.258 101.981 112.789C102.285 113.034 102.522 113.353 102.669 113.715C103.443 115.403 103.826 117.244 103.789 119.1C103.758 119.39 103.708 119.678 103.64 119.963C103.385 119.933 103.134 119.87 102.895 119.776C102.731 119.697 102.593 119.571 102.501 119.413C101.589 117.955 100.893 116.374 100.434 114.717C100.246 114.036 100.321 113.309 100.643 112.681L99.9733 111.147C99.4669 112.285 98.9985 113.29 98.5518 114.295C98.3634 114.725 98.1967 115.155 97.9754 115.576C97.8536 115.754 97.7068 115.913 97.5394 116.049C97.352 115.928 97.1961 115.764 97.0846 115.57C96.973 115.377 96.909 115.16 96.8977 114.937C96.6745 113.322 96.7731 111.678 97.1878 110.101C97.2775 109.755 97.4514 109.435 97.6941 109.172C97.9367 108.909 98.2406 108.709 98.5788 108.592L97.1438 106.374C96.9674 106.565 96.9519 106.718 96.8923 106.85C96.2035 108.299 95.6099 109.689 94.941 111.093C94.7966 111.356 94.625 111.602 94.4291 111.829C94.2311 111.773 94.0575 111.652 93.935 111.487C93.8126 111.321 93.7483 111.12 93.752 110.914C93.5747 109.075 93.8526 107.221 94.5612 105.515C94.8201 105.07 95.1348 104.66 95.4978 104.295L94.0651 102.662C93.4439 104.173 92.8737 105.605 92.2603 107.04C92.087 107.443 91.8496 107.815 91.5573 108.142C91.0383 108.705 90.4364 108.567 90.2219 107.828C90.1415 107.581 90.0981 107.323 90.0931 107.063C90.017 105.925 90.1277 104.781 90.4208 103.678C90.4959 103.127 90.704 102.602 91.0273 102.148C91.3507 101.695 91.7794 101.327 92.2766 101.077L90.8859 99.941C90.1799 101.498 89.5872 102.91 88.8984 104.359C88.8244 104.567 88.7091 104.758 88.5592 104.921C88.4094 105.083 88.2282 105.214 88.0265 105.305C87.384 105.233 87.2676 104.772 87.203 104.254C87.0303 102.178 87.4935 100.099 88.5312 98.2919L87.1659 97.513C86.72 98.5394 86.3486 99.5302 85.8672 100.482C85.4996 101.469 84.965 102.386 84.2868 103.192C84.0888 103.138 83.9142 103.02 83.79 102.856C83.6657 102.693 83.5987 102.493 83.5994 102.288C83.2345 100.396 83.4849 98.4367 84.314 96.6973C84.3781 96.5848 84.4313 96.4665 84.473 96.3439C83.788 95.9982 83.0682 95.726 82.3258 95.5319C82.0012 96.6076 81.7199 97.6815 81.3088 98.7607C81.0216 99.8838 80.5765 100.96 79.9868 101.958C79.8039 101.835 79.6407 101.684 79.5025 101.512C79.3149 101.174 79.1896 100.804 79.1326 100.422C79.0699 99.2004 79.0778 97.9766 79.1562 96.7564C79.2813 96.102 79.4731 95.4621 79.7286 94.8467L77.8477 94.4467C77.5069 96.2974 76.901 98.0893 76.0488 99.7671C75.8604 100.198 75.6314 100.695 75.0755 100.62C74.5196 100.545 74.4559 100.049 74.4148 99.5737C74.0469 97.8865 74.1514 96.1305 74.7168 94.4988L74.8498 94.038L73.5016 93.9414C67.6579 93.6615 61.8159 94.5264 56.304 96.4874C50.3512 98.5461 44.7908 101.6 39.8593 105.518L39.1247 106.112C39.0355 106.189 38.9554 106.276 38.886 106.371C38.9269 106.575 38.947 106.802 39.0104 107.027C39.3368 108.13 39.4105 109.292 39.2261 110.428C39.0417 111.563 38.6038 112.643 37.9452 113.586C37.3912 114.452 36.7804 115.281 36.117 116.067C35.2977 116.985 34.7941 118.142 34.68 119.367C34.5946 120.726 34.291 122.05 34.1252 123.564C34.4188 123.584 34.7123 123.605 35.005 123.603C41.239 123.62 47.494 123.884 53.7087 124.487C66.3432 125.6 78.8222 128.062 90.9323 131.832C95.9931 133.363 100.857 135.482 105.424 138.145C107.875 139.574 110.15 141.286 112.202 143.245C113.657 144.591 114.847 146.197 115.713 147.98C116.432 149.362 116.78 150.907 116.722 152.464C116.664 154.021 116.202 155.536 115.382 156.861C114.446 158.374 113.134 159.619 111.573 160.475C109.673 161.563 107.63 162.38 105.504 162.902C102.199 163.731 98.8689 164.474 95.5387 165.218C93.1743 165.714 90.8402 166.345 88.5478 167.108C86.2275 167.87 84.2546 169.435 82.9827 171.52C82.4942 172.299 82.016 173.066 81.505 173.824C80.7795 174.905 80.0653 175.997 79.306 177.047C77.4772 179.504 74.9679 181.371 72.0888 182.416C68.244 183.928 64.1267 184.624 59.9983 184.46C53.0286 184.184 46.2371 182.178 40.2356 178.623C36.7739 176.718 34.1317 173.609 32.8103 169.885C32.7308 169.731 32.5991 169.609 32.4385 169.543L32.4176 170.357C32.4178 174.371 31.7681 178.358 30.4938 182.165C29.8167 184.279 28.6645 186.21 27.1255 187.81C26.3208 188.632 25.3375 189.259 24.2516 189.64C22.8589 190.116 21.3377 190.046 19.9941 189.445L19.3099 189.148C19.1023 189.374 18.8046 189.516 18.5632 189.71C17.0799 190.905 15.3339 191.731 13.469 192.119C12.6433 192.321 11.7851 192.353 10.9469 192.211C10.1087 192.069 9.30837 191.758 8.59499 191.296C7.88161 190.833 7.27031 190.23 6.79863 189.523C6.32695 188.816 6.00486 188.02 5.85216 187.183C5.54378 185.761 5.48391 184.297 5.67516 182.854C5.95504 180.897 6.39082 178.965 6.97834 177.077C7.11164 176.669 7.17479 176.241 7.16511 175.812C6.94849 175.899 6.72103 175.956 6.48904 175.981C6.02012 176.002 5.55026 175.974 5.08718 175.897C4.20672 175.799 3.39316 175.381 2.80216 174.721C2.21115 174.061 1.8842 173.206 1.88387 172.321C1.81705 171.601 1.78751 170.879 1.79538 170.156C1.77526 169.929 1.79844 169.701 1.80328 169.288C1.49187 169.626 1.29465 169.84 1.01858 169.982C0.295268 170.586 -0.382981 171.232 -1.14185 171.761C-1.69982 172.217 -2.35714 172.535 -3.06074 172.69C-3.76434 172.845 -4.49452 172.832 -5.19232 172.653C-5.52448 173.014 -5.98917 173.315 -6.37678 173.645C-8.91004 175.886 -11.8836 177.573 -15.107 178.598C-16.0058 178.854 -16.9303 179.008 -17.8634 179.058C-18.8179 179.111 -19.7591 178.814 -20.5101 178.223C-20.9152 178.391 -21.3099 178.548 -21.682 178.726C-23.0693 179.379 -24.5253 179.875 -26.0229 180.204C-27.7473 180.663 -29.5811 180.46 -31.163 179.634C-31.4165 179.796 -31.6277 179.935 -31.8492 180.085C-33.5126 181.213 -35.4096 181.95 -37.3982 182.241C-37.6555 182.283 -37.9151 182.308 -38.1756 182.317C-39.4536 182.347 -40.0358 181.894 -40.0569 180.583C-40.0841 179.622 -39.996 178.661 -39.7945 177.721C-39.5046 176.394 -38.996 175.124 -38.2895 173.963C-38.2142 173.842 -38.1469 173.716 -38.0881 173.586C-38.0881 173.586 -38.0943 173.435 -38.1177 173.392C-38.9471 171.967 -39.2711 170.303 -39.0371 168.671C-38.8604 167.142 -38.5033 165.639 -37.9735 164.194C-37.8076 163.742 -37.6427 163.269 -37.508 162.852L-37.5601 162.637C-37.9954 162.117 -38.3077 161.505 -38.4735 160.848C-38.6393 160.19 -38.6544 159.503 -38.5176 158.839C-38.3411 157.207 -37.9396 155.607 -37.3244 154.085C-36.4131 151.698 -35.1652 149.453 -33.6184 147.418C-33.4731 147.261 -33.3381 147.114 -33.2604 146.894C-33.2588 146.788 -33.2741 146.683 -33.3057 146.582C-33.4847 146.049 -33.5485 145.484 -33.4929 144.925C-33.4373 144.366 -33.2635 143.825 -32.983 143.338C-32.447 142.395 -31.8114 141.501 -31.1984 140.587C-30.9899 140.384 -30.7935 140.148 -30.5272 139.769ZM21.3242 138.722L21.7351 139.225C22.6955 140.444 23.7182 141.594 24.5852 142.914C27.3534 147.207 29.4128 151.918 30.6844 156.866C31.6912 160.543 32.6339 164.245 33.6406 167.922C34.1549 169.919 35.0707 171.79 36.3321 173.422C37.5935 175.053 39.1741 176.41 40.9775 177.411C46.8064 180.857 53.402 182.797 60.1685 183.055C64.3169 183.205 68.4482 182.448 72.2736 180.836C74.7673 179.806 76.9185 178.09 78.4781 175.888C79.5435 174.371 80.5647 172.833 81.5304 171.265C83.1024 168.524 85.6721 166.497 88.7032 165.605C89.903 165.253 91.0897 164.847 92.3033 164.569C94.9349 163.974 97.525 163.423 100.157 162.828C102.379 162.293 104.599 161.714 106.795 161.071C108.563 160.571 110.238 159.785 111.752 158.744C113.429 157.673 114.637 156.004 115.13 154.075C115.623 152.147 115.364 150.103 114.406 148.359C114.081 147.706 113.7 147.084 113.267 146.497C111.404 144.114 109.142 142.072 106.581 140.461C103.055 138.145 99.2742 136.241 95.3135 134.786C88.7135 132.357 81.9335 130.449 75.0357 129.078C61.6734 126.28 48.0641 124.828 34.412 124.744C34.1843 124.743 33.9471 124.774 33.6873 124.785C31.4336 130.801 27.0284 135.767 21.3242 138.722ZM11.2502 104.444C11.2257 104.109 11.2133 103.806 11.168 103.493C10.8232 100.363 10.5001 97.2327 10.0705 94.1498C8.25324 79.8159 4.79317 65.7385 -0.241448 52.1953C-2.10229 47.0052 -4.48553 42.0176 -7.35447 37.3092C-9.411 33.86 -12.0082 30.7635 -15.0469 28.1381C-16.4152 26.9591 -18.0125 26.0759 -19.7386 25.5439C-21.1993 25.073 -22.7688 25.0584 -24.238 25.5019C-25.7073 25.9454 -27.0065 26.8261 -27.9627 28.0266C-28.9024 29.1107 -29.6173 30.3706 -30.066 31.7334C-30.8737 33.9883 -31.4397 36.3226 -31.7543 38.697C-32.1775 41.869 -32.6033 44.976 -33.1009 48.1835C-33.3704 50.3015 -33.8142 52.3936 -34.4279 54.4386C-35.0983 56.6706 -36.4558 58.6343 -38.3071 60.0501C-39.7564 61.1934 -41.2394 62.3056 -42.6887 63.4489C-45.3203 65.4519 -47.2266 68.2589 -48.1182 71.4436C-49.011 74.4895 -49.3869 77.6635 -49.2303 80.8337C-48.8001 88.2305 -46.304 95.3583 -42.0257 101.407C-40.6179 103.587 -38.6798 105.372 -36.3931 106.597C-34.6107 107.46 -32.708 108.047 -30.7498 108.34C-27.977 108.812 -25.2041 109.284 -22.4313 109.756C-18.996 110.332 -15.6164 111.202 -12.3299 112.357C-8.57041 113.602 -5.04856 115.473 -1.9133 117.893C-1.81093 117.956 -1.69928 118.003 -1.58244 118.031C-0.386515 115.08 1.34841 112.377 3.53368 110.06C5.71585 107.701 8.33151 105.783 11.2381 104.412L11.2502 104.444ZM14.8952 138.443C15.3 138.003 15.656 138.227 16.0059 138.3C16.5491 138.466 17.1166 138.538 17.6841 138.513C18.5271 138.378 19.3536 138.155 20.1503 137.848C21.7043 137.241 23.1486 136.384 24.4261 135.31C27.0202 133.329 29.1991 130.857 30.839 128.034C32.2843 125.57 33.1535 122.81 33.3818 119.962C33.3919 119.68 33.4783 119.406 33.4771 119.113C33.5478 117.66 34.1331 116.28 35.1283 115.219C35.8592 114.338 36.524 113.405 37.1173 112.427C37.5782 111.662 37.8781 110.811 37.9985 109.927C38.1189 109.042 38.0573 108.142 37.8175 107.282C37.5096 106.261 37.3495 105.202 37.342 104.136C37.3386 103.011 37.0033 101.912 36.3781 100.977C35.9807 100.267 35.3725 99.6988 34.6376 99.3501C33.9028 99.0014 33.0777 98.8898 32.2766 99.0308C31.0619 99.1936 29.8284 99.1487 28.6287 98.8981C27.5949 98.6717 26.5224 98.6913 25.4975 98.9554C24.4726 99.2195 23.5242 99.7207 22.7285 100.419C21.9923 100.995 21.29 101.614 20.6253 102.272C19.673 103.286 18.4039 103.945 17.0268 104.142C13.6802 104.574 10.4982 105.85 7.77951 107.849C4.87336 110.002 2.46443 112.755 0.71622 115.921C-0.207291 117.493 -0.789563 119.242 -0.992725 121.053C-1.11206 121.804 -0.989494 122.574 -0.642721 123.251C-0.52539 123.395 -0.467115 123.578 -0.479645 123.764C-0.49217 123.949 -0.574568 124.123 -0.710234 124.251L-1.40466 124.236C-2.62484 124.159 -3.8486 124.159 -5.06887 124.234C-6.87138 124.427 -8.66857 124.75 -10.4423 125.115C-11.5138 125.336 -12.5638 125.651 -13.5802 126.056C-16.2035 127.066 -18.6908 128.398 -20.9848 130.023C-22.0559 130.723 -22.9863 131.618 -23.728 132.661C-23.9708 133.029 -24.1485 133.436 -24.2534 133.864C-24.319 134.044 -24.3427 134.236 -24.3225 134.427C-24.3024 134.617 -24.239 134.801 -24.1372 134.963C-24.0354 135.125 -23.8978 135.262 -23.7351 135.362C-23.5723 135.463 -23.3887 135.526 -23.1982 135.545C-22.7697 135.665 -22.3248 135.716 -21.8802 135.697C-20.6378 135.592 -19.3955 135.487 -18.1688 135.263C-16.9421 135.039 -16.2609 134.73 -15.3399 134.454C-14.9002 134.338 -14.4423 134.135 -13.9769 134.647C-14.1258 134.934 -14.2957 135.209 -14.4853 135.47C-15.1443 136.321 -15.8268 137.13 -16.497 137.97C-17.4121 139.038 -18.1429 140.252 -18.6593 141.56C-19.006 142.389 -19.1224 143.296 -18.9964 144.186C-18.977 144.497 -18.8868 144.798 -18.7328 145.069C-18.5787 145.339 -18.3649 145.57 -18.1077 145.745C-17.8504 145.919 -17.5566 146.033 -17.2487 146.076C-16.9409 146.12 -16.6271 146.093 -16.3315 145.996C-15.4356 145.829 -14.5625 145.557 -13.7304 145.185C-12.4763 144.57 -11.27 143.849 -10.0628 143.149C-9.56516 142.858 -9.50021 142.855 -9.05823 143.325C-9.17343 143.566 -9.30515 143.8 -9.45244 144.024C-9.6808 144.272 -9.90915 144.519 -10.1375 144.767C-10.6902 145.391 -11.0903 146.135 -11.3062 146.94C-11.4065 147.253 -11.444 147.582 -11.4166 147.91C-11.3892 148.237 -11.2974 148.556 -11.1464 148.848C-10.9955 149.14 -10.7884 149.4 -10.5371 149.611C-10.2857 149.823 -9.99506 149.983 -9.68171 150.082C-8.97829 150.376 -8.19391 150.413 -7.46594 150.187C-6.77923 149.956 -6.1062 149.686 -5.45013 149.378C-4.87544 149.116 -4.34671 148.791 -3.78329 148.518C-3.21987 148.246 -2.90203 148.331 -2.42005 148.983C-2.61196 149.327 -2.79084 149.725 -3.00352 150.091C-3.70217 151.195 -4.22348 152.401 -4.54847 153.667C-4.8746 154.851 -4.87589 156.102 -4.55219 157.287C-4.49053 157.563 -4.37247 157.822 -4.20548 158.049C-4.03847 158.276 -3.82617 158.466 -3.58199 158.607C-3.3378 158.748 -3.06705 158.836 -2.78687 158.867C-2.50668 158.898 -2.22316 158.87 -1.95421 158.786C-1.30785 158.589 -0.700518 158.282 -0.159273 157.878C0.521313 157.317 1.16648 156.715 1.77254 156.075C2.32269 155.478 2.81055 154.948 3.4126 154.295C3.68248 154.002 3.99388 153.664 4.49373 153.958C4.99358 154.252 4.55319 154.617 4.44697 154.936C3.98689 156.239 3.80351 157.623 3.90855 159.001C3.97667 160.214 4.50398 161.355 5.3833 162.193C5.68568 162.536 6.11144 162.745 6.56762 162.776C7.02381 162.806 7.47337 162.654 7.81818 162.354C8.50973 161.895 9.12017 161.324 9.62455 160.665C10.4622 159.508 11.2097 158.289 11.8604 157.018C13.4908 154.018 14.5305 150.733 14.9229 147.342L15.2365 143.611C15.3398 142.119 15.2348 140.62 14.9244 139.157C14.9475 138.928 14.9266 138.68 14.8952 138.443ZM5.83622 164.256C5.41772 164.891 4.95593 165.528 4.64388 166.115C3.44108 168.025 2.96122 170.302 3.29105 172.534C3.34331 172.961 3.51587 173.364 3.78859 173.696C4.06131 174.029 4.42295 174.277 4.83131 174.412C5.75142 174.71 6.73677 174.745 7.67566 174.512C7.95836 174.505 8.22876 174.395 8.43635 174.203C8.64396 174.011 8.77456 173.75 8.8038 173.469C9.3686 170.844 10.065 168.257 10.7164 165.628L10.9408 164.752C11.0897 164.894 11.1947 165.076 11.2432 165.275C11.2917 165.475 11.2818 165.685 11.2145 165.879C11.047 167.295 10.8078 168.701 10.4979 170.093C9.74887 172.985 8.84659 175.841 8.06468 178.724C7.66767 180.149 7.34772 181.604 7.09272 183.057C6.8812 184.289 6.91439 185.551 7.19038 186.771C7.28097 187.453 7.51495 188.108 7.8769 188.693C8.23887 189.278 8.7206 189.779 9.29038 190.165C9.86019 190.55 10.5051 190.81 11.1828 190.928C11.8604 191.046 12.5554 191.02 13.2219 190.85C14.5564 190.61 15.827 190.097 16.9545 189.344C18.082 188.591 19.0422 187.614 19.7751 186.473C21.8421 183.185 23.3607 179.582 24.2714 175.807C25.0115 173.12 25.2679 170.324 25.0287 167.547C25.0264 167.372 25.0411 167.198 25.0724 167.025L25.2221 166.976C25.3524 167.238 25.4545 167.514 25.5268 167.798C25.7268 168.867 25.8364 169.95 25.8543 171.037C25.5439 176.94 23.6003 182.642 20.24 187.506C20.1154 187.7 20.0006 187.9 19.896 188.105C20.7822 188.52 21.7655 188.683 22.7383 188.577C23.7111 188.47 24.6357 188.098 25.4108 187.5C26.024 187.019 26.5832 186.473 27.0787 185.871C28.0654 184.616 28.8187 183.193 29.3028 181.672C30.5257 177.983 31.1439 174.121 31.1335 170.236C31.1336 163.725 29.876 157.276 27.4299 151.243C26.0262 147.482 24.0308 143.97 21.5192 140.839C21.0633 140.294 20.565 139.772 20.1793 139.354L16.2783 139.925C16.2783 139.925 16.2784 139.925 16.2265 139.982C16.5093 142.705 16.4541 145.453 16.0623 148.162C15.9311 149.486 15.6573 150.791 15.2457 152.055C14.5669 154.012 13.7565 155.932 12.9018 157.831C12.088 159.75 10.8984 161.487 9.40317 162.939C8.96551 163.439 8.40992 163.821 7.78696 164.051C7.16399 164.281 6.4934 164.351 5.83622 164.256ZM-30.122 116.271L-30.1443 116.521C-30.404 116.532 -30.6525 116.553 -30.9019 116.552C-31.1512 116.552 -31.9426 116.552 -32.4603 116.616C-38.6384 117.336 -44.4912 119.772 -49.3552 123.649C-50.4043 124.492 -51.2632 125.547 -51.8756 126.745C-52.488 127.944 -52.84 129.258 -52.9085 130.602C-53.0569 131.848 -52.7124 133.102 -51.9487 134.098C-51.185 135.094 -50.0624 135.751 -48.8205 135.931C-47.7424 136.13 -46.6378 136.14 -45.5563 135.96C-43.8127 135.678 -42.108 135.194 -40.4768 134.517C-37.6708 133.415 -34.8534 132.324 -32.0109 131.319C-30.6218 130.889 -29.2105 130.535 -27.7831 130.258C-27.608 130.181 -27.413 130.162 -27.2263 130.203C-27.0396 130.244 -26.8707 130.343 -26.7439 130.486C-27.3221 130.661 -27.8155 130.79 -28.2968 130.951L-35.3972 133.344C-35.7287 133.455 -36.0489 133.577 -36.1196 133.97C-36.4618 135.186 -36.3272 136.487 -35.7432 137.608C-35.5817 137.907 -35.3468 138.16 -35.0605 138.344C-34.7743 138.528 -34.4461 138.635 -34.1067 138.657C-32.6351 138.8 -31.1507 138.591 -29.7761 138.047C-28.4015 137.502 -27.1763 136.638 -26.2018 135.526C-26.0007 135.303 -25.8891 135.012 -25.8882 134.711C-25.8971 134.058 -25.7286 133.414 -25.4006 132.849C-24.8908 131.904 -24.2213 131.055 -23.4218 130.339C-22.1824 129.246 -20.8341 128.283 -19.3982 127.465C-14.309 124.405 -8.45392 122.857 -2.51747 123.002C-2.44023 123.002 -2.36363 122.988 -2.29153 122.96L-2.0835 119.298C-2.21868 119.174 -2.37639 119.029 -2.52284 118.894C-3.94636 117.76 -5.48332 116.776 -7.10917 115.959C-14.5003 112.276 -22.6723 110.434 -30.9288 110.591C-35.4105 110.64 -39.8473 111.49 -44.0301 113.1C-45.968 113.796 -47.7537 114.86 -49.2899 116.231C-50.2793 117.019 -50.9801 118.113 -51.2829 119.341C-51.5856 120.569 -51.4734 121.863 -50.9636 123.021C-50.8912 123.169 -50.8055 123.311 -50.7078 123.444C-50.6456 123.376 -50.5468 123.405 -50.5157 123.371C-50.2562 123.089 -49.9187 122.859 -49.6029 122.629C-45.3053 119.305 -40.2451 117.108 -34.8824 116.238C-33.6266 115.999 -32.3415 115.954 -31.072 116.104C-30.7464 116.112 -30.4389 116.208 -30.122 116.271ZM-6.87163 162.336C-6.76565 162.353 -6.665 162.394 -6.57765 162.456C-6.49031 162.518 -6.41869 162.6 -6.3685 162.695C-6.31831 162.79 -6.29094 162.895 -6.28855 163.002C-6.28616 163.109 -6.30882 163.216 -6.35473 163.313C-6.52476 163.927 -6.72681 164.553 -6.88557 165.177C-7.23497 166.303 -7.30524 167.496 -7.09031 168.655C-7.0329 169.037 -6.89931 169.405 -6.69747 169.735C-6.49563 170.065 -6.22962 170.352 -5.91517 170.577C-5.60072 170.803 -5.24422 170.963 -4.86674 171.049C-4.48926 171.134 -4.09846 171.143 -3.71746 171.075C-2.45848 170.983 -1.26432 170.481 -0.31771 169.646C1.15243 168.356 2.4816 166.913 3.64748 165.343C4.14573 164.802 4.51652 164.061 4.903 163.438C4.03555 162.677 3.38269 161.702 3.0095 160.61C2.71048 159.503 2.59395 158.354 2.66449 157.209C2.28871 157.488 1.93523 157.796 1.60725 158.131C0.749396 159.08 -0.356123 159.77 -1.58506 160.126C-2.43811 160.354 -3.34686 160.235 -4.1125 159.795C-4.87812 159.355 -5.43829 158.63 -5.67043 157.778C-5.82888 157.23 -5.92465 156.667 -5.9559 156.098C-6.02515 154.448 -5.67446 152.808 -4.93669 151.33C-4.8382 151.087 -4.72933 150.834 -4.55046 150.436C-4.98754 150.617 -5.26362 150.758 -5.55273 150.846C-6.41954 151.168 -7.31917 151.394 -8.23537 151.519C-8.87975 151.613 -9.53741 151.542 -10.1471 151.314C-10.7568 151.085 -11.2988 150.706 -11.7226 150.211C-12.1464 149.717 -12.4382 149.123 -12.5709 148.486C-12.7035 147.848 -12.6728 147.187 -12.4815 146.565C-12.4474 146.378 -12.4262 146.189 -12.4179 145.999C-12.7909 146.155 -13.067 146.296 -13.3552 146.406C-14.3122 146.788 -15.2958 147.1 -16.2983 147.339C-16.7226 147.435 -17.1619 147.444 -17.5898 147.366C-18.0177 147.287 -18.4252 147.123 -18.7877 146.882C-19.1502 146.641 -19.4601 146.33 -19.6988 145.966C-19.9374 145.602 -20.0998 145.194 -20.176 144.766C-20.4133 143.961 -20.4257 143.107 -20.212 142.296C-20.0111 141.438 -19.7025 140.61 -19.2938 139.83C-18.6205 138.781 -17.8949 137.767 -17.1197 136.792C-16.9537 136.612 -16.7876 136.432 -16.4866 136.105C-17.27 136.3 -17.8595 136.465 -18.4733 136.566C-20.5362 137.176 -22.7495 137.028 -24.7128 136.149C-25.7493 137.047 -26.8309 137.905 -27.811 138.855C-29.1867 140.133 -30.3716 141.602 -31.3294 143.216C-31.86 144.104 -32.0842 145.142 -31.9675 146.169C-31.9473 146.59 -31.7793 146.991 -31.493 147.3C-31.2068 147.61 -30.8205 147.809 -30.4023 147.861C-29.8655 147.968 -29.3179 148.012 -28.7709 147.99C-27.4532 147.871 -26.1373 147.709 -24.7799 147.501C-24.4024 147.454 -24.0051 147.361 -23.6155 147.345C-23.4723 147.327 -23.3269 147.35 -23.1965 147.412C-23.0661 147.474 -22.9564 147.572 -22.8805 147.695C-22.8045 147.818 -22.7656 147.96 -22.7683 148.104C-22.771 148.248 -22.8153 148.389 -22.8958 148.509C-22.9959 148.716 -23.1109 148.917 -23.2399 149.108C-24.3888 150.953 -25.0592 153.056 -25.1904 155.226C-25.2837 156.664 -24.9298 158.096 -24.1772 159.326C-23.8697 159.905 -23.3968 160.381 -22.8185 160.691C-22.2402 161.001 -21.5827 161.133 -20.9296 161.068C-20.1015 161.008 -19.2869 160.825 -18.5127 160.525C-17.3321 159.979 -16.181 159.371 -15.0639 158.704C-14.4062 158.352 -13.733 157.847 -13.1394 157.519C-12.9708 157.393 -12.7708 157.316 -12.5613 157.296C-12.3519 157.276 -12.1409 157.314 -11.9515 157.406C-11.6723 157.871 -11.9819 158.253 -12.1721 158.64C-12.5385 159.489 -13.0036 160.311 -13.3145 161.191C-13.5978 162.008 -13.6445 162.89 -13.449 163.733C-13.4316 163.91 -13.3783 164.082 -13.2925 164.238C-13.2068 164.394 -13.0902 164.531 -12.9499 164.641C-12.8097 164.751 -12.6486 164.831 -12.4764 164.877C-12.3043 164.923 -12.1246 164.933 -11.9484 164.907C-11.4023 164.888 -10.8657 164.759 -10.3703 164.528C-9.39407 164.012 -8.47773 163.356 -7.53708 162.765C-7.31379 162.658 -7.08277 162.475 -6.87163 162.336ZM-24.5293 148.857L-25.3821 148.946C-26.6565 149.063 -27.9179 149.234 -29.1845 149.275C-30.314 149.342 -31.4285 148.99 -32.3145 148.287C-32.3709 148.235 -32.4159 148.193 -32.6333 148.18C-33.0829 148.849 -33.5984 149.499 -34.0246 150.21C-35.534 152.501 -36.5956 155.056 -37.1531 157.742C-37.3098 158.551 -37.3706 159.376 -37.3345 160.2C-37.3419 160.678 -37.1715 161.142 -36.8563 161.501C-36.5412 161.861 -36.1038 162.091 -35.6288 162.146C-34.8147 162.335 -33.9669 162.323 -33.1586 162.11C-32.3319 161.914 -31.4785 161.576 -30.6951 161.381C-30.2242 161.232 -29.7231 161.027 -29.3045 161.454C-28.8859 161.881 -29.2163 162.285 -29.3077 162.701C-29.6244 163.971 -29.9965 165.212 -30.2153 166.489C-30.3084 167.194 -30.2606 167.911 -30.0749 168.597C-30.0262 168.88 -29.9219 169.151 -29.7679 169.394C-29.6139 169.637 -29.4133 169.847 -29.1778 170.011C-28.9422 170.176 -28.6763 170.293 -28.3955 170.354C-28.1146 170.415 -27.8244 170.42 -27.5416 170.369C-26.8964 170.289 -26.2675 170.11 -25.677 169.837C-24.7415 169.387 -23.8649 168.82 -22.9536 168.306C-22.6669 168.13 -22.3691 167.973 -22.0622 167.836C-21.9778 167.794 -21.8853 167.771 -21.791 167.768C-21.6968 167.766 -21.6031 167.784 -21.5168 167.822C-21.4304 167.86 -21.3535 167.916 -21.2913 167.987C-21.2291 168.058 -21.1833 168.142 -21.1571 168.232C-21.2416 168.55 -21.3339 168.944 -21.4695 169.34C-21.9093 170.482 -22.1246 171.698 -22.1036 172.922C-22.0993 173.576 -21.9597 174.223 -21.6936 174.821C-21.4276 175.419 -21.0408 175.955 -20.5575 176.397C-20.0743 176.838 -19.505 177.175 -18.8854 177.386C-18.2659 177.596 -17.6094 177.677 -16.9572 177.622C-16.1809 177.578 -15.4139 177.43 -14.677 177.182C-12.0621 176.274 -9.63488 174.897 -7.51495 173.117C-7.18278 172.756 -6.76138 172.457 -6.35302 172.104C-8.91414 170.182 -8.7787 167.661 -8.17592 164.905C-8.5368 165.093 -8.78085 165.222 -9.01364 165.362C-9.91269 165.899 -10.9232 166.222 -11.967 166.307C-12.2984 166.35 -12.6352 166.328 -12.958 166.242C-13.2809 166.155 -13.5835 166.006 -13.8486 165.802C-14.1137 165.598 -14.336 165.345 -14.5029 165.055C-14.6697 164.765 -14.7778 164.446 -14.821 164.114C-15.0456 162.942 -14.9452 161.731 -14.5306 160.612L-14.2734 159.745L-15.0678 160.2C-16.109 160.719 -17.1258 161.303 -18.2016 161.77C-19.2505 162.244 -20.4002 162.451 -21.5484 162.373C-22.2371 162.34 -22.9095 162.153 -23.5159 161.825C-24.1223 161.497 -24.6471 161.036 -25.0515 160.478C-26.0863 159.057 -26.6149 157.331 -26.5529 155.574C-26.4793 153.451 -25.8907 151.377 -24.8378 149.531L-24.5293 148.857ZM-30.6714 162.757C-32.4488 163.554 -34.4435 163.727 -36.3318 163.248C-37.0525 164.896 -37.5467 166.634 -37.8009 168.414C-38.0651 169.76 -37.8903 171.155 -37.3021 172.394C-37.1773 172.61 -37.1113 172.854 -37.1106 173.104C-37.11 173.353 -37.1747 173.598 -37.2983 173.814C-37.5364 174.306 -37.7402 174.815 -37.9082 175.335C-38.4758 176.679 -38.8202 178.106 -38.9279 179.561C-38.9232 179.94 -38.8856 180.329 -38.8549 180.816C-38.4609 180.894 -38.0597 180.928 -37.6582 180.919C-36.7756 180.814 -35.9049 180.626 -35.0577 180.357C-33.9417 179.939 -32.857 179.442 -31.8122 178.869C-31.5264 178.691 -31.201 178.587 -30.8652 178.566C-30.5294 178.545 -30.1935 178.607 -29.8875 178.747C-29.0627 179.081 -28.1643 179.19 -27.2837 179.063C-25.4231 178.812 -23.6177 178.25 -21.9421 177.403C-21.8798 177.336 -21.8175 177.268 -21.6929 177.133C-22.5885 176.123 -23.1915 174.888 -23.4368 173.561C-23.6821 172.234 -23.5604 170.865 -23.0849 169.601C-23.5081 169.857 -23.7522 169.986 -23.9849 170.126C-25.0325 170.818 -26.2217 171.267 -27.4653 171.439C-28.2336 171.542 -29.0146 171.394 -29.6922 171.018C-30.3697 170.641 -30.9076 170.056 -31.2258 169.349C-31.5732 168.595 -31.6977 167.757 -31.5846 166.935C-31.4367 165.78 -31.1797 164.642 -30.9556 163.495C-30.9123 163.493 -30.7931 163.228 -30.6601 162.767L-30.6714 162.757Z" fill="#25262B"/>
<path d="M45.7425 133.81C48.1145 134.226 50.2401 135.526 51.6893 137.45C53.1386 139.373 53.8031 141.775 53.5486 144.169C53.4179 145.455 53.0306 146.702 52.4097 147.836C51.7887 148.969 50.9466 149.967 49.9333 150.769C48.92 151.572 47.756 152.163 46.5102 152.508C45.2644 152.853 43.9621 152.944 42.6804 152.776C41.4088 152.638 40.1791 152.24 39.0678 151.607C37.9565 150.974 36.9874 150.118 36.2206 149.095C35.2631 147.948 34.6564 146.55 34.4732 145.068C34.7518 145.049 35.0315 145.055 35.3088 145.088C36.6363 145.373 38.0131 145.333 39.3218 144.971C40.6305 144.61 41.8325 143.937 42.8252 143.011C43.8179 142.084 44.572 140.932 45.0232 139.651C45.4745 138.37 45.6095 137 45.4169 135.656L45.2567 134.654C45.2273 134.479 45.2597 134.299 45.3483 134.145C45.4369 133.991 45.5763 133.873 45.7425 133.81ZM36.3812 146.66C37.1494 148.371 38.4703 149.774 40.1318 150.643C41.7933 151.513 43.6989 151.8 45.5426 151.456C47.4822 151.071 49.2267 150.021 50.4759 148.488C51.725 146.955 52.4007 145.034 52.3865 143.057C52.3072 139.526 49.5843 135.767 46.6946 135.354C46.9424 136.794 46.8589 138.272 46.4504 139.675C46.0419 141.077 45.3192 142.369 44.3372 143.451C43.3453 144.559 42.1121 145.425 40.7327 145.981C39.3533 146.538 37.8645 146.77 36.3812 146.66Z" fill="#25262B"/>
<path d="M63.8385 155.359C64.1707 154.998 64.3966 154.956 64.6842 155.096L65.4474 155.466C67.1937 156.316 69.1807 156.534 71.0698 156.084C72.9589 155.633 74.6333 154.541 75.8075 152.994C76.9028 151.543 77.5034 149.779 77.5208 147.962C77.5382 146.144 76.9716 144.369 75.9042 142.897C75.6226 142.638 75.2621 142.306 75.6566 141.878C76.051 141.449 76.3587 141.816 76.6584 141.988C77.9657 142.668 79.101 143.636 79.978 144.82C80.855 146.004 81.4506 147.373 81.7196 148.821C81.9886 150.27 81.924 151.761 81.5306 153.181C81.1372 154.601 80.4254 155.912 79.4492 157.016C78.4731 158.12 77.2582 158.986 75.897 159.55C74.5358 160.114 73.0639 160.36 71.5933 160.27C70.1226 160.18 68.6919 159.756 67.4096 159.03C66.1274 158.304 65.0275 157.296 64.1933 156.081C64.0627 155.847 63.9443 155.605 63.8385 155.359ZM67.7463 157.606C69.5649 158.833 71.7951 159.293 73.9511 158.884C76.107 158.475 78.014 157.231 79.2566 155.422C81.5439 152.239 81.0671 146.676 78.3512 144.944C78.8316 146.513 78.9125 148.177 78.5864 149.785C78.2604 151.393 77.5378 152.894 76.4843 154.152C75.4307 155.41 74.0796 156.385 72.5536 156.988C71.0276 157.591 69.3752 157.803 67.7463 157.606Z" fill="#25262B"/>
<path d="M1.98222 93.5918C1.70801 93.7023 1.42516 93.79 1.13653 93.854C0.798733 93.8627 0.460783 93.8439 0.126043 93.7977C-1.12321 93.7074 -2.3769 93.8963 -3.54412 94.3506C-4.71133 94.8049 -5.7628 95.5133 -6.62227 96.4244C-7.48174 97.3355 -8.12765 98.4264 -8.51318 99.6182C-8.8987 100.81 -9.01417 102.072 -8.8512 103.314C-8.78933 103.767 -8.61922 104.215 -8.5357 104.667C-8.45218 105.119 -8.48333 105.153 -8.43626 105.509C-8.77989 105.484 -9.12188 105.44 -9.46066 105.377C-10.8701 105.068 -12.1927 104.448 -13.3316 103.562C-14.4706 102.676 -15.3971 101.547 -16.0435 100.257C-16.6898 98.9671 -17.0396 97.5489 -17.0673 96.1062C-17.0949 94.6636 -16.7998 93.233 -16.2034 91.9191C-15.607 90.6052 -14.7244 89.4413 -13.6202 88.5124C-12.5161 87.5835 -11.2183 86.9132 -9.82168 86.5504C-8.4251 86.1877 -6.9651 86.1417 -5.54848 86.4159C-4.13185 86.69 -2.79442 87.2774 -1.63401 88.135C-0.113685 89.2465 1.04315 90.7836 1.69038 92.5521C1.81371 92.8908 1.91127 93.2384 1.98222 93.5918ZM0.270406 92.556C-0.506384 89.4656 -4.69997 87.1221 -8.42093 87.5886C-10.4606 87.8714 -12.3274 88.8875 -13.6723 90.4469C-15.0171 92.0062 -15.7479 94.0021 -15.728 96.0612C-15.6514 99.5271 -12.8357 103.434 -10.2146 103.641C-10.4412 102.182 -10.3328 100.691 -9.89763 99.2808C-9.4625 97.8703 -8.71206 96.5773 -7.70314 95.4998C-6.69422 94.4223 -5.4533 93.5885 -4.07439 93.0617C-2.69548 92.5349 -1.21476 92.3288 0.255603 92.459L0.270406 92.556Z" fill="#25262B"/>
<path d="M9.27087 115.159C10.5664 113.745 12.2525 112.746 14.1159 112.289C15.9792 111.833 17.9361 111.94 19.7388 112.596C21.5415 113.252 23.1091 114.428 24.2432 115.975C25.3772 117.523 26.0268 119.372 26.1097 121.288C26.1926 123.205 25.7052 125.103 24.709 126.743C23.7128 128.382 22.2526 129.689 20.5133 130.499C18.774 131.308 16.8336 131.583 14.9378 131.29C13.042 130.996 11.276 130.146 9.86308 128.849C7.98555 127.102 6.87084 124.687 6.76002 122.125C6.64919 119.564 7.55116 117.061 9.27087 115.159ZM22.5524 127.398C23.6761 126.178 24.4134 124.653 24.6713 123.015C24.9292 121.377 24.6961 119.699 24.0015 118.193C23.3069 116.687 22.1818 115.421 20.7683 114.554C19.3548 113.687 17.7161 113.258 16.059 113.321C14.4019 113.384 12.8007 113.937 11.4573 114.909C10.114 115.881 9.08868 117.23 8.51081 118.784C7.93295 120.339 7.82841 122.029 8.21037 123.643C8.59234 125.257 9.4437 126.721 10.657 127.851C11.4672 128.618 12.4229 129.213 13.4675 129.604C14.5121 129.994 15.6244 130.17 16.7385 130.123C17.8526 130.075 18.9458 129.804 19.9534 129.327C20.961 128.849 21.8624 128.174 22.6043 127.341L22.5524 127.398Z" fill="#25262B"/>
<path d="M22.4392 158.038C24.317 160.747 24.463 174.129 22.6385 175.906C22.6191 175.773 22.6173 175.638 22.633 175.505C23.5493 170.723 23.5288 165.809 22.5726 161.035C22.4221 160.272 22.3037 159.496 22.1749 158.732C22.0975 158.431 22.0098 158.142 22.4392 158.038Z" fill="#25262B"/>
</g>
<defs>
<clipPath id="clip0_24_1119">
<rect width="194.296" height="157.885" fill="white" transform="translate(-4.01245) rotate(42.6587)"/>
</clipPath>
</defs>
</svg>
