<svg width="94" height="106" viewBox="0 0 94 106" fill="none" xmlns="http://www.w3.org/2000/svg">
<g clip-path="url(#clip0_14_3282)">
<path d="M68.6 74.6094L80.28 86.2894" stroke="#D7BE8A" stroke-width="3" stroke-linecap="round" stroke-linejoin="round"/>
<path d="M13.19 19.2002L24.87 30.8802" stroke="#D7BE8A" stroke-width="3" stroke-linecap="round" stroke-linejoin="round"/>
<path d="M24.88 74.6094L13.19 86.2894" stroke="#D7BE8A" stroke-width="3" stroke-linecap="round" stroke-linejoin="round"/>
<path d="M80.28 19.2002L68.6 30.8902" stroke="#D7BE8A" stroke-width="3" stroke-linecap="round" stroke-linejoin="round"/>
<path d="M92 52.7498C92 52.7498 79.81 49.9098 68.44 47.8498C65.1243 47.2491 62.0223 45.7946 59.44 43.6298C61.8059 40.6549 63.8318 37.4249 65.48 33.9998C62.1065 35.6406 58.9268 37.6531 56 39.9998C54.0553 37.2669 52.8528 34.0764 52.51 30.7398C51.51 20.5798 49.71 9.1298 46.72 1.5498C43.72 9.1398 41.96 20.6098 40.92 30.7798C40.5434 34.3367 39.1863 37.719 37 40.5498C32.67 37.4398 28 33.9998 28 33.9998C29.12 36.5798 31.88 40.4098 34.22 43.5098C31.6039 45.7542 28.4399 47.2655 25.05 47.8898C13.78 49.9998 1.5 52.7498 1.5 52.7498C8.76637 55.4247 16.3158 57.2567 24 58.2098C27.544 58.7046 30.8903 60.1412 33.69 62.3698C31.4662 65.193 29.5582 68.2513 28 71.4898C31.2227 69.9375 34.2672 68.0397 37.08 65.8298C39.3044 68.6919 40.6893 72.1161 41.08 75.7198C42.13 85.6498 43.88 96.6498 46.78 104C49.68 96.6498 51.43 85.6498 52.47 75.7198C52.8693 72.0708 54.2827 68.6066 56.55 65.7198C59.3524 67.9495 62.3669 69.8988 65.55 71.5398C65.55 71.5398 62.34 67.1398 59.3 62.8698C62.2107 60.3866 65.7705 58.7871 69.56 58.2598C77.2254 57.2837 84.7543 55.4351 92 52.7498Z" stroke="#D7BE8A" stroke-width="3" stroke-linecap="round" stroke-linejoin="round"/>
</g>
<defs>
<clipPath id="clip0_14_3282">
<rect width="93.48" height="105.5" fill="white"/>
</clipPath>
</defs>
</svg>
