<svg width="224" height="235" viewBox="0 0 224 235" fill="none" xmlns="http://www.w3.org/2000/svg">
<g clip-path="url(#clip0_24_1110)">
<path d="M113.568 211.242L114.558 211.779C115.675 212.382 116.61 213.276 117.263 214.365C117.917 215.455 118.265 216.7 118.272 217.971C118.34 219.258 118.021 220.537 117.355 221.641C116.69 222.745 115.708 223.624 114.537 224.163C110.373 226.264 106.022 227.971 101.541 229.262C93.4548 231.648 85.1686 233.292 76.7847 234.174C69.4348 234.972 62.0366 235.234 54.6487 234.959C42.2328 234.662 29.9285 232.534 18.1337 228.642C15.4518 227.714 12.8525 226.578 10.2118 225.505C9.85833 225.361 9.51387 225.195 9.18033 225.01C8.01895 224.46 7.04636 223.579 6.38543 222.477C5.72449 221.374 5.40487 220.101 5.46694 218.817C5.46694 217.545 5.81245 216.297 6.46652 215.206C7.12058 214.116 8.05862 213.223 9.18033 212.625L10.0055 212.171L10.1293 212.026C10.1293 211.737 10.1293 211.386 10.1293 211.056C9.71671 204.513 9.51041 197.949 8.82963 191.426C7.65372 180.074 6.47781 168.721 4.41482 157.451C3.0945 150.495 1.93922 143.518 0.804576 136.521C0.00768546 131.249 -0.213669 125.906 0.144417 120.586C0.286647 116.73 0.889193 112.905 1.93922 109.192C4.00273 102.19 7.76611 95.8078 12.8937 90.6147C16.1707 87.5427 19.8915 84.982 23.9307 83.0187C26.3445 81.739 28.7788 80.4799 31.1719 79.1588C33.2432 77.9751 35.1506 76.5247 36.8451 74.8448C41.1905 70.6302 43.8651 64.9848 44.375 58.9511C44.6706 55.2434 44.7395 51.521 44.5813 47.8049C44.5554 47.548 44.5141 47.293 44.4575 47.0411C44.1443 46.9746 43.8274 46.9263 43.5086 46.8966C42.55 46.7709 41.6288 46.4441 40.8051 45.9377C39.9814 45.4313 39.2738 44.7566 38.7286 43.9579C38.1834 43.1591 37.8128 42.2541 37.6411 41.3022C37.4694 40.3503 37.5004 39.3728 37.7322 38.4338C37.9066 37.3916 38.3953 36.4278 39.1328 35.6714C39.8703 34.9151 40.8212 34.4025 41.8582 34.2023C45.6293 33.1248 49.5001 32.4332 53.4109 32.1382C58.967 31.5442 64.561 31.3855 70.1418 31.6634C73.7456 31.8856 77.3221 32.4313 80.8281 33.2941C81.7809 33.5384 82.707 33.8773 83.5926 34.3055C84.2724 34.6361 84.8555 35.1365 85.2856 35.7584C85.7156 36.3803 85.9781 37.1027 86.0475 37.8558C86.0475 38.2273 86.1713 38.5989 86.2126 38.9291C86.2538 39.2594 86.4395 39.0323 86.5014 38.9291C90.7183 37.9329 95.1234 38.0682 99.2713 39.3213C102.871 40.2711 106.25 41.9192 109.215 44.172C112.086 46.3021 114.795 48.6409 117.323 51.1694C120.963 54.7769 124.981 57.981 129.309 60.7262C130.691 61.5932 132.197 62.2743 133.661 63.0174C133.856 63.0886 134.056 63.1438 134.26 63.1825L134.652 61.8615C136.529 54.5752 138.448 47.2682 140.304 39.9818C140.388 39.5069 140.588 39.0602 140.887 38.6819C141.186 38.3036 141.574 38.0056 142.017 37.8145C161.271 28.3196 180.471 18.7971 199.615 9.2471H199.719C201.225 8.50402 201.555 8.60722 202.318 10.1553L223.629 53.2335C223.737 53.448 223.834 53.6686 223.917 53.894C224.037 54.1569 224.047 54.4563 223.947 54.727C223.846 54.9977 223.643 55.2176 223.381 55.3389L222.803 55.7311C204.071 64.937 185.374 74.1774 166.711 83.4522C166.081 83.7919 165.382 83.9834 164.667 84.012C163.952 84.0406 163.24 83.9056 162.585 83.6173C153.033 79.8606 143.461 76.1659 133.888 72.4504C132.382 71.8725 132.197 71.5216 132.589 69.8909C132.857 68.735 133.146 67.5791 133.435 66.4232L133.703 65.226L132.857 64.8338C131.413 63.9876 129.969 63.4096 128.504 62.5427C124.33 59.8982 120.426 56.8493 116.848 53.4399C114.414 51.1074 111.897 48.8782 109.318 46.7109C105.211 43.2814 100.191 41.1289 94.8771 40.5185C92.2007 40.0662 89.4566 40.2285 86.8521 40.9933L86.1713 41.2203L85.9031 41.3648C83.8401 45.0596 83.4069 45.3279 79.2809 46.1948C79.2016 46.3725 79.1461 46.5599 79.1159 46.7522C78.9234 50.7789 79.0199 54.8143 79.4047 58.8273C79.8633 62.8178 81.2594 66.6431 83.4789 69.9903C85.6984 73.3375 88.6782 76.1115 92.1746 78.0855C94.2376 79.3652 96.5069 80.5005 98.7349 81.6358C101.396 82.9731 103.966 84.4831 106.43 86.1562C109.571 88.3393 112.325 91.0322 114.579 94.1237C119.951 101.307 123.054 109.932 123.491 118.893C123.863 124.249 123.697 129.629 122.996 134.952C122.563 138.069 121.861 141.144 121.345 144.261C120.541 149.029 119.839 153.818 119.014 158.586C117.838 165.377 116.951 172.23 116.147 179.083C115.218 187.484 114.228 195.864 113.836 204.306C113.733 206.536 113.671 208.847 113.568 211.242ZM46.1698 46.6696C46.1508 46.8825 46.1508 47.0966 46.1698 47.3095C46.1698 49.7864 46.3349 52.284 46.3555 54.7609C46.3955 57.7448 46.0488 60.7213 45.324 63.616C44.4309 67.0924 42.8544 70.356 40.6866 73.216C38.5189 76.076 35.8033 78.4752 32.6985 80.2734C30.6355 81.5738 28.3456 82.6678 26.1588 83.8444C24.3433 84.8352 22.5073 85.7846 20.7331 86.8373C17.0459 88.9461 13.8022 91.75 11.1814 95.0938C8.13745 98.9848 5.75382 103.35 4.126 108.015C2.91712 111.75 2.22306 115.632 2.063 119.554C1.62201 125.186 1.82273 130.851 2.66127 136.438C3.79592 143.456 5.05435 150.454 6.18899 157.472C6.89041 161.6 7.61246 165.914 8.25199 170.145C8.93278 175.14 9.36601 180.177 10.0262 185.193C11.1814 194.089 11.6766 203.047 12.0892 212.026C12.0892 213.182 12.0892 213.265 10.9751 213.739C9.80326 214.227 8.8094 215.063 8.12821 216.134C7.74795 216.696 7.48865 217.33 7.36677 217.998C7.2449 218.665 7.26311 219.351 7.42026 220.011C7.57742 220.671 7.87007 221.291 8.27962 221.832C8.68917 222.372 9.20667 222.822 9.79923 223.152C10.9647 223.862 12.1858 224.477 13.4507 224.989C16.0707 226 18.6907 227.053 21.3726 227.775C33.1405 231.283 45.3412 233.124 57.6195 233.245C68.0504 233.432 78.4717 232.512 88.7088 230.5C96.1523 229.116 103.427 226.943 110.411 224.019C111.725 223.449 113.006 222.809 114.249 222.099C114.846 221.74 115.346 221.24 115.706 220.642C116.065 220.045 116.273 219.369 116.312 218.673C116.427 217.402 116.1 216.13 115.386 215.073C114.671 214.016 113.614 213.239 112.392 212.872C112.268 212.872 112.103 213.017 111.959 213.12C109.991 214.527 107.865 215.697 105.625 216.609C101.079 218.435 96.3675 219.817 91.5557 220.737C81.9912 222.644 72.2613 223.598 62.5088 223.585C54.8349 223.724 47.1657 223.115 39.6095 221.769C37.8147 221.439 36.0612 220.964 34.287 220.53C33.9569 220.53 33.503 220.53 33.503 219.767C33.8121 219.744 34.1223 219.744 34.4314 219.767C39.8421 220.732 45.3046 221.38 50.7909 221.707C61.5753 222.375 72.3996 221.947 83.0974 220.427C89.1507 219.731 95.1297 218.494 100.963 216.732C103.948 215.829 106.809 214.56 109.483 212.955C110.246 212.48 110.969 211.923 111.67 211.428C111.917 206.474 112.165 201.644 112.413 196.752H111.319C109.153 196.566 106.987 196.442 104.841 196.153C99.7298 195.537 94.7419 194.145 90.0497 192.025C88.0061 191.049 86.1543 189.714 84.5828 188.082C83.6632 187.275 82.9208 186.287 82.4024 185.178C81.884 184.07 81.6008 182.866 81.5708 181.642C81.6089 181.058 81.4423 180.479 81.0997 180.004C80.757 179.529 80.2598 179.189 79.6935 179.042C78.4144 178.567 77.1354 178.071 75.8357 177.659C72.6793 176.647 69.4817 175.739 66.3253 174.686C63.9128 173.977 61.6483 172.837 59.6412 171.322C57.74 169.908 56.2842 167.977 55.4468 165.76C54.6094 163.543 54.4255 161.132 54.9169 158.813C55.254 157.189 56.0077 155.681 57.1037 154.437C57.3483 154.233 57.5492 153.981 57.6946 153.698C57.8399 153.414 57.9266 153.104 57.9495 152.786C57.4713 152.475 56.9753 152.193 56.4642 151.94C54.69 151.176 52.9158 150.474 51.121 149.752C48.7729 148.894 46.5079 147.823 44.3544 146.552C42.9512 145.753 41.7177 144.688 40.7235 143.415C39.9776 142.479 39.4758 141.372 39.2634 140.194C39.0509 139.016 39.1344 137.803 39.5064 136.665C40.1942 134.469 41.5863 132.561 43.4673 131.237C45.2996 129.916 47.3439 128.918 49.5119 128.285C53.0554 127.163 56.7322 126.518 60.4458 126.365C65.17 126.159 69.9149 126.118 74.6392 125.994C79.8173 125.829 84.9541 125.808 90.1735 125.436C100.481 124.613 110.723 123.103 120.83 120.916C121.118 120.916 121.407 120.751 121.82 120.627C121.82 119.677 121.675 118.769 121.634 117.882C121.124 109.923 118.37 102.273 113.692 95.8163C111.43 92.4584 108.519 89.5879 105.13 87.374C102.923 85.9704 100.633 84.67 98.343 83.3903C96.053 82.1105 93.4124 80.872 91.0606 79.4272C87.9308 77.6298 85.1958 75.2189 83.0193 72.339C80.8428 69.459 79.2695 66.1692 78.3938 62.6665C77.2434 57.1001 77.0065 51.3834 77.6924 45.7407C77.7865 45.2721 77.9318 44.8153 78.1256 44.3784L80.1886 44.0688C81.3603 43.9108 82.4315 43.3226 83.194 42.4185C83.9565 41.5145 84.3559 40.3591 84.3146 39.1768C84.4768 38.2574 84.2683 37.3111 83.7347 36.5451C83.2012 35.7791 82.386 35.2558 81.4677 35.0899C79.2087 34.4617 76.9053 34.0063 74.5773 33.7276C68.5161 33.04 62.4048 32.9088 56.3198 33.3354C52.7847 33.5157 49.2716 33.9991 45.8191 34.7803C44.2658 35.2054 42.7369 35.7153 41.2393 36.3077C40.8455 36.4598 40.4939 36.704 40.2139 37.0201C39.9339 37.3361 39.7337 37.7147 39.6301 38.1241C39.3605 38.8973 39.2818 39.7241 39.4006 40.5343C39.5194 41.3445 39.8323 42.1138 40.3126 42.7769C40.7929 43.4399 41.4263 43.9768 42.1588 44.342C42.8913 44.7071 43.7012 44.8896 44.5194 44.8738C47.5108 44.8738 50.4815 44.7706 53.4522 44.7706C56.4229 44.7706 59.6412 44.7706 62.8182 44.9357C63.794 45.0157 64.7649 45.1466 65.727 45.3279C65.9127 45.3279 66.0571 45.555 66.2221 45.6788V45.9471L56.2991 46.2361L46.1698 46.6696ZM121.717 122.402L120.603 122.588C118.395 123.042 116.209 123.517 114.001 123.93C101.898 126.332 89.5974 127.597 77.2592 127.707C72.8444 127.707 68.4296 127.707 64.0147 127.893C60.3687 127.96 56.7365 128.361 53.1634 129.09C50.47 129.601 47.8824 130.564 45.5097 131.938C43.8864 132.857 42.556 134.217 41.6725 135.86C40.9953 137.006 40.7342 138.351 40.9334 139.667C41.1326 140.984 41.7799 142.191 42.7659 143.085C43.6405 143.941 44.6257 144.677 45.6953 145.273C47.3251 146.16 49.0374 146.903 50.7291 147.646C52.792 148.534 54.855 149.318 56.918 150.185C57.5238 150.455 58.1039 150.78 58.651 151.155C58.9193 151.301 59.152 151.505 59.3322 151.752C59.5123 151.998 59.6355 152.282 59.6927 152.582C59.7499 152.882 59.7398 153.192 59.6631 153.487C59.5865 153.783 59.4451 154.058 59.2492 154.293C58.8779 154.871 58.4447 155.428 58.0114 155.985C57.1556 157.061 56.6195 158.356 56.4642 159.721C56.1819 161.75 56.482 163.816 57.3295 165.68C58.177 167.544 59.5368 169.129 61.2503 170.248C63.0106 171.472 64.9437 172.425 66.9855 173.076C69.688 173.964 72.4111 174.728 75.1137 175.615C77.0735 176.255 79.0127 176.957 80.9313 177.679C81.627 177.946 82.2218 178.424 82.6324 179.045C83.0431 179.667 83.249 180.402 83.2212 181.147C83.2482 182.327 83.5381 183.486 84.0699 184.539C84.6017 185.593 85.362 186.514 86.2951 187.236C87.6897 188.415 89.2459 189.388 90.9162 190.126C97.5021 193.045 104.612 194.597 111.814 194.688C112.02 194.706 112.227 194.706 112.433 194.688C112.505 194.479 112.56 194.265 112.598 194.048C112.887 191.241 113.176 188.413 113.485 185.585C113.939 181.457 114.311 177.328 114.868 173.365C115.61 167.916 116.456 162.467 117.323 157.038C118.189 151.609 118.994 146.305 120.025 140.979C121.198 135.345 121.779 129.603 121.758 123.847C121.84 123.393 121.717 122.939 121.717 122.402ZM221.793 54.0591L200.544 11.0016C200.131 11.1874 199.822 11.3112 199.512 11.4763L176.634 22.829L143.11 39.342C142.821 39.4561 142.561 39.6343 142.35 39.863C142.139 40.0918 141.983 40.3653 141.893 40.663C140.015 48.0938 138.076 55.5247 136.158 62.9555C136.099 63.2487 136.058 63.545 136.034 63.8431C138.491 64.552 141.06 64.7901 143.605 64.5449C143.312 63.635 143.209 62.6748 143.301 61.7234C143.393 60.772 143.679 59.8495 144.141 59.013C144.588 58.2004 145.198 57.4891 145.933 56.9243C146.668 56.3594 147.512 55.9531 148.412 55.7311C149.969 55.3243 151.62 55.4725 153.08 56.1503C154.54 56.828 155.719 57.9931 156.414 59.4456C157.11 60.8981 157.278 62.5474 156.891 64.1106C156.503 65.6737 155.584 67.0533 154.291 68.0126C151.176 70.2418 147.875 69.7052 144.472 66.4439C142.945 66.4439 141.439 66.4439 139.933 66.4439C138.427 66.4439 136.983 66.0517 135.436 65.8246L134.095 70.5721L164.544 82.4408L221.793 54.0591ZM148.68 63.9876C148.371 65.2054 147.174 65.2054 146.617 65.8865C147.449 66.8101 148.603 67.3802 149.842 67.48C151.081 67.5798 152.311 67.2017 153.281 66.4232C154.296 65.6264 154.972 64.4737 155.171 63.198C155.37 61.9222 155.078 60.6183 154.353 59.5497C153.63 58.4761 152.519 57.724 151.254 57.4509C149.989 57.1777 148.668 57.4046 147.566 58.0842C146.53 58.6583 145.745 59.5979 145.363 60.7198C144.982 61.8417 145.032 63.0655 145.503 64.1527C146.576 64.3797 147.525 62.9968 148.68 63.9876Z" stroke="#E3B773" stroke-width="2"/>
<path d="M14.7504 111.792C15.4518 112.226 15.2868 112.701 15.2661 113.134C15.0805 116.767 14.7504 120.42 14.7298 124.053C14.7201 134.218 15.876 144.35 18.175 154.251C18.4432 155.387 18.6907 156.522 18.897 157.657C18.9277 158.042 18.9277 158.428 18.897 158.813C18.1131 159.143 17.8449 158.813 17.6798 158.235C17.3498 157.348 17.0609 156.46 16.7928 155.552C15.602 151.088 14.7469 146.541 14.2346 141.949C13.314 135.636 12.9481 129.254 13.1413 122.877C13.2857 119.904 13.6364 116.953 13.9046 113.98C13.9563 113.53 14.0601 113.086 14.214 112.659C14.3548 112.349 14.535 112.057 14.7504 111.792Z" stroke="#E3B773" stroke-width="2"/>
<path d="M19.6397 128.368C19.7787 128.7 19.8825 129.046 19.9492 129.4C20.1968 134.601 21.1457 139.72 21.7646 144.839C21.8262 145.284 21.8262 145.736 21.7646 146.181C21.7646 146.305 21.5171 146.387 21.4139 146.491C20.63 146.491 20.5062 145.809 20.3824 145.273C20.1555 144.117 19.9286 142.94 19.8048 141.764C19.4334 138.482 19.0827 135.221 18.7733 131.939C18.7011 131.066 18.7011 130.189 18.7733 129.317C18.7733 128.739 18.8352 128.739 19.6397 128.368Z" stroke="#E3B773" stroke-width="2"/>
<path d="M221.834 54.059L200.544 11.0015C200.131 11.1872 199.822 11.3111 199.512 11.4762L176.634 22.8289L143.11 39.3418C142.821 39.456 142.561 39.6341 142.35 39.8629C142.139 40.0916 141.983 40.3651 141.893 40.6629C140.015 48.0937 138.076 55.5245 136.158 62.9554C136.099 63.2485 136.058 63.5449 136.034 63.8429C138.491 64.5519 141.06 64.79 143.605 64.5447C143.312 63.6349 143.209 62.6747 143.301 61.7232C143.393 60.7718 143.679 59.8494 144.141 59.0129C144.588 58.2002 145.198 57.489 145.933 56.9241C146.668 56.3592 147.512 55.953 148.412 55.7309C149.969 55.3242 151.62 55.4724 153.08 56.1501C154.54 56.8279 155.719 57.993 156.414 59.4454C157.11 60.8979 157.278 62.5472 156.891 64.1104C156.503 65.6736 155.584 67.0532 154.291 68.0125C151.176 70.2417 147.875 69.705 144.472 66.4437C142.945 66.4437 141.439 66.4437 139.933 66.4437C138.427 66.4437 136.983 66.0515 135.436 65.8245L134.095 70.572L164.544 82.4406L221.834 54.059Z" fill="white"/>
<path d="M79.3428 3.7772L78.662 3.44694C77.94 3.11668 77.2386 2.76578 76.599 2.47681C75.9595 2.18783 75.5056 2.06398 74.9486 1.89885C74.6069 1.76734 74.255 1.66379 73.8965 1.58924L72.3492 1.17641C71.4003 0.928718 70.41 0.742947 69.4611 0.577818H68.7596C68.3846 0.502615 68.0059 0.447493 67.625 0.412688C67.037 0.326036 66.4447 0.270914 65.8508 0.247559H64.3036H63.9529H62.4881H62.3025C60.5283 0.247559 58.7954 0.247559 57.0831 0.495253L55.3914 0.701665C54.525 0.804871 53.6998 0.928718 52.8539 1.09385L51.3686 1.40347C50.8941 1.40347 50.399 1.60988 49.9039 1.75437C47.9187 2.29143 45.9631 2.93219 44.045 3.674L43.7974 3.7772C42.9309 4.14874 42.704 4.68542 42.7659 5.71748C42.7659 6.02709 42.7659 6.33671 42.7659 6.64633L43.7561 14.4074C44.0656 16.9669 44.4163 19.5471 44.767 22.1272C44.9733 23.8198 45.1796 25.5124 45.4272 27.205C46.6856 36.7412 48.0059 46.2981 49.3056 55.8343C49.45 57.0315 49.6357 58.2287 49.8007 59.4465C49.9245 60.2722 50.0483 61.0978 50.1308 61.9441C50.1308 62.3156 50.2546 62.6665 50.2958 63.0381C50.3252 63.3099 50.417 63.5713 50.564 63.8018C50.7859 64.1421 51.1227 64.3912 51.513 64.5036C52.559 64.9065 53.6265 65.251 54.7106 65.5357C59.8466 66.538 65.1423 66.3687 70.2037 65.0403C70.8707 64.9447 71.4758 64.5976 71.8954 64.0701C71.976 63.9982 72.0455 63.9147 72.1017 63.8224C72.3375 63.4027 72.4849 62.939 72.5349 62.4601C72.9269 58.8273 73.4839 55.2151 73.979 51.6029C75.8632 38.4751 77.6787 25.4023 79.4253 12.3846C79.7348 10.0728 79.9617 7.71967 80.2299 5.40786C80.3013 5.07483 80.2511 4.72721 80.0884 4.42804C79.9256 4.12887 79.6611 3.89796 79.3428 3.7772ZM70.7401 62.8523C67.068 64.5036 56.1754 65.0403 52.2969 62.6665C49.6701 43.5941 47.0432 24.4184 44.4163 5.13952C44.7239 4.93376 45.0482 4.75424 45.3859 4.60285C54.2484 1.38037 63.8635 0.841921 73.03 3.05476C74.9713 3.51032 76.849 4.20359 78.6208 5.11888C76.0076 24.4115 73.3807 43.656 70.7401 62.8523Z" stroke="#E3B773" stroke-width="2"/>
<path d="M101.582 143.209C101.535 143.611 101.438 144.006 101.293 144.385C101.08 144.792 100.831 145.178 100.55 145.541C99.6002 146.934 98.9726 148.521 98.7135 150.188C98.4543 151.854 98.5701 153.557 99.0524 155.173C99.5347 156.788 100.371 158.276 101.501 159.527C102.631 160.779 104.026 161.762 105.584 162.405C106.162 162.653 106.801 162.756 107.4 162.962C107.998 163.169 107.998 163.21 108.452 163.416C108.122 163.87 107.936 164.242 107.688 164.531C106.377 165.96 104.763 167.078 102.964 167.804C101.166 168.53 99.2284 168.845 97.2928 168.727C95.3572 168.609 93.4723 168.061 91.7754 167.122C90.0785 166.182 88.6123 164.876 87.4837 163.299C86.3551 161.721 85.5925 159.911 85.2513 158.001C84.9102 156.091 84.9992 154.129 85.5118 152.258C86.0245 150.386 86.9478 148.653 88.2146 147.184C89.4815 145.715 91.0598 144.547 92.8348 143.766C95.1523 142.738 97.7229 142.421 100.22 142.858C100.68 142.95 101.135 143.067 101.582 143.209ZM99.2507 144.488C95.1247 143.312 89.5546 146.552 87.5948 151.279C86.5517 153.853 86.4788 156.719 87.3896 159.342C88.3003 161.966 90.1328 164.17 92.546 165.542C96.6719 167.792 103.088 167.132 105.192 164.201C103.354 163.469 101.704 162.332 100.367 160.874C99.0291 159.416 98.0377 157.674 97.4666 155.779C96.8954 153.884 96.7592 151.885 97.0681 149.93C97.377 147.975 98.1231 146.115 99.2507 144.488Z" stroke="#E3B773" stroke-width="2"/>
</g>
<defs>
<clipPath id="clip0_24_1110">
<rect width="224" height="235" fill="white"/>
</clipPath>
</defs>
</svg>
