<svg width="335" height="546" viewBox="0 0 335 546" fill="none" xmlns="http://www.w3.org/2000/svg">
<g clip-path="url(#clip0_11_1927)">
<path d="M145.183 305.994C146.657 306.086 147.857 306.073 149.033 306.235C156.42 307.229 163.789 308.198 171.164 309.279C196.403 312.957 221.637 316.678 246.865 320.443L248.962 320.687C248.768 320.245 248.536 319.819 248.27 319.416C241.173 309.178 234.015 298.894 226.797 288.565L187.463 232.132C182.674 225.259 177.978 218.354 173.252 211.668C172.718 210.964 172.349 210.149 172.171 209.283C171.993 208.417 172.011 207.523 172.225 206.666C175.919 188.235 179.475 169.726 182.894 151.139L202.018 51.4544C202.875 47.4441 203.845 43.5826 204.777 39.6714C204.791 39.1798 204.961 38.7055 205.261 38.3163C205.561 37.927 205.976 37.6428 206.448 37.5042C207.184 37.8052 208.094 38.13 208.986 38.5856C218.661 43.4673 228.343 48.3053 237.963 53.2681C268.405 68.936 298.846 84.604 329.287 100.272C330.197 100.803 331.141 101.274 332.113 101.681C332.704 101.916 333.22 102.308 333.605 102.815C333.989 103.321 334.228 103.924 334.295 104.556C335.47 111.243 336.838 117.823 338.106 124.478C356.277 220.354 374.377 316.258 392.407 412.189C392.986 415.11 393.005 415.134 390.534 416.659L368.193 430.144L360.606 434.693C360.228 434.934 359.901 435.248 359.645 435.617C359.389 435.986 359.209 436.401 359.115 436.841L351.179 460.407L342.902 485.014C342.759 485.359 342.637 485.713 342.535 486.073C342.346 487.005 341.843 487.843 341.11 488.449C340.378 489.055 339.46 489.392 338.509 489.403C327.035 491.043 315.525 492.79 304.058 494.542C301.914 494.901 299.711 494.598 297.741 493.673C264.21 478.32 230.668 462.988 197.116 447.676C196.082 447.172 195.237 446.347 194.707 445.325C186.206 429.863 177.774 414.544 169.204 398.939C160.248 382.69 151.338 366.432 142.473 350.165C142.015 349.456 141.627 348.704 141.315 347.919C141.078 347.224 140.996 346.486 141.077 345.756C141.934 336.094 142.849 326.388 143.822 316.638C144.072 313.987 144.316 311.379 144.629 308.759C144.765 307.828 144.95 306.905 145.183 305.994ZM300.322 227.078L210.792 49.5982C210.761 50.2246 210.841 50.8517 211.028 51.4505L218.845 77.4716L245.61 167.709C245.796 168.261 245.949 168.823 246.069 169.392C246.128 169.557 246.153 169.732 246.143 169.907C246.134 170.082 246.089 170.253 246.011 170.41C245.934 170.567 245.826 170.707 245.693 170.822C245.561 170.936 245.407 171.023 245.24 171.076C245.071 171.12 244.896 171.129 244.723 171.102C244.551 171.075 244.386 171.013 244.239 170.92C244.091 170.827 243.965 170.705 243.866 170.561C243.768 170.417 243.7 170.254 243.667 170.083C243.344 169.195 243.07 168.27 242.791 167.388L206.707 44.8862C206.574 44.4017 206.391 43.9548 206.238 43.4455L174.974 207.821C175.216 207.988 175.47 208.134 175.736 208.259L268.85 249.45L269.072 249.28L268.646 247.846C265.177 237.315 261.657 226.821 258.212 216.272C255.316 206.907 252.47 197.66 249.301 188.347C248.898 187.031 248.561 185.696 248.292 184.346C248.152 183.75 247.979 183.06 249.09 182.725C249.522 183.343 249.9 183.996 250.222 184.678C251.088 186.795 251.91 188.905 252.614 191.066C258.953 209.693 265.166 228.325 271.252 246.961C271.474 247.613 271.702 248.222 272.025 249.109L300.322 227.078ZM209.541 41.6803C240.074 102.178 270.545 162.542 300.953 222.771C301.034 222.904 301.129 223.028 301.235 223.142C301.235 223.142 301.235 223.142 301.458 222.973L330.654 103.922L209.541 41.6803ZM176.989 211.605L176.741 211.793C176.986 212.115 177.23 212.437 177.475 212.759C189.358 229.781 201.21 246.762 213.031 263.701C226.525 283.016 240.003 302.344 253.464 321.684C253.69 321.981 253.915 322.279 254.141 322.576C260.652 329.353 267.212 336.092 273.792 343.011C286.656 356.528 299.513 370.037 312.364 383.538L351.708 425.08C352.047 425.526 352.553 425.884 352.984 426.299L353.232 426.111C325.485 368.393 297.742 310.647 270.003 252.871C238.999 239.167 207.994 225.412 176.989 211.605ZM332.456 109.585L332.164 109.612C332.031 110.104 331.854 110.59 331.739 111.107L312.988 187.85L303.683 225.698C303.519 226.25 303.471 226.83 303.542 227.401C303.613 227.972 303.802 228.523 304.096 229.018C305.015 230.742 305.841 232.498 306.686 234.279C318.285 258.6 329.874 282.891 341.452 307.151C356.788 339.34 372.078 371.59 387.323 403.9C387.643 404.321 387.982 404.767 388.103 405.339L388.326 405.17L332.456 109.585ZM357.08 434.674C339.626 416.361 322.315 398.134 304.979 379.925C287.643 361.717 270.47 343.62 253.002 325.238C252.753 325.538 252.524 325.855 252.318 326.187C247.666 333.626 242.869 340.823 238.104 348.113C237.847 348.505 237.671 348.944 237.586 349.405C237.5 349.865 237.507 350.338 237.605 350.797C239.53 362.891 241.593 375.115 243.288 387.111C243.552 389.178 244.532 391.088 246.059 392.508C255.796 401.992 265.434 411.551 275.171 421.191C285.602 431.503 296.032 441.815 306.462 452.127C317.339 462.855 328.166 473.621 339.017 484.368C339.281 484.715 339.717 484.931 340.236 485.357L357.08 434.674ZM301.726 229.801C300.276 230.512 273.39 251.628 272.775 252.564L359.224 432.461L389.343 414.32C360.058 352.692 330.852 291.186 301.726 229.801ZM233.632 430.149L240.76 391.335L145.586 349.794L145.338 349.982C162.455 381.262 179.661 412.643 196.956 444.125L233.632 430.149ZM143.688 345.805C176.026 359.928 208.035 374.029 240.447 388.096L240.248 386.293L237.718 370.01C236.751 363.907 235.785 357.804 234.887 351.688C234.87 351.187 234.698 350.704 234.394 350.304C234.091 349.905 233.672 349.609 233.194 349.458C232.893 349.348 232.599 349.219 232.315 349.07C204.365 335.964 176.392 322.863 148.397 309.765C148.042 309.605 147.661 309.464 147.069 309.25L143.688 345.805ZM335.138 487.275L335.204 486.951C301.419 468.9 267.575 450.841 233.674 432.773L199.709 445.747C200.558 446.196 201.013 446.437 201.475 446.633L209.245 450.188C239.563 464.048 269.88 477.909 300.197 491.769C300.853 492.08 301.581 492.204 302.301 492.125C312.833 490.614 323.356 489.058 333.87 487.456L335.138 487.275ZM236.17 431.23C268.66 448.467 301.077 465.709 333.418 482.955C303.84 453.297 274.095 423.884 244.274 394.371C244.067 394.098 243.718 393.895 243.437 393.678L243.189 393.866L236.17 431.23ZM153.929 309.394L153.755 309.526C180.977 322.221 208.122 334.883 235.19 347.513C237.41 344.733 250.102 324.861 250.343 323.74L153.929 309.394Z" fill="#25262B"/>
<path d="M50.9418 259.721C60.453 267.332 72.4936 271.05 84.6296 270.124C94.6793 269.396 104.232 265.484 111.903 258.958C119.575 252.431 124.966 243.627 127.297 233.823C129.875 223.189 128.713 211.986 124.006 202.099C130.501 207.519 135.403 214.601 138.189 222.587C140.974 230.574 141.539 239.165 139.821 247.441C137.898 257.119 133.01 265.954 125.836 272.72C118.661 279.485 109.556 283.845 99.785 285.196C90.0136 286.546 80.0606 284.818 71.3079 280.253C62.5552 275.688 55.4371 268.512 50.9418 259.721Z" fill="white"/>
</g>
<defs>
<clipPath id="clip0_11_1927">
<rect width="320.842" height="440.832" fill="white" transform="translate(0 194.012) rotate(-37.207)"/>
</clipPath>
</defs>
</svg>
