<svg width="233" height="228" viewBox="0 0 233 228" fill="none" xmlns="http://www.w3.org/2000/svg">
<g clip-path="url(#clip0_12_2241)">
<path d="M214.185 58.9077H210.574H206.08H200.473C200.165 57.3467 199.439 55.898 198.373 54.7149V54.5682C199.822 52.7234 201.229 50.8367 202.72 49.0338C202.923 48.7558 203.008 48.4086 202.955 48.0685C202.901 47.7285 202.715 47.4234 202.437 47.2205C202.158 47.0175 201.81 46.9333 201.47 46.9864C201.129 47.0395 200.824 47.2255 200.62 47.5035C199.465 49.0967 198.247 50.648 197.029 52.2203L196.295 53.1427C195.337 52.5642 194.285 52.1597 193.187 51.9478C193.061 49.3273 192.956 46.7069 192.83 44.0864C192.83 42.7657 192.83 41.424 192.641 40.1033C192.641 39.4744 192.641 38.8245 192.494 38.1747C192.476 37.87 192.426 37.5679 192.347 37.2732C192.305 37.0648 192.215 36.869 192.083 36.7015C191.952 36.5341 191.783 36.3996 191.591 36.3089C191.321 36.1928 191.018 36.18 190.739 36.2727C190.46 36.3655 190.225 36.5575 190.079 36.812C189.951 37.074 189.88 37.3595 189.869 37.6506C189.869 38.2585 189.869 38.8455 189.869 39.4325C189.869 40.6693 189.974 41.9272 190.037 43.164C190.142 45.8893 190.268 48.5936 190.373 51.2979C190.373 51.5075 190.373 51.6962 190.373 51.9058C188.543 52.2473 186.867 53.1571 185.585 54.5053L182.33 51.256C181.491 50.3895 180.672 49.509 179.874 48.6145C179.538 48.2372 179.202 47.8808 178.845 47.5244C178.645 47.3144 178.42 47.1312 178.173 46.9794C178.002 46.8757 177.806 46.8209 177.606 46.8209C177.406 46.8209 177.21 46.8757 177.039 46.9794C176.817 47.0961 176.645 47.29 176.556 47.5244C176.528 47.6558 176.528 47.7914 176.556 47.9227C176.578 48.3021 176.726 48.6633 176.976 48.95C177.228 49.2854 177.522 49.5998 177.795 49.9143C178.488 50.7528 179.223 51.5914 179.895 52.388C181.239 53.7925 182.645 55.1342 184.094 56.5807C183.571 57.5034 183.216 58.5112 183.044 59.5575C180.357 59.5575 177.69 59.6833 175.002 59.5575L172.188 59.1383C171.537 59.1383 170.613 58.9706 170.088 59.5995C169.93 59.8153 169.844 60.076 169.844 60.3437C169.844 60.6114 169.93 60.8721 170.088 61.0879C170.275 61.3093 170.513 61.4819 170.781 61.591C171.218 61.7444 171.668 61.8567 172.125 61.9264C173.343 62.1151 174.582 62.2618 175.821 62.3457C178.152 62.5344 180.483 62.6182 182.834 62.6182H183.023C183.382 64.1874 184.15 65.6339 185.249 66.8109C184.514 67.6914 183.758 68.5509 183.002 69.4314C182.247 70.3119 181.449 71.1923 180.714 72.1147L179.685 73.4354C179.326 73.7761 179.089 74.2257 179.013 74.7142C179.02 74.9858 179.123 75.2462 179.303 75.4495C179.484 75.6528 179.73 75.7858 180 75.8253H180.126C180.32 75.8222 180.511 75.7797 180.688 75.7004C180.865 75.6211 181.023 75.5067 181.155 75.3641C181.416 75.1069 181.662 74.8339 181.89 74.5465C182.372 73.9805 182.834 73.3935 183.338 72.8275L184.157 71.9051C185.186 70.7521 186.257 69.5781 187.202 68.4042C188.347 69.0914 189.631 69.5141 190.961 69.641C190.961 71.7374 190.961 73.8337 191.129 75.9301L191.255 79.8712C191.255 81.171 191.255 82.4917 191.255 83.7914C191.26 84.1845 191.419 84.5599 191.698 84.8379C191.976 85.1159 192.352 85.2744 192.746 85.2799C192.941 85.2799 193.133 85.2412 193.313 85.1662C193.493 85.0911 193.656 84.9812 193.793 84.8427C193.929 84.7042 194.037 84.5399 194.11 84.3595C194.182 84.179 194.218 83.9859 194.216 83.7914C194.216 82.5546 194.069 81.3177 194.027 80.0599C193.985 78.8021 194.027 77.5862 194.027 76.3494C194.027 74.0434 193.901 71.7583 193.859 69.4733C194.839 69.2295 195.77 68.8181 196.61 68.2574L198.163 69.7039L199.234 70.7311C199.633 71.1085 199.99 71.5068 200.41 71.8632C200.523 71.977 200.657 72.0672 200.805 72.1284C200.952 72.1897 201.111 72.2206 201.271 72.2195C201.516 72.2238 201.757 72.1541 201.962 72.0194C202.167 71.8848 202.326 71.6916 202.419 71.4651C202.512 71.2386 202.535 70.9893 202.483 70.7498C202.432 70.5104 202.31 70.292 202.132 70.1232C201.502 69.4523 200.809 68.8654 200.032 68.2365L198.331 66.6852C199.426 65.44 200.153 63.916 200.431 62.2828C202.531 62.2828 204.631 62.178 206.878 62.2828C208.243 62.2828 209.608 62.2828 211.078 62.4295L214.185 62.5553C214.659 62.5553 215.113 62.3676 215.447 62.0334C215.782 61.6992 215.97 61.246 215.97 60.7734C215.979 60.5332 215.939 60.2937 215.853 60.069C215.767 59.8444 215.638 59.6391 215.471 59.4652C215.305 59.2914 215.106 59.1525 214.885 59.0568C214.664 58.961 214.426 58.9103 214.185 58.9077Z" fill="#E3B773"/>
<path d="M55.3942 108.634C54.7642 108.634 54.1553 108.634 53.5253 108.634H51.7194H49.6196C49.1239 107.458 48.3384 106.426 47.3361 105.634C46.3339 104.842 45.1474 104.317 43.887 104.105C43.887 102.491 43.698 100.898 43.593 99.3047C43.488 97.7115 43.32 96.1392 43.131 94.546C43.131 93.7703 42.942 92.9947 42.7951 92.219C42.797 91.4522 42.5125 90.7122 41.9971 90.1436C41.7804 89.9771 41.5146 89.8867 41.2412 89.8867C40.9677 89.8867 40.7019 89.9771 40.4852 90.1436C40.2544 90.4097 40.0797 90.7195 39.9715 91.0545C39.8633 91.3894 39.8237 91.7427 39.8553 92.0933C39.8553 92.827 39.8553 93.5817 39.8553 94.3154C39.8553 95.8667 39.8553 97.439 39.8553 99.0112C39.8553 100.584 39.8553 102.596 40.0022 104.399C39.0574 104.783 38.1991 105.351 37.4778 106.071C36.7565 106.791 36.1869 107.648 35.8025 108.592L31.3298 108.843C29.8389 108.843 28.3481 108.99 26.8572 109.158L24.9673 109.346C24.7115 109.344 24.4581 109.396 24.2231 109.497C23.9882 109.598 23.7768 109.746 23.6024 109.933C23.4508 110.128 23.3686 110.368 23.3686 110.615C23.3686 110.861 23.4508 111.101 23.6024 111.296C23.7555 111.469 23.9426 111.608 24.1522 111.706C24.3618 111.803 24.5892 111.856 24.8203 111.862C25.3243 111.862 25.8492 111.988 26.3532 112.051C27.6131 112.051 28.873 112.197 30.1329 112.218H34.0597H35.3196C35.519 113.607 36.0992 114.914 36.996 115.994C37.8928 117.074 39.0713 117.886 40.4012 118.34V122.532C40.4012 123.224 40.4012 123.916 40.4012 124.629C40.4012 125.342 40.4012 126.138 40.4012 126.872C40.4012 127.428 40.6225 127.961 41.0163 128.354C41.4101 128.747 41.9442 128.968 42.5011 128.968C43.058 128.968 43.5921 128.747 43.9859 128.354C44.3797 127.961 44.6009 127.428 44.6009 126.872C44.6009 126.159 44.6009 125.425 44.6009 124.775V122.847C44.6009 121.442 44.6009 120.059 44.6009 118.654C46.0248 118.278 47.3087 117.498 48.2965 116.408C49.2844 115.317 49.9337 113.964 50.1656 112.512H51.1315H53.2313C53.8613 112.512 54.5123 112.617 55.1422 112.617C55.4014 112.635 55.6616 112.601 55.908 112.519C56.1543 112.436 56.382 112.306 56.5779 112.136C56.7739 111.965 56.9343 111.758 57.0501 111.526C57.1658 111.294 57.2346 111.041 57.2526 110.782C57.2705 110.524 57.2372 110.264 57.1545 110.018C57.0719 109.772 56.9416 109.545 56.7709 109.349C56.6003 109.153 56.3928 108.993 56.1602 108.878C55.9275 108.762 55.6744 108.693 55.4152 108.675L55.3942 108.634Z" fill="#E3B773"/>
<path d="M231.761 137.102C230.018 137.102 228.275 137.102 226.532 137.102H223.908C223.804 136.221 223.518 135.372 223.068 134.607L223.95 133.685C224.727 132.888 225.525 132.113 226.28 131.316C226.529 131.065 226.669 130.726 226.669 130.373C226.669 130.019 226.529 129.68 226.28 129.429C226.032 129.182 225.696 129.043 225.346 129.043C224.996 129.043 224.66 129.182 224.412 129.429C223.971 129.911 223.551 130.415 223.11 130.918L221.451 132.721C220.452 131.897 219.232 131.387 217.944 131.253L217.629 126.096C217.629 124.796 217.503 123.518 217.398 122.218L217.272 120.394C217.272 120.101 217.272 119.807 217.272 119.535C217.282 119.43 217.282 119.325 217.272 119.22V119.073C217.233 118.77 217.084 118.492 216.854 118.29C216.624 118.089 216.329 117.978 216.023 117.978C215.717 117.978 215.421 118.089 215.191 118.29C214.961 118.492 214.813 118.77 214.773 119.073V119.22C214.742 119.555 214.742 119.892 214.773 120.226L214.899 121.778C214.899 122.784 215.046 123.874 215.13 124.775C215.319 126.998 215.466 129.241 215.655 131.484C214.898 131.705 214.187 132.06 213.555 132.532L211.833 130.939C211.413 130.561 210.994 130.163 210.553 129.828C210.234 129.55 209.852 129.356 209.44 129.262C209.293 129.241 209.145 129.241 208.999 129.262C208.758 129.321 208.543 129.458 208.388 129.651C208.232 129.844 208.144 130.083 208.138 130.331C208.157 130.558 208.225 130.779 208.338 130.978C208.45 131.177 208.604 131.349 208.789 131.484L209.755 132.406L211.854 134.377C211.33 135.194 210.993 136.118 210.868 137.081H205.513L201.586 137.018H200.074C199.824 136.976 199.569 136.976 199.318 137.018C199.135 137.063 198.968 137.157 198.835 137.291C198.658 137.464 198.547 137.694 198.52 137.941V138.213C198.537 138.365 198.585 138.513 198.661 138.646C198.737 138.779 198.839 138.896 198.961 138.989C199.163 139.158 199.413 139.26 199.675 139.282C200.032 139.282 200.389 139.282 200.746 139.408C201.838 139.408 202.846 139.534 203.98 139.555H210.784C211.06 140.633 211.609 141.622 212.379 142.427C211.686 143.223 211.015 143.999 210.28 144.754C209.881 145.173 209.461 145.571 209.02 145.97L208.474 146.473C208.345 146.581 208.24 146.715 208.168 146.867C208.095 147.019 208.056 147.185 208.054 147.353C208.052 147.55 208.104 147.744 208.204 147.913C208.304 148.083 208.448 148.223 208.621 148.318C208.784 148.399 208.963 148.442 209.146 148.443C209.818 148.443 210.469 147.793 210.952 147.353C211.434 146.913 212.274 146.095 212.883 145.425L214.395 143.789C214.979 144.168 215.616 144.458 216.285 144.649C216.495 148.842 216.6 152.846 216.726 156.955C216.764 157.231 216.9 157.484 217.111 157.668C217.321 157.851 217.591 157.952 217.871 157.952C218.15 157.952 218.42 157.851 218.63 157.668C218.841 157.484 218.977 157.231 219.015 156.955C219.015 154.208 218.868 151.483 218.763 148.758C218.763 147.374 218.763 145.97 218.595 144.565C219.589 144.348 220.522 143.911 221.325 143.286C222.291 144.167 223.257 145.068 224.244 145.928C224.484 146.166 224.808 146.301 225.147 146.305C225.315 146.308 225.482 146.276 225.638 146.211C225.793 146.146 225.933 146.049 226.049 145.928C226.17 145.81 226.266 145.67 226.332 145.515C226.397 145.361 226.431 145.194 226.431 145.026C226.431 144.858 226.397 144.692 226.332 144.537C226.266 144.382 226.17 144.242 226.049 144.125C225.441 143.559 224.811 142.993 224.16 142.448H224.034L223.404 141.882L223.026 141.567C223.329 141.063 223.562 140.52 223.719 139.953H225.357C227.456 139.953 229.556 139.953 231.761 139.764C232.09 139.764 232.405 139.634 232.637 139.402C232.869 139.17 233 138.856 233 138.528C233 138.199 232.869 137.885 232.637 137.653C232.405 137.421 232.09 137.291 231.761 137.291V137.102Z" fill="#E3B773"/>
<path d="M194.993 106.348C194.998 105.95 195.159 105.569 195.441 105.287C195.724 105.005 196.105 104.844 196.505 104.839C196.804 104.839 197.096 104.927 197.344 105.093C197.593 105.259 197.787 105.495 197.901 105.771C198.016 106.046 198.046 106.35 197.987 106.643C197.929 106.936 197.785 107.204 197.574 107.416C197.362 107.627 197.093 107.77 196.799 107.829C196.506 107.887 196.202 107.857 195.926 107.743C195.65 107.628 195.414 107.435 195.247 107.187C195.081 106.939 194.993 106.647 194.993 106.348Z" fill="#E3B773"/>
<path d="M7.01352 135.194H7.49649L8.06345 135.047L8.56742 134.838L9.00838 134.565C9.26698 134.395 9.51263 134.206 9.74333 133.999L10.1423 133.601L10.4993 132.951L10.8353 132.406L11.0872 131.798L11.2132 131.358V130.792C11.2342 130.653 11.2342 130.511 11.2132 130.372C11.2235 130.24 11.2235 130.107 11.2132 129.974V129.618C11.1521 129.453 11.082 129.292 11.0032 129.136C11.0032 128.968 10.8143 128.8 10.7093 128.632L10.4993 128.213L10.0373 127.878L9.61734 127.563L9.21837 127.333L8.7774 127.144H8.44142H7.87446H7.3705H6.59355L6.02659 127.312C5.75927 127.395 5.49939 127.5 5.24964 127.626L4.68268 127.878L4.19971 128.297L3.80074 128.695L3.63275 128.905L3.50676 129.031L3.27578 129.387C3.21988 129.452 3.17064 129.522 3.12879 129.597C3.12879 129.597 3.12879 129.744 3.12879 129.827C3.12879 129.911 3.0028 130.226 2.9608 130.414C2.9188 130.603 2.9608 130.603 2.9608 130.687C2.9608 130.771 2.9608 131.169 2.9608 131.4C2.9608 131.672 2.9608 131.945 2.9608 132.217C3.00007 132.388 3.04915 132.556 3.10779 132.72C3.10779 132.909 3.25478 133.077 3.33877 133.265L3.46476 133.475L3.61175 133.664C3.6834 133.746 3.76057 133.823 3.84274 133.894L4.32571 134.272L4.89267 134.607L5.62762 134.901L6.19458 135.068H6.55155L7.01352 135.194ZM4.72468 137.647C3.22217 137.259 1.90555 136.353 1.00793 135.089C0.291572 133.911 -0.0591475 132.546 2.54996e-06 131.169C0.0110798 130.175 0.278668 129.2 0.776949 128.339C0.913776 128.111 1.06823 127.893 1.23892 127.689C1.28664 127.541 1.36539 127.406 1.4699 127.291C2.3294 126.285 3.39676 125.477 4.59869 124.922C6.08585 124.272 7.74475 124.125 9.32336 124.503C10.0304 124.68 10.704 124.97 11.3182 125.362C12.0465 125.853 12.6638 126.491 13.1303 127.235C13.5969 127.979 13.9023 128.812 14.027 129.681C14.1233 130.697 14.0049 131.722 13.6793 132.69C13.3538 133.658 12.8284 134.547 12.1372 135.299C11.3078 136.292 10.238 137.057 9.02938 137.521C8.27555 137.795 7.47985 137.937 6.67754 137.94C6.01571 137.938 5.35774 137.84 4.72468 137.647Z" fill="#E3B773"/>
<path d="M156.376 23.3114H156.88L157.489 23.0599L158.182 22.7454C158.476 22.5987 158.749 22.431 159.022 22.2633C159.295 22.0955 159.778 21.7182 160.135 21.4037C160.492 21.0893 160.681 20.9006 160.933 20.6281C161.119 20.4115 161.288 20.1801 161.437 19.9363C161.584 19.7476 161.689 19.538 161.815 19.3493C161.941 19.1606 162.088 18.6994 162.214 18.364C162.32 18.063 162.404 17.7547 162.466 17.4416C162.466 17.1901 162.466 16.9595 162.466 16.7079C162.487 16.4778 162.487 16.2462 162.466 16.0161C162.476 15.8695 162.476 15.7224 162.466 15.5759L162.34 15.0727C162.34 14.8002 162.109 14.5277 161.983 14.2552C161.855 14.0105 161.715 13.7726 161.563 13.5424L161.08 12.9135C160.984 12.7935 160.879 12.6813 160.765 12.5781C160.571 12.4128 160.368 12.2588 160.156 12.1169L159.589 11.7815L158.812 11.446L158.287 11.2993L157.174 11.1526H156.229L155.179 11.2993H155.389C154.969 11.3832 154.549 11.488 154.129 11.6138C154.043 11.8168 153.904 11.9934 153.727 12.1259C153.55 12.2584 153.341 12.342 153.121 12.3684H153.268H153.079H152.953C152.708 12.4482 152.47 12.5463 152.24 12.6619L152.072 12.7668L151.736 13.0183L151.316 13.4376C151.171 13.6032 151.038 13.7783 150.917 13.9617C150.749 14.2132 150.602 14.4858 150.455 14.7583L150.14 15.513C150.036 15.8006 149.952 16.0947 149.888 16.3935C149.888 16.6241 149.888 16.8546 149.888 17.0852V17.6093C149.888 17.8609 149.888 18.0915 149.993 18.3431C150.098 18.5946 150.119 18.8672 150.203 19.1187C150.287 19.3703 150.518 19.8944 150.686 20.2508L151.127 21.0264L151.505 21.4876L151.757 21.7601C151.965 21.9325 152.182 22.0935 152.408 22.2423C152.66 22.41 152.911 22.5777 153.184 22.7245L153.877 23.0179L154.612 23.2276H155.2C155.515 23.3324 155.956 23.3324 156.376 23.3114ZM153.583 25.9738C152.102 25.6114 150.732 24.8916 149.594 23.8775C149.049 23.316 148.577 22.6893 148.187 22.0117C147.45 20.8391 146.997 19.5112 146.864 18.1334C146.781 16.6999 147.025 15.2662 147.578 13.9407C148.079 12.5646 148.969 11.363 150.14 10.4817C150.704 10.0812 151.349 9.80926 152.03 9.6851L152.912 9.32872C153.762 8.99941 154.651 8.78099 155.557 8.67885C157.644 8.38259 159.767 8.8438 161.542 9.97859C162.009 10.2674 162.44 10.6124 162.823 11.0058C163.181 11.4013 163.511 11.8216 163.81 12.2636C164.459 13.2031 164.883 14.279 165.049 15.4082C165.171 16.6194 165.028 17.8426 164.629 18.9929C164.423 19.679 164.141 20.34 163.789 20.9635C163.41 21.6009 162.966 22.198 162.466 22.7454C161.661 23.6761 160.728 24.4878 159.694 25.1562C158.519 25.8773 157.168 26.2617 155.788 26.2673H155.536C154.877 26.2322 154.223 26.1339 153.583 25.9738Z" fill="#E3B773"/>
<path d="M11.4232 69.1379C12.6061 69.1379 13.5651 68.1806 13.5651 66.9996C13.5651 65.8187 12.6061 64.8613 11.4232 64.8613C10.2403 64.8613 9.28136 65.8187 9.28136 66.9996C9.28136 68.1806 10.2403 69.1379 11.4232 69.1379Z" fill="#E3B773"/>
<path d="M9.30236 178.107C11.1811 178.107 12.7041 176.586 12.7041 174.711C12.7041 172.835 11.1811 171.314 9.30236 171.314C7.42362 171.314 5.9006 172.835 5.9006 174.711C5.9006 176.586 7.42362 178.107 9.30236 178.107Z" fill="#E3B773"/>
<path d="M65.4315 117.794C65.4273 117.474 65.5186 117.16 65.6937 116.892C65.8688 116.624 66.1199 116.414 66.4149 116.288C66.71 116.163 67.0357 116.128 67.3508 116.188C67.6658 116.248 67.9558 116.4 68.1841 116.625C68.4123 116.849 68.5684 117.137 68.6325 117.451C68.6966 117.764 68.6658 118.09 68.5441 118.386C68.4224 118.682 68.2152 118.936 67.9488 119.114C67.6825 119.292 67.3691 119.388 67.0484 119.388C66.6248 119.382 66.2198 119.213 65.9183 118.916C65.6168 118.619 65.4423 118.217 65.4315 117.794Z" fill="#25262B"/>
<path d="M24.7153 133.538C24.7208 133.091 24.9025 132.665 25.2208 132.351C25.5392 132.037 25.9687 131.861 26.4162 131.861C26.6368 131.861 26.8552 131.904 27.059 131.988C27.2629 132.073 27.448 132.196 27.604 132.352C27.76 132.508 27.8838 132.693 27.9682 132.896C28.0526 133.1 28.0961 133.318 28.0961 133.538C28.0961 133.985 27.9198 134.413 27.6053 134.731C27.2909 135.049 26.8636 135.23 26.4162 135.236C25.9668 135.231 25.5373 135.05 25.2195 134.733C24.9017 134.415 24.7207 133.987 24.7153 133.538Z" fill="#E3B773"/>
<path d="M164.377 37.1265C164.381 36.634 164.531 36.1538 164.808 35.7463C165.085 35.3389 165.477 35.0224 165.934 34.8368C166.391 34.6512 166.892 34.6047 167.376 34.7034C167.859 34.802 168.302 35.0412 168.65 35.3909C168.997 35.7406 169.233 36.1851 169.328 36.6685C169.423 37.1518 169.372 37.6523 169.182 38.1069C168.992 38.5616 168.672 38.95 168.262 39.2232C167.851 39.4964 167.369 39.6421 166.876 39.6422C166.213 39.6312 165.58 39.362 165.113 38.892C164.646 38.422 164.382 37.7884 164.377 37.1265Z" fill="#25262B"/>
<path d="M178.299 24.0662C178.295 23.4849 178.463 22.9154 178.784 22.43C179.104 21.9446 179.562 21.5652 180.099 21.3398C180.636 21.1145 181.227 21.0533 181.799 21.1642C182.371 21.2751 182.897 21.5529 183.31 21.9625C183.723 22.3721 184.005 22.895 184.12 23.4649C184.235 24.0348 184.178 24.626 183.957 25.1635C183.735 25.701 183.358 26.1606 182.874 26.484C182.39 26.8075 181.821 26.9801 181.239 26.9802C180.464 26.9748 179.723 26.6667 179.173 26.122C178.624 25.5772 178.31 24.8393 178.299 24.0662Z" fill="#25262B"/>
<path d="M211.77 86.328C211.766 85.9614 211.872 85.6019 212.073 85.2953C212.275 84.9888 212.563 84.7491 212.901 84.6068C213.24 84.4646 213.613 84.4263 213.974 84.4968C214.334 84.5674 214.665 84.7435 214.925 85.0027C215.185 85.262 215.361 85.5926 215.432 85.9524C215.502 86.3122 215.464 86.6849 215.321 87.0228C215.179 87.3607 214.939 87.6486 214.632 87.8497C214.325 88.0508 213.965 88.156 213.597 88.1519C213.115 88.1464 212.653 87.9525 212.312 87.6117C211.97 87.2708 211.776 86.8101 211.77 86.328Z" fill="#E3B773"/>
<path d="M133.551 3.68981C133.527 3.49525 133.544 3.29779 133.602 3.11052C133.66 2.92325 133.758 2.75044 133.888 2.60354C134.018 2.45665 134.178 2.33902 134.357 2.25846C134.536 2.17789 134.73 2.13623 134.926 2.13623C135.123 2.13623 135.317 2.17789 135.496 2.25846C135.675 2.33902 135.835 2.45665 135.965 2.60354C136.095 2.75044 136.192 2.92325 136.25 3.11052C136.308 3.29779 136.326 3.49525 136.302 3.68981C136.26 4.02477 136.097 4.33302 135.844 4.55654C135.591 4.78005 135.264 4.90342 134.926 4.90342C134.588 4.90342 134.262 4.78005 134.008 4.55654C133.755 4.33302 133.592 4.02477 133.551 3.68981Z" fill="#25262B"/>
<path d="M66.4184 227.581C66.1416 227.267 65.8822 226.938 65.6415 226.596L64.8855 225.568L62.9957 222.864C61.6308 221.019 60.2239 219.216 58.796 217.393C57.3681 215.569 55.7722 213.388 54.2393 211.397L49.4306 205.108C46.2808 201.027 43.236 196.834 40.2962 192.53L35.6976 186.241C34.1857 184.144 32.7578 181.88 31.3089 179.679C29.86 177.478 28.6 175.486 27.3191 173.222C26.7102 172.174 26.0802 171.126 25.5133 170.015L25.1983 169.113C24.9311 169.011 24.7015 168.83 24.5402 168.594C24.3788 168.358 24.2934 168.078 24.2953 167.793C24.3096 167.175 24.3657 166.558 24.4633 165.948L24.6523 164.397C24.7783 163.39 24.9043 162.3 25.0093 161.42C25.1143 160.539 25.2613 159.198 25.4293 158.087C25.5972 156.975 25.7442 155.99 25.9122 154.795C26.0802 153.6 26.3112 152.133 26.5632 150.812C26.6892 150.204 26.8152 149.575 26.9832 148.988C27.0404 148.723 27.1396 148.468 27.2771 148.234C27.3819 148.047 27.5461 147.9 27.7439 147.816C27.9416 147.733 28.1616 147.717 28.3691 147.772H28.474C28.586 147.601 28.7283 147.452 28.894 147.332C29.2794 147.049 29.6867 146.797 30.1119 146.578C31.1829 145.991 32.2118 145.487 33.4297 145.005C35.8235 143.936 38.2594 142.909 40.6952 142.007L48.0027 139.01L55.5832 135.949C58.082 134.964 60.6018 134.02 63.1217 133.077C65.6415 132.134 68.2453 131.169 70.8281 130.247C73.411 129.324 75.8468 128.444 78.3456 127.501L86.0941 124.503L93.5696 121.589C96.1104 120.583 98.6512 119.597 101.15 118.528C106.19 116.432 111.208 114.336 116.227 112.071C121.246 109.807 125.991 107.984 130.821 105.992C135.651 104 140.417 102.177 145.226 100.29L151.043 97.9839L153.667 96.9567L156.523 95.8666C156.771 95.7706 157.044 95.7597 157.299 95.8356C157.553 95.9115 157.776 96.0699 157.93 96.2859C158.079 96.2291 158.24 96.2109 158.398 96.2329C158.556 96.2549 158.705 96.3164 158.833 96.4117C158.98 96.5466 159.108 96.7019 159.211 96.8728C159.353 97.0842 159.507 97.2872 159.673 97.4808L160.618 98.7386C161.311 99.6191 161.962 100.521 162.718 101.401C164.083 103.183 165.427 104.965 166.729 106.789C168.87 109.765 170.97 112.77 173.028 115.803V115.677L173.616 116.537V116.39C174.015 116.956 174.393 117.543 174.771 118.109C174.778 118.06 174.778 118.011 174.771 117.962C174.96 118.235 175.149 118.507 175.317 118.78L175.59 119.199C175.646 119.264 175.695 119.334 175.737 119.409V119.555C175.743 119.611 175.743 119.667 175.737 119.723L175.842 119.849L176.094 120.247C176.104 120.303 176.104 120.36 176.094 120.415V120.541L176.283 120.813V120.687L176.43 120.897L176.577 121.149C179.097 124.859 181.617 128.591 184.22 132.238L188.189 137.752C189.449 139.492 190.772 141.211 192.074 142.93C194.531 146.116 197.029 149.219 199.444 152.489L200.221 153.537C200.459 153.83 200.677 154.138 200.872 154.46C200.97 154.648 201.021 154.856 201.021 155.068C201.021 155.279 200.97 155.488 200.872 155.676C201.057 156.119 201.129 156.602 201.082 157.08C201.082 157.646 201.082 158.233 201.082 158.82C201.082 160.036 201.082 161.252 201.082 162.447C201.082 163.642 201.082 164.774 201.082 165.927C201.082 167.08 201.082 168.149 201.082 169.239C201.082 169.7 201.082 170.162 201.082 170.623C201.082 170.916 201.082 171.21 201.082 171.524V171.671C201.254 171.973 201.301 172.329 201.215 172.665C201.129 173.001 200.916 173.291 200.62 173.474L199.843 173.851C199.087 174.228 198.352 174.669 197.617 175.088L194.531 176.786C192.431 177.981 190.184 179.176 187.979 180.287C185.774 181.398 183.149 182.698 180.672 183.788C178.194 184.878 175.8 185.884 173.343 186.932C168.282 189.029 163.159 190.999 158.014 192.907C152.869 194.815 147.515 196.639 142.202 198.609C139.619 199.573 137.079 200.559 134.517 201.565C131.955 202.571 129.225 203.661 126.6 204.772L118.81 208.085L111.229 211.313C108.689 212.403 106.127 213.409 103.565 214.5C101.003 215.59 98.3572 216.596 95.7324 217.413L93.8216 218.084H93.9685L93.4016 218.273H93.5276L92.6666 218.566H92.8136L91.9737 218.86H92.1207L91.3647 219.132L90.9028 219.3L86.703 220.789C85.4221 221.25 84.1412 221.753 82.8603 222.277C80.3405 223.325 77.8627 224.373 75.3638 225.547C73.6629 226.281 71.9201 226.973 70.1562 227.644C69.8933 227.833 69.5775 227.936 69.2532 227.937H69.0433H68.6653L68.4343 228.168C68.1636 228.358 67.8412 228.46 67.5104 228.461C67.2693 228.417 67.043 228.313 66.8523 228.16C66.6616 228.006 66.5125 227.807 66.4184 227.581Z" fill="#E3B773"/>
<path d="M73.7889 199.406C72.676 198.022 71.5631 196.618 70.4712 195.213C69.3792 193.809 68.1193 192.069 66.9644 190.475C65.8095 188.882 64.5286 187.1 63.3316 185.381C62.1347 183.662 60.8958 181.629 59.6149 179.763C58.334 177.897 57.2841 176.283 56.1501 174.522C55.0162 172.761 53.7983 170.832 52.6014 168.988L50.6485 166.095L50.5225 165.906L48.4227 162.845C47.1838 161.021 45.9448 159.198 44.7479 157.353C44.181 156.472 43.656 155.592 43.173 154.67C42.6901 153.747 42.3331 153.034 41.9971 152.259C41.9462 152.158 41.904 152.052 41.8711 151.944C41.8541 151.854 41.8541 151.762 41.8711 151.672V151.462C41.8083 151.264 41.8083 151.052 41.8711 150.854C41.9761 150.414 42.4171 150.225 42.7951 150.058L44.223 149.471L47.1208 148.38C48.1077 148.003 49.1156 147.647 50.1026 147.248L53.1473 146.033C57.3471 144.355 61.6938 142.783 65.9355 141.106C70.1772 139.429 74.3349 137.773 78.4296 136.18C80.5295 135.362 82.6293 134.503 84.7292 133.664C86.829 132.825 88.9289 131.966 90.9238 131.065C92.9186 130.163 94.7875 129.345 96.6984 128.423L99.7432 126.935L102.935 125.467C105.035 124.503 107.135 123.643 109.235 122.742C111.334 121.841 113.434 121.002 115.534 120.163C119.734 118.465 124.122 116.914 128.427 115.3C130.296 114.587 132.165 113.916 134.055 113.204C135.945 112.491 137.772 111.82 139.64 111.107H139.493L140.165 110.856H140.018L140.669 110.625H140.522L143.042 109.745H143.273H143.42C146.15 108.801 148.943 107.942 151.694 107.019C151.991 106.942 152.308 106.984 152.575 107.137C152.842 107.29 153.038 107.541 153.121 107.837C153.132 107.92 153.132 108.005 153.121 108.088C153.436 108.424 153.73 108.78 154.024 109.158L155.977 111.464C157.342 113.12 158.686 114.797 160.009 116.516C161.332 118.235 162.718 120.017 164.062 121.799C164.713 122.637 165.343 123.497 165.973 124.356L168.072 127.06C169.374 128.821 170.676 130.561 171.957 132.343C173.238 134.125 174.519 135.97 175.842 137.752C177.165 139.534 178.362 141.106 179.643 142.762L183.275 147.542C183.842 148.297 184.43 149.03 185.06 149.638L185.837 150.498L186.509 151.273C186.576 151.334 186.633 151.404 186.677 151.483C186.881 151.707 186.994 151.998 186.994 152.301C186.994 152.603 186.881 152.894 186.677 153.118C186.617 153.185 186.546 153.242 186.467 153.286C186.48 153.517 186.423 153.747 186.303 153.945C186.183 154.143 186.006 154.301 185.795 154.397L184.976 154.67C183.275 155.256 181.617 155.948 179.937 156.64L174.435 158.862L167.988 161.42C165.889 162.237 163.789 163.076 161.689 163.956C157.489 165.675 153.457 167.457 149.279 169.134L142.979 171.671L136.491 174.291C132.291 176.01 127.944 177.729 123.64 179.365C121.54 180.182 119.44 181 117.34 181.775L110.872 184.165C108.773 184.962 106.526 185.779 104.384 186.639L101.15 187.939C100.037 188.379 99.0502 188.861 97.8743 189.322L94.4935 190.769L91.3017 192.194L85.0022 195.087C83.1333 195.968 81.2854 196.848 79.4375 197.771C78.5346 198.211 77.6317 198.672 76.6867 199.049C76.3736 199.197 76.0509 199.323 75.7208 199.427C75.6467 199.545 75.5546 199.651 75.4478 199.741C75.2297 199.905 74.9645 199.993 74.6919 199.993C74.5077 199.966 74.3315 199.9 74.1756 199.799C74.0196 199.697 73.8877 199.563 73.7889 199.406Z" fill="#25262B"/>
<path d="M70.5132 209.741C70.2192 209.364 69.9672 208.965 69.6732 208.588C69.3792 208.211 68.9383 207.666 68.5603 207.225C67.6784 206.135 66.7754 205.129 65.9145 203.997C65.0535 202.865 64.2556 201.901 63.4366 200.81C62.6177 199.72 61.6518 198.4 60.7698 197.205C58.985 194.815 57.2421 192.404 55.5622 189.93V190.035L53.6723 187.184L53.5673 187.016L53.2943 186.576L51.3415 183.683L51.2365 183.516L51.0265 183.201C49.7666 181.356 48.5487 179.511 47.3308 177.667C45.5459 175.025 43.677 172.447 41.8711 169.847C40.9682 168.506 40.0653 167.185 39.1413 165.864C38.2174 164.543 37.3354 163.244 36.4535 161.923L35.0676 159.827C34.3326 158.716 33.5767 157.625 32.7998 156.535C32.0228 155.445 31.3089 154.439 30.5739 153.37L30.0069 152.531L28.873 150.938C28.579 150.561 28.0541 149.932 28.4531 149.45C28.534 149.349 28.6425 149.273 28.7654 149.232C28.8883 149.191 29.0205 149.187 29.146 149.219C29.419 149.219 29.629 149.575 29.797 149.785C29.9649 149.995 30.2379 150.351 30.4689 150.645C30.9099 151.253 31.3299 151.902 31.7708 152.531L34.4586 156.368C35.0256 157.164 35.5716 157.982 36.1175 158.778V158.904L37.7974 161.252L38.0074 161.567L38.2384 161.881C40.0443 164.523 41.8291 167.185 43.677 169.826C45.5249 172.468 47.3728 175.004 49.1786 177.646L49.6826 178.358L49.9556 178.757L51.6355 181.23C53.0214 183.327 54.4073 185.255 55.8352 187.289C55.8715 187.373 55.9212 187.451 55.9822 187.52L56.1082 187.708V187.834C57.872 190.454 59.6779 193.012 61.5468 195.549C62.4077 196.723 63.2687 197.918 64.1506 199.07C65.0325 200.223 65.9145 201.376 66.8174 202.509L69.3372 205.653L71.3951 208.106C71.5421 208.294 71.7101 208.483 71.8571 208.693C71.9942 208.872 72.0556 209.097 72.0281 209.32C72.0006 209.544 71.8865 209.747 71.7101 209.888C71.5598 210.002 71.3743 210.062 71.1851 210.055C71.0567 210.056 70.9297 210.029 70.8135 209.974C70.6972 209.92 70.5946 209.84 70.5132 209.741Z" fill="#25262B"/>
<path d="M72.0671 210.412C71.9117 210.394 71.7671 210.324 71.6565 210.214C71.5459 210.103 71.476 209.959 71.4581 209.804C71.4181 209.688 71.4181 209.563 71.4581 209.447C71.5188 209.338 71.6053 209.244 71.7101 209.175H71.8571H72.1511C72.571 209.007 73.012 208.881 73.432 208.735L76.2668 207.54L79.1226 206.575C80.1095 206.24 81.2224 205.926 82.1044 205.569H81.9994L82.5453 205.381C85.0022 204.521 87.459 203.599 89.8948 202.676L97.3703 199.909C102.221 198.127 107.051 196.303 111.859 194.375C116.668 192.446 121.414 190.182 126.117 187.897C130.821 185.612 135.609 183.327 140.438 181.272C142.895 180.224 145.331 179.176 147.788 178.212C150.245 177.247 152.681 176.241 155.137 175.298C160.093 173.432 165.028 171.608 169.962 169.7C172.356 168.799 174.708 167.772 177.039 166.703C179.37 165.634 181.512 164.606 183.716 163.495C184.493 163.118 185.27 162.762 186.026 162.363L191.549 159.575L196.421 157.227C196.637 157.145 196.876 157.145 197.092 157.227C197.308 157.296 197.493 157.437 197.617 157.625C197.7 157.842 197.7 158.08 197.617 158.296C197.584 158.424 197.521 158.541 197.433 158.639C197.346 158.738 197.236 158.814 197.113 158.862L195.14 159.827C193.04 160.854 190.94 161.923 189.008 163.013C187.076 164.103 184.43 165.382 182.121 166.493C179.811 167.604 177.606 168.589 175.338 169.68C173.07 170.77 170.508 171.776 168.072 172.656L160.933 175.403C158.455 176.346 155.956 177.268 153.478 178.233L146.045 181.168L142.538 182.383L138.947 183.914C136.554 184.962 134.16 186.01 131.787 187.184L124.626 190.769C122.254 191.88 119.86 192.97 117.466 194.018C115.072 195.066 112.678 196.115 110.242 197.016C105.413 198.903 100.562 200.734 95.6904 202.509L88.2989 205.255C87.06 205.716 85.8211 206.177 84.5822 206.596L80.9494 207.791L75.3428 209.573L72.823 210.37C72.6063 210.444 72.3799 210.486 72.1511 210.496L72.0671 210.412Z" fill="#25262B"/>
<path d="M68.1613 216.26C67.6784 215.694 67.2584 215.086 66.7964 214.52L65.4105 212.822C64.4236 211.606 63.4367 210.391 62.4917 209.154L59.4259 205.129C58.418 203.829 57.3261 202.529 56.4021 201.229C55.4782 199.93 54.3023 198.441 53.3363 197.037L50.3965 192.865C49.3256 191.377 48.2967 189.867 47.2678 188.358L47.1418 188.19L44.097 183.725C43.152 182.32 42.1861 180.895 41.2622 179.532L38.3014 175.004L35.4036 170.665L32.4638 166.262C31.4768 164.816 30.4899 163.348 29.545 161.881C29.293 161.462 29.02 161.042 28.747 160.644L28.558 160.33L27.9911 159.491C27.778 159.256 27.665 158.948 27.6761 158.631C27.6976 158.472 27.771 158.324 27.8848 158.211C27.9986 158.097 28.1466 158.024 28.3061 158.003C28.4405 157.983 28.5778 158 28.7034 158.051C28.829 158.103 28.9384 158.188 29.02 158.296C29.272 158.652 29.566 158.967 29.818 159.323C30.0699 159.68 30.4269 160.204 30.7209 160.665L32.4848 163.369L32.7158 163.726V163.851C32.7974 163.94 32.8679 164.039 32.9257 164.145C33.9127 165.591 34.8576 167.059 35.8235 168.505C36.7895 169.952 37.7764 171.461 38.7633 172.929C40.3382 175.298 41.9131 177.666 43.509 180.014L46.2808 184.207L47.9817 186.744L48.1287 186.974V187.121C50.0816 190.014 52.1184 192.844 54.1763 195.653C55.1842 197.037 56.2761 198.42 57.2421 199.846C58.208 201.271 59.3419 202.508 60.3499 203.829C62.3447 206.387 64.2766 208.986 66.2925 211.523C66.7754 212.131 67.2584 212.739 67.7624 213.325L68.5813 214.332C68.8333 214.625 69.1063 214.94 69.3372 215.254C69.4386 215.387 69.5008 215.546 69.5169 215.713C69.5329 215.88 69.5021 216.047 69.428 216.198C69.3539 216.348 69.2394 216.474 69.0972 216.563C68.9551 216.652 68.791 216.7 68.6233 216.701C68.4218 216.613 68.258 216.457 68.1613 216.26Z" fill="#25262B"/>
<path d="M65.9355 221.606C65.6835 221.291 65.4735 220.977 65.2425 220.663L64.4866 219.656L63.2267 217.916L60.3289 214.017C59.3419 212.696 58.229 211.418 57.2841 210.118C56.3391 208.818 55.1842 207.435 54.0923 206.072L50.8375 201.879C49.7246 200.517 48.6327 199.133 47.5617 197.686C45.4619 194.877 43.362 192.068 41.2622 189.154L39.6033 186.702C39.3513 186.324 39.0993 185.926 38.8683 185.528C38.6342 185.178 38.4966 184.773 38.4694 184.354C38.4673 184.194 38.5174 184.038 38.6121 183.909C38.7069 183.781 38.8411 183.686 38.9943 183.641C39.1517 183.595 39.3199 183.604 39.4721 183.664C39.6243 183.725 39.7518 183.835 39.8343 183.976L39.9393 184.165L40.2122 184.647L40.8212 185.591L40.9262 185.779C42.8791 188.651 44.9579 191.46 47.0578 194.165C49.1576 196.869 51.4045 199.72 53.5883 202.55C54.6593 203.892 55.6882 205.254 56.7801 206.617C57.872 207.98 58.88 209.237 59.9089 210.537C60.9378 211.837 62.0087 213.137 62.9957 214.457C63.9826 215.778 64.8016 216.91 65.7255 218.126L66.5234 219.195C66.7964 219.552 67.0694 219.887 67.3214 220.243C67.3964 220.339 67.4516 220.449 67.4837 220.567C67.5159 220.685 67.5244 220.807 67.5088 220.928C67.4932 221.049 67.4537 221.166 67.3927 221.271C67.3317 221.377 67.2504 221.469 67.1534 221.543C66.997 221.664 66.8052 221.73 66.6074 221.732C66.3756 221.773 66.1366 221.728 65.9355 221.606Z" fill="#25262B"/>
<path d="M69.9042 216.323C70.2753 216.323 70.5761 216.023 70.5761 215.652C70.5761 215.282 70.2753 214.981 69.9042 214.981C69.5331 214.981 69.2322 215.282 69.2322 215.652C69.2322 216.023 69.5331 216.323 69.9042 216.323Z" fill="#25262B"/>
<path d="M69.5052 216.533C69.4186 216.499 69.3398 216.447 69.2736 216.382C69.2074 216.316 69.1551 216.238 69.1198 216.152C69.0845 216.066 69.067 215.974 69.0682 215.881C69.0695 215.788 69.0896 215.696 69.1272 215.611C69.2459 215.382 69.4494 215.209 69.6942 215.128L70.4082 214.856L72.193 214.206L75.6368 212.969L75.9938 212.843C79.1646 211.732 82.2933 210.558 85.4221 209.405L91.1127 207.309L91.7637 207.078L92.2677 206.911L92.8766 206.701H92.3937H92.6036L93.0866 206.554L97.7903 204.877C99.3652 204.311 100.94 203.724 102.494 203.116L107.093 201.397L111.838 199.469L116.605 197.561L121.288 195.695C124.374 194.458 127.587 193.347 130.611 192.131C132.144 191.544 133.656 190.915 135.147 190.287L139.871 188.337C141.971 187.498 144.071 186.702 146.024 185.884C146.236 185.8 146.473 185.8 146.684 185.886C146.896 185.972 147.065 186.137 147.158 186.345C147.203 186.45 147.226 186.562 147.227 186.676C147.228 186.79 147.207 186.902 147.164 187.008C147.121 187.113 147.057 187.209 146.977 187.289C146.897 187.37 146.801 187.434 146.696 187.477C143.588 188.693 140.396 189.972 137.415 191.251L132.837 193.159L128.196 194.961L123.514 196.701L118.831 198.567L114.169 200.433L109.297 202.404L104.615 204.248L99.8481 206.051C97.3703 206.953 94.8925 207.812 92.3937 208.672L91.9737 208.818L89.3699 209.72C86.1361 210.852 82.9443 212.047 79.7315 213.2L78.8286 213.535L78.4506 213.661L77.3377 214.059L74.7969 214.982L72.34 215.799L70.7441 216.365C70.526 216.447 70.3012 216.511 70.0722 216.554C69.94 216.574 69.8054 216.574 69.6732 216.554C69.6166 216.554 69.5601 216.547 69.5052 216.533Z" fill="#25262B"/>
<path d="M152.051 184.228C152.01 184.143 151.988 184.05 151.988 183.956C151.988 183.861 152.01 183.768 152.051 183.683C152.147 183.476 152.309 183.306 152.513 183.201C152.827 183.012 153.184 182.845 153.52 182.677C154.213 182.342 154.948 182.027 155.62 181.713L160.114 179.826C163.152 178.526 166.211 177.247 169.29 175.99C172.37 174.732 175.38 173.474 178.32 172.216L182.813 170.287C184.304 169.638 185.816 169.03 187.307 168.401L189.281 167.583C189.384 167.522 189.499 167.484 189.618 167.472C189.737 167.459 189.857 167.472 189.971 167.509C190.084 167.546 190.188 167.607 190.276 167.688C190.364 167.769 190.434 167.868 190.481 167.978C190.528 168.087 190.55 168.206 190.548 168.325C190.545 168.445 190.516 168.562 190.464 168.67C190.412 168.777 190.338 168.873 190.246 168.949C190.154 169.026 190.047 169.082 189.932 169.113L185.417 171.021L180.966 172.908L176.388 174.858L171.873 176.723L162.634 180.539L158.245 182.383C156.775 182.991 155.284 183.599 153.814 184.249C153.516 184.396 153.207 184.523 152.89 184.627H152.723C152.583 184.638 152.443 184.606 152.323 184.535C152.202 184.464 152.107 184.356 152.051 184.228Z" fill="#25262B"/>
<path d="M72.802 221.501C72.7171 221.343 72.6896 221.161 72.724 220.985C72.7585 220.81 72.8528 220.651 72.991 220.537L73.4949 220.118C76.3717 218.671 79.3535 217.413 82.2933 216.114C85.2331 214.814 88.4249 213.577 91.5117 212.403C94.5985 211.229 97.5593 210.16 100.583 209.07L106.337 206.973C106.433 206.929 106.537 206.905 106.643 206.902C106.749 206.899 106.854 206.918 106.952 206.957C107.051 206.996 107.14 207.055 107.215 207.13C107.289 207.205 107.348 207.294 107.387 207.393C107.471 207.59 107.475 207.813 107.396 208.013C107.318 208.213 107.163 208.375 106.967 208.462L97.6643 211.774C94.5985 212.864 91.5537 214.038 88.5089 215.233C86.955 215.862 85.3801 216.47 83.8262 217.141C82.2723 217.812 80.8864 218.42 79.4165 219.09L76.2878 220.495L74.8389 221.166L74.1669 221.48C73.958 221.589 73.7402 221.68 73.5159 221.753H73.4949C73.3676 221.771 73.2376 221.758 73.1167 221.714C72.9957 221.67 72.8876 221.597 72.802 221.501Z" fill="#25262B"/>
<path d="M122.569 202.488C122.43 202.467 122.3 202.407 122.196 202.314C122.091 202.221 122.016 202.099 121.981 201.963C121.956 201.835 121.964 201.702 122.004 201.577C122.045 201.453 122.116 201.34 122.212 201.251C122.487 200.997 122.798 200.785 123.136 200.622C123.85 200.244 124.584 199.909 125.235 199.595C126.705 198.987 128.217 198.421 129.708 197.834L134.391 195.989L138.59 194.186L147.494 190.454C150.455 189.197 153.415 188.002 156.376 186.744L160.912 184.794L165.28 182.97L169.752 181.147C171.243 180.56 172.713 179.931 174.183 179.302L178.677 177.394C180.105 176.765 181.554 176.157 183.023 175.549L187.475 173.663C187.572 173.603 187.682 173.565 187.795 173.551C187.908 173.536 188.024 173.547 188.133 173.581C188.242 173.615 188.342 173.672 188.427 173.749C188.512 173.825 188.58 173.919 188.625 174.023C188.671 174.128 188.693 174.241 188.691 174.355C188.689 174.469 188.663 174.582 188.613 174.685C188.564 174.788 188.493 174.879 188.405 174.952C188.318 175.025 188.215 175.079 188.105 175.109L183.59 177.017L179.244 178.841C176.283 180.119 173.322 181.398 170.319 182.614C168.849 183.222 167.359 183.809 165.889 184.438L161.479 186.283L156.964 188.211L152.408 190.119L148.082 191.922L143.546 193.809C140.627 195.025 137.688 196.198 134.748 197.393C133.257 198.022 131.766 198.651 130.254 199.238C128.742 199.825 127.272 200.391 125.802 201.02C125.046 201.335 124.29 201.691 123.556 202.047C123.346 202.147 123.142 202.259 122.947 202.383C122.828 202.479 122.68 202.531 122.527 202.529L122.569 202.488Z" fill="#25262B"/>
<path d="M68.4763 181.628C68.2214 181.472 68.0374 181.223 67.963 180.933C67.8886 180.644 67.9295 180.337 68.0773 180.077C68.2453 179.763 68.4553 179.469 68.6233 179.155L69.2952 178.19L70.6811 175.822C71.5631 174.291 72.424 172.74 73.285 171.21C74.1459 169.679 74.9859 168.317 75.7418 166.807C76.0378 166.22 76.3042 165.618 76.5397 165.004C76.5397 164.837 76.5397 164.669 76.6867 164.522C76.8337 164.375 76.6867 164.25 76.6867 164.124V163.726H76.4977C75.6841 163.592 74.864 163.501 74.0409 163.453L71.2901 163.222C69.3792 163.013 67.4894 162.656 65.5995 162.3C64.4026 162.069 63.2057 161.776 62.0297 161.441C61.4418 161.273 60.8748 161.063 60.3079 160.854C59.8864 160.716 59.4842 160.526 59.1109 160.288C58.9574 160.186 58.8427 160.035 58.7856 159.86C58.7284 159.685 58.7321 159.496 58.796 159.323C58.8689 159.166 58.9889 159.035 59.1393 158.949C59.2897 158.863 59.4632 158.825 59.6359 158.841C59.9299 158.841 60.2029 158.967 60.4968 159.03L61.7778 159.365C62.6387 159.575 63.4996 159.805 64.3606 159.973H64.6336H64.5076C66.2924 160.329 68.0983 160.644 69.9252 160.874L72.508 161.147C73.369 161.147 74.2509 161.336 75.1328 161.399H76.3088C76.9475 161.421 77.5667 161.624 78.0936 161.986C78.5397 162.467 78.824 163.075 78.9068 163.725C78.9896 164.375 78.8668 165.035 78.5556 165.612C78.2372 166.51 77.8438 167.38 77.3797 168.212C76.9597 169.008 76.4977 169.763 76.0568 170.539C75.1328 172.132 74.2089 173.746 73.306 175.381C72.403 177.016 71.6471 178.4 70.7861 179.888C70.5342 180.35 70.3032 180.832 70.0302 181.272C69.8767 181.53 69.6286 181.718 69.3385 181.796C69.0483 181.875 68.739 181.837 68.4763 181.691V181.628Z" fill="#FFF6C4"/>
<path d="M80.7815 178.19C80.5126 178.075 80.3002 177.858 80.1902 177.588C80.0801 177.317 80.0813 177.014 80.1935 176.744C80.4455 176.22 80.6975 175.696 80.9704 175.193L82.0834 172.866C82.4823 172.006 82.8813 171.168 83.2593 170.308C84.0572 168.568 84.8972 166.849 85.6741 165.088C86.1151 164.103 86.5351 162.992 86.913 162.069C86.913 161.734 87.102 161.419 87.186 161.084C87.27 160.749 87.186 160.434 87.333 160.12V159.491V159.051V158.799C87.333 158.799 87.333 158.694 87.333 158.631V158.526H87.207H87.018L86.745 158.401C86.386 158.297 86.0214 158.213 85.6531 158.149H85.8001C84.9182 157.96 84.0152 157.814 83.1333 157.667C82.2514 157.52 81.2434 157.311 80.2985 157.101C78.4716 156.682 76.6447 156.22 74.8389 155.654L70.3032 154.187C69.5262 153.915 68.7493 153.684 67.9933 153.369C67.6828 153.251 67.3811 153.111 67.0904 152.95C66.9465 152.859 66.8246 152.737 66.7334 152.594C66.6506 152.452 66.6161 152.288 66.635 152.126C66.654 151.963 66.7254 151.811 66.8384 151.692C67.0065 151.572 67.2022 151.495 67.4077 151.47C67.6131 151.444 67.8216 151.47 68.0143 151.546L69.2742 151.86L71.8361 152.657L74.3769 153.411L77.0227 154.124C78.4086 154.481 79.7945 154.816 81.2224 155.109H81.0964L82.9863 155.487L84.6662 155.843H84.5402H84.7292L85.9681 156.053C86.4709 156.118 86.9689 156.216 87.459 156.346C88.2642 156.539 88.9683 157.025 89.4329 157.709C89.7347 158.229 89.9209 158.808 89.9788 159.407C90.0612 160.431 89.9545 161.461 89.6638 162.447C89.228 163.322 88.737 164.17 88.1939 164.983C87.417 166.765 86.5561 168.526 85.7161 170.287L83.3853 175.193C82.9863 175.989 82.6503 176.807 82.2724 177.624C82.1858 177.825 82.042 177.995 81.859 178.114C81.6761 178.234 81.462 178.297 81.2434 178.295C81.0833 178.297 80.9249 178.261 80.7815 178.19Z" fill="#FFF6C4"/>
<path d="M65.3055 167.813C65.322 167.439 65.4485 167.078 65.6692 166.775C65.8899 166.472 66.195 166.241 66.5464 166.11C66.8979 165.979 67.2803 165.954 67.6458 166.039C68.0112 166.123 68.3437 166.314 68.6017 166.585C68.8598 166.857 69.0319 167.199 69.0967 167.568C69.1615 167.937 69.1161 168.317 68.9661 168.66C68.8161 169.003 68.5683 169.295 68.2534 169.499C67.9385 169.702 67.5706 169.809 67.1954 169.805C66.939 169.802 66.6858 169.748 66.4507 169.646C66.2157 169.544 66.0037 169.395 65.8273 169.209C65.651 169.024 65.5139 168.804 65.4243 168.564C65.3346 168.325 65.2942 168.069 65.3055 167.813Z" fill="#FFF6C4"/>
<path d="M91.5957 154.984C91.5958 154.809 91.6481 154.638 91.7459 154.492C91.8438 154.347 91.9828 154.234 92.1452 154.168C92.3076 154.102 92.4859 154.086 92.6576 154.122C92.8292 154.158 92.9863 154.244 93.1087 154.369C93.2312 154.494 93.3135 154.653 93.3451 154.825C93.3767 154.997 93.3563 155.175 93.2863 155.335C93.2163 155.496 93.1 155.632 92.9522 155.726C92.8044 155.82 92.6319 155.868 92.4566 155.864C92.2264 155.859 92.0074 155.764 91.8466 155.599C91.6857 155.434 91.5956 155.214 91.5957 154.984Z" fill="#FFF6C4"/>
<path d="M144.113 160.497C142.391 157.374 140.732 154.208 138.968 151.084C138.444 150.12 137.877 149.135 137.331 148.191C137.037 147.667 136.743 147.164 136.47 146.619C136.197 146.074 135.882 145.278 136.47 144.858C136.6 144.772 136.754 144.726 136.911 144.726C137.067 144.726 137.221 144.772 137.352 144.858C137.666 145.126 137.923 145.454 138.108 145.823C138.36 146.2 138.612 146.598 138.842 146.997C139.325 147.73 139.766 148.506 140.207 149.261C141.11 150.77 141.95 152.321 142.79 153.873L144.281 156.619L145.856 159.428C145.924 159.545 145.968 159.674 145.985 159.808C146.003 159.942 145.994 160.078 145.959 160.209C145.924 160.339 145.863 160.461 145.781 160.568C145.698 160.675 145.595 160.765 145.478 160.833C145.329 160.931 145.153 160.983 144.974 160.979C144.802 160.974 144.634 160.927 144.485 160.843C144.335 160.759 144.207 160.641 144.113 160.497Z" fill="#FFF6C4"/>
<path d="M142.034 146.745C141.803 146.158 141.53 145.571 141.278 144.984L140.459 143.202C140.333 142.951 140.186 142.699 140.081 142.447C140.02 142.316 139.988 142.173 139.988 142.028C139.988 141.883 140.02 141.74 140.081 141.609C140.118 141.514 140.174 141.427 140.245 141.354C140.316 141.281 140.402 141.224 140.496 141.185C140.59 141.145 140.691 141.126 140.793 141.126C140.895 141.127 140.996 141.149 141.089 141.19C141.365 141.336 141.597 141.553 141.761 141.819C142.052 142.222 142.318 142.642 142.559 143.076C143.084 143.957 143.567 144.858 144.092 145.739C144.198 145.909 144.256 146.104 144.26 146.304C144.264 146.503 144.214 146.701 144.115 146.875C144.016 147.049 143.872 147.193 143.698 147.291C143.524 147.39 143.326 147.441 143.126 147.437C142.895 147.449 142.665 147.39 142.469 147.266C142.273 147.142 142.121 146.96 142.034 146.745Z" fill="#FFF6C4"/>
<path d="M148.397 156.997C148.187 156.64 148.019 156.263 147.83 155.907L147.221 154.774C146.843 154.062 146.465 153.349 146.108 152.678C145.978 152.507 145.891 152.307 145.855 152.096C145.818 151.884 145.833 151.667 145.898 151.462C145.973 151.29 146.101 151.147 146.263 151.052C146.426 150.958 146.614 150.918 146.801 150.938C147.368 150.938 147.641 151.588 147.914 152.028C148.187 152.468 148.418 152.825 148.649 153.244C148.88 153.663 149.174 154.125 149.426 154.586C149.678 155.047 149.972 155.508 150.224 156.011C150.319 156.245 150.327 156.505 150.246 156.743C150.165 156.982 150 157.184 149.783 157.311C149.627 157.392 149.454 157.435 149.279 157.437C149.107 157.438 148.938 157.398 148.785 157.322C148.632 157.245 148.499 157.134 148.397 156.997Z" fill="#FFF6C4"/>
<path d="M146.864 152.133C146.665 151.907 146.555 151.616 146.555 151.315C146.555 151.014 146.665 150.724 146.864 150.498C147.084 150.244 147.347 150.031 147.641 149.869L148.019 149.575C148.19 149.425 148.351 149.264 148.502 149.093C148.632 148.949 148.752 148.794 148.859 148.632C148.859 148.527 149.006 148.422 149.069 148.296C149.06 148.213 149.06 148.129 149.069 148.045C149.069 148.045 149.069 147.94 149.069 147.877C149.069 147.814 149.069 147.751 149.069 147.709V147.458V147.332L148.88 147.143L148.502 146.745H148.229L147.767 146.556L147.179 146.389H146.57H146.297L145.394 146.536H144.974L143.987 146.955L143.63 147.102C143.435 147.16 143.225 147.145 143.039 147.061C142.854 146.976 142.705 146.826 142.622 146.64C142.554 146.434 142.55 146.211 142.61 146.002C142.67 145.793 142.791 145.606 142.958 145.466C143.23 145.208 143.542 144.995 143.882 144.837C144.643 144.455 145.47 144.221 146.318 144.146C147.2 144.072 148.086 144.227 148.892 144.594C149.697 144.961 150.394 145.528 150.917 146.242C151.165 146.707 151.295 147.225 151.295 147.751C151.295 148.278 151.165 148.796 150.917 149.261C150.717 149.672 150.47 150.059 150.182 150.414L149.405 151.273L149.027 151.714C148.831 151.997 148.581 152.239 148.292 152.426C148.091 152.533 147.868 152.591 147.641 152.594C147.487 152.573 147.339 152.522 147.205 152.442C147.072 152.363 146.956 152.258 146.864 152.133Z" fill="#FFF6C4"/>
<path d="M83.9942 19.2446L85.8421 18.3432L83.9942 19.2237V19.2446ZM104.3 158.317C103.917 158.208 103.588 157.962 103.376 157.625C103.04 157.101 102.767 156.556 102.452 156.032C102.137 155.508 101.843 155.026 101.528 154.544L99.8901 151.923C98.6092 149.827 97.3073 147.898 96.0054 145.886C93.3176 141.693 90.7138 137.5 88.131 133.308C85.5481 129.115 82.6713 124.671 80.0465 120.31C78.7236 118.088 77.4217 115.866 76.0778 113.644C74.7339 111.422 73.495 109.262 72.0251 107.082C69.2952 102.68 66.6494 98.2145 64.0246 93.7283C61.3998 89.2421 58.796 84.7349 56.1082 80.2277C54.7642 77.9008 53.4203 75.5738 52.0554 73.2678C50.6905 70.9618 49.3466 68.8235 48.0027 66.6014C46.6588 64.3792 45.3149 62.1361 44.013 59.893C42.7111 57.6499 41.4512 55.5536 40.1702 53.3943C39.2043 51.7592 38.2594 50.103 37.4404 48.384C37.0459 47.6105 36.7022 46.8122 36.4115 45.9942C36.3083 45.6982 36.2654 45.3846 36.2855 45.0718C36.3046 44.876 36.3833 44.6907 36.5109 44.5408C36.6385 44.391 36.809 44.2836 36.9995 44.2332C37.1147 43.9978 37.2712 43.7848 37.4614 43.6043C37.8415 43.2602 38.2412 42.9382 38.6583 42.64L41.3672 40.7114C43.194 39.3906 45.0419 38.1119 46.9318 36.875C50.8375 34.3175 54.9322 32.0324 58.985 29.7264C63.0377 27.4204 66.9434 25.2822 70.9541 23.1648L77.0437 19.9993L83.1333 16.7709C87.207 14.6746 91.3437 12.5782 95.4805 10.6915L101.549 7.86141L107.345 5.19903C109.444 4.21374 111.544 3.22845 113.644 2.20124H113.812H114.001H113.854L115.261 1.48847L117.151 0.503186C117.366 0.393683 117.603 0.336226 117.844 0.335477C118.016 0.186513 118.236 0.104492 118.463 0.104492C118.691 0.104492 118.911 0.186513 119.083 0.335477C119.32 0.492758 119.526 0.691639 119.692 0.922458L120.448 2.11738C120.973 2.93496 121.498 3.75254 122.044 4.54916C123.472 6.64552 124.92 8.74188 126.243 10.8382C127.566 12.9346 129.12 15.3035 130.443 17.5466C133.299 22.0118 136.05 26.54 138.653 31.152C141.257 35.7639 143.819 40.2921 146.423 44.8621C149.027 49.4322 151.715 54.0442 154.444 58.5933L158.644 65.3016C160.009 67.5657 161.374 69.8298 162.844 72.0938C164.314 74.3579 165.427 76.2866 166.75 78.3829C168.072 80.4793 169.521 82.7853 170.949 84.9865C173.7 89.3888 176.178 93.9379 178.656 98.487C180.903 102.68 183.191 106.705 185.522 110.772C185.963 111.526 186.425 112.281 186.803 113.057C187.07 113.169 187.297 113.357 187.457 113.597C187.617 113.838 187.702 114.12 187.702 114.409C187.702 114.698 187.617 114.98 187.457 115.22C187.297 115.461 187.07 115.649 186.803 115.761C186.215 116.013 185.627 116.285 185.039 116.516L182.687 117.585C180.588 118.34 178.677 119.157 176.703 120.059C175.548 120.583 174.372 121.128 173.238 121.715H173.385C171.285 122.784 169.185 123.811 167.086 125.006C164.986 126.201 162.886 127.102 160.786 128.339L154.339 131.861C152.24 133.077 149.888 134.251 147.662 135.404L141.005 138.842L134.202 142.406C131.976 143.601 129.729 144.775 127.482 145.928C125.235 147.081 122.947 148.192 120.7 149.366C118.453 150.54 116.248 151.755 114.043 153.034C112.972 153.642 111.943 154.25 110.83 154.9C109.717 155.55 108.878 156.053 107.87 156.598C107.408 156.89 106.915 157.129 106.4 157.311H106.169C106.059 157.665 105.819 157.965 105.497 158.149C105.259 158.282 104.992 158.354 104.72 158.359L104.3 158.317Z" fill="#E3B773"/>
<path d="M108.542 140.079C108.152 139.96 107.817 139.708 107.597 139.366C106.904 138.276 106.274 137.144 105.497 136.054C104.72 134.964 104.342 134.188 103.733 133.266L99.8272 127.186L95.6274 120.792C94.1785 118.696 92.7926 116.411 91.4277 114.231C90.0628 112.05 88.4039 109.598 86.85 107.313L85.2332 104.944L85.1912 104.818C83.6793 102.596 82.2094 100.353 80.7185 98.0887L76.2458 91.3594C74.7969 89.1373 73.39 86.8941 72.0461 84.651C70.7022 82.4079 69.2113 80.1858 67.8463 77.9427C66.4814 75.6996 64.9905 73.3936 63.6466 71.1295L59.4469 64.6098C58.733 63.4568 57.998 62.3248 57.3471 61.1509C56.6961 59.9769 56.0242 58.9077 55.3732 57.7757C54.1343 55.6794 52.8324 53.583 51.7404 51.256C51.5 50.759 51.2897 50.2479 51.1105 49.7257C51.0018 49.4865 50.9309 49.2319 50.9005 48.971C50.8903 48.9226 50.8903 48.8727 50.9005 48.8243C50.817 48.7098 50.7532 48.5823 50.7115 48.4469C50.5435 47.7342 51.0475 47.2101 51.5095 46.7698C52.0114 46.3486 52.5372 45.9566 53.0844 45.5959L56.4231 43.4995C58.733 42.053 61.0218 40.6065 63.3737 39.3068C65.7255 38.0071 68.1193 36.5815 70.4922 35.2608L77.7157 31.2777C80.0255 29.978 82.3563 28.7202 84.6662 27.4414L88.2359 25.4499L91.8267 23.3535L98.5252 19.6849C100.625 18.5319 102.725 17.3579 104.825 16.2469C105.728 15.7857 106.631 15.3035 107.555 14.8633C108.479 14.423 109.13 13.9618 109.969 13.5845C110.262 13.4675 110.586 13.4536 110.887 13.5451C111.189 13.6366 111.45 13.8279 111.628 14.0876C112.039 14.3377 112.39 14.6739 112.657 15.0729C113.056 15.576 113.434 16.1211 113.791 16.6452C114.526 17.7353 115.261 18.8463 115.891 19.9574C117.361 22.2215 118.789 24.5275 120.259 26.7915L124.584 33.5418C126.033 35.8268 127.44 38.1328 128.784 40.4598C131.556 44.925 134.286 49.4322 137.016 53.9394C138.381 56.2244 139.745 58.5094 141.215 60.7525C142.685 62.9957 144.05 65.2388 145.415 67.4819C148.187 71.9052 150.917 76.3495 153.814 80.7308C155.2 82.8272 156.586 84.9236 158.014 87.1457L160.114 90.458L162.214 93.6863L166.246 99.7448L167.506 101.569L167.38 101.401L167.946 102.26C168.492 103.036 169.038 103.812 169.542 104.629C169.639 104.782 169.704 104.954 169.731 105.132C170.085 105.206 170.399 105.408 170.613 105.698C170.746 105.865 170.843 106.057 170.897 106.263C170.951 106.469 170.962 106.683 170.928 106.893C170.894 107.134 170.807 107.365 170.673 107.568C170.538 107.771 170.36 107.942 170.151 108.067L169.185 108.759L168.051 109.451L166.12 110.814C161.92 113.602 157.72 116.034 153.247 118.444C150.917 119.744 148.565 121.044 146.255 122.385L139.388 126.327C135.189 128.716 130.933 131.002 126.621 133.182H126.789C124.353 134.398 121.897 135.572 119.419 136.683L115.66 138.36C114.416 138.923 113.14 139.413 111.838 139.827C111.266 140.017 110.674 140.143 110.074 140.205H109.948C109.795 140.225 109.64 140.225 109.486 140.205C109.306 140.235 109.121 140.235 108.941 140.205L108.542 140.079Z" fill="#25262B"/>
<path d="M87.039 84.4202C86.829 84.389 86.6393 84.2775 86.51 84.1093C86.3808 83.9412 86.322 83.7294 86.3461 83.5188C86.359 83.2577 86.3941 82.9983 86.4511 82.7431C86.619 81.9465 86.829 81.1499 87.06 80.3743C87.6199 78.6558 88.3223 76.9869 89.1599 75.3849C90.0923 73.5053 91.2183 71.7278 92.5196 70.0811C93.2197 69.194 93.9773 68.3536 94.7875 67.5655C95.5923 66.8173 96.4407 66.1173 97.3283 65.4691C99.1229 64.1331 101.034 62.9614 103.04 61.9682C104.956 60.9922 106.959 60.199 109.025 59.5993C109.759 59.3897 110.494 59.222 111.25 59.0543H111.061C113.076 58.653 115.119 58.4077 117.172 58.3206C119.106 58.2715 121.04 58.4119 122.947 58.7398C123.472 58.7398 123.996 58.9075 124.521 59.0124L125.214 59.1172H125.865C126.222 59.1693 126.545 59.3583 126.764 59.6441C126.984 59.9298 127.083 60.2898 127.041 60.6475C127.015 60.8387 126.948 61.022 126.846 61.1855C126.743 61.349 126.607 61.4889 126.446 61.5959C126.285 61.7029 126.104 61.7746 125.913 61.8063C125.722 61.838 125.527 61.8288 125.34 61.7796L124.941 61.6538C124.709 61.5714 124.47 61.5083 124.227 61.4651C123.11 61.2414 121.982 61.0804 120.847 60.9829C117.993 60.7392 115.118 60.9301 112.321 61.549C111.579 61.7027 110.844 61.8704 110.116 62.0521C109.402 62.2198 108.689 62.4714 108.017 62.702C106.579 63.17 105.176 63.7373 103.817 64.4C102.376 65.1232 100.974 65.9209 99.6172 66.7899C98.5407 67.5399 97.5034 68.3446 96.5094 69.2007C95.8374 69.8086 95.1865 70.4166 94.5985 71.0664C93.8518 71.9598 93.151 72.8904 92.4986 73.8546C91.7938 74.9037 91.1556 75.996 90.5878 77.1249C89.9562 78.3584 89.409 79.6331 88.9499 80.9403C88.6979 81.674 88.4669 82.4287 88.2359 83.1624C88.005 83.8961 87.963 84.4202 87.333 84.4622H87.123L87.039 84.4202Z" fill="#FFF6C4"/>
<path d="M94.7455 86.4538C93.7166 86.328 92.6456 86.1603 91.7007 85.9926C90.7558 85.8249 89.7268 85.6152 88.7399 85.3846C87.753 85.154 86.3671 84.9863 86.787 83.8543C87.039 83.1834 87.879 83.3512 88.4249 83.435C88.9709 83.5189 89.8948 83.7075 90.5248 83.8124C92.1627 84.043 93.7796 84.2945 95.4174 84.3993C96.0614 84.3993 96.7124 84.3993 97.3703 84.3993H99.2812H99.5752C100.978 84.3062 102.374 84.1241 103.754 83.8543C105.092 83.5843 106.41 83.2272 107.702 82.7851C108.647 82.4461 109.572 82.0541 110.473 81.6112C111.921 80.8549 113.323 80.0149 114.673 79.0955C115.817 78.3319 116.917 77.5061 117.97 76.6218C118.713 75.9674 119.414 75.2672 120.07 74.5255C120.667 73.863 121.221 73.1628 121.729 72.4291C122.249 71.6455 122.726 70.8337 123.157 69.9974C123.388 69.5362 123.598 69.075 123.808 68.5928C124.017 68.1106 124.164 67.6914 124.311 67.2511V67.3769C124.582 66.5888 124.8 65.7834 124.962 64.9661C125.151 64.1028 125.278 63.2271 125.34 62.3456C125.34 62.0522 125.34 61.7587 125.34 61.4652C125.34 61.1872 125.451 60.9206 125.648 60.724C125.845 60.5274 126.112 60.417 126.39 60.417C126.667 60.4224 126.931 60.5345 127.127 60.7299C127.323 60.9254 127.435 61.1889 127.44 61.4652C127.44 61.6119 127.44 61.7587 127.44 61.8844C127.44 62.4924 127.44 63.0794 127.314 63.6873C127.188 64.2953 127.125 65.1128 126.999 65.7837C126.873 66.4545 126.621 67.5237 126.369 68.3622C126.215 68.8513 126.047 69.3335 125.865 69.8087C125.689 70.3086 125.486 70.7985 125.256 71.2761C124.443 73.0095 123.398 74.6245 122.149 76.0768C120.802 77.6622 119.272 79.0835 117.592 80.3114C116.689 80.9823 115.765 81.6321 114.82 82.2401C113.869 82.8596 112.88 83.4198 111.859 83.9172C110.004 84.8465 108.045 85.5503 106.022 86.0135C104.437 86.3514 102.83 86.5756 101.213 86.6844C100.373 86.6844 99.5332 86.6844 98.6932 86.6844C97.3738 86.6891 96.0554 86.6121 94.7455 86.4538Z" fill="#FFF6C4"/>
<path d="M106.61 77.4394C105.902 76.681 105.257 75.8678 104.678 75.0076C104.132 74.1901 103.628 73.3725 103.145 72.492C102.662 71.6115 102.179 70.5843 101.759 69.62C101.385 68.7166 101.062 67.7927 100.793 66.8528C100.606 66.2879 100.606 65.6777 100.793 65.1128C100.858 64.9598 100.966 64.8289 101.104 64.7359C101.242 64.6429 101.404 64.5918 101.57 64.5887C101.708 64.5882 101.844 64.6226 101.965 64.6886C102.086 64.7545 102.189 64.85 102.263 64.9661L102.473 65.3225C102.641 65.6579 102.809 65.9933 102.956 66.3497C103.313 67.1253 103.691 67.88 104.069 68.6557C104.447 69.4313 104.783 70.0393 105.161 70.752C105.539 71.4648 105.938 72.1147 106.358 72.8484C106.351 72.7997 106.351 72.7503 106.358 72.7016C106.882 73.5059 107.457 74.2761 108.08 75.0076L108.878 75.8252L109.088 75.972H109.276C109.27 75.8743 109.27 75.7762 109.276 75.6785C109.276 75.4479 109.276 75.2382 109.276 75.0286V74.6093C109.276 73.9595 109.13 73.3305 109.025 72.6807C108.863 71.9291 108.66 71.1873 108.416 70.4585C108.083 69.522 107.697 68.6051 107.261 67.7123C106.904 66.9995 106.526 66.2868 106.106 65.6159C105.686 64.9451 105.56 64.6726 105.266 64.2114L105.119 64.0646C104.972 63.9309 104.858 63.7648 104.787 63.5796C104.715 63.3943 104.688 63.1951 104.707 62.9975C104.726 62.8 104.791 62.6095 104.897 62.4413C105.002 62.2731 105.145 62.1317 105.315 62.0284C105.485 61.925 105.676 61.8625 105.875 61.8458C106.073 61.8291 106.272 61.8587 106.457 61.9322C106.641 62.0057 106.806 62.1211 106.938 62.2693C107.071 62.4174 107.167 62.5943 107.219 62.7859C107.219 62.7859 107.219 62.7859 107.219 62.9116L107.849 63.9179C108.143 64.4001 108.416 64.8822 108.71 65.3434C109.522 66.7256 110.224 68.1696 110.809 69.6619C111.22 70.7278 111.529 71.8297 111.733 72.9532C111.922 73.9929 111.922 75.0581 111.733 76.0977C111.625 76.74 111.358 77.3453 110.956 77.8587C110.519 78.3681 109.903 78.6908 109.234 78.7601H109.193C108.19 78.6782 107.262 78.2034 106.61 77.4394Z" fill="#FFF6C4"/>
<path d="M91.1338 73.5403L89.8948 73.184C89.4049 73.0582 88.9219 72.9114 88.4459 72.7437C87.48 72.4502 86.5141 72.1777 85.5691 71.8632C85.1447 71.7336 84.7306 71.5724 84.3302 71.3811C84.1498 71.2926 84.0082 71.141 83.9325 70.9551C83.8567 70.7692 83.8522 70.5619 83.9196 70.3729C83.9871 70.1838 84.1218 70.0261 84.2982 69.9298C84.4746 69.8335 84.6803 69.8054 84.8762 69.8507H85.3381L85.9891 69.9975H86.3461H86.2201C86.7031 69.9975 87.186 70.2071 87.669 70.3329L89.1389 70.6683L91.7217 71.2763C92.0108 71.3548 92.2571 71.5445 92.4066 71.8037C92.5561 72.063 92.5968 72.3708 92.5197 72.6599C92.4455 72.8926 92.3004 73.0965 92.1047 73.243C91.9089 73.3895 91.6723 73.4715 91.4277 73.4774C91.3345 73.5163 91.2348 73.5377 91.1338 73.5403Z" fill="#FFF6C4"/>
<path d="M95.0605 69.7249C93.8426 68.8445 92.6456 67.964 91.5117 67.0206C89.9788 65.7418 88.4879 64.4421 86.976 63.1633L82.0834 58.9706L79.7945 57.1258L78.4926 55.9728C78.1787 55.715 77.8839 55.4347 77.6107 55.1343C77.4946 55.005 77.4204 54.8437 77.3979 54.6716C77.3754 54.4995 77.4057 54.3246 77.4847 54.1699C77.5727 54.028 77.7031 53.9172 77.8576 53.8532C78.0121 53.7893 78.1828 53.7754 78.3456 53.8136C78.4672 53.848 78.5811 53.9048 78.6816 53.9813L79.1856 54.3167L80.4875 55.2181C81.2854 55.8051 82.0834 56.3921 82.8813 57.021C84.5402 58.2998 86.2201 59.5786 87.858 60.8993C89.4959 62.22 90.6928 63.1633 92.0577 64.2534C93.4226 65.3435 94.4725 66.0773 95.7114 66.9368L96.4884 67.4189C96.7986 67.6142 97.0232 67.9197 97.1167 68.2737C97.2102 68.6277 97.1658 69.004 96.9923 69.3266C96.8025 69.6351 96.5022 69.86 96.1524 69.9555C96.0342 69.9755 95.9136 69.9755 95.7954 69.9555C95.5339 69.9473 95.2797 69.8676 95.0605 69.7249Z" fill="#FFF6C4"/>
<path d="M97.7903 65.3224V65.2176L96.7614 63.8969C96.3204 63.3518 95.8794 62.7648 95.4174 62.2198L93.7376 60.0186C93.0656 59.1801 92.4567 58.2786 91.8477 57.3772C91.5747 56.9789 91.2387 56.5177 91.5117 56.0146C91.5812 55.8987 91.6797 55.803 91.7975 55.7368C91.9154 55.6706 92.0485 55.6363 92.1837 55.6372C92.4 55.6461 92.6071 55.7273 92.7716 55.8678C93.0235 56.0383 93.2622 56.2275 93.4856 56.4338C93.7796 56.7273 94.0735 57.0208 94.3465 57.3353C94.6195 57.6497 94.9975 58.0271 95.3335 58.3835C95.6694 58.7398 96.3624 59.4945 96.8873 60.0605C97.4123 60.6266 97.8323 61.0878 98.2943 61.6118L98.4202 61.7586L99.5752 63.0793L99.8271 63.3728L100.037 63.6034C100.228 63.7993 100.356 64.0471 100.406 64.3158C100.456 64.5844 100.425 64.8617 100.317 65.1128C100.209 65.3639 100.03 65.5775 99.8004 65.7267C99.5712 65.876 99.3028 65.9541 99.0292 65.9513C98.7843 65.974 98.5379 65.927 98.3186 65.8157C98.0994 65.7044 97.9162 65.5334 97.7903 65.3224Z" fill="#FFF6C4"/>
<path d="M102.893 62.5763C102.619 62.2645 102.387 61.9194 102.2 61.5491C102.032 61.2137 101.843 60.8992 101.654 60.5638L100.205 57.9643C99.1342 56.0567 98.1053 54.149 97.0973 52.2413C96.0894 50.3336 95.1235 48.5936 94.0946 46.7698C93.5906 45.8474 93.0446 44.946 92.5617 44.0026C92.2817 43.5274 92.0297 43.0453 91.8057 42.5561C91.5772 42.2054 91.4467 41.8001 91.4277 41.3821C91.4362 41.2309 91.4856 41.0847 91.5706 40.9592C91.6557 40.8337 91.7732 40.7335 91.9107 40.6694C92.0735 40.6111 92.2499 40.6019 92.4179 40.6429C92.5859 40.6839 92.7381 40.7733 92.8556 40.9C93.1168 41.1963 93.3554 41.5116 93.5696 41.8433L94.5775 43.3318C95.2285 44.2961 95.8584 45.2394 96.4674 46.2247C97.0763 47.21 97.6643 48.1953 98.2523 49.2016C98.8402 50.2078 99.3862 51.0673 99.9321 52.0107C100.919 53.6668 101.864 55.3229 102.851 56.9581L104.258 59.3479C104.447 59.6205 104.615 59.914 104.783 60.1865C105.002 60.5155 105.185 60.8669 105.329 61.2347C105.41 61.5378 105.391 61.8592 105.274 62.1504C105.156 62.4416 104.947 62.6867 104.678 62.8489C104.459 62.9697 104.214 63.0345 103.964 63.0375C103.763 63.0377 103.565 62.9968 103.381 62.9175C103.196 62.8382 103.03 62.7221 102.893 62.5763Z" fill="#FFF6C4"/>
<path d="M108.29 60.3543C108.085 60.0369 107.929 59.6906 107.828 59.3271V59.1803C107.219 57.4194 106.61 55.6794 106.085 53.9185C105.77 52.8912 105.476 51.8221 105.182 50.8158C104.888 49.8096 104.531 48.7195 104.216 47.5246C103.901 46.3296 103.691 45.554 103.418 44.5477C103.145 43.5415 102.872 42.4514 102.578 41.4871C102.284 40.5227 102.053 39.5165 101.759 38.5521C101.633 38.1119 101.528 37.6717 101.402 37.2524C101.3 36.8981 101.251 36.5309 101.255 36.1623C101.28 36.0066 101.348 35.8611 101.452 35.7424C101.556 35.6238 101.692 35.5368 101.843 35.4915C102.014 35.4523 102.193 35.4676 102.355 35.5353C102.517 35.6029 102.654 35.7196 102.746 35.8688C102.935 36.2042 103.103 36.5606 103.25 36.896C103.397 37.2314 103.691 37.8603 103.88 38.3635C104.321 39.4326 104.678 40.4598 105.035 41.6338C105.392 42.8078 105.77 43.9608 106.169 45.1347L107.24 48.3421C107.534 49.2436 107.849 50.166 108.164 51.0674C108.605 52.3043 109.046 53.5202 109.465 54.757C109.885 55.9939 110.137 56.7485 110.494 57.7548V57.5661C110.641 58.0064 110.809 58.4466 110.956 58.8659V58.6982C111.03 58.8637 111.073 59.0414 111.082 59.2222C111.116 59.5485 111.05 59.8772 110.893 60.1656C110.737 60.4402 110.493 60.6544 110.2 60.7736C110.022 60.855 109.829 60.8979 109.633 60.8993C109.381 60.9344 109.124 60.9025 108.888 60.8068C108.652 60.7111 108.446 60.555 108.29 60.3543Z" fill="#FFF6C4"/>
<path d="M112.783 58.1321C112.63 57.7466 112.517 57.3461 112.447 56.9372C112.447 56.5179 112.258 56.0987 112.153 55.6794C111.943 54.7151 111.733 53.7507 111.544 52.7864C111.355 51.8221 111.187 50.9207 111.019 49.9773C110.82 48.9724 110.672 47.9578 110.578 46.9376C110.536 46.5544 110.536 46.1678 110.578 45.7846C110.594 45.4674 110.729 45.1679 110.956 44.946C111.081 44.8631 111.227 44.8188 111.376 44.8188C111.526 44.8188 111.672 44.8631 111.796 44.946C112.136 45.2211 112.366 45.6073 112.447 46.0361C112.594 46.4973 112.72 46.9795 112.846 47.4617C113.119 48.4679 113.35 49.558 113.602 50.5014C114.043 52.2833 114.484 54.0862 114.967 55.889L115.156 56.6018C115.258 56.8868 115.328 57.1821 115.366 57.4823C115.404 57.8013 115.328 58.1235 115.151 58.392C114.975 58.6605 114.709 58.8581 114.4 58.9497C114.282 58.97 114.161 58.97 114.043 58.9497C113.776 58.9515 113.514 58.8749 113.29 58.7296C113.066 58.5843 112.89 58.3765 112.783 58.1321Z" fill="#FFF6C4"/>
<path d="M119.965 59.7046C119.837 59.3801 119.746 59.0427 119.692 58.6983C119.692 58.4677 119.692 58.2161 119.692 57.9855C119.692 57.3776 119.503 56.7906 119.44 56.1827C119.377 55.5747 119.23 54.5685 119.146 53.7509C119.062 52.9333 118.957 51.8013 118.873 50.816C118.747 49.5163 118.621 48.2165 118.516 46.8958C118.516 46.2669 118.39 45.638 118.39 45.0091C118.327 44.5289 118.446 44.0424 118.726 43.6464C118.798 43.5723 118.885 43.5133 118.98 43.4731C119.076 43.4328 119.179 43.4121 119.282 43.4121C119.386 43.4121 119.489 43.4328 119.584 43.4731C119.68 43.5133 119.766 43.5723 119.839 43.6464C120.055 43.9029 120.193 44.2156 120.238 44.5479C120.364 45.03 120.448 45.5332 120.553 46.0363C120.742 47.0216 120.931 48.0069 121.099 48.9922C121.414 50.8789 121.687 52.7656 121.96 54.6523C122.086 55.4909 122.191 56.3504 122.317 57.1889C122.317 57.5243 122.422 57.8388 122.464 58.1533C122.456 58.2929 122.456 58.4329 122.464 58.5725C122.495 58.8161 122.495 59.0627 122.464 59.3063C122.42 59.5946 122.284 59.8611 122.076 60.0653C121.868 60.2696 121.598 60.4005 121.309 60.4383H121.141C120.897 60.4299 120.661 60.3576 120.454 60.2288C120.248 60.1 120.079 59.9192 119.965 59.7046Z" fill="#FFF6C4"/>
<path d="M124.29 58.5724C124.437 57.5871 124.521 56.6018 124.668 55.6165C124.815 54.6312 125.004 53.3734 125.235 52.2623C125.29 51.9084 125.367 51.5583 125.466 51.2141C125.523 51.0238 125.616 50.846 125.739 50.6901C125.844 50.5458 125.993 50.4406 126.165 50.3912C126.336 50.3418 126.519 50.351 126.684 50.4175C126.801 50.477 126.907 50.5548 126.999 50.6481C127.248 51.1097 127.344 51.6382 127.272 52.1575V54.0862C127.272 55.344 127.083 56.6018 126.978 57.8806C126.978 58.0273 126.978 58.195 126.978 58.3627C126.989 58.4673 126.989 58.5726 126.978 58.6772C126.978 59.0163 126.843 59.3416 126.603 59.5814C126.363 59.8212 126.037 59.956 125.697 59.956C125.51 59.9715 125.322 59.9465 125.146 59.8828C124.97 59.819 124.809 59.718 124.676 59.5866C124.542 59.4553 124.439 59.2966 124.372 59.1215C124.306 58.9465 124.278 58.7592 124.29 58.5724Z" fill="#FFF6C4"/>
<path d="M92.1207 89.3261C92.1207 89.0704 92.2224 88.8251 92.4036 88.6443C92.5847 88.4634 92.8304 88.3618 93.0866 88.3618C93.3428 88.3618 93.5885 88.4634 93.7696 88.6443C93.9508 88.8251 94.0525 89.0704 94.0525 89.3261C94.0525 89.5819 93.9508 89.8272 93.7696 90.008C93.5885 90.1889 93.3428 90.2905 93.0866 90.2905C92.8304 90.2905 92.5847 90.1889 92.4036 90.008C92.2224 89.8272 92.1207 89.5819 92.1207 89.3261Z" fill="#FFF6C4"/>
<path d="M99.0082 90.877C99.0082 90.5743 99.0981 90.2785 99.2665 90.0268C99.435 89.7752 99.6744 89.579 99.9545 89.4632C100.235 89.3473 100.543 89.317 100.84 89.3761C101.138 89.4351 101.411 89.5809 101.625 89.7949C101.839 90.0089 101.985 90.2816 102.045 90.5785C102.104 90.8753 102.073 91.183 101.957 91.4627C101.841 91.7423 101.645 91.9813 101.393 92.1495C101.141 92.3176 100.844 92.4074 100.541 92.4074C100.135 92.4074 99.7447 92.2461 99.4572 91.9591C99.1697 91.6721 99.0082 91.2829 99.0082 90.877Z" fill="#FFF6C4"/>
<path d="M109.444 88.8645C109.444 88.4086 109.626 87.9714 109.949 87.649C110.272 87.3266 110.71 87.1455 111.166 87.1455C111.625 87.1455 112.065 87.3259 112.391 87.6477C112.718 87.9695 112.904 88.4067 112.909 88.8645C112.904 89.3243 112.718 89.7637 112.393 90.0889C112.067 90.414 111.627 90.5991 111.166 90.6045C110.708 90.599 110.27 90.4132 109.948 90.0875C109.625 89.7618 109.444 89.3224 109.444 88.8645Z" fill="#FFF6C4"/>
<path d="M119.692 83.8546C119.692 83.5561 119.78 83.2642 119.947 83.016C120.113 82.7678 120.349 82.5744 120.625 82.4601C120.901 82.3459 121.205 82.316 121.499 82.3742C121.792 82.4325 122.061 82.5762 122.273 82.7873C122.484 82.9984 122.628 83.2673 122.687 83.5601C122.745 83.8529 122.715 84.1564 122.6 84.4322C122.486 84.708 122.292 84.9437 122.044 85.1096C121.795 85.2755 121.503 85.364 121.204 85.364C120.803 85.364 120.418 85.2049 120.135 84.9219C119.851 84.6388 119.692 84.2549 119.692 83.8546Z" fill="#FFF6C4"/>
<path d="M125.088 76.7896C125.088 76.6244 125.121 76.4608 125.184 76.3082C125.248 76.1556 125.34 76.0169 125.457 75.9001C125.574 75.7833 125.713 75.6907 125.866 75.6275C126.019 75.5643 126.183 75.5317 126.348 75.5317C126.681 75.5371 126.998 75.6714 127.233 75.9061C127.468 76.1408 127.603 76.4576 127.608 76.7896C127.598 77.1198 127.462 77.4337 127.228 77.6673C126.994 77.901 126.679 78.0369 126.348 78.0474C126.016 78.042 125.699 77.9077 125.463 77.673C125.228 77.4383 125.094 77.1215 125.088 76.7896Z" fill="#FFF6C4"/>
<path d="M130.107 69.788C130.641 69.788 131.073 69.3563 131.073 68.8237C131.073 68.2911 130.641 67.8594 130.107 67.8594C129.574 67.8594 129.141 68.2911 129.141 68.8237C129.141 69.3563 129.574 69.788 130.107 69.788Z" fill="#FFF6C4"/>
<path d="M88.2989 83.1626C87.945 82.7813 87.724 82.296 87.669 81.779C87.6576 81.6395 87.6576 81.4993 87.669 81.3598C87.6605 81.2342 87.6772 81.1081 87.7183 80.9891C87.7593 80.87 87.8238 80.7604 87.9079 80.6666C87.9921 80.5728 88.0942 80.4968 88.2082 80.443C88.3223 80.3893 88.4459 80.3588 88.5719 80.3535C88.756 80.3614 88.9342 80.4205 89.0864 80.5243C89.2385 80.628 89.3585 80.7722 89.4329 80.9405C89.501 81.0309 89.5575 81.1295 89.6008 81.234C89.8004 81.5316 89.956 81.8564 90.0628 82.1983C90.1205 82.4168 90.1045 82.6481 90.0172 82.8566C89.9299 83.065 89.7762 83.2389 89.5798 83.3513C89.4185 83.4373 89.2378 83.4806 89.0549 83.4771C88.9131 83.4862 88.7712 83.4626 88.6401 83.408C88.509 83.3535 88.3923 83.2695 88.2989 83.1626Z" fill="#FFF6C4"/>
<path d="M92.1837 85.4684C91.9574 85.3657 91.7512 85.2238 91.5747 85.0491L91.3437 84.7766C91.1369 84.5701 90.9406 84.3532 90.7558 84.1268C90.362 83.6678 89.9973 83.1847 89.6638 82.6803C88.7343 81.4677 88.1796 80.0104 88.068 78.4875C88.0292 78.0973 88.1419 77.7071 88.3829 77.3974C88.505 77.2843 88.658 77.2099 88.8225 77.1838C88.9871 77.1576 89.1556 77.1809 89.3069 77.2507L89.4749 77.3555L89.6638 77.5861C89.7287 77.715 89.7848 77.8481 89.8318 77.9844C89.9788 78.2989 90.1258 78.6343 90.2938 78.9487C90.6179 79.5753 90.9754 80.1842 91.3647 80.7726C91.3708 80.7309 91.3708 80.6885 91.3647 80.6468C91.8772 81.3822 92.4384 82.0826 93.0446 82.7432L92.9186 82.6174C93.2906 82.9379 93.6033 83.321 93.8426 83.7494C93.9214 83.9428 93.9516 84.1524 93.9306 84.3601C93.9096 84.5678 93.838 84.7673 93.722 84.9409C93.606 85.1146 93.4492 85.2574 93.2652 85.3566C93.0812 85.4559 92.8757 85.5086 92.6666 85.5103C92.5045 85.5283 92.3403 85.514 92.1837 85.4684Z" fill="#FFF6C4"/>
<path d="M92.2467 85.951C91.8837 85.8511 91.5262 85.7322 91.1757 85.5946H91.3437L90.7978 85.4059C90.3358 85.2592 89.8528 85.1543 89.3909 84.9657C89.058 84.8298 88.7467 84.6462 88.4669 84.4206C88.2431 84.2597 88.0569 84.0523 87.921 83.8127C87.7722 83.5849 87.7056 83.3133 87.7324 83.0427C87.7591 82.7721 87.8775 82.5186 88.068 82.3243C88.3407 82.1364 88.6542 82.0157 88.9827 81.972C89.3111 81.9283 89.6453 81.9628 89.9578 82.0727C90.277 82.1603 90.5865 82.2796 90.8818 82.4291L92.1207 83.079C92.3228 83.1641 92.5192 83.2621 92.7086 83.3724C92.9044 83.4647 93.0938 83.5697 93.2756 83.6869C93.5311 83.8433 93.7235 84.0842 93.8194 84.3677C93.9153 84.6511 93.9087 84.9592 93.8006 85.2382C93.7016 85.4603 93.5392 85.6483 93.3338 85.7788C93.1284 85.9093 92.8891 85.9764 92.6456 85.9719L92.2467 85.951Z" fill="#FFF6C4"/>
<path d="M96.9713 86.9987C96.6455 86.8835 96.3352 86.7286 96.0474 86.5375C95.7791 86.3847 95.5196 86.2167 95.2705 86.0344C94.8806 85.7731 94.5088 85.4859 94.1575 85.1749C93.7586 84.7976 93.4016 84.3783 93.0236 83.98C92.1064 82.9244 91.33 81.7547 90.7138 80.5C90.1057 79.3049 89.708 78.0143 89.5378 76.6847C89.5064 76.336 89.5064 75.9852 89.5378 75.6365C89.5554 75.3732 89.6269 75.1164 89.7478 74.8818C89.8214 74.7587 89.9261 74.6572 90.0514 74.5873C90.1767 74.5174 90.3183 74.4816 90.4618 74.4835C90.6282 74.4865 90.7901 74.5376 90.928 74.6307C91.0659 74.7237 91.1738 74.8546 91.2387 75.0076V75.2172C91.2478 75.2657 91.2478 75.3155 91.2387 75.3639C91.2929 75.5851 91.3349 75.8091 91.3647 76.0348C91.411 76.2262 91.4671 76.4151 91.5327 76.6008C91.6797 77.0201 91.8897 77.4603 92.0787 77.8796C92.2677 78.2988 92.4567 78.7391 92.6666 79.1583C92.9978 79.7921 93.3623 80.4078 93.7586 81.0031C94.1202 81.5358 94.5129 82.0468 94.9345 82.5335C95.2718 82.9226 95.6367 83.2869 96.0264 83.6236C96.3859 83.94 96.7646 84.2341 97.1603 84.5041C97.475 84.6751 97.7706 84.8789 98.0423 85.112C98.2297 85.3069 98.3493 85.5569 98.3834 85.825C98.4174 86.0931 98.3641 86.365 98.2313 86.6004C98.1214 86.7862 97.9647 86.9401 97.7768 87.0467C97.589 87.1534 97.3764 87.2091 97.1603 87.2084L96.9713 86.9987Z" fill="#FFF6C4"/>
<path d="M106.862 110.059C106.862 110.059 106.862 110.059 106.862 109.912C106.818 109.713 106.762 109.517 106.694 109.325C106.615 109.103 106.524 108.886 106.421 108.675C106.194 108.248 105.941 107.835 105.665 107.438C104.678 106.013 103.565 104.671 102.557 103.246C102.683 103.56 102.788 103.853 102.914 104.147C103.25 104.985 103.649 105.803 104.048 106.6V106.725C104.365 107.359 104.715 107.974 105.098 108.57C105.261 108.803 105.436 109.027 105.623 109.241C105.78 109.426 105.948 109.601 106.127 109.765L106.463 110.038H106.589H106.799L106.862 110.059ZM106.61 112.155C106.351 112.1 106.098 112.023 105.854 111.924C105.569 111.797 105.301 111.635 105.056 111.442C104.342 110.848 103.732 110.14 103.25 109.346C102.717 108.486 102.234 107.597 101.801 106.684C101.338 105.74 100.938 104.766 100.604 103.77V103.895C100.31 103.057 100.058 102.218 99.8481 101.359C99.725 100.94 99.6337 100.513 99.5752 100.08C99.5171 99.902 99.5058 99.712 99.5426 99.5285C99.5794 99.3449 99.6629 99.1738 99.7851 99.0318C99.8781 98.9408 99.991 98.8725 100.115 98.8325C100.239 98.7925 100.37 98.7818 100.499 98.8012C100.706 98.6497 100.961 98.5788 101.216 98.602C101.471 98.6251 101.709 98.7407 101.885 98.927C102.074 99.1366 102.242 99.3882 102.431 99.6188L102.956 100.29L104.237 101.904C105.371 103.329 106.568 104.734 107.555 106.264C108.15 107.097 108.597 108.026 108.878 109.01C109.014 109.458 109.057 109.929 109.004 110.394C108.942 110.816 108.768 111.215 108.5 111.547C108.32 111.768 108.093 111.946 107.834 112.065C107.576 112.185 107.294 112.245 107.009 112.239L106.61 112.155Z" fill="#FFF6C4"/>
<path d="M120.574 121.212C120.533 120.962 120.47 120.716 120.385 120.478C120.181 119.919 119.943 119.372 119.671 118.843C119.375 118.238 119.046 117.65 118.684 117.082C118.789 117.522 118.915 117.941 119.062 118.382C119.232 118.9 119.443 119.405 119.692 119.891C119.85 120.219 120.032 120.534 120.238 120.834L120.49 121.17L120.574 121.212ZM120.259 123.308C119.762 123.132 119.335 122.801 119.041 122.365C118.501 121.687 118.056 120.94 117.718 120.143C117.357 119.382 117.068 118.589 116.857 117.774C116.618 116.846 116.463 115.899 116.395 114.944C116.363 114.525 116.363 114.104 116.395 113.686C116.417 113.534 116.46 113.386 116.521 113.246C116.592 113.059 116.731 112.906 116.91 112.817C117.089 112.727 117.295 112.708 117.487 112.763H117.613C117.798 112.74 117.986 112.765 118.158 112.834C118.331 112.904 118.483 113.017 118.6 113.162C118.894 113.56 119.188 113.958 119.461 114.378C119.734 114.797 120.196 115.405 120.532 115.95C120.947 116.592 121.325 117.257 121.666 117.941C122.084 118.752 122.422 119.601 122.674 120.478C122.853 121.015 122.853 121.597 122.674 122.134C122.499 122.546 122.197 122.891 121.813 123.119C121.539 123.279 121.226 123.359 120.91 123.35C120.69 123.359 120.469 123.331 120.259 123.266V123.308Z" fill="#FFF6C4"/>
<path d="M40.5272 50.3129C40.2699 50.354 40.0076 50.354 39.7503 50.3129C39.6116 50.2717 39.4877 50.1917 39.3933 50.0823C39.3372 49.9947 39.3074 49.8928 39.3074 49.7888C39.3074 49.6848 39.3372 49.583 39.3933 49.4953C39.4836 49.3943 39.5934 49.3126 39.716 49.255C39.8387 49.1973 39.9718 49.165 40.1072 49.1599L41.0522 49.0132L42.6481 48.8454L46.8478 48.4262L49.1156 48.2165L50.2286 48.0698L51.3835 47.9021C51.6234 47.8771 51.8638 47.9446 52.0554 48.0908C52.2425 48.2361 52.3696 48.445 52.4124 48.6777C52.4375 48.9172 52.3699 49.1572 52.2234 49.3486C52.0779 49.5354 51.8686 49.6622 51.6355 49.705C51.1735 49.705 50.7325 49.8307 50.2705 49.8727L48.9266 49.9984L45.9448 50.25H45.4829C44.328 50.25 43.173 50.3758 41.9971 50.3968H40.5272V50.3129Z" fill="#25262B"/>
<path d="M50.8585 47.6501C48.0657 47.1889 45.2729 46.7277 42.4591 46.1826H42.2701H42.3751H42.2491L41.9971 46.1198H41.8291H41.5981L40.2542 45.8263C40.073 45.7822 39.897 45.7189 39.7293 45.6376C39.6607 45.6043 39.5996 45.5575 39.5495 45.5001C39.4995 45.4426 39.4616 45.3757 39.4381 45.3033C39.4145 45.2309 39.4059 45.1544 39.4126 45.0786C39.4194 45.0028 39.4414 44.9291 39.4773 44.8619C39.5457 44.7708 39.6345 44.6969 39.7366 44.6459C39.8386 44.595 39.9511 44.5685 40.0652 44.5685C40.4219 44.5475 40.7795 44.5475 41.1362 44.5685L42.2071 44.6733L44.307 44.9039C45.6719 45.0716 47.0578 45.2812 48.5067 45.5118L51.2155 45.952C51.455 45.9687 51.678 46.0797 51.8355 46.2605C51.993 46.4414 52.0721 46.6773 52.0554 46.9164C52.0387 47.1554 51.9276 47.3781 51.7464 47.5354C51.5653 47.6926 51.329 47.7716 51.0895 47.7549L50.8585 47.6501Z" fill="#25262B"/>
<path d="M53.0424 45.9733L52.2444 45.575L50.3965 44.6526L48.2967 43.7721L44.286 41.9273C44.1187 41.8561 43.9572 41.772 43.803 41.6758C43.6767 41.5799 43.5929 41.4386 43.5694 41.282C43.5459 41.1254 43.5845 40.9658 43.677 40.8372C43.929 40.5228 44.307 40.6066 44.6639 40.7114C45.0125 40.797 45.356 40.902 45.6929 41.0259C46.4488 41.2775 47.1838 41.5709 47.9187 41.8435C49.2836 42.3676 50.6065 42.9336 51.9504 43.5206L52.8114 43.8979C53.1264 44.0446 53.4623 44.1495 53.7563 44.2962C53.9774 44.3934 54.1528 44.5713 54.2465 44.7935C54.3402 45.0158 54.3451 45.2654 54.2603 45.4911C54.185 45.657 54.0641 45.7982 53.9118 45.8984C53.7594 45.9986 53.5817 46.0536 53.3993 46.0571C53.2752 46.0598 53.1523 46.0309 53.0424 45.9733Z" fill="#25262B"/>
<path d="M109.193 16.9388C108.989 16.9077 108.807 16.7977 108.685 16.6327C108.563 16.4677 108.511 16.2612 108.542 16.0583C108.794 14.6747 109.13 13.2702 109.444 11.8656C109.759 10.461 110.032 9.20321 110.389 7.88251C110.389 7.50516 110.578 7.10686 110.683 6.72951C110.788 6.35217 110.914 5.80711 111.355 5.68133C111.508 5.64761 111.668 5.67187 111.804 5.74937C111.94 5.82687 112.042 5.95208 112.09 6.1006C112.143 6.3353 112.143 6.57867 112.09 6.81336C112.09 7.10686 111.964 7.42131 111.88 7.7148C111.796 8.00829 111.628 8.8678 111.523 9.45478C111.271 10.6078 111.019 11.7608 110.788 12.9138C110.578 13.9829 110.389 15.0101 110.137 16.1212C110.099 16.2856 110.005 16.4316 109.871 16.5347C109.737 16.6378 109.572 16.6917 109.402 16.6872L109.193 16.9388Z" fill="#25262B"/>
<path d="M110.956 18.1966C110.764 18.1111 110.613 17.9528 110.536 17.7564C110.49 17.6581 110.465 17.5507 110.465 17.442C110.465 17.3332 110.49 17.2258 110.536 17.1275V16.855V16.9598C111.04 15.5552 111.565 14.1716 112.132 12.7671L113.77 8.70014L114.883 6.28932C115.062 5.84506 115.265 5.41113 115.492 4.98958L115.807 4.44453C115.894 4.34075 116.001 4.25525 116.122 4.19297C116.259 4.14176 116.41 4.14347 116.546 4.19774C116.682 4.25202 116.793 4.35497 116.857 4.48646C116.952 4.75081 116.952 5.03968 116.857 5.30404C116.731 5.66042 116.626 6.0168 116.5 6.35222C116.248 7.04401 115.996 7.71485 115.765 8.44858L114.211 12.6413C113.539 14.4022 112.867 16.1841 112.111 17.9241C112.023 18.1258 111.86 18.2849 111.656 18.3673C111.451 18.4496 111.223 18.4486 111.019 18.3644L110.956 18.1966Z" fill="#25262B"/>
<path d="M112.51 23.0601C112.274 22.95 112.089 22.7547 111.991 22.5134C111.894 22.2722 111.892 22.0031 111.985 21.7603L113.182 19.3285C113.539 18.5738 113.896 17.7772 114.274 17.0225C115.072 15.4293 115.891 13.857 116.752 12.2848C117.235 11.4043 117.739 10.5448 118.264 9.68528C118.537 9.24505 118.831 8.78385 119.146 8.36458L119.524 7.81952C119.654 7.62319 119.826 7.45842 120.028 7.33736C120.118 7.30163 120.216 7.28669 120.313 7.29366C120.411 7.30063 120.505 7.32932 120.59 7.37762C120.674 7.42592 120.747 7.49258 120.802 7.5727C120.858 7.65282 120.894 7.74433 120.91 7.84049C120.94 7.99271 120.94 8.14947 120.91 8.30169C120.849 8.473 120.779 8.64095 120.7 8.80481L120.175 9.85299L119.167 11.8236C118.432 13.312 117.718 14.8004 117.067 16.2888C116.71 17.0435 116.353 17.7982 115.975 18.5319C115.597 19.2656 115.198 19.9994 114.82 20.7541V20.6283L113.854 22.5569C113.765 22.7742 113.601 22.9526 113.392 23.0601C113.267 23.0797 113.139 23.0797 113.014 23.0601C112.848 23.0913 112.677 23.0913 112.51 23.0601Z" fill="#25262B"/>
<path d="M102.893 153.034C102.796 153.023 102.704 152.985 102.627 152.926C102.549 152.867 102.489 152.789 102.452 152.699C102.386 152.402 102.386 152.094 102.452 151.797C102.452 151.441 102.599 151.085 102.683 150.728C102.851 150.015 103.019 149.303 103.208 148.632C103.565 147.185 103.901 145.718 104.237 144.271C104.909 141.42 105.497 138.548 106.148 135.697C106.505 134.146 106.904 132.595 107.324 131.064C107.382 130.872 107.513 130.709 107.69 130.611C107.866 130.513 108.074 130.488 108.269 130.54C108.46 130.594 108.623 130.721 108.721 130.894C108.819 131.066 108.845 131.271 108.794 131.463C108.416 132.909 108.101 134.356 107.765 135.802C107.429 137.249 107.114 138.653 106.778 139.995C106.106 142.867 105.392 145.739 104.678 148.569C104.489 149.282 104.3 149.994 104.09 150.665L103.775 151.797C103.713 151.968 103.664 152.143 103.628 152.321C103.592 152.472 103.528 152.614 103.439 152.741C103.385 152.805 103.317 152.857 103.241 152.893C103.165 152.929 103.082 152.949 102.998 152.95L102.893 153.034Z" fill="#25262B"/>
<path d="M107.534 153.139C107.435 153.106 107.346 153.048 107.277 152.971C107.207 152.894 107.158 152.8 107.135 152.699C107.114 152.574 107.114 152.447 107.135 152.322V151.798C107.135 151.441 107.135 151.085 107.135 150.728C107.135 150.016 107.135 149.324 107.135 148.632C107.135 147.144 107.303 145.676 107.408 144.188C107.555 141.693 107.786 139.198 108.143 136.704C108.185 136.525 108.293 136.369 108.445 136.266C108.596 136.163 108.781 136.121 108.963 136.147C109.145 136.174 109.31 136.267 109.426 136.409C109.543 136.55 109.601 136.73 109.591 136.913C109.381 138.402 109.255 139.869 109.151 141.379C109.151 142.825 108.941 144.272 108.836 145.718C108.731 147.165 108.605 148.653 108.458 150.12C108.458 150.582 108.353 151.043 108.311 151.504C108.269 151.965 108.311 152.007 108.311 152.259C108.311 152.51 108.311 152.594 108.311 152.741C108.286 152.885 108.212 153.017 108.101 153.113C107.99 153.208 107.848 153.262 107.702 153.265L107.534 153.139Z" fill="#25262B"/>
<path d="M113.392 150.309C113.056 150.162 112.972 149.764 112.867 149.45C112.762 149.135 112.636 148.737 112.531 148.401C112.321 147.647 112.132 146.913 111.943 146.158C111.586 144.733 111.25 143.307 110.914 141.966C110.284 139.219 109.717 136.452 109.151 133.706C109.151 133.475 109.151 133.266 109.004 133.035C108.979 132.824 109.038 132.613 109.168 132.445C109.297 132.276 109.486 132.165 109.696 132.134C109.907 132.114 110.117 132.174 110.284 132.301C110.445 132.432 110.551 132.62 110.578 132.825C110.624 133.005 110.659 133.187 110.683 133.37C111.271 136.222 111.943 139.052 112.573 141.882C112.93 143.517 113.266 145.173 113.623 146.829L113.749 147.416C113.854 147.898 113.959 148.38 114.043 148.884L114.169 149.596C114.2 149.713 114.207 149.834 114.188 149.953C114.17 150.072 114.128 150.186 114.064 150.288C114.01 150.353 113.943 150.405 113.867 150.441C113.79 150.477 113.707 150.496 113.623 150.498C113.574 150.484 113.528 150.46 113.488 150.427C113.449 150.395 113.416 150.354 113.392 150.309Z" fill="#25262B"/>
<path d="M181.176 112.533C180.64 112.323 180.132 112.048 179.664 111.715L177.963 110.604C176.766 109.849 175.569 109.053 174.351 108.319C173.133 107.585 171.936 106.936 170.739 106.223C169.542 105.51 168.24 104.818 167.044 104.126L165.7 103.246C165.611 103.194 165.534 103.124 165.473 103.042C165.411 102.96 165.367 102.867 165.341 102.768C165.316 102.669 165.31 102.565 165.325 102.464C165.34 102.362 165.374 102.265 165.427 102.177C165.479 102.089 165.548 102.012 165.63 101.95C165.713 101.889 165.806 101.844 165.906 101.819C166.005 101.794 166.108 101.788 166.21 101.803C166.312 101.818 166.409 101.852 166.498 101.904C167.716 102.701 168.954 103.456 170.214 104.189C171.474 104.923 172.65 105.615 173.868 106.286C174.687 106.768 175.506 107.292 176.304 107.837L177.669 108.759L177.984 108.99L178.236 109.158L179.79 110.248L181.344 111.338L181.785 111.631C181.879 111.7 181.948 111.797 181.983 111.907C182.019 112.018 182.017 112.137 181.98 112.247C181.942 112.357 181.87 112.453 181.775 112.519C181.679 112.586 181.565 112.62 181.449 112.617L181.176 112.533Z" fill="#25262B"/>
<path d="M176.241 115.3L175.464 114.817L174.519 114.231L172.629 112.868C171.453 112.008 170.298 111.149 169.143 110.247C167.988 109.346 166.645 108.151 165.406 107.229C165.256 107.102 165.16 106.924 165.136 106.729C165.113 106.535 165.164 106.339 165.28 106.18C165.403 106.027 165.583 105.927 165.779 105.904C165.975 105.88 166.173 105.934 166.33 106.055C167.485 107.019 168.681 107.941 169.878 108.864C171.075 109.786 172.209 110.667 173.364 111.568L175.296 113.036C175.611 113.287 175.968 113.539 176.304 113.769C176.563 113.954 176.809 114.157 177.039 114.377C177.135 114.488 177.188 114.629 177.188 114.776C177.188 114.922 177.135 115.063 177.039 115.174C176.98 115.245 176.907 115.303 176.823 115.343C176.74 115.383 176.648 115.404 176.556 115.404C176.444 115.395 176.336 115.359 176.241 115.3Z" fill="#25262B"/>
<path d="M168.954 103.414C168.73 103.414 168.514 103.326 168.353 103.169C168.192 103.013 168.099 102.799 168.093 102.575C168.099 102.349 168.191 102.133 168.352 101.973C168.512 101.813 168.728 101.721 168.954 101.715H172.587H174.33H175.149C175.386 101.694 175.625 101.694 175.863 101.715C175.998 101.744 176.12 101.818 176.208 101.924C176.295 102.031 176.344 102.164 176.346 102.302C176.343 102.438 176.294 102.568 176.206 102.672C176.118 102.775 175.997 102.844 175.863 102.868C175.396 102.989 174.917 103.06 174.435 103.078H172.65H170.088L168.954 103.414Z" fill="#25262B"/>
</g>
<defs>
<clipPath id="clip0_12_2241">
<rect width="233" height="228" fill="white"/>
</clipPath>
</defs>
</svg>
