<svg width="156" height="247" viewBox="0 0 156 247" fill="none" xmlns="http://www.w3.org/2000/svg">
<g clip-path="url(#clip0_94_11)">
<path d="M-121.365 237.592C-121.797 237.456 -122.164 237.163 -122.393 236.771C-122.621 236.38 -122.697 235.917 -122.603 235.474C-122.508 232.655 -122.411 229.815 -122.09 227.004C-120.98 217.256 -118.784 207.662 -115.542 198.402C-109.537 181.384 -100.747 165.48 -89.5283 151.34C-81.8822 141.642 -73.3587 132.667 -64.0657 124.53C-59.8754 120.972 -57.0637 116.06 -56.1183 110.647C-55.7595 108.611 -55.5688 106.549 -55.548 104.481C-55.6413 97.6641 -55.214 90.8495 -54.27 84.0972C-53.5306 79.6079 -52.5881 75.1254 -51.5607 70.8039C-49.5705 62.0683 -47.2894 53.4103 -44.6495 44.8321C-43.7876 42.0624 -42.6798 39.3687 -41.639 36.6502C-41.3904 35.9815 -41.1381 35.2 -40.3174 34.9796C-39.7181 35.2933 -39.78 35.7878 -39.8171 36.2154C-39.9699 40.7246 -40.3212 45.0916 -40.6522 49.5271C-40.9832 53.9625 -41.3486 58.0808 -41.7645 62.3553C-42.2408 67.0793 -42.7397 71.8025 -43.3062 76.5234C-43.8728 81.2443 -44.4015 85.515 -45.0055 90.0089C-45.4678 93.7889 -46.1757 97.5349 -47.1248 101.223C-48.0032 104.599 -49.4484 107.801 -51.3988 110.694C-52.2554 111.974 -53.1556 113.207 -53.9896 114.488C-54.5213 115.124 -54.8677 115.893 -54.9911 116.712C-54.269 116.736 -53.8461 116.254 -53.3834 115.931C-49.3332 113.066 -45.2808 110.134 -41.2096 107.315C-39.2436 105.959 -37.2566 104.65 -35.1839 103.478C-34.4686 103.108 -33.8437 102.585 -33.3536 101.946C-32.8635 101.308 -32.5201 100.569 -32.348 99.7825C-31.6911 97.1131 -31.1772 94.4104 -30.8087 91.6862C-30.1057 84.9385 -29.5908 78.4101 -29.0045 71.7713C-28.2652 63.2867 -27.6839 54.7968 -26.7198 46.3425C-25.8352 36.99 -24.1613 27.729 -21.7157 18.6584C-20.9487 16.0209 -19.9801 13.4354 -19.0341 10.8491C-18.9781 10.5117 -18.8516 10.19 -18.6629 9.90469C-18.4742 9.61941 -18.2276 9.37703 -17.9389 9.1933C-17.2276 9.5334 -17.4739 10.1345 -17.535 10.6064C-17.73 12.3604 -18.0596 14.0873 -18.232 15.8421C-19.1836 24.4608 -19.6732 33.1242 -19.6986 41.7951C-19.7788 44.1625 -19.7237 46.5344 -19.7595 48.9258C-19.8258 54.8825 -19.8252 60.8641 -20.0051 66.8395C-20.1304 72.4394 -20.7655 78.0162 -21.9023 83.501C-22.4399 86.0334 -23.1572 88.5371 -23.9415 91.016C-24.7245 93.3516 -25.9066 95.5339 -27.4354 97.466C-27.7425 97.8619 -28.0052 98.2819 -28.3387 98.7898C-28.1296 98.8211 -27.9176 98.8283 -27.7069 98.8112C-21.6597 95.6754 -15.6095 92.4495 -9.31188 89.2545C-9.12688 88.5162 -8.98832 87.767 -8.89705 87.0114C-8.63485 83.2733 -8.44036 79.533 -8.19921 75.7491C-7.91105 71.2445 -7.6401 66.5813 -7.30375 61.988C-6.74277 56.1854 -5.63324 50.449 -3.98999 44.8554C-1.81455 37.1033 0.75882 29.4682 3.71988 21.9805C5.13355 18.2589 6.52466 14.5365 8.05039 10.8413C8.81629 8.90351 9.82507 7.13194 10.7684 5.29044C10.9206 4.79902 11.2766 4.29193 12.0828 4.49982C12.3484 5.34906 12.3175 6.26328 11.9949 7.0926C11.5889 9.74232 11.1603 12.3913 10.6641 15.0379C9.36831 21.9462 7.93717 28.8498 6.68579 35.7821C5.74676 40.829 4.94235 45.9029 4.18307 50.9785C3.30393 56.8934 1.98096 62.7338 0.225325 68.4504L-4.01557 82.2787C-4.54668 83.9536 -5.16653 85.5803 -5.81581 87.4092C-5.49638 87.4731 -5.16863 87.4842 -4.8456 87.4421L6.95011 82.6502C8.32015 81.1236 9.40498 79.3638 10.1531 77.4544C14.6795 65.0356 20.8678 53.2864 28.5493 42.527C33.6722 34.8907 38.8392 27.286 44.0504 19.7129C46.5215 16.1174 49.0602 12.5242 51.7072 9.07015C51.9786 8.73363 52.2763 8.41916 52.5975 8.12972C53.3019 8.67274 53.0572 9.22875 52.9058 9.69763C52.3047 11.4379 51.7261 13.1789 51.0363 14.871C47.505 23.7575 43.4918 32.1988 39.2094 40.5859C36.6435 45.6453 34.0333 50.6807 31.3787 55.692C28.3649 61.2984 24.905 66.6536 21.0325 71.706C18.9649 74.5701 16.5225 77.1444 13.7705 79.3601C13.4812 79.6365 13.2073 79.9286 12.9503 80.2352C13.3755 80.2286 13.7997 80.1902 14.2191 80.1202C19.5134 78.539 24.8076 76.9577 30.0582 75.3299C30.7916 75.1107 31.4676 74.7329 32.0384 74.2232C33.1163 73.2497 34.1118 72.1887 35.0147 71.0512C37.3741 68.0839 39.5989 65.0895 41.6922 61.9778C46.8489 54.4468 52.7623 47.4621 59.3403 41.1325C65.4588 35.2228 71.7743 29.5004 78.0019 23.7073C81.2661 20.703 84.6184 17.7694 87.9488 14.8125C88.502 14.1978 89.2239 13.7592 90.0245 13.551C90.0068 13.867 89.9352 14.1775 89.8127 14.4693C89.1676 15.5083 88.4999 16.5466 87.8112 17.539C83.6815 23.4182 79.3411 29.0721 74.79 34.5007C69.4164 41.0902 64.2459 47.6866 58.9852 54.2799C57.1209 56.6319 55.3011 59.008 53.3932 61.3134C50.0068 65.4971 45.8377 68.9821 41.1186 71.574C40.6589 71.8067 40.2413 72.1311 39.6176 72.5389C39.9136 72.6743 40.2335 72.7497 40.5588 72.7607C40.8842 72.7718 41.2085 72.7182 41.5129 72.6031C45.8102 71.7781 50.0857 70.9298 54.3822 70.1274C55.9505 69.8419 57.5421 69.5347 59.151 69.3861C64.5891 68.8932 69.7758 67.1503 75.0689 66.2687C79.7295 65.3372 84.4437 64.6979 89.1842 64.3544C92.8493 64.1851 96.5302 64.2196 100.208 64.3442C107.27 64.5835 114.263 65.5427 121.257 66.4568C126.205 67.0985 131.16 67.5372 136.111 68.0661C141.063 68.595 146.359 68.9551 151.507 69.0392C152.113 69.0966 152.713 69.2 153.303 69.3484C152.86 69.6781 152.38 69.9571 151.875 70.1802C148.307 71.0487 144.686 71.6801 141.036 72.0702C134.48 72.7946 127.881 73.0688 121.288 72.8908C113.458 72.6255 105.643 72.609 97.8308 72.5023C87.5351 72.3567 77.2758 71.8059 67.0459 71.053C64.2073 70.9347 61.3646 71.149 58.5759 71.6915C54.3509 72.3835 50.1439 73.2115 45.9151 74.0163C45.2847 74.1097 44.6908 74.3701 44.1953 74.7706C44.5056 74.8846 44.8299 74.9563 45.1594 74.9838C46.9193 75.0434 48.7018 75.1038 50.4461 74.9598C57.2033 74.4875 63.9827 75.4874 70.3155 77.8902C75.5582 79.8284 80.7016 82.0342 85.9149 84.1746C90.3695 86.0409 94.8225 87.9524 99.274 89.909C103.971 91.9642 108.642 94.1088 113.314 96.2083C115.272 97.0872 117.254 97.9443 119.189 98.8225C119.616 99.0656 120.022 99.3436 120.403 99.6537C119.925 100.427 119.346 100.205 118.875 100.098C116.409 99.5409 113.944 98.9608 111.48 98.3356C93.8747 93.9244 76.5315 88.4387 59.1325 83.2671C53.4744 81.5857 47.9578 79.7284 42.2336 77.9996C40.1769 77.3656 38.0915 76.9112 36.1212 76.393C29.9182 77.6945 23.845 79.5511 17.975 81.9403C18.5917 82.3734 19.3213 82.6177 20.0746 82.6435C23.9784 83.4303 27.8815 84.2397 31.8109 84.9372C39.0627 86.2435 46.0782 88.6267 52.6243 92.0076C60.1004 95.7532 67.3505 99.9331 74.3374 104.526C78.402 107.237 82.5357 109.905 86.6469 112.572C91.0262 115.402 95.258 118.453 99.3258 121.714C99.9205 122.164 100.468 122.679 101.389 123.477C100.908 123.512 100.424 123.496 99.9454 123.428C97.9377 122.683 95.8825 122.004 93.9237 121.148C84.7552 117.068 75.6124 112.898 66.4401 108.931C59.7636 105.973 53.0826 103.151 46.4091 100.103C35.877 95.2891 25.6513 89.8317 15.7899 83.7623C15.414 83.5239 14.9914 83.329 14.5485 83.0657C12.4127 83.5852 10.3202 84.2689 8.28984 85.1108C6.00451 85.8911 3.98762 86.7482 1.87896 87.6474C-0.22859 88.4204 -2.26997 89.3627 -4.22519 90.4652C-4.004 90.7248 -3.76297 90.9669 -3.50427 91.1893C-2.22236 92.0228 -0.965274 92.9231 0.367878 93.5777C4.83964 96.1072 9.15761 98.8991 13.2992 101.939C17.2253 104.735 21.1506 107.554 25.1 110.329C35.1805 117.655 44.8235 125.563 53.9795 134.015C56.8648 136.66 59.4892 139.575 61.8165 142.722C62.0931 143.089 62.3442 143.475 62.568 143.876C62.568 143.876 62.5589 144.147 62.5482 144.462C62.1259 144.436 61.7101 144.346 61.3148 144.195C60.3254 143.62 59.3524 143 58.3961 142.335C47.0132 134.275 35.2021 126.855 23.1764 119.766C19.411 117.562 15.6952 115.224 12.1141 112.913C10.4337 111.841 8.85117 110.546 7.2151 109.497C1.46094 105.466 -3.34191 100.226 -6.85726 94.1455L-7.71395 92.7622C-7.71395 92.7622 -7.93348 92.5741 -8.04325 92.4801C-14.6725 95.0895 -21.014 98.3768 -26.9664 102.29C-26.7681 102.595 -26.5436 102.882 -26.2952 103.148L-17.5327 111.209C-11.1773 116.977 -4.82997 122.76 1.50935 128.558C2.13094 129.125 2.71406 129.733 3.25481 130.377C8.66372 136.745 14.1185 143.092 19.4349 149.525C21.9814 152.884 24.197 156.482 26.0509 160.267C26.0509 160.267 26.041 160.561 26.0356 160.718C26.0303 160.876 25.3714 160.989 25.088 160.686C24.4279 160.167 23.7919 159.604 23.1785 159.042C15.7075 152.197 8.28242 145.332 0.78736 138.532C-2.28133 135.765 -5.51331 133.15 -8.69942 130.514C-12.6974 127.173 -16.578 123.701 -20.2472 119.988C-23.2497 117.013 -25.8544 113.662 -27.9963 110.02C-29.0205 108.247 -29.8371 106.346 -30.8093 104.372C-31.15 104.448 -31.4801 104.566 -31.7925 104.722C-39.4966 109.399 -46.9055 114.546 -53.9775 120.132C-54.3259 120.413 -54.6088 120.765 -55.0287 121.157C-54.7436 121.537 -54.414 121.882 -54.047 122.183C-50.0877 124.957 -46.3621 128.05 -42.9077 131.432C-37.3603 136.6 -31.86 141.828 -26.4069 147.114C-18.3259 154.966 -11.0513 163.605 -4.69173 172.904C-4.06643 173.783 -3.41779 174.64 -2.81505 175.519C-2.57908 175.888 -2.41232 176.3 -2.22148 176.667C-2.71058 177.102 -3.085 176.819 -3.37221 176.628C-4.91495 175.493 -6.50512 174.423 -7.97712 173.199C-13.4426 168.5 -18.9585 163.957 -24.339 159.418C-30.1834 154.57 -36.1001 149.855 -41.9235 145.053C-45.159 142.465 -48.1895 139.63 -50.9881 136.575C-52.1923 135.271 -53.3297 133.906 -54.3961 132.487C-56.0219 130.34 -57.1281 127.845 -57.6279 125.2C-57.7495 124.698 -57.8987 124.203 -58.0746 123.717C-58.4293 123.859 -58.7683 124.036 -59.0865 124.247C-79.6381 141.45 -96.4946 161.6 -107.693 186.095C-112.417 196.407 -115.821 207.273 -117.824 218.436C-118.636 222.964 -119.191 227.535 -119.485 232.126C-119.53 233.433 -119.709 234.714 -119.888 236.017C-120.035 237.028 -120.081 237.026 -121.365 237.592Z" fill="#25262B" fill-opacity="0.38"/>
</g>
<defs>
<clipPath id="clip0_94_11">
<rect width="237.478" height="270.123" fill="white" transform="translate(155.336 9.35352) rotate(91.9406)"/>
</clipPath>
</defs>
</svg>
