<svg width="225" height="231" viewBox="0 0 225 231" fill="none" xmlns="http://www.w3.org/2000/svg">
<g clip-path="url(#clip0_12_2017)">
<path d="M38.3927 122.892C38.092 122.723 37.7913 122.534 37.4906 122.384C30.9133 119.031 24.336 115.717 17.7775 112.345C16.0111 111.46 14.2634 110.462 12.5721 109.501C11.5937 108.898 10.6694 108.212 9.80961 107.448C9.32881 107.028 8.92774 106.524 8.6257 105.96C8.30168 105.435 8.18934 104.806 8.31151 104.201C8.43368 103.596 8.7812 103.06 9.28343 102.702C10.7003 101.532 12.466 100.87 14.301 100.819C17.2765 100.733 20.2431 101.186 23.0582 102.156C27.4151 103.583 31.6455 105.372 35.7054 107.505C37.5846 108.465 39.4638 109.388 41.1927 110.424C41.4356 110.554 41.6867 110.667 41.9444 110.763C41.8637 110.55 41.7695 110.343 41.6625 110.142C39.3323 106.168 37.0208 102.175 34.6718 98.2197C33.8825 96.8825 32.9429 95.6206 32.1348 94.2834C31.5595 93.3996 31.0627 92.4668 30.6503 91.4959C30.4593 91.0792 30.3604 90.626 30.3603 90.1674C30.3603 89.7089 30.4592 89.2557 30.6501 88.839C30.8411 88.4222 31.1196 88.0517 31.4667 87.7529C31.8138 87.4541 32.2212 87.2339 32.661 87.1076C33.8619 86.6338 35.1885 86.5872 36.4195 86.9757C37.716 87.3367 38.9746 87.8224 40.1779 88.426C43.8183 90.3824 47.0876 92.9642 49.8372 96.0538C52.3773 98.7978 54.6725 101.76 56.6964 104.906C59.3022 109.012 61.8079 113.174 64.2133 117.393L64.777 118.297C64.777 117.882 64.777 117.694 64.777 117.506C63.8374 111.856 62.8978 106.205 61.9582 100.668C61.7547 99.5359 61.6353 98.3902 61.6011 97.2403C61.5647 96.9011 61.5988 96.558 61.7013 96.2327C61.8038 95.9074 61.9726 95.6069 62.1969 95.3503C62.4211 95.0936 62.6961 94.8864 63.0044 94.7416C63.3126 94.5969 63.6475 94.5178 63.9878 94.5094C65.1631 94.2975 66.3752 94.5111 67.408 95.1121C69.7732 96.4356 71.725 98.3918 73.0456 100.762C76.1334 106.621 78.4696 112.848 79.9988 119.295C80.2619 120.444 80.5813 121.593 80.9008 122.723C81.604 125.5 82.935 128.077 84.7908 130.256C84.8767 130.282 84.968 130.282 85.0539 130.256C90.3721 130.445 95.6903 130.934 101.027 130.784C105.45 130.732 109.793 129.594 113.675 127.469C115.422 126.49 117.283 125.699 119.106 124.851C121.376 123.833 123.752 123.068 126.19 122.572L127.186 122.308C126.528 121.555 126.002 120.877 125.307 120.293C122.932 117.912 120.245 115.865 117.32 114.21L110.875 110.669C107.979 109.153 105.461 107.003 103.508 104.378C102.172 102.533 101.337 100.372 101.084 98.1067C100.957 96.8235 101.271 95.5354 101.976 94.4562C102.68 93.377 103.731 92.5717 104.955 92.1739C106.423 91.7072 107.992 91.6616 109.484 92.0421C111.665 92.6558 113.785 93.4691 115.817 94.4717C120.373 96.7272 124.796 99.2426 129.065 102.005C130.945 103.267 132.955 104.435 134.891 105.772C138.227 107.872 141.955 109.269 145.847 109.878C151.784 110.948 157.627 112.485 163.324 114.473C168.285 116.19 172.863 118.865 176.798 122.346C180.295 125.289 182.813 129.231 184.014 133.647C185.212 137.86 186.117 142.152 186.72 146.491C186.946 148.186 187.228 149.844 187.528 151.52C187.946 153.658 188.681 155.721 189.708 157.641C197.068 171.655 205.533 185.057 215.021 197.72C218.16 201.882 221.411 205.951 224.643 210.056C224.847 210.328 224.958 210.658 224.958 210.998C224.958 211.338 224.847 211.669 224.643 211.94C222.887 215.325 220.502 218.343 217.615 220.83C212.815 224.945 207.118 227.873 200.983 229.38C195.225 230.896 189.253 231.424 183.319 230.943H183.037C182.415 230.971 181.804 230.769 181.32 230.378C180.836 229.986 180.511 229.43 180.406 228.815C179.222 225.369 178.001 221.941 176.647 218.532C173.664 210.237 169.263 202.526 163.643 195.743C163.079 195.065 162.459 194.424 161.877 193.727C157.664 188.875 152.234 185.24 146.148 183.199C139.746 181.003 133.188 179.297 126.528 178.095C120.026 176.89 113.562 175.59 107.078 174.328C105.199 173.952 103.207 173.518 101.29 173.029C97.3603 171.934 93.674 170.1 90.4285 167.623C82.2914 161.653 73.9289 156.003 65.9985 149.787C62.7776 147.419 59.9219 144.589 57.5232 141.387C57.1557 140.894 56.6211 140.553 56.0198 140.427C53.1634 139.636 50.3821 138.732 47.4318 138.11C40.2531 136.566 33.0369 135.172 25.8582 133.665C23.979 133.251 22.0998 132.705 20.2205 132.121C19.4336 131.852 18.6922 131.465 18.0218 130.972C17.6892 130.747 17.4299 130.429 17.2762 130.057C17.1226 129.685 17.0812 129.277 17.1574 128.882C17.2237 127.933 17.5453 127.021 18.0881 126.242C18.6308 125.462 19.3743 124.845 20.2393 124.456C22.4571 123.456 24.8397 122.875 27.2676 122.742C30.7339 122.396 34.2288 122.466 37.6786 122.949H38.4115L38.3927 122.892ZM217.991 204.161C217.709 203.766 217.54 203.502 217.352 203.257C216.374 201.995 215.378 200.734 214.42 199.491C204.456 186.314 195.593 172.335 187.923 157.698C187.047 156.159 186.413 154.495 186.044 152.763C185.63 150.616 185.254 148.488 184.935 146.322C184.415 142.101 183.573 137.927 182.417 133.835C181.468 130.462 179.654 127.397 177.155 124.945C173.349 121.083 168.742 118.107 163.662 116.225C157.876 114.106 151.915 112.505 145.847 111.441C141.422 110.755 137.189 109.145 133.425 106.714C131.321 105.32 129.178 104.002 127.055 102.627C122.902 99.9877 118.605 97.5857 114.182 95.4322C112.231 94.4019 110.152 93.6356 107.999 93.1533C107.067 92.9794 106.103 93.0998 105.241 93.4978C104.38 93.8959 103.662 94.552 103.188 95.3757C102.561 96.6087 102.408 98.0295 102.756 99.3686C103.094 100.829 103.735 102.202 104.635 103.399C106.458 105.834 108.802 107.829 111.495 109.238C113.787 110.5 116.118 111.724 118.391 113.004C122.109 115.083 125.415 117.828 128.145 121.103C128.426 121.442 128.727 121.762 128.99 122.026C129.115 122.043 129.241 122.043 129.366 122.026H130.024C135.23 121.105 140.568 121.252 145.715 122.459C146.145 122.566 146.566 122.704 146.974 122.873C147.425 123.081 147.576 123.42 147.275 124.041C146.909 124.111 146.539 124.148 146.166 124.154C145.697 124.154 145.227 124.004 144.738 123.928C142.746 123.646 140.773 123.269 138.781 123.118C135.459 122.974 132.132 123.246 128.878 123.928C125.41 124.479 122.029 125.486 118.824 126.923C117.301 127.639 115.779 128.392 114.276 129.164C112.259 130.268 110.121 131.134 107.905 131.744C104.471 132.499 100.949 132.778 97.438 132.573C93.8299 132.441 90.2406 132.083 86.6513 131.839H85.6177C88.3297 135.912 91.5225 139.643 95.1266 142.951C97.2313 142.951 99.0166 142.951 100.764 142.951C105.391 143.101 109.998 143.63 114.539 144.533C117.189 145.041 119.838 145.663 122.469 146.284C123.462 146.539 124.502 146.539 125.495 146.284C126.566 146.002 127.675 145.757 128.746 145.456C132.145 144.431 135.684 143.954 139.232 144.043C143.411 144.196 147.567 144.719 151.654 145.606C159.904 147.354 167.524 151.319 173.697 157.076C174.094 157.413 174.453 157.792 174.768 158.206C175.238 158.865 175.107 159.204 174.148 159.638C173.735 159.28 173.209 158.922 172.757 158.489C167.867 153.813 161.991 150.299 155.563 148.205C150.375 146.584 144.985 145.702 139.552 145.587C136.551 145.443 133.546 145.767 130.644 146.548C129.253 146.943 127.844 147.226 126.472 147.621C124.899 148.064 123.235 148.064 121.661 147.621C114.988 145.868 108.158 144.777 101.272 144.363C99.8151 144.232 98.3496 144.232 96.893 144.363C96.2558 144.498 95.595 144.471 94.9711 144.283C94.3473 144.095 93.7804 143.754 93.3225 143.29C90.2598 140.38 87.4902 137.175 85.0539 133.722C84.227 132.535 83.5129 131.273 82.6485 130.143C80.9066 127.759 79.6897 125.03 79.078 122.139C77.9808 117.205 76.4527 112.378 74.5114 107.712C73.5155 105.452 72.6322 103.192 71.3919 101.026C70.1967 99.0426 68.4804 97.4268 66.4308 96.3551C65.6913 95.9464 64.8233 95.8385 64.0066 96.0538C63.33 96.2044 63.0669 96.4869 63.0857 97.1838C63.0924 97.8534 63.1553 98.5212 63.2737 99.1802C63.6871 101.61 64.1945 104.021 64.5891 106.45C65.6039 112.797 66.6563 119.144 67.5395 125.51C67.9529 129.067 69.0846 132.502 70.8657 135.605C73.3275 139.692 75.8457 143.723 78.6082 147.621C79.8297 149.354 81.0324 151.143 82.1975 152.933C82.5656 153.492 82.8802 154.085 83.1371 154.703C83.1988 154.788 83.2421 154.885 83.2643 154.988C83.2864 155.09 83.2869 155.196 83.2656 155.299C83.2444 155.402 83.2019 155.499 83.1409 155.585C83.08 155.67 83.0019 155.742 82.9116 155.795C82.677 155.552 82.4574 155.294 82.2539 155.023L77.3303 148.299C74.3382 144.235 71.5897 139.996 69.0993 135.605C67.6798 133.208 66.7295 130.562 66.2992 127.808C66.0737 126.377 65.9234 124.945 65.6791 123.533C65.5908 122.931 65.3933 122.35 65.0965 121.819C62.0146 116.564 58.9514 111.121 55.6064 106.036C53.6757 103.018 51.5011 100.165 49.1043 97.504C46.2793 94.321 42.9214 91.6567 39.182 89.6313C37.9734 88.9609 36.6567 88.5083 35.2919 88.2941C34.4357 88.1576 33.5584 88.2823 32.7738 88.652C32.4221 88.7763 32.1274 89.0243 31.9443 89.3498C31.7611 89.6754 31.702 90.0564 31.7778 90.4224C31.8534 90.926 32.0055 91.4151 32.2288 91.8726C32.6422 92.6636 33.112 93.417 33.6006 94.1704C34.8409 96.0538 36.1188 98.0878 37.3591 100.084C39.2759 103.186 41.1551 106.325 42.9968 109.501C44.6129 112.232 46.323 114.907 47.6949 117.751C50.1566 122.798 52.4117 127.959 54.7232 133.082C56.1494 136.472 58.0475 139.642 60.3608 142.499C62.3375 144.718 64.5281 146.737 66.9006 148.526C74.8497 154.741 83.1935 160.429 91.3305 166.418C95.2456 169.285 99.733 171.271 104.485 172.238C113.092 174.121 121.736 175.778 130.4 177.379C136.615 178.517 142.707 180.251 148.591 182.559C152.756 184.084 156.585 186.406 159.866 189.395C162.415 191.818 164.777 194.431 166.932 197.212C171.872 203.902 175.781 211.298 178.527 219.153C178.658 219.511 178.809 219.869 178.959 220.246C179.26 220.246 179.523 220.246 179.767 220.246C181.27 220.095 182.755 220.02 184.24 219.794C192.21 218.598 199.918 216.05 207.035 212.26C210.334 210.563 213.398 208.442 216.149 205.951C216.788 205.386 217.314 204.783 217.991 204.161ZM218.911 205.329L218.404 205.8C216.837 207.526 215.064 209.05 213.123 210.339C208.186 213.648 202.834 216.289 197.206 218.193C191.743 220.188 186.008 221.338 180.199 221.602L179.598 221.715C180.5 224.314 181.327 226.875 182.436 229.248H183.074C186.902 229.459 190.74 229.302 194.538 228.778C200.572 228.039 206.396 226.085 211.658 223.033C216.32 220.372 220.207 216.535 222.933 211.902C223.121 211.582 223.271 211.243 223.44 210.923L218.911 205.329ZM50.7392 128.618L50.8707 128.505C50.7392 128.222 50.6452 127.94 50.5137 127.657C49.311 125.021 48.1459 122.346 46.8868 119.728C46.0035 117.845 45.0076 116.093 44.0867 114.266C43.8131 113.726 43.371 113.289 42.8277 113.023L35.7054 109.238C31.6976 107.111 27.5321 105.298 23.2461 103.813C20.4779 102.814 17.5625 102.286 14.6204 102.25C13.3217 102.199 12.0305 102.471 10.862 103.041C8.81362 104.134 9.1143 105.094 10.3546 106.168C11.3952 107.068 12.5219 107.863 13.7184 108.541C15.4285 109.52 17.2138 110.424 18.9802 111.272C25.52 114.605 32.1348 117.845 38.6182 121.235C42.332 123.09 45.8892 125.244 49.2546 127.676C49.7808 128.072 50.2694 128.317 50.7392 128.618ZM55.4749 138.506C55.4582 138.357 55.4202 138.211 55.3621 138.073C54.4225 136.076 53.4829 134.08 52.5433 132.102C52.3532 131.733 52.0757 131.416 51.7352 131.179C49.856 129.842 47.9767 128.543 45.9848 127.205C44.0659 125.884 41.8646 125.033 39.5578 124.719C35.4849 124.102 31.3539 123.963 27.2489 124.305C25.0429 124.452 22.877 124.968 20.8407 125.83C19.921 126.265 19.1922 127.022 18.7923 127.959C18.1158 129.409 18.3037 129.974 19.8447 130.464C21.4869 130.995 23.1554 131.442 24.8434 131.801C29.3912 132.743 33.9953 133.552 38.543 134.513C44.0304 135.681 49.5553 136.773 54.9299 138.412C55.1092 138.455 55.2913 138.487 55.4749 138.506Z" stroke="#E3B773" stroke-width="4"/>
<path d="M218.836 205.292L218.329 205.762C216.762 207.488 214.989 209.013 213.048 210.301C208.111 213.611 202.759 216.252 197.131 218.155C191.668 220.151 185.933 221.3 180.124 221.564L179.523 221.677C180.425 224.276 181.252 226.838 182.36 229.211H182.999C186.827 229.422 190.665 229.264 194.463 228.74C200.497 228.001 206.32 226.047 211.582 222.996C216.245 220.334 220.132 216.497 222.858 211.865C223.046 211.544 223.196 211.205 223.365 210.885L218.836 205.292Z" fill="white"/>
<path d="M40.441 35.7848C40.8921 34.6359 41.2491 33.3929 41.8129 32.2628C49.5177 17.1955 61.1125 6.59196 77.5182 1.97761C84.4233 -0.00784222 91.6652 -0.530826 98.783 0.441942C105.901 1.41471 112.739 3.86193 118.861 7.62783C127.741 12.8115 135.073 20.2838 140.097 29.2682C140.698 30.3041 141.149 31.4529 141.694 32.5265C141.844 32.8088 141.895 33.1341 141.837 33.4489C141.779 33.7637 141.616 34.0494 141.374 34.2592C137.642 38.6087 133.192 42.2844 128.22 45.1265C120.982 49.2295 113.103 52.076 104.917 53.5453C94.543 55.5227 83.8898 55.5227 73.5154 53.5453C64.9164 52.0628 56.715 48.8185 49.4237 44.0153C46.4315 41.9769 43.7153 39.5586 41.3431 36.8207C41.0048 36.5381 40.7793 36.218 40.441 35.7848ZM42.9592 33.713L43.0908 33.826C43.3163 33.713 43.5418 33.6189 43.7673 33.487C47.0453 31.6278 50.4634 30.0283 53.9903 28.7032C65.1574 24.6179 76.9263 22.4282 88.8124 22.2242C95.4203 22.0448 102.032 22.4038 108.582 23.2978C118.809 24.6187 128.821 27.2651 138.368 31.1704L139.382 31.5283C139.332 31.3422 139.269 31.1597 139.194 30.9821C138.217 29.3059 137.315 27.5355 136.225 25.9534C131.262 18.724 124.686 12.7528 117.02 8.51304C101.253 -0.0376376 85.0727 -0.715665 68.8926 7.06281C57.6484 12.6027 48.6022 21.7884 43.2223 33.1292C43.123 33.3248 43.0351 33.526 42.9592 33.7319V33.713ZM140.491 33.713C131.383 29.7711 121.819 26.9871 112.021 25.426C112.272 28.355 111.912 31.3043 110.964 34.0864C110.016 36.8684 108.501 39.4223 106.515 41.5857C104.56 43.7814 102.153 45.5263 99.4601 46.7001C96.7674 47.8739 93.8528 48.4486 90.9171 48.3848C86.0377 48.4037 81.3196 46.6355 77.6498 43.4126C75.1074 41.2731 73.1025 38.5647 71.7967 35.5057C70.491 32.4468 69.921 29.123 70.1328 25.8027C60.4126 27.5732 51.0525 30.9463 42.433 35.7848C42.6397 36.0485 42.7337 36.218 42.8652 36.3498C43.88 37.3292 44.8384 38.3462 45.8908 39.2691C51.48 44.0266 57.9759 47.5957 64.9838 49.7597C74.0839 52.6682 83.6332 53.906 93.1722 53.4135C101.856 53.072 110.426 51.3098 118.542 48.1964C126.508 45.2414 133.735 40.5817 139.721 34.5417L140.491 33.713ZM72.3127 25.3507C71.8982 28.7871 72.4366 32.2715 73.8687 35.4213C75.3009 38.5711 77.5714 41.2644 80.431 43.2054C83.7298 45.412 87.6273 46.5453 91.5922 46.451C95.5571 46.3566 99.3965 45.0391 102.587 42.6781C105.279 40.7059 107.385 38.0385 108.683 34.9603C109.98 31.8822 110.419 28.5088 109.954 25.2C107.408 24.6572 104.814 24.3795 102.211 24.3713C102.631 26.0223 102.676 27.7465 102.343 29.4171C102.009 31.0877 101.307 32.6622 100.286 34.0247C99.2658 35.3871 97.9535 36.5029 96.4459 37.2899C94.9383 38.0769 93.2737 38.5151 91.5748 38.5722C88.768 38.6647 86.0342 37.6659 83.9452 35.7848C82.3572 34.3879 81.1929 32.5719 80.5848 30.544C79.9768 28.516 79.9496 26.3576 80.5062 24.3148L72.3127 25.3507ZM82.6861 24.1453C81.9686 26.009 81.8739 28.0556 82.416 29.9778C82.9582 31.9 84.1081 33.594 85.6928 34.8054C87.3986 36.1074 89.4973 36.7855 91.6406 36.7273C93.7838 36.669 95.8428 35.8779 97.4756 34.4852C100.464 31.9238 101.666 27.1211 100.031 24.0888C94.2576 23.6369 88.4568 23.6558 82.6861 24.1453Z" stroke="#E3B773" stroke-width="4"/>
<path d="M160.862 73.5848L160.129 74.2063C159.866 74.0368 159.64 73.9238 159.434 73.7731L134.214 53.3382C133.125 52.453 132.072 51.4548 131.02 50.5884C130.719 50.3247 130.343 50.061 130.55 49.5148C131.076 49.3642 131.414 49.722 131.753 49.9669C133.331 51.1722 134.91 52.3588 136.432 53.6018L159.152 72.1346L160.862 73.5848Z" stroke="#E3B773" stroke-width="4"/>
<path d="M82.1223 58.574C82.1504 58.9375 82.1504 59.3028 82.1223 59.6663C81.8592 63.0376 81.5773 66.4089 81.2578 69.7802C80.7317 75.4305 80.1679 81.0807 79.6229 86.7309C79.4538 88.3318 79.3034 89.9139 79.0967 91.4959C79.0967 92.2681 78.8712 92.3246 77.988 92.2116C77.988 91.8349 77.988 91.4206 77.988 91.0251C78.4766 85.9022 78.9652 80.7982 79.4726 75.6753C79.9424 71.0421 80.4498 66.4089 80.9384 61.7569C80.9384 60.9094 81.1639 60.0619 81.2954 59.1955C81.333 58.7246 81.4645 58.3856 82.1223 58.574Z" stroke="#E3B773" stroke-width="4"/>
<path d="M91.2366 110.744C91.1451 110.36 91.0823 109.97 91.0486 109.577C91.0486 101.227 91.105 92.8835 91.2178 84.5463C91.2178 83.9812 91.2178 83.3786 91.6124 82.9454C92.0822 82.7947 92.3077 82.9454 92.3829 83.4162C92.4421 83.7331 92.4735 84.0544 92.4769 84.3768C92.4769 92.7642 92.4769 101.145 92.4769 109.52C92.4961 109.74 92.4961 109.96 92.4769 110.179C92.3077 110.726 92.0822 110.97 91.2366 110.744Z" stroke="#E3B773" stroke-width="4"/>
<path d="M124.029 83.8683C123.371 84.1885 123.089 83.8683 122.883 83.3221C122.394 82.2485 121.924 81.175 121.455 80.0826C118.573 73.4279 115.704 66.7732 112.848 60.1185C112.566 59.4593 112.321 58.8001 112.096 58.1409C111.87 57.4817 111.983 57.6512 112.472 57.1992C113.092 57.1992 113.242 57.8019 113.449 58.2539C114.426 60.4387 115.328 62.6234 116.343 64.827C118.849 70.6405 121.354 76.4539 123.86 82.2674C124.029 82.7571 124.33 83.2468 124.029 83.8683Z" stroke="#E3B773" stroke-width="4"/>
<path d="M56.3768 52.5092C56.2813 52.8105 56.142 53.0961 55.9634 53.3567C55.4336 53.9128 54.8754 54.4409 54.2909 54.9388L35.9496 70.2132C35.7489 70.4163 35.5047 70.5708 35.2355 70.6653C35.1043 70.6946 34.9679 70.6929 34.8374 70.6602C34.707 70.6275 34.5859 70.5648 34.4838 70.4769C34.4228 70.3574 34.391 70.2251 34.391 70.0908C34.391 69.9566 34.4228 69.8242 34.4838 69.7047C34.6373 69.4627 34.8349 69.2518 35.0664 69.0832L53.2197 54.1854C53.8399 53.6769 54.4788 53.2061 55.099 52.7541C55.416 52.5671 55.7494 52.4095 56.095 52.2832L56.3768 52.5092Z" stroke="#E3B773" stroke-width="4"/>
<path d="M134.59 73.6976C135.004 73.4151 135.229 73.6976 135.436 73.9236C135.643 74.1496 136.019 74.677 136.282 75.0725L147.181 91.6653C147.35 91.929 147.501 92.2115 147.689 92.5693L147.238 93.172C147.113 93.1876 146.987 93.1876 146.862 93.172C146.625 92.9631 146.41 92.7295 146.223 92.4752L135.304 75.5245C135.023 75.0725 134.797 74.564 134.553 74.0743C134.53 73.9476 134.543 73.8173 134.59 73.6976Z" stroke="#E3B773" stroke-width="4"/>
<path d="M133.557 70.6655L132.955 71.3435C132.677 71.1227 132.419 70.8768 132.185 70.609C128.815 65.4108 125.464 60.2 122.131 54.9767C121.944 54.6463 121.786 54.2996 121.661 53.9408C122.169 53.4699 122.469 53.6959 122.714 53.9408C122.958 54.1856 123.353 54.826 123.653 55.278L133.049 69.6484C133.219 70.0251 133.425 70.3264 133.557 70.6655Z" stroke="#E3B773" stroke-width="4"/>
<path d="M91.4057 58.8944C92.1574 58.7814 92.2701 59.1581 92.3265 59.5536C92.3829 59.9491 92.4392 60.7589 92.458 61.437C92.5332 66.0325 92.6021 70.6343 92.6648 75.2424C92.6648 75.7697 92.552 76.2971 92.5144 76.7679C91.5748 77.0881 91.3117 76.9563 91.199 76.1841C91.1796 75.9899 91.1796 75.7943 91.199 75.6002C91.199 70.6657 91.199 65.7123 91.199 60.7589C91.2285 60.1337 91.2975 59.5109 91.4057 58.8944Z" stroke="#E3B773" stroke-width="4"/>
<path d="M72.4067 57.7642C72.549 58.0034 72.6242 58.2767 72.6242 58.5552C72.6242 58.8337 72.549 59.107 72.4067 59.3462C71.0912 63.339 69.7758 67.3507 68.4415 71.3435C67.9529 72.8503 67.4267 74.357 66.9005 75.8637C66.7502 76.2781 66.6562 76.7489 66.0737 76.7866C65.9868 76.7704 65.9046 76.7352 65.8328 76.6836C65.7611 76.6319 65.7015 76.5651 65.6585 76.4878C65.6154 76.4104 65.5899 76.3246 65.5837 76.2362C65.5775 76.1479 65.5908 76.0593 65.6227 75.9767C65.6654 75.7579 65.7283 75.5435 65.8106 75.3364L71.4107 59.1202C71.4777 58.8422 71.5853 58.5756 71.7302 58.3292C71.9279 58.1097 72.1557 57.9195 72.4067 57.7642Z" stroke="#E3B773" stroke-width="4"/>
<path d="M48.221 78.8019C48.1276 78.6195 48.0938 78.4124 48.1241 78.2096C48.1544 78.0069 48.2475 77.8188 48.3901 77.6719L55.9071 66.8611C56.1832 66.5246 56.4848 66.2097 56.8091 65.9194H57.0534C57.0877 66.1252 57.0877 66.3352 57.0534 66.541C56.9387 66.8742 56.7808 67.1908 56.5836 67.4827L49.2546 78.2181C49.0855 78.6701 48.86 79.1033 48.221 78.8019Z" stroke="#E3B773" stroke-width="4"/>
<path d="M101.911 58.3857C102.111 58.6482 102.281 58.9325 102.418 59.2333C103.151 61.5122 103.846 63.7911 104.541 66.0889C104.588 66.4704 104.588 66.8562 104.541 67.2378C103.959 67.5579 103.639 67.3884 103.433 66.9364C103.345 66.7688 103.275 66.592 103.226 66.4091C102.606 64.1678 101.986 61.9265 101.347 59.6665C101.347 59.2898 101.159 58.7813 101.911 58.3857Z" stroke="#E3B773" stroke-width="4"/>
<path d="M63.9877 55.9561C64.5327 56.1821 64.6079 56.4457 64.4199 56.8036C64.232 57.1614 64.1193 57.3686 63.9501 57.6323C62.8414 59.4215 61.7139 61.1919 60.5863 62.9812C60.4513 63.1991 60.3005 63.4068 60.1353 63.6027C59.9098 63.904 59.6091 64.13 59.2333 63.8664C58.8574 63.6027 58.9702 63.2448 59.1017 62.9058C59.2333 62.5668 59.3085 62.5857 59.4024 62.4161C60.6803 60.5327 61.9582 58.6493 63.1609 56.7659C63.4153 56.4751 63.6918 56.2043 63.9877 55.9561Z" stroke="#E3B773" stroke-width="4"/>
<path d="M106.59 73.6976C106.12 73.9236 105.782 73.6976 105.631 73.3586C105.395 72.6757 105.207 71.9771 105.068 71.268C105.068 70.8536 105.068 70.5146 105.65 70.5335C106.015 70.9682 106.286 71.4734 106.448 72.0177C106.61 72.562 106.658 73.1338 106.59 73.6976Z" stroke="#E3B773" stroke-width="4"/>
<path d="M82.6861 24.1456C81.9686 26.0092 81.8739 28.0558 82.416 29.978C82.9582 31.9003 84.108 33.5943 85.6928 34.8057C87.3985 36.1076 89.4972 36.7858 91.6405 36.7275C93.7838 36.6693 95.8428 35.8782 97.4756 34.4855C100.464 31.924 101.666 27.1213 100.031 24.0891C94.2576 23.6371 88.4568 23.656 82.6861 24.1456Z" fill="white"/>
<path d="M11.5385 51.6055C11.403 51.8477 11.3018 52.1075 11.2378 52.3777C11.1438 53.6772 11.0499 54.9768 11.0123 56.2952C11.0123 58.9508 10.9183 61.6064 10.862 64.2431C10.8745 64.469 10.8745 64.6953 10.862 64.9212H1.46582C0.526203 64.9212 0.0563959 65.2602 0.0751882 65.8629C0.0939805 66.4656 0.526203 66.7481 1.42823 66.7669C4.17191 66.7669 6.91558 66.7669 9.65925 66.7669H10.8808C10.8808 69.4602 10.8808 72.0969 10.8808 74.7526C10.8808 77.4082 10.8808 80.0261 10.8808 82.6064C11.8767 83.0772 12.309 82.87 12.3465 81.966C12.3465 80.6288 12.3465 79.2916 12.3465 77.9355C12.3465 74.6207 12.3465 71.2871 12.3465 67.9723V66.7481C12.9667 66.7481 13.4929 66.6351 14.0379 66.6162L20.9158 66.3902C21.3668 66.3902 21.8367 66.3902 21.9682 65.8064C22.0997 65.2225 21.6111 65.2413 21.2353 65.2225C19.995 65.2225 18.7547 65.0718 17.4768 65.0342L13.1546 64.94C12.889 64.9132 12.6253 64.8691 12.3653 64.8082C12.3653 62.5857 12.3653 60.401 12.3653 58.1974C12.3786 56.0199 12.2594 53.8437 12.0083 51.6808L11.5385 51.6055Z" fill="white"/>
<path d="M192.771 93.9253H202.167C203.051 93.9253 203.502 94.2644 203.502 94.8294C203.502 95.3944 203.088 95.7522 202.186 95.7711C199.499 95.7711 196.83 95.7711 194.143 95.7711H192.677V111.592C191.662 112.119 191.23 111.893 191.193 110.914C191.193 109.576 191.193 108.22 191.193 106.883C191.193 103.587 191.193 100.291 191.193 97.0141V95.7711C190.629 95.7711 190.14 95.6581 189.633 95.6392L182.661 95.3944C182.21 95.3944 181.74 95.3944 181.571 94.8294C181.402 94.2644 181.891 94.2455 182.285 94.2267L186.044 94.0384L190.441 93.8688C190.663 93.8496 190.883 93.8118 191.099 93.7558C191.099 92.9836 191.193 92.2303 191.193 91.4769C191.193 90.0832 191.193 88.6706 191.193 87.2581C191.193 85.3747 191.305 83.6231 191.381 81.7962C191.428 81.3867 191.516 80.9829 191.644 80.5908C192.245 80.5908 192.245 80.9675 192.264 81.2877C192.264 82.4177 192.452 83.5666 192.489 84.7155C192.489 87.5029 192.602 90.2715 192.64 93.059C192.715 93.3603 192.734 93.5675 192.771 93.9253Z" fill="white"/>
<path d="M95.2017 196.063C96.9943 196.047 98.7837 195.908 100.558 195.648C100.821 195.178 100.727 194.895 100.351 194.801C99.984 194.693 99.6053 194.629 99.2233 194.613L95.2205 194.405V192.805C95.2205 190.733 95.2205 188.661 95.2205 186.57C95.2205 186.081 95.2205 186.081 94.7883 185.704C94.2621 185.911 94.3373 186.401 94.3185 186.834L94.093 193.633C94.1083 193.884 94.1083 194.136 94.093 194.387C92.458 194.763 90.8043 194.387 89.0754 194.65C89.0754 194.97 89.0754 195.253 89.0754 195.667L93.9614 195.875C93.9614 196.214 93.9614 196.553 93.9614 196.892V203.22C93.9614 203.691 93.9614 204.161 93.9614 204.595C94.7319 204.896 94.901 204.877 95.0702 204.331C95.16 203.993 95.2042 203.645 95.2017 203.295C95.2017 201.242 95.2017 199.189 95.2017 197.155V196.063Z" fill="white"/>
<path d="M175.877 74.2439C175.031 74.5452 174.881 74.5076 174.712 73.9614C174.63 73.622 174.586 73.2746 174.58 72.9255C174.58 70.8726 174.58 68.8385 174.58 66.7856V65.6556H173.566C172.494 65.6556 171.404 65.6556 170.314 65.5614C169.947 65.5193 169.582 65.4501 169.225 65.3542C168.98 64.8457 169.093 64.582 169.469 64.4878C169.806 64.3934 170.153 64.3365 170.502 64.3183L174.486 64.0358C174.486 63.5273 174.486 63.0565 174.486 62.6044C174.486 60.495 174.486 58.3856 174.486 56.2762C174.486 55.6923 174.486 55.6923 174.937 55.3345C175.482 55.5605 175.37 56.069 175.388 56.4834C175.388 58.7434 175.539 61.0224 175.614 63.2825C175.599 63.5334 175.599 63.7849 175.614 64.0358C177.249 64.356 178.921 64.0358 180.631 64.2618V65.2977L175.727 65.5614L175.877 74.2439Z" fill="white"/>
</g>
<defs>
<clipPath id="clip0_12_2017">
<rect width="225" height="231" fill="white"/>
</clipPath>
</defs>
</svg>
