<svg width="85" height="85" viewBox="0 0 85 85" fill="none" xmlns="http://www.w3.org/2000/svg">
<g clip-path="url(#clip0_14_3290)">
<path d="M1.01764 42.5029H34.8236" stroke="#D7BE8A" stroke-width="3" stroke-linecap="round" stroke-linejoin="round"/>
<path d="M50.1764 42.5029H83.9824" stroke="#D7BE8A" stroke-width="3" stroke-linecap="round" stroke-linejoin="round"/>
<path d="M42.5034 1.01758V32.483" stroke="#D7BE8A" stroke-width="3" stroke-linecap="round" stroke-linejoin="round"/>
<path d="M42.5034 52.5166V83.982" stroke="#D7BE8A" stroke-width="3" stroke-linecap="round" stroke-linejoin="round"/>
<path d="M20.3731 20.373L27.327 27.3269" stroke="#D7BE8A" stroke-width="3" stroke-linecap="round" stroke-linejoin="round"/>
<path d="M15.0679 15.0674L18.1411 18.1407" stroke="#D7BE8A" stroke-width="3" stroke-linecap="round" stroke-linejoin="round"/>
<path d="M64.6676 64.6677L57.7137 57.7139" stroke="#D7BE8A" stroke-width="3" stroke-linecap="round" stroke-linejoin="round"/>
<path d="M69.9729 69.9727L66.8996 66.8994" stroke="#D7BE8A" stroke-width="3" stroke-linecap="round" stroke-linejoin="round"/>
<path d="M27.327 57.6729L20.0475 64.9591" stroke="#D7BE8A" stroke-width="3" stroke-linecap="round" stroke-linejoin="round"/>
<path d="M64.6676 20.373L57.7137 27.3269" stroke="#D7BE8A" stroke-width="3" stroke-linecap="round" stroke-linejoin="round"/>
<path d="M69.9729 15.0674L66.8996 18.1407" stroke="#D7BE8A" stroke-width="3" stroke-linecap="round" stroke-linejoin="round"/>
<path d="M15.0679 69.9727L18.1411 66.8994" stroke="#D7BE8A" stroke-width="3" stroke-linecap="round" stroke-linejoin="round"/>
<path d="M13.2836 30.0547L22.7612 34.0913" stroke="#D7BE8A" stroke-width="3" stroke-linecap="round" stroke-linejoin="round"/>
<path d="M62.2388 50.9092L71.7164 54.9458" stroke="#D7BE8A" stroke-width="3" stroke-linecap="round" stroke-linejoin="round"/>
<path d="M54.9458 13.2832L50.9091 22.7608" stroke="#D7BE8A" stroke-width="3" stroke-linecap="round" stroke-linejoin="round"/>
<path d="M34.0909 62.2383L30.0543 71.7159" stroke="#D7BE8A" stroke-width="3" stroke-linecap="round" stroke-linejoin="round"/>
<path d="M30.6445 13.0391L34.4912 22.5913" stroke="#D7BE8A" stroke-width="3" stroke-linecap="round" stroke-linejoin="round"/>
<path d="M50.5156 62.4082L54.3555 71.9604" stroke="#D7BE8A" stroke-width="3" stroke-linecap="round" stroke-linejoin="round"/>
<path d="M71.9606 30.6445L62.4084 34.4912" stroke="#D7BE8A" stroke-width="3" stroke-linecap="round" stroke-linejoin="round"/>
<path d="M22.5916 50.5156L13.0394 54.3555" stroke="#D7BE8A" stroke-width="3" stroke-linecap="round" stroke-linejoin="round"/>
<path d="M42.5034 66.2486C54.0774 66.2486 63.46 55.6177 63.46 42.5037C63.46 29.3897 54.0774 18.7588 42.5034 18.7588C30.9294 18.7588 21.5468 29.3897 21.5468 42.5037C21.5468 55.6177 30.9294 66.2486 42.5034 66.2486Z" stroke="#D7BE8A" stroke-width="3" stroke-linecap="round" stroke-linejoin="round"/>
</g>
<defs>
<clipPath id="clip0_14_3290">
<rect width="85" height="85" fill="white"/>
</clipPath>
</defs>
</svg>
