<svg width="241" height="333" viewBox="0 0 241 333" fill="none" xmlns="http://www.w3.org/2000/svg">
<g clip-path="url(#clip0_416_8221)">
<g clip-path="url(#clip1_416_8221)">
<path d="M307.456 166.163C307.456 91.756 247.106 31.4375 172.661 31.4375C98.2167 31.4375 37.8672 91.756 37.8672 166.163C37.8672 240.569 98.2167 300.888 172.661 300.888C247.106 300.888 307.456 240.569 307.456 166.163Z" stroke="#F0EAD5" stroke-width="2" stroke-linecap="round" stroke-linejoin="round"/>
<path d="M241.39 166.481C241.39 166.481 210.84 201.145 173.139 201.145C135.438 201.145 104.729 166.481 104.729 166.481C104.729 166.481 135.318 131.856 173.02 131.856C210.721 131.856 241.39 166.481 241.39 166.481Z" stroke="#F0EAD5" stroke-width="2" stroke-linecap="round" stroke-linejoin="round"/>
<path d="M195.108 135.985C199.385 140.355 202.276 145.888 203.419 151.892C204.563 157.897 203.908 164.105 201.537 169.739C199.166 175.373 195.183 180.182 190.089 183.564C184.995 186.946 179.016 188.75 172.901 188.75C166.785 188.75 160.806 186.946 155.712 183.564C150.618 180.182 146.636 175.373 144.265 169.739C141.893 164.105 141.238 157.897 142.382 151.892C143.526 145.888 146.417 140.355 150.693 135.985" stroke="#F0EAD5" stroke-width="2" stroke-linecap="round" stroke-linejoin="round"/>
<path d="M187.918 157.824C187.933 160.782 187.07 163.678 185.436 166.144C183.803 168.611 181.473 170.537 178.743 171.678C176.012 172.819 173.004 173.123 170.1 172.553C167.197 171.983 164.528 170.563 162.432 168.474C160.337 166.386 158.909 163.722 158.331 160.821C157.753 157.92 158.049 154.913 159.184 152.181C160.318 149.449 162.239 147.115 164.702 145.476C167.165 143.837 170.061 142.966 173.02 142.974C176.964 142.974 180.747 144.537 183.54 147.321C186.333 150.105 187.907 153.882 187.918 157.824Z" fill="#F0EAD5"/>
<path d="M173.02 6.38281L30.6377 239.859H315.362L173.02 6.38281Z" stroke="#F0EAD5" stroke-width="2" stroke-linecap="round" stroke-linejoin="round"/>
<path d="M173.02 326.618L315.362 93.1426H30.6377L173.02 326.618Z" stroke="#F0EAD5" stroke-width="2" stroke-linecap="round" stroke-linejoin="round"/>
<path d="M173.02 105.094V118.515" stroke="#F0EAD5" stroke-width="2" stroke-linecap="round" stroke-linejoin="round"/>
<path d="M158.28 107.198L160.863 120.182" stroke="#F0EAD5" stroke-width="2" stroke-linecap="round" stroke-linejoin="round"/>
<path d="M144.575 112.757L150.137 124.312" stroke="#F0EAD5" stroke-width="2" stroke-linecap="round" stroke-linejoin="round"/>
<path d="M187.759 107.198L185.137 120.182" stroke="#F0EAD5" stroke-width="2" stroke-linecap="round" stroke-linejoin="round"/>
<path d="M201.424 112.757L195.862 124.312" stroke="#F0EAD5" stroke-width="2" stroke-linecap="round" stroke-linejoin="round"/>
<path d="M173.02 227.868V214.486" stroke="#F0EAD5" stroke-width="2" stroke-linecap="round" stroke-linejoin="round"/>
<path d="M187.759 225.802L185.137 212.778" stroke="#F0EAD5" stroke-width="2" stroke-linecap="round" stroke-linejoin="round"/>
<path d="M201.424 220.243L195.862 208.688" stroke="#F0EAD5" stroke-width="2" stroke-linecap="round" stroke-linejoin="round"/>
<path d="M158.28 225.802L160.863 212.778" stroke="#F0EAD5" stroke-width="2" stroke-linecap="round" stroke-linejoin="round"/>
<path d="M144.575 220.243L150.137 208.688" stroke="#F0EAD5" stroke-width="2" stroke-linecap="round" stroke-linejoin="round"/>
<path d="M22.2946 166.48C22.3024 167.999 21.8584 169.486 21.0189 170.753C20.1795 172.019 18.9824 173.007 17.5798 173.592C16.1771 174.177 14.6322 174.332 13.1412 174.038C11.6502 173.744 10.2804 173.013 9.20568 171.939C8.13099 170.865 7.39994 169.495 7.10536 168.005C6.81079 166.515 6.96597 164.971 7.55121 163.569C8.13645 162.167 9.12535 160.971 10.3923 160.132C11.6593 159.292 13.1471 158.849 14.6669 158.857C15.6686 158.857 16.6605 159.054 17.5859 159.437C18.5113 159.82 19.3522 160.382 20.0605 161.089C20.7688 161.797 21.3306 162.638 21.7139 163.563C22.0973 164.488 22.2946 165.479 22.2946 166.48Z" fill="#F0EAD5"/>
<path d="M84.9444 35.7654C84.976 37.2892 84.5523 38.7877 83.7274 40.0695C82.9026 41.3514 81.7141 42.3583 80.3138 42.9616C78.9135 43.5649 77.365 43.7372 75.8663 43.4564C74.3675 43.1757 72.9866 42.4547 71.8999 41.3855C70.8132 40.3163 70.0702 38.9476 69.7657 37.4542C69.4613 35.9609 69.6092 34.4107 70.1907 33.0018C70.7722 31.5929 71.7608 30.3893 73.0301 29.5448C74.2995 28.7003 75.7919 28.2533 77.3168 28.2608C79.3192 28.2606 81.2415 29.0474 82.6686 30.4515C84.0957 31.8555 84.9131 33.7642 84.9444 35.7654Z" fill="#F0EAD5"/>
<path d="M84.9441 297.077C84.9441 298.594 84.4933 300.077 83.6491 301.338C82.8048 302.599 81.605 303.582 80.2016 304.16C78.7983 304.739 77.2546 304.889 75.7662 304.59C74.2778 304.291 72.9117 303.557 71.841 302.481C70.7703 301.406 70.0432 300.036 69.7519 298.547C69.4605 297.058 69.6181 295.516 70.2045 294.116C70.7909 292.717 71.7798 291.523 73.0459 290.685C74.312 289.848 75.7983 289.405 77.3165 289.413C78.3215 289.413 79.3166 289.612 80.2446 289.997C81.1726 290.383 82.0153 290.948 82.7241 291.66C83.4329 292.372 83.9939 293.217 84.3749 294.147C84.7559 295.076 84.9493 296.072 84.9441 297.077Z" fill="#F0EAD5"/>
</g>
</g>
<defs>
<clipPath id="clip0_416_8221">
<rect width="241" height="333" fill="white"/>
</clipPath>
<clipPath id="clip1_416_8221">
<rect width="332" height="325" fill="white" transform="translate(7 4)"/>
</clipPath>
</defs>
</svg>
