<svg width="243" height="342" viewBox="0 0 243 342" fill="none" xmlns="http://www.w3.org/2000/svg">
<g clip-path="url(#clip0_416_8321)">
<g clip-path="url(#clip1_416_8321)">
<path d="M170.999 243.729C211.178 243.729 243.749 211.158 243.749 170.979C243.749 130.8 211.178 98.2285 170.999 98.2285C130.82 98.2285 98.249 130.8 98.249 170.979C98.249 211.158 130.82 243.729 170.999 243.729Z" stroke="#FFF6C4" stroke-width="3" stroke-linecap="round" stroke-linejoin="round"/>
<path d="M214.731 161.389C213.095 160.814 211.653 159.793 210.566 158.442C209.254 156.485 204.381 154.277 200.247 154.277C196.114 154.277 191.251 156.443 189.939 158.442C188.853 159.793 187.41 160.814 185.774 161.389" stroke="#FFF6C4" stroke-width="3" stroke-linecap="round" stroke-linejoin="round"/>
<path d="M204.756 158.734C204.756 159.618 204.494 160.481 204.003 161.216C203.512 161.951 202.815 162.523 201.998 162.861C201.182 163.199 200.284 163.288 199.418 163.115C198.551 162.943 197.755 162.518 197.131 161.893C196.506 161.268 196.08 160.472 195.908 159.606C195.736 158.739 195.824 157.841 196.162 157.025C196.5 156.209 197.073 155.511 197.807 155.02C198.542 154.53 199.406 154.268 200.289 154.268C201.474 154.268 202.61 154.738 203.448 155.576C204.285 156.414 204.756 157.55 204.756 158.734Z" stroke="#FFF6C4" stroke-width="3" stroke-linecap="round" stroke-linejoin="round"/>
<path d="M184.483 156.974C186.999 154.696 189.656 152.578 192.438 150.633C194.937 149.165 201.903 148.426 204.756 149.748C207.609 151.071 212.919 156.974 212.919 156.974" stroke="#FFF6C4" stroke-width="3" stroke-linecap="round" stroke-linejoin="round"/>
<path d="M182.12 184.077C182.12 184.077 185.515 187.024 184.775 191.001C184.036 194.979 180.059 194.541 177.258 194.687C174.457 194.833 172.989 198.373 169.896 198.227C166.773 198.373 165.325 194.833 162.524 194.687C159.723 194.541 155.746 194.989 155.007 191.001C154.267 187.013 157.662 184.077 157.662 184.077" stroke="#FFF6C4" stroke-width="3" stroke-linecap="round" stroke-linejoin="round"/>
<path d="M166.502 192.043C166.502 192.043 163.555 190.71 164.732 185.411C165.908 180.111 167.532 181.246 167.532 172.916V154.268" stroke="#FFF6C4" stroke-width="3" stroke-linecap="round" stroke-linejoin="round"/>
<path d="M186.545 209.785C184.537 210.018 182.516 210.126 180.495 210.108C178.142 209.993 177.09 209.348 175.289 209.421C171.749 209.567 171.916 210.743 169.854 210.816C167.792 210.889 167.948 209.567 164.419 209.421C162.649 209.348 161.597 209.993 159.213 210.108C157.191 210.126 155.171 210.018 153.163 209.785" stroke="#FFF6C4" stroke-width="3" stroke-linecap="round" stroke-linejoin="round"/>
<path d="M178.881 207.203C178.881 207.203 175.195 205.287 174.165 205.579C172.666 206.337 171.238 207.226 169.896 208.234C168.549 207.226 167.117 206.338 165.616 205.579C164.575 205.287 160.899 207.203 160.899 207.203" stroke="#FFF6C4" stroke-width="3" stroke-linecap="round" stroke-linejoin="round"/>
<path d="M181.089 212.222C181.089 212.222 174.456 216.647 169.896 216.647C165.335 216.647 158.692 212.222 158.692 212.222" stroke="#FFF6C4" stroke-width="3" stroke-linecap="round" stroke-linejoin="round"/>
<path d="M181.089 141.502C181.089 141.502 193.584 129.122 216.011 141.502" stroke="#FFF6C4" stroke-width="3" stroke-linecap="round" stroke-linejoin="round"/>
<path d="M127.258 161.389C128.893 160.814 130.336 159.793 131.423 158.442C132.735 156.485 137.618 154.277 141.741 154.277C145.864 154.277 150.737 156.443 152.06 158.442C153.147 159.793 154.589 160.814 156.225 161.389" stroke="#FFF6C4" stroke-width="3" stroke-linecap="round" stroke-linejoin="round"/>
<path d="M137.232 158.734C137.232 159.618 137.494 160.481 137.985 161.216C138.476 161.951 139.174 162.523 139.99 162.861C140.806 163.199 141.704 163.288 142.571 163.115C143.437 162.943 144.233 162.518 144.858 161.893C145.483 161.268 145.908 160.472 146.08 159.606C146.253 158.739 146.164 157.841 145.826 157.025C145.488 156.209 144.915 155.511 144.181 155.02C143.446 154.53 142.583 154.268 141.699 154.268C140.515 154.268 139.378 154.738 138.541 155.576C137.703 156.414 137.232 157.55 137.232 158.734Z" stroke="#FFF6C4" stroke-width="3" stroke-linecap="round" stroke-linejoin="round"/>
<path d="M157.516 156.974C154.998 154.698 152.341 152.581 149.561 150.633C147.052 149.165 140.096 148.426 137.233 149.748C134.369 151.071 129.08 156.974 129.08 156.974" stroke="#FFF6C4" stroke-width="3" stroke-linecap="round" stroke-linejoin="round"/>
<path d="M160.9 141.502C160.9 141.502 148.405 129.122 125.978 141.502" stroke="#FFF6C4" stroke-width="3" stroke-linecap="round" stroke-linejoin="round"/>
<path d="M181.047 98.9158C179.979 71.701 177.428 44.5646 173.405 17.6276L171 1.56152L168.584 17.638C164.566 44.5722 162.015 71.7048 160.941 98.9158C167.61 97.9718 174.379 97.9718 181.047 98.9158Z" stroke="#FFF6C4" stroke-width="3" stroke-linecap="round" stroke-linejoin="round"/>
<path d="M160.952 243.073C162.024 270.288 164.576 297.424 168.595 324.361L171.01 340.48L173.416 324.403C177.44 297.466 179.991 270.33 181.058 243.115C174.389 244.059 167.621 244.059 160.952 243.115V243.073Z" stroke="#FFF6C4" stroke-width="3" stroke-linecap="round" stroke-linejoin="round"/>
<path d="M243.073 181.047C270.288 179.98 297.425 177.429 324.361 173.405L340.48 171L324.403 168.584C297.466 164.565 270.329 162.014 243.115 160.941C244.059 167.61 244.059 174.379 243.115 181.047H243.073Z" stroke="#FFF6C4" stroke-width="3" stroke-linecap="round" stroke-linejoin="round"/>
<path d="M98.9158 160.952C71.7013 162.025 44.5652 164.577 17.6276 168.595L1.56152 171.01L17.638 173.416C44.5716 177.438 71.7045 179.99 98.9158 181.058C97.9718 174.389 97.9718 167.621 98.9158 160.952Z" stroke="#FFF6C4" stroke-width="3" stroke-linecap="round" stroke-linejoin="round"/>
<path d="M141.7 77.0498C131.35 72.0831 121.417 61.0149 119.189 50.3008C116.96 39.5866 113.67 23.9474 98.916 24.3951C98.916 24.3951 111.473 32.5792 111.046 46.4795C110.744 56.1524 106.517 68.064 114.17 76.248C121.823 84.432 129.111 92.0954 129.111 101.071C129.212 105.523 128.135 109.924 125.988 113.826C136.108 105.832 148.178 100.685 160.952 98.9155C160.952 98.9155 154.819 83.2971 141.7 77.0498Z" stroke="#FFF6C4" stroke-width="3" stroke-linecap="round" stroke-linejoin="round"/>
<path d="M200.3 77.0498C210.66 72.0831 220.583 61.0149 222.811 50.3008C225.04 39.5866 228.34 23.9474 243.073 24.3951C243.073 24.3951 230.506 32.5792 230.943 46.4795C231.245 56.1524 235.473 68.064 227.82 76.248C220.167 84.432 212.961 92.0954 212.961 101.071C212.86 105.523 213.938 109.924 216.085 113.826H216.033C205.907 105.829 193.829 100.681 181.048 98.9155C181.048 98.9155 187.181 83.2971 200.3 77.0498Z" stroke="#FFF6C4" stroke-width="3" stroke-linecap="round" stroke-linejoin="round"/>
<path d="M200.29 264.887C210.65 269.854 220.573 280.922 222.811 291.636C225.05 302.35 228.33 317.989 243.063 317.49C243.063 317.49 230.506 309.306 230.933 295.405C231.235 285.732 235.462 273.821 227.809 265.637C220.156 257.453 212.951 249.789 212.951 240.814C212.848 236.364 213.926 231.967 216.075 228.069H216.023C205.913 236.04 193.862 241.172 181.11 242.938C181.11 242.938 187.181 258.608 200.29 264.887Z" stroke="#FFF6C4" stroke-width="3" stroke-linecap="round" stroke-linejoin="round"/>
<path d="M141.7 264.887C131.288 269.853 121.417 280.921 119.178 291.636C116.94 302.35 113.66 317.989 98.916 317.489C98.916 317.489 111.484 309.305 111.046 295.405C110.744 285.732 106.517 273.82 114.17 265.636C121.823 257.452 129.111 249.789 129.111 240.814C129.224 236.35 128.146 231.936 125.988 228.027H126.05C136.156 235.998 148.203 241.13 160.952 242.896C160.952 242.896 154.819 258.608 141.7 264.887Z" stroke="#FFF6C4" stroke-width="3" stroke-linecap="round" stroke-linejoin="round"/>
<path d="M127.144 112.93C107.143 94.4455 86.1486 77.0659 64.2539 60.8692L51.1865 51.1963L60.8491 64.2636C77.0459 86.1583 94.4255 107.153 112.91 127.153C114.933 124.467 117.139 121.924 119.512 119.542C121.903 117.168 124.453 114.959 127.144 112.93Z" stroke="#FFF6C4" stroke-width="3" stroke-linecap="round" stroke-linejoin="round"/>
<path d="M214.866 229.069C234.861 247.556 255.852 264.936 277.746 281.13L290.813 290.803L281.13 277.736C264.933 255.844 247.553 234.853 229.068 214.856C225.016 220.23 220.237 225.013 214.866 229.069Z" stroke="#FFF6C4" stroke-width="3" stroke-linecap="round" stroke-linejoin="round"/>
<path d="M229.069 127.144C247.554 107.143 264.933 86.1486 281.13 64.2539L290.803 51.1865L277.725 60.8491C255.834 77.046 234.843 94.4256 214.846 112.91C220.231 116.964 225.019 121.755 229.069 127.144Z" stroke="#FFF6C4" stroke-width="3" stroke-linecap="round" stroke-linejoin="round"/>
<path d="M112.93 214.866C94.4431 234.861 77.0634 255.852 60.8692 277.746L51.1963 290.813L64.2636 281.13C86.1584 264.933 107.153 247.553 127.153 229.068C124.467 227.042 121.924 224.833 119.542 222.457C117.169 220.079 114.96 217.543 112.93 214.866Z" stroke="#FFF6C4" stroke-width="3" stroke-linecap="round" stroke-linejoin="round"/>
<path d="M264.949 141.606C269.905 131.246 280.974 121.323 291.698 119.095C302.423 116.867 318.052 113.608 317.573 98.916C317.573 98.916 309.378 111.484 295.478 111.046C285.805 110.744 273.893 106.517 265.709 114.17C257.525 121.823 249.893 129.028 240.876 129.028C236.423 129.132 232.022 128.054 228.121 125.905C236.096 136.011 241.229 148.063 242.99 160.817C242.99 160.817 258.66 154.767 264.949 141.606Z" stroke="#FFF6C4" stroke-width="3" stroke-linecap="round" stroke-linejoin="round"/>
<path d="M264.949 200.238C269.905 210.598 280.974 220.521 291.698 222.759C302.423 224.998 318.052 228.278 317.552 243.011C317.552 243.011 309.357 230.454 295.457 230.881C285.784 231.183 273.872 235.41 265.688 227.757C257.504 220.104 249.893 212.868 240.876 212.868C236.423 212.764 232.022 213.842 228.121 215.991C236.096 205.884 241.229 193.832 242.99 181.079C242.99 181.079 258.66 187.129 264.949 200.238Z" stroke="#FFF6C4" stroke-width="3" stroke-linecap="round" stroke-linejoin="round"/>
<path d="M77.0498 200.237C72.0936 210.597 61.015 220.52 50.3008 222.748C39.5866 224.976 23.9474 228.277 24.4472 243.01C24.4472 243.01 32.6312 230.443 46.542 230.88C56.2149 231.182 68.1161 235.409 76.3105 227.756C84.505 220.103 92.1475 212.898 101.123 212.898C105.576 212.795 109.977 213.873 113.878 216.022V215.97C105.903 205.863 100.77 193.811 99.0092 181.058C99.0092 181.058 83.2971 187.118 77.0498 200.237Z" stroke="#FFF6C4" stroke-width="3" stroke-linecap="round" stroke-linejoin="round"/>
<path d="M77.0498 141.606C72.0936 131.246 61.015 121.323 50.3008 119.085C39.5866 116.846 23.9474 113.608 24.4472 98.916C24.4472 98.916 32.6312 111.473 46.542 111.046C56.2149 110.744 68.1161 106.517 76.3105 114.17C84.505 121.823 92.1475 129.028 101.123 129.028C105.576 129.132 109.977 128.054 113.878 125.905C105.903 136.011 100.77 148.063 99.0092 160.817C99.0092 160.817 83.2971 154.757 77.0498 141.606Z" stroke="#FFF6C4" stroke-width="3" stroke-linecap="round" stroke-linejoin="round"/>
</g>
</g>
<defs>
<clipPath id="clip0_416_8321">
<rect width="243" height="342" fill="white"/>
</clipPath>
<clipPath id="clip1_416_8321">
<rect width="342" height="342" fill="white"/>
</clipPath>
</defs>
</svg>
