<svg width="210" height="333" viewBox="0 0 210 333" fill="none" xmlns="http://www.w3.org/2000/svg">
<g clip-path="url(#clip0_414_4928)">
<path d="M210.195 85.7595L171.02 -1.60547L131.806 85.7595" stroke="#F0EAD5" stroke-width="2" stroke-linecap="round" stroke-linejoin="round"/>
<path d="M171.02 2.7832V77.1432" stroke="#F0EAD5" stroke-width="2" stroke-linecap="round" stroke-linejoin="round"/>
<path d="M131.806 248.242L171.02 335.607L210.195 248.242" stroke="#F0EAD5" stroke-width="2" stroke-linecap="round" stroke-linejoin="round"/>
<path d="M171.02 331.218V257.098" stroke="#F0EAD5" stroke-width="2" stroke-linecap="round" stroke-linejoin="round"/>
<path d="M89.7585 127.807L2.39355 167.021L89.7585 206.196" stroke="#F0EAD5" stroke-width="2" stroke-linecap="round" stroke-linejoin="round"/>
<path d="M6.78223 167.021H81.1422" stroke="#F0EAD5" stroke-width="2" stroke-linecap="round" stroke-linejoin="round"/>
<path d="M134.278 79.1768L51.7803 47.7812L83.2955 130.519" stroke="#F0EAD5" stroke-width="2" stroke-linecap="round" stroke-linejoin="round"/>
<path d="M54.8926 50.8926L107.471 103.471" stroke="#F0EAD5" stroke-width="2" stroke-linecap="round" stroke-linejoin="round"/>
<path d="M207.682 254.825L290.22 286.221L258.744 203.523" stroke="#F0EAD5" stroke-width="2" stroke-linecap="round" stroke-linejoin="round"/>
<path d="M83.096 204.002L51.7803 286.221L134.717 254.666" stroke="#F0EAD5" stroke-width="2" stroke-linecap="round" stroke-linejoin="round"/>
<path d="M54.8926 283.148L107.471 230.529" stroke="#F0EAD5" stroke-width="2" stroke-linecap="round" stroke-linejoin="round"/>
<path d="M258.744 130.479L290.219 47.7812L207.761 79.1768" stroke="#F0EAD5" stroke-width="2" stroke-linecap="round" stroke-linejoin="round"/>
<path d="M258.304 187.363C269.566 139.155 239.616 90.9442 191.408 79.6815C143.2 68.4188 94.9896 98.3689 83.7269 146.577C72.4642 194.785 102.414 242.995 150.622 254.258C198.83 265.521 247.041 235.571 258.304 187.363Z" stroke="#F0EAD5" stroke-width="2" stroke-linecap="round" stroke-linejoin="round"/>
<path d="M228.067 167.259C228.067 178.542 224.721 189.572 218.453 198.953C212.184 208.334 203.275 215.646 192.851 219.964C182.427 224.281 170.957 225.411 159.891 223.21C148.825 221.009 138.66 215.576 130.682 207.597C122.704 199.619 117.271 189.455 115.07 178.389C112.869 167.323 113.998 155.853 118.316 145.429C122.634 135.005 129.946 126.095 139.327 119.827C148.708 113.559 159.737 110.213 171.02 110.213C186.15 110.213 200.66 116.223 211.358 126.921C222.057 137.62 228.067 152.13 228.067 167.259Z" stroke="#F0EAD5" stroke-width="2" stroke-linecap="round" stroke-linejoin="round"/>
<path d="M171.02 110.812L183.706 149.947H224.875L191.565 174.122L204.291 213.257L171.02 189.082L137.71 213.257L150.436 174.122L117.165 149.947H158.294L171.02 110.812Z" stroke="#F0EAD5" stroke-width="2" stroke-linecap="round" stroke-linejoin="round"/>
<path d="M158.334 149.947L150.436 174.122" stroke="#F0EAD5" stroke-width="2" stroke-linecap="round" stroke-linejoin="round"/>
<path d="M183.706 149.947L191.565 174.122" stroke="#F0EAD5" stroke-width="2" stroke-linecap="round" stroke-linejoin="round"/>
<path d="M158.573 149.947H183.466" stroke="#F0EAD5" stroke-width="2" stroke-linecap="round" stroke-linejoin="round"/>
<path d="M171.02 189.081L191.564 174.121" stroke="#F0EAD5" stroke-width="2" stroke-linecap="round" stroke-linejoin="round"/>
<path d="M171.02 189.081L150.436 174.121" stroke="#F0EAD5" stroke-width="2" stroke-linecap="round" stroke-linejoin="round"/>
<path d="M170.501 89.2305V97.8872" stroke="#F0EAD5" stroke-width="2" stroke-linecap="round" stroke-linejoin="round"/>
<path d="M170.501 236.674V245.331" stroke="#F0EAD5" stroke-width="2" stroke-linecap="round" stroke-linejoin="round"/>
<path d="M140.622 95.1738L143.933 103.152" stroke="#F0EAD5" stroke-width="2" stroke-linecap="round" stroke-linejoin="round"/>
<path d="M197.07 231.408L200.381 239.387" stroke="#F0EAD5" stroke-width="2" stroke-linecap="round" stroke-linejoin="round"/>
<path d="M115.33 112.088L121.434 118.191" stroke="#F0EAD5" stroke-width="2" stroke-linecap="round" stroke-linejoin="round"/>
<path d="M98.375 137.381L106.393 140.692" stroke="#F0EAD5" stroke-width="2" stroke-linecap="round" stroke-linejoin="round"/>
<path d="M92.4316 167.26H101.088" stroke="#F0EAD5" stroke-width="2" stroke-linecap="round" stroke-linejoin="round"/>
<path d="M98.375 197.139L106.393 193.828" stroke="#F0EAD5" stroke-width="2" stroke-linecap="round" stroke-linejoin="round"/>
<path d="M115.33 222.472L121.434 216.328" stroke="#F0EAD5" stroke-width="2" stroke-linecap="round" stroke-linejoin="round"/>
<path d="M140.622 239.387L143.933 231.408" stroke="#F0EAD5" stroke-width="2" stroke-linecap="round" stroke-linejoin="round"/>
<path d="M197.07 103.152L200.381 95.1738" stroke="#F0EAD5" stroke-width="2" stroke-linecap="round" stroke-linejoin="round"/>
</g>
<defs>
<clipPath id="clip0_414_4928">
<rect width="210" height="333" fill="white"/>
</clipPath>
</defs>
</svg>
