<svg width="37" height="36" viewBox="0 0 37 36" fill="none" xmlns="http://www.w3.org/2000/svg">
<circle cx="18.0029" cy="18" r="18" fill="#1F75D7"/>
<g clip-path="url(#clip0_43_2599)">
<path d="M18.2752 20.2102C18.2752 18.8242 17.6159 17.7997 16.2539 17.4157C17.2477 16.9425 17.7659 16.2255 17.7659 15.1103C17.7659 12.9113 16.1219 12.375 14.2252 12.375H9.00293V23.4158H14.3714C16.3844 23.4158 18.2752 22.4535 18.2752 20.2102ZM11.4374 14.2598H13.7219C14.6002 14.2598 15.3907 14.5057 15.3907 15.5212C15.3907 16.4587 14.7757 16.836 13.9057 16.836H11.4374V14.2598ZM11.4367 21.5408V18.5002H14.0902C15.1619 18.5002 15.8399 18.9458 15.8399 20.0767C15.8399 21.192 15.0307 21.5408 14.0399 21.5408H11.4367Z" fill="white"/>
<path d="M23.0999 23.6258C25.0154 23.6258 26.2559 22.7655 26.8529 20.937H24.9089C24.6997 21.6195 23.8372 21.9803 23.1682 21.9803C21.8774 21.9803 21.1994 21.2265 21.1994 19.9455H26.9842C27.1672 17.382 25.7392 15.1973 23.0992 15.1973C20.6549 15.1973 18.9959 17.0288 18.9959 19.428C18.9959 21.918 20.5679 23.6258 23.0999 23.6258ZM23.0309 16.8563C24.1372 16.8563 24.6937 17.5043 24.7867 18.564H21.2024C21.2752 17.5133 21.9749 16.8563 23.0309 16.8563Z" fill="white"/>
<path d="M20.7532 12.9551H25.2442V14.0426H20.7532V12.9551Z" fill="white"/>
</g>
<defs>
<clipPath id="clip0_43_2599">
<rect width="18" height="18" fill="white" transform="translate(9.00293 9)"/>
</clipPath>
</defs>
</svg>
