<svg width="37" height="35" viewBox="0 0 37 35" fill="none" xmlns="http://www.w3.org/2000/svg">
<g clip-path="url(#clip0_43_2580)">
<path d="M17.7543 35C27.5513 35 35.4934 27.165 35.4934 17.5C35.4934 7.83502 27.5513 0 17.7543 0C7.95722 0 0.0151367 7.83502 0.0151367 17.5C0.0151367 27.165 7.95722 35 17.7543 35Z" fill="#1F75D7"/>
<path d="M25.2761 14.0832C25.2868 14.2416 25.2868 14.4007 25.2868 14.5606C25.2868 19.4448 21.5174 25.0767 14.627 25.0767V25.0736C12.5917 25.0767 10.5982 24.5017 8.8847 23.4171C9.18069 23.4523 9.47818 23.4696 9.77646 23.4703C11.4641 23.4718 13.103 22.9134 14.4292 21.885C12.826 21.855 11.4199 20.8237 10.9292 19.318C11.4907 19.4245 12.069 19.4028 12.6206 19.2549C10.8721 18.9066 9.61514 17.3911 9.61514 15.6317C9.61514 15.6159 9.61514 15.6002 9.61514 15.5851C10.1364 15.8719 10.7192 16.0303 11.3157 16.0476C9.66919 14.9629 9.16091 12.8026 10.1554 11.1137C12.0576 13.4227 14.8644 14.8263 17.8767 14.9757C17.5746 13.6921 17.9877 12.347 18.9602 11.444C20.469 10.0441 22.8421 10.1162 24.2611 11.6047C25.1004 11.4418 25.9046 11.1378 26.6404 10.7077C26.3604 11.5634 25.7753 12.29 24.9931 12.7524C25.7365 12.6646 26.4616 12.4686 27.1456 12.1699C26.6427 12.9122 26.0096 13.56 25.2761 14.0832Z" fill="white"/>
</g>
<defs>
<clipPath id="clip0_43_2580">
<rect width="36" height="35" fill="white" transform="translate(0.00292969)"/>
</clipPath>
</defs>
</svg>
