<svg width="37" height="35" viewBox="0 0 37 35" fill="none" xmlns="http://www.w3.org/2000/svg">
<g clip-path="url(#clip0_43_2584)">
<path d="M17.7543 35C27.5513 35 35.4934 27.165 35.4934 17.5C35.4934 7.83502 27.5513 0 17.7543 0C7.95722 0 0.0151367 7.83502 0.0151367 17.5C0.0151367 27.165 7.95722 35 17.7543 35Z" fill="#1F75D7"/>
<path d="M18.0151 10.3728C20.453 10.3728 20.7421 10.3818 21.7046 10.4254C22.6998 10.4704 23.7247 10.6941 24.4499 11.4094C25.1818 12.1315 25.4017 13.1328 25.4473 14.1176C25.4915 15.0671 25.5006 15.3524 25.5006 17.7574C25.5006 20.1623 25.4915 20.4476 25.4473 21.3971C25.4024 22.3736 25.1704 23.3945 24.4499 24.1053C23.7179 24.8274 22.7036 25.0443 21.7046 25.0893C20.7421 25.1329 20.453 25.1419 18.0151 25.1419C15.5773 25.1419 15.2882 25.1329 14.3257 25.0893C13.3434 25.0451 12.2949 24.8109 11.5805 24.1053C10.8523 23.3869 10.6286 22.3759 10.583 21.3971C10.5389 20.4476 10.5297 20.1623 10.5297 17.7574C10.5297 15.3524 10.5389 15.0671 10.583 14.1176C10.6279 13.1448 10.8622 12.118 11.5805 11.4094C12.3109 10.6888 13.3297 10.4704 14.3257 10.4254C15.2882 10.3818 15.5773 10.3728 18.0151 10.3728ZM18.0151 8.75C15.5355 8.75 15.2243 8.7605 14.2504 8.80404C12.839 8.86787 11.4374 9.25518 10.4171 10.2617C9.39298 11.2721 9.00418 12.6517 8.93949 14.0433C8.8954 15.0041 8.8847 15.3111 8.8847 17.7574C8.8847 20.2036 8.8954 20.5106 8.93949 21.4714C9.00418 22.8623 9.39831 24.2487 10.4171 25.253C11.4405 26.2626 12.8413 26.6468 14.2504 26.7107C15.2243 26.7542 15.5355 26.7647 18.0151 26.7647C20.4948 26.7647 20.806 26.7542 21.78 26.7107C23.1906 26.6468 24.5936 26.2588 25.6132 25.253C26.6381 24.2419 27.0261 22.863 27.0908 21.4714C27.1349 20.5106 27.1456 20.2036 27.1456 17.7574C27.1456 15.3111 27.1349 15.0041 27.0908 14.0433C27.0261 12.651 26.6328 11.2676 25.6132 10.2617C24.5913 9.25364 23.1868 8.8671 21.78 8.80404C20.806 8.7605 20.4948 8.75 18.0151 8.75Z" fill="white"/>
<path d="M18.0152 13.1328C15.4259 13.1328 13.3267 15.2038 13.3267 17.7581C13.3267 20.3124 15.4259 22.3834 18.0152 22.3834C20.6044 22.3834 22.7036 20.3124 22.7036 17.7581C22.7036 15.2038 20.6044 13.1328 18.0152 13.1328ZM18.0152 20.7605C16.3344 20.7605 14.9717 19.4162 14.9717 17.7581C14.9717 16.1 16.3344 14.7557 18.0152 14.7557C19.6959 14.7557 21.0586 16.1 21.0586 17.7581C21.0586 19.4162 19.6959 20.7605 18.0152 20.7605Z" fill="white"/>
<path d="M22.8894 14.029C23.4945 14.029 23.985 13.545 23.985 12.9481C23.985 12.3511 23.4945 11.8672 22.8894 11.8672C22.2842 11.8672 21.7937 12.3511 21.7937 12.9481C21.7937 13.545 22.2842 14.029 22.8894 14.029Z" fill="white"/>
</g>
<defs>
<clipPath id="clip0_43_2584">
<rect width="36" height="35" fill="white" transform="translate(0.00292969)"/>
</clipPath>
</defs>
</svg>
