<svg width="37" height="35" viewBox="0 0 37 35" fill="none" xmlns="http://www.w3.org/2000/svg">
<g clip-path="url(#clip0_43_2590)">
<path d="M17.7543 35C27.5513 35 35.4934 27.165 35.4934 17.5C35.4934 7.83502 27.5513 0 17.7543 0C7.95722 0 0.0151367 7.83502 0.0151367 17.5C0.0151367 27.165 7.95722 35 17.7543 35Z" fill="#1F75D7"/>
<path d="M27.1456 17.5557C27.1456 22.1796 23.7068 26.0129 19.2178 26.7085V20.2518H21.4005L21.816 17.5804H19.2178V15.8472C19.2178 15.116 19.5809 14.4042 20.7438 14.4042H21.9248V12.1297C21.9248 12.1297 20.8526 11.949 19.8282 11.949C17.6885 11.949 16.2908 13.2283 16.2908 15.5437V17.5797H13.9125V20.251H16.2908V26.7077C11.8025 26.0113 8.36298 22.1788 8.36298 17.5557C8.36298 12.4393 12.5679 8.29102 17.7543 8.29102C22.9406 8.29102 27.1456 12.4385 27.1456 17.5557Z" fill="white"/>
</g>
<defs>
<clipPath id="clip0_43_2590">
<rect width="36" height="35" fill="white" transform="translate(0.00292969)"/>
</clipPath>
</defs>
</svg>
