<svg width="37" height="36" viewBox="0 0 37 36" fill="none" xmlns="http://www.w3.org/2000/svg">
<circle cx="18.0029" cy="18" r="18" fill="#1F75D7"/>
<g clip-path="url(#clip0_43_2594)">
<path d="M18.0029 10C13.0331 10 9.00293 14.0302 9.00293 19C9.00293 23.9698 13.0331 28 18.0029 28C22.9727 28 27.0029 23.9698 27.0029 19C27.0029 14.0302 22.9727 10 18.0029 10ZM15.3876 23.6055H13.1957V17.0111H15.3876V23.6055ZM14.2917 16.1106H14.2775C13.5419 16.1106 13.0662 15.6043 13.0662 14.9715C13.0662 14.3244 13.5565 13.832 14.3063 13.832C15.0561 13.832 15.5175 14.3244 15.5318 14.9715C15.5318 15.6043 15.0561 16.1106 14.2917 16.1106ZM23.2912 23.6055H21.0996V20.0776C21.0996 19.191 20.7822 18.5864 19.9891 18.5864C19.3836 18.5864 19.023 18.9942 18.8645 19.388C18.8066 19.5289 18.7924 19.7258 18.7924 19.9229V23.6055H16.6007C16.6007 23.6055 16.6294 17.6297 16.6007 17.0111H18.7924V17.9448C19.0837 17.4954 19.6049 16.8563 20.7678 16.8563C22.2099 16.8563 23.2912 17.7988 23.2912 19.8242V23.6055Z" fill="white"/>
</g>
<defs>
<clipPath id="clip0_43_2594">
<rect width="18" height="18" fill="white" transform="translate(9.00293 10)"/>
</clipPath>
</defs>
</svg>
