<svg width="244" height="545" viewBox="0 0 244 545" fill="none" xmlns="http://www.w3.org/2000/svg">
<path d="M145.084 305.971C146.558 306.062 147.758 306.05 148.934 306.211C156.322 307.205 163.69 308.174 171.065 309.255C196.305 312.933 221.538 316.655 246.766 320.42L248.863 320.664C248.669 320.221 248.437 319.796 248.171 319.392C241.074 309.154 233.916 298.87 226.699 288.541L187.364 232.108C182.575 225.235 177.879 218.331 173.153 211.644C172.619 210.94 172.25 210.125 172.072 209.259C171.894 208.394 171.913 207.499 172.126 206.642C175.82 188.211 179.376 169.702 182.795 151.115L201.92 51.4307C202.776 47.4204 203.746 43.5588 204.678 39.6477C204.693 39.1561 204.862 38.6818 205.162 38.2925C205.462 37.9033 205.878 37.6191 206.349 37.4805C207.085 37.7814 207.995 38.1063 208.887 38.5619C218.563 43.4436 228.244 48.2816 237.865 53.2444C268.306 68.9123 298.747 84.5803 329.188 100.248C330.098 100.78 331.042 101.251 332.014 101.658C332.605 101.892 333.121 102.284 333.506 102.791C333.891 103.298 334.129 103.9 334.196 104.532C335.372 111.219 336.739 117.799 338.007 124.454C356.178 220.331 374.278 316.234 392.308 412.166C392.887 415.086 392.906 415.111 390.435 416.635L368.095 430.12L360.507 434.669C360.129 434.91 359.802 435.224 359.546 435.593C359.29 435.962 359.11 436.378 359.017 436.817L351.08 460.383L342.803 484.99C342.661 485.336 342.538 485.689 342.437 486.049C342.247 486.981 341.744 487.82 341.012 488.425C340.279 489.031 339.361 489.368 338.41 489.379C326.937 491.02 315.426 492.766 303.959 494.518C301.815 494.878 299.612 494.575 297.643 493.65C264.111 478.296 230.569 462.964 197.018 447.653C195.983 447.148 195.138 446.324 194.608 445.302C186.107 429.84 177.676 414.52 169.105 398.916C160.15 382.666 151.239 366.408 142.374 350.141C141.916 349.432 141.528 348.68 141.216 347.896C140.979 347.201 140.898 346.462 140.978 345.732C141.835 336.07 142.75 326.364 143.723 316.614C143.973 313.963 144.217 311.355 144.53 308.735C144.667 307.805 144.852 306.882 145.084 305.971ZM300.223 227.054L210.693 49.5745C210.662 50.2009 210.742 50.828 210.929 51.4268L218.747 77.4479L245.511 167.685C245.697 168.237 245.85 168.799 245.97 169.369C246.029 169.533 246.054 169.709 246.045 169.883C246.035 170.058 245.99 170.229 245.913 170.387C245.835 170.544 245.727 170.684 245.595 170.798C245.462 170.912 245.308 170.999 245.141 171.052C244.973 171.096 244.797 171.105 244.625 171.078C244.452 171.051 244.288 170.989 244.14 170.896C243.993 170.803 243.866 170.681 243.767 170.537C243.669 170.393 243.601 170.23 243.568 170.059C243.245 169.171 242.972 168.246 242.692 167.364L206.609 44.8624C206.475 44.378 206.292 43.9311 206.139 43.4218L174.876 207.797C175.117 207.964 175.372 208.11 175.637 208.235L268.751 249.426L268.974 249.257L268.548 247.822C265.078 237.291 261.559 226.798 258.114 216.248C255.217 206.883 252.372 197.636 249.202 188.323C248.799 187.007 248.462 185.672 248.194 184.322C248.053 183.726 247.881 183.036 248.991 182.701C249.423 183.319 249.802 183.973 250.123 184.654C250.989 186.771 251.811 188.881 252.515 191.042C258.854 209.669 265.067 228.301 271.153 246.938C271.375 247.59 271.603 248.198 271.926 249.086L300.223 227.054ZM209.442 41.6566C239.976 102.154 270.447 162.518 300.854 222.747C300.936 222.88 301.03 223.004 301.136 223.119C301.136 223.119 301.136 223.119 301.359 222.949L330.555 103.898L209.442 41.6566ZM176.89 211.581L176.643 211.769C176.887 212.091 177.132 212.413 177.376 212.735C189.26 229.757 201.112 246.738 212.932 263.678C226.426 282.993 239.904 302.32 253.365 321.66C253.591 321.957 253.817 322.255 254.042 322.552C260.553 329.329 267.113 336.068 273.693 342.988C286.557 356.505 299.414 370.013 312.266 383.514L351.609 425.056C351.948 425.502 352.454 425.86 352.885 426.275L353.133 426.087C325.386 368.369 297.643 310.623 269.905 252.847C238.9 239.144 207.895 225.388 176.89 211.581ZM332.358 109.562L332.066 109.588C331.932 110.08 331.755 110.566 331.64 111.083L312.889 187.826L303.584 225.675C303.42 226.226 303.372 226.806 303.444 227.377C303.515 227.948 303.703 228.499 303.998 228.994C304.917 230.718 305.743 232.474 306.587 234.255C318.187 258.577 329.775 282.868 341.353 307.127C356.689 339.316 371.979 371.566 387.224 403.876C387.544 404.297 387.883 404.743 388.005 405.315L388.227 405.146L332.358 109.562ZM356.982 434.651C339.527 416.337 322.216 398.11 304.88 379.902C287.544 361.693 270.371 343.596 252.903 325.214C252.654 325.514 252.425 325.832 252.219 326.163C247.567 333.602 242.77 340.799 238.005 348.089C237.748 348.481 237.572 348.92 237.487 349.381C237.401 349.841 237.408 350.315 237.506 350.773C239.432 362.867 241.495 375.091 243.189 387.087C243.453 389.154 244.434 391.064 245.96 392.484C255.697 401.968 265.335 411.527 275.073 421.167C285.503 431.479 295.933 441.791 306.363 452.103C317.24 462.831 328.067 473.598 338.919 484.345C339.182 484.692 339.619 484.907 340.138 485.334L356.982 434.651ZM301.628 229.778C300.177 230.488 273.292 251.604 272.676 252.54L359.125 432.437L389.244 414.297C359.959 352.668 330.754 291.162 301.628 229.778ZM233.533 430.125L240.661 391.311L145.487 349.77L145.24 349.958C162.356 381.238 179.562 412.619 196.858 444.102L233.533 430.125ZM143.59 345.781C175.928 359.905 207.936 374.005 240.348 388.072L240.15 386.27L237.619 369.986C236.653 363.883 235.686 357.78 234.789 351.664C234.771 351.163 234.599 350.68 234.295 350.28C233.992 349.881 233.573 349.585 233.095 349.434C232.794 349.324 232.5 349.195 232.216 349.047C204.266 335.941 176.294 322.839 148.298 309.742C147.943 309.582 147.563 309.441 146.971 309.226L143.59 345.781ZM335.039 487.251L335.105 486.927C301.32 468.876 267.477 450.817 233.575 432.75L199.61 445.723C200.459 446.173 200.914 446.413 201.376 446.61L209.146 450.164C239.464 464.024 269.781 477.885 300.099 491.746C300.754 492.057 301.482 492.18 302.203 492.102C312.734 490.591 323.257 489.034 333.772 487.432L335.039 487.251ZM236.071 431.206C268.562 448.443 300.978 465.685 333.32 482.931C303.741 453.274 273.996 423.86 244.175 394.347C243.968 394.074 243.619 393.871 243.338 393.655L243.09 393.843L236.071 431.206ZM153.83 309.37L153.657 309.502C180.878 322.197 208.023 334.859 235.091 347.489C237.311 344.709 250.003 324.838 250.245 323.717L153.83 309.37Z" fill="#25262B" fill-opacity="0.5"/>
<path d="M50.843 259.698C60.3542 267.308 72.3948 271.027 84.5308 270.101C94.5805 269.372 104.133 265.461 111.805 258.934C119.476 252.407 124.868 243.604 127.198 233.8C129.776 223.165 128.614 211.963 123.908 202.076C130.402 207.495 135.304 214.577 138.09 222.563C140.876 230.55 141.44 239.141 139.723 247.418C137.8 257.095 132.912 265.93 125.737 272.696C118.563 279.461 109.458 283.822 99.6863 285.172C89.9148 286.522 79.9618 284.795 71.2091 280.23C62.4564 275.665 55.3383 268.488 50.843 259.698Z" fill="white" fill-opacity="0.5"/>
</svg>
