<svg width="177" height="352" viewBox="0 0 177 352" fill="none" xmlns="http://www.w3.org/2000/svg">
<g clip-path="url(#clip0_416_8322)">
<g clip-path="url(#clip1_416_8322)">
<path d="M169.023 283.447L170.435 283.676C176.596 284.677 182.429 287.137 187.449 290.851C196.494 297.219 203.379 306.202 207.183 316.597C208.247 319.479 208.945 322.484 209.261 325.54C209.313 326.378 209.313 327.218 209.261 328.056C207.786 328.909 206.436 329.741 205.106 330.51C198.668 333.965 191.939 336.846 184.997 339.12C174.334 342.605 163.354 345.036 152.217 346.378C140.376 347.874 128.428 348.333 116.507 347.751C94.2844 346.911 72.3485 342.436 51.5695 334.503C48.0588 333.131 44.6519 331.488 41.1827 329.949C40.5657 329.625 39.9691 329.264 39.3962 328.867C39.3962 327.869 39.3962 326.933 39.5416 325.997C40.3421 319.523 42.5548 313.303 46.023 307.779C50.8162 299.591 57.7085 292.835 65.9863 288.21C70.0152 285.91 74.4536 284.419 79.0528 283.822L79.8629 283.572L78.4919 283.01C74.5362 281.595 70.7243 279.805 67.108 277.666C64.3691 276.055 61.8486 274.098 59.6088 271.843C56.9205 269.201 55.0583 265.834 54.2493 262.151C53.8471 260.695 53.7974 259.164 54.1045 257.685C54.4116 256.205 55.0665 254.821 56.015 253.645C56.0757 253.543 56.1179 253.43 56.1396 253.313C32.7598 237.157 15.9751 213.111 8.85924 185.577C3.56831 165.312 3.73563 144.005 9.34416 123.825C14.9527 103.645 25.8022 85.3133 40.7881 70.6959C58.1189 53.7475 80.2257 42.5292 104.125 38.5547C128.025 34.5801 152.568 38.0407 174.441 48.4694C196.314 58.8981 214.466 75.793 226.447 96.8743C238.427 117.956 243.66 142.209 241.439 166.361C237.887 202.464 220.936 231.06 191.873 252.689C192.006 252.872 192.152 253.046 192.31 253.209C193.504 254.518 194.234 256.184 194.387 257.95C194.628 260.209 194.292 262.492 193.411 264.584C192.161 267.679 190.221 270.446 187.74 272.674C184.357 275.732 180.524 278.25 176.376 280.14C174.299 281.097 172.222 281.929 170.144 282.823L169.085 283.26L169.023 283.447ZM239.922 155.318C239.853 132.299 232.971 109.817 220.146 90.7118C207.321 71.6063 189.128 56.7341 167.865 47.9735C146.602 39.2129 123.223 36.957 100.68 41.4906C78.1375 46.0241 57.4423 57.1439 41.2083 73.4454C24.9744 89.7469 13.9299 110.499 9.4698 133.081C5.00967 155.662 7.33395 179.061 16.1491 200.321C24.9642 221.581 39.8748 239.749 58.9977 252.531C78.1205 265.312 100.598 272.134 123.591 272.134C138.898 272.134 154.054 269.11 168.191 263.235C182.328 257.36 195.168 248.75 205.975 237.898C216.782 227.046 225.343 214.165 231.169 199.995C236.994 185.824 239.969 170.642 239.922 155.318ZM207.931 327.017C207.931 326.476 207.931 326.06 207.744 325.644C207.495 324.479 207.308 323.294 206.997 322.129C204.559 312.605 199.465 303.971 192.31 297.235C187.27 292.188 181.072 288.453 174.258 286.359C170.27 285.094 166.036 284.816 161.918 285.548C160.049 285.901 158.2 286.38 156.351 286.775C155.668 286.941 154.974 287.053 154.273 287.107C153.567 287.107 153.401 286.941 153.152 285.964C153.698 285.701 154.26 285.472 154.834 285.277C157.057 284.674 159.28 284.133 161.482 283.51C167.251 281.96 172.826 279.763 178.101 276.959C181.485 275.201 184.582 272.936 187.283 270.241C189.714 267.846 191.433 264.822 192.247 261.507C192.714 259.711 192.612 257.814 191.957 256.079C191.576 255.03 190.841 254.147 189.879 253.583C170.377 266.905 147.343 274.086 123.734 274.205C100.126 274.323 77.0203 267.374 57.386 254.248C56.9674 254.791 56.5857 255.36 56.2435 255.954C55.5111 257.464 55.2713 259.166 55.558 260.82C56.0271 263.655 57.2064 266.323 58.9856 268.577C60.6315 270.656 62.5697 272.484 64.7399 274.005C67.963 276.329 71.4495 278.263 75.1266 279.766C85.657 283.972 96.7151 286.708 107.99 287.898C112.145 288.397 116.3 288.626 120.33 288.979C120.87 288.979 121.389 289.166 121.846 289.229C122.075 289.832 121.846 290.123 121.493 290.227C121.059 290.347 120.613 290.417 120.163 290.435C118.605 290.435 117.047 290.435 115.489 290.435C106.503 289.936 97.5891 288.542 88.8786 286.276C84.2704 285.103 79.4357 285.16 74.8565 286.442C68.4831 288.256 62.6261 291.548 57.76 296.05C49.2745 303.469 43.4395 313.458 41.1412 324.5C40.8919 325.727 40.7257 326.975 40.518 328.264L42.1176 329.055C48.9526 332.105 55.9661 334.737 63.1195 336.937C87.7577 344.422 113.537 347.423 139.233 345.796C149.911 345.178 160.516 343.647 170.934 341.221C183.591 338.436 195.779 333.834 207.121 327.557L207.931 327.017Z" fill="#F0EAD5"/>
<path d="M29.3217 110.063C29.7164 110.791 29.3218 111.27 29.2179 111.727C28.2 114.701 27.1405 117.654 26.1434 120.649C22.2233 133.116 20.6731 146.209 21.5732 159.248C22.8698 181.638 31.0876 203.07 45.0888 220.578C55.0939 233.323 68.1472 243.336 83.0419 249.693C88.488 252.035 94.1716 253.778 99.9931 254.892C100.206 254.926 100.415 254.981 100.616 255.059C100.837 255.126 101.022 255.277 101.135 255.478C101.247 255.68 101.277 255.917 101.219 256.14C101.178 256.352 101.059 256.54 100.886 256.667C100.713 256.794 100.497 256.851 100.284 256.827C99.9673 256.819 99.6531 256.77 99.3491 256.681C80.7914 252.755 63.8408 243.336 50.6976 229.645C36.9425 215.552 27.2831 197.973 22.7573 178.797C20.2425 168.706 19.2068 158.303 19.6829 147.914C20.1261 136.168 22.6878 124.599 27.2444 113.765C27.6599 112.746 28.1584 111.686 28.657 110.812C28.8544 110.542 29.077 110.291 29.3217 110.063Z" fill="#F0EAD5"/>
<path d="M55.5791 210.367C56.4931 210.367 56.7216 210.949 57.0332 211.345C58.799 213.549 60.4609 215.837 62.3305 217.958C70.8536 227.573 81.5324 235.028 93.4907 239.711C105.718 244.623 118.869 246.802 132.025 246.096C138.026 245.824 143.973 244.847 149.745 243.185C150.638 242.935 151.179 243.185 151.324 243.684C151.469 244.183 151.116 244.64 150.161 244.911C142.716 246.959 135.03 247.994 127.31 247.989C111.285 248.094 95.5183 243.954 81.6083 235.989C72.4002 230.889 64.4003 223.859 58.155 215.379C57.3033 214.194 56.5347 212.904 55.7661 211.657C55.6489 211.237 55.586 210.803 55.5791 210.367Z" fill="#F0EAD5"/>
<path d="M127.704 53.3301C128.307 53.3301 128.93 53.3301 129.553 53.3301C133.64 53.5232 137.705 54.0518 141.706 54.9106C161.665 59.063 179.977 68.9664 194.387 83.4023C204.132 92.9223 212.071 104.133 217.819 116.49C218.048 116.968 218.256 117.467 218.443 117.946C218.509 118.054 218.547 118.177 218.556 118.304C218.564 118.431 218.542 118.557 218.491 118.674C218.44 118.79 218.362 118.892 218.263 118.972C218.164 119.052 218.048 119.106 217.923 119.131C217.196 119.131 217.051 118.507 216.781 118.029C215.077 114.743 213.499 111.374 211.608 108.192C200.921 89.6143 185.033 74.5764 165.907 64.9347C155.308 59.567 143.844 56.1171 132.046 54.7443C130.82 54.5987 129.595 54.4739 128.369 54.2867C128.182 54.2035 127.476 54.2035 127.704 53.3301Z" fill="#F0EAD5"/>
<path d="M87.8191 206.395C88.2408 206.497 88.6569 206.622 89.0655 206.769C91.1428 207.684 93.2202 208.661 95.2975 209.514C102.22 212.261 109.504 213.984 116.923 214.63C122.192 215.132 127.494 215.188 132.773 214.796C137.84 214.445 142.863 213.61 147.771 212.301C148.228 212.301 148.665 212.072 149.122 212.01C149.321 211.992 149.521 212.045 149.685 212.159C149.85 212.274 149.968 212.443 150.021 212.637C150.073 212.831 150.055 213.037 149.97 213.219C149.886 213.401 149.74 213.547 149.558 213.632C149.134 213.812 148.696 213.958 148.249 214.069C143.205 215.422 138.044 216.292 132.835 216.668C124.701 217.297 116.519 216.828 108.509 215.275C103.061 214.287 97.7714 212.566 92.7839 210.159C91.3713 209.452 90.0418 208.557 88.6292 207.726C88.2553 207.438 87.914 207.11 87.6113 206.748L87.8191 206.395Z" fill="#F0EAD5"/>
<path d="M154.107 210.845C154.346 210.59 154.611 210.36 154.897 210.159C156.351 209.452 157.826 208.786 159.301 208.079C160.028 207.747 160.589 207.83 160.796 208.287C161.004 208.745 160.796 209.244 160.111 209.66C158.712 210.534 157.184 211.18 155.582 211.573C154.71 211.802 154.585 211.74 154.107 210.845Z" fill="#F0EAD5"/>
<path d="M77.8278 332.173C77.7947 333.024 77.4505 333.833 76.8607 334.446C76.271 335.059 75.4766 335.435 74.6287 335.5C74.2515 335.52 73.8742 335.464 73.5187 335.336C73.1633 335.208 72.8369 335.011 72.5584 334.755C72.28 334.5 72.0552 334.191 71.897 333.848C71.7389 333.504 71.6506 333.133 71.6373 332.755C71.6033 331.883 71.913 331.032 72.4998 330.386C73.0866 329.74 73.9034 329.351 74.7741 329.303C75.5541 329.296 76.3066 329.591 76.8753 330.125C77.4439 330.66 77.7851 331.393 77.8278 332.173Z" fill="white"/>
<path d="M59.4428 323.73C59.0725 323.763 58.6994 323.718 58.3473 323.599C57.9951 323.479 57.6717 323.288 57.3975 323.036C57.1233 322.785 56.9043 322.479 56.7545 322.139C56.6047 321.798 56.5273 321.43 56.5273 321.058C56.5273 320.686 56.6047 320.317 56.7545 319.977C56.9043 319.636 57.1233 319.33 57.3975 319.079C57.6717 318.828 57.9951 318.636 58.3473 318.517C58.6994 318.397 59.0725 318.353 59.4428 318.385C59.7874 318.385 60.1285 318.454 60.4462 318.587C60.764 318.72 61.0521 318.916 61.2938 319.161C61.5355 319.407 61.7259 319.699 61.8539 320.019C61.9819 320.339 62.045 320.682 62.0395 321.027C62.0507 321.729 61.784 322.408 61.2976 322.914C60.8111 323.42 60.1444 323.714 59.4428 323.73Z" fill="white"/>
<path d="M143.741 297.069C143.734 296.359 143.995 295.672 144.473 295.147C144.951 294.622 145.61 294.298 146.317 294.241C146.635 294.235 146.952 294.293 147.247 294.41C147.543 294.528 147.813 294.703 148.041 294.925C148.269 295.147 148.45 295.413 148.575 295.706C148.7 295.999 148.766 296.314 148.769 296.632C148.776 297.342 148.515 298.029 148.037 298.554C147.559 299.079 146.9 299.403 146.193 299.461C145.553 299.461 144.939 299.211 144.481 298.764C144.023 298.317 143.758 297.709 143.741 297.069Z" fill="white"/>
<path d="M86.6356 294.302C86.6272 293.984 86.683 293.667 86.7995 293.371C86.9161 293.075 87.0911 292.805 87.314 292.578C87.537 292.351 87.8033 292.171 88.0972 292.049C88.3911 291.928 88.7065 291.866 89.0245 291.869C89.7186 291.884 90.3818 292.159 90.8821 292.641C91.3825 293.122 91.6835 293.775 91.7251 294.469C91.7143 295.109 91.4541 295.719 91 296.17C90.546 296.621 89.934 296.876 89.2946 296.881C88.9508 296.887 88.6094 296.824 88.2897 296.698C87.97 296.571 87.6784 296.383 87.4315 296.143C87.1846 295.904 86.9872 295.618 86.8506 295.302C86.7141 294.986 86.641 294.647 86.6356 294.302Z" fill="white"/>
<path d="M110.629 300.042C110.947 300.028 111.264 300.079 111.562 300.19C111.86 300.302 112.133 300.472 112.364 300.692C112.594 300.911 112.779 301.175 112.905 301.467C113.032 301.759 113.098 302.074 113.101 302.392C113.091 303.035 112.836 303.649 112.388 304.109C111.94 304.57 111.333 304.841 110.691 304.867C110.017 304.859 109.37 304.598 108.878 304.136C108.386 303.674 108.084 303.045 108.032 302.372C108.036 302.044 108.109 301.72 108.244 301.421C108.38 301.123 108.576 300.855 108.82 300.636C109.064 300.417 109.351 300.252 109.662 300.149C109.974 300.047 110.303 300.011 110.629 300.042Z" fill="white"/>
<path d="M158.906 326.912C159.576 326.97 160.199 327.282 160.647 327.785C161.095 328.288 161.334 328.942 161.316 329.616C161.31 329.916 161.246 330.213 161.126 330.488C161.006 330.764 160.833 331.013 160.617 331.221C160.401 331.43 160.146 331.594 159.867 331.704C159.588 331.814 159.289 331.867 158.989 331.862C158.327 331.879 157.685 331.636 157.2 331.185C156.715 330.734 156.425 330.111 156.393 329.449C156.427 328.791 156.702 328.169 157.166 327.701C157.63 327.233 158.249 326.952 158.906 326.912Z" fill="white"/>
<path d="M111.667 337.436C112.309 337.441 112.923 337.695 113.38 338.145C113.838 338.596 114.102 339.206 114.118 339.848C114.148 340.442 113.95 341.026 113.563 341.478C113.177 341.931 112.632 342.218 112.041 342.281C111.386 342.295 110.751 342.06 110.261 341.624C109.772 341.188 109.466 340.584 109.403 339.931C109.39 339.304 109.618 338.697 110.039 338.232C110.46 337.768 111.043 337.483 111.667 337.436Z" fill="white"/>
<path d="M170.747 331.341C170.747 330.74 170.986 330.163 171.41 329.738C171.835 329.313 172.411 329.074 173.011 329.074C173.612 329.074 174.188 329.313 174.612 329.738C175.037 330.163 175.276 330.74 175.276 331.341C175.276 331.942 175.037 332.519 174.612 332.944C174.188 333.369 173.612 333.608 173.011 333.608C172.411 333.608 171.835 333.369 171.41 332.944C170.986 332.519 170.747 331.942 170.747 331.341Z" fill="white"/>
<path d="M144.801 337.477C144.801 338.028 144.583 338.557 144.193 338.947C143.803 339.337 143.275 339.557 142.724 339.557C142.407 339.565 142.092 339.509 141.798 339.39C141.504 339.272 141.237 339.094 141.015 338.867C140.793 338.641 140.619 338.371 140.506 338.074C140.393 337.778 140.341 337.461 140.356 337.144C140.356 336.593 140.575 336.064 140.964 335.674C141.354 335.284 141.882 335.064 142.433 335.064C143.063 335.081 143.663 335.341 144.105 335.791C144.546 336.241 144.796 336.846 144.801 337.477Z" fill="white"/>
<path d="M138.735 312.687C138.752 312.977 138.711 313.267 138.616 313.541C138.521 313.815 138.372 314.067 138.179 314.284C137.986 314.5 137.752 314.676 137.491 314.802C137.23 314.928 136.947 315.001 136.658 315.017C136.039 314.979 135.458 314.702 135.04 314.244C134.621 313.786 134.397 313.183 134.414 312.562C134.414 312.011 134.633 311.482 135.022 311.092C135.412 310.702 135.94 310.483 136.491 310.483C136.784 310.477 137.075 310.53 137.347 310.639C137.619 310.747 137.866 310.908 138.075 311.114C138.284 311.319 138.45 311.564 138.563 311.834C138.677 312.104 138.735 312.394 138.735 312.687Z" fill="white"/>
<path d="M95.3606 315.952C95.3606 316.504 95.1417 317.033 94.7521 317.423C94.3625 317.813 93.8342 318.032 93.2832 318.032C92.696 318.061 92.1206 317.86 91.6787 317.472C91.2367 317.084 90.9629 316.539 90.915 315.952C90.9686 315.396 91.2271 314.881 91.6399 314.505C92.0528 314.13 92.5905 313.922 93.1482 313.922C93.7059 313.922 94.2436 314.13 94.6564 314.505C95.0693 314.881 95.3277 315.396 95.3813 315.952H95.3606Z" fill="white"/>
<path d="M67.0873 299.605C67.0689 299.328 67.1101 299.049 67.208 298.788C67.3059 298.528 67.4583 298.291 67.6549 298.094C67.8516 297.897 68.0881 297.745 68.3484 297.647C68.6088 297.549 68.8871 297.507 69.1646 297.526C69.7473 297.567 70.2938 297.824 70.6971 298.247C71.1005 298.67 71.3318 299.229 71.3458 299.813C71.3486 300.071 71.3 300.326 71.2029 300.565C71.1057 300.803 70.962 301.02 70.7801 301.202C70.5982 301.384 70.3818 301.528 70.1437 301.625C69.9055 301.722 69.6503 301.771 69.3931 301.768C68.803 301.78 68.2318 301.56 67.8011 301.156C67.3703 300.752 67.1142 300.196 67.0873 299.605Z" fill="white"/>
<path d="M107.783 330.634C107.783 331.186 107.564 331.715 107.174 332.105C106.785 332.495 106.256 332.714 105.705 332.714C105.154 332.714 104.626 332.495 104.236 332.105C103.847 331.715 103.628 331.186 103.628 330.634C103.626 330.11 103.822 329.605 104.176 329.22C104.531 328.834 105.017 328.597 105.539 328.555C106.106 328.553 106.653 328.767 107.07 329.153C107.486 329.539 107.741 330.068 107.783 330.634Z" fill="white"/>
<path d="M161.545 318.366C161.562 318.844 161.391 319.31 161.069 319.664C160.746 320.018 160.298 320.231 159.821 320.258C159.609 320.261 159.399 320.221 159.203 320.14C159.008 320.059 158.83 319.939 158.683 319.787C158.535 319.635 158.42 319.455 158.344 319.257C158.268 319.059 158.233 318.848 158.242 318.636C158.219 318.406 158.243 318.173 158.311 317.953C158.38 317.732 158.492 317.527 158.641 317.351C158.791 317.174 158.974 317.029 159.18 316.925C159.386 316.821 159.611 316.759 159.841 316.743C160.06 316.735 160.279 316.771 160.484 316.848C160.689 316.926 160.876 317.044 161.035 317.195C161.194 317.346 161.321 317.527 161.408 317.728C161.496 317.93 161.542 318.146 161.545 318.366Z" fill="white"/>
<path d="M165.325 296.881C165.123 296.882 164.924 296.841 164.738 296.762C164.552 296.683 164.385 296.567 164.245 296.421C164.105 296.275 163.996 296.103 163.925 295.914C163.853 295.725 163.821 295.524 163.829 295.322C163.861 294.878 164.058 294.463 164.381 294.159C164.704 293.854 165.13 293.683 165.574 293.679C165.767 293.684 165.957 293.728 166.133 293.807C166.309 293.887 166.467 294 166.598 294.142C166.73 294.283 166.832 294.449 166.898 294.63C166.965 294.811 166.995 295.004 166.987 295.197C166.996 295.419 166.959 295.64 166.878 295.847C166.798 296.054 166.676 296.242 166.521 296.4C166.365 296.558 166.178 296.682 165.973 296.765C165.767 296.848 165.547 296.887 165.325 296.881Z" fill="white"/>
<path d="M131.402 301.749C131.613 301.748 131.822 301.791 132.016 301.875C132.209 301.959 132.384 302.081 132.528 302.236C132.672 302.39 132.783 302.572 132.854 302.771C132.925 302.97 132.954 303.181 132.94 303.392C132.879 303.778 132.678 304.129 132.374 304.375C132.071 304.622 131.686 304.747 131.296 304.726C130.906 304.706 130.537 304.541 130.261 304.263C129.985 303.986 129.822 303.616 129.803 303.225C129.824 302.819 130.004 302.437 130.302 302.161C130.601 301.885 130.996 301.737 131.402 301.749Z" fill="white"/>
<path d="M111.148 315.703C111.151 315.906 111.112 316.107 111.034 316.295C110.956 316.482 110.841 316.651 110.694 316.792C110.548 316.932 110.375 317.041 110.185 317.111C109.995 317.182 109.792 317.212 109.59 317.201C109.387 317.212 109.184 317.182 108.994 317.114C108.803 317.045 108.627 316.939 108.478 316.801C108.329 316.663 108.209 316.497 108.125 316.312C108.041 316.127 107.995 315.927 107.99 315.724C107.99 314.83 108.551 314.289 109.548 314.248C109.751 314.227 109.956 314.25 110.149 314.314C110.343 314.378 110.521 314.482 110.672 314.619C110.823 314.756 110.943 314.924 111.025 315.11C111.107 315.297 111.149 315.499 111.148 315.703Z" fill="white"/>
<path d="M156.725 305.553C156.714 305.75 156.665 305.942 156.579 306.12C156.494 306.297 156.375 306.456 156.228 306.587C156.082 306.719 155.911 306.82 155.725 306.885C155.539 306.95 155.343 306.978 155.146 306.967C154.95 306.956 154.758 306.907 154.58 306.821C154.403 306.736 154.244 306.617 154.113 306.47C153.982 306.323 153.881 306.152 153.816 305.966C153.751 305.78 153.723 305.583 153.734 305.387C153.731 305.192 153.768 304.999 153.842 304.819C153.917 304.639 154.028 304.477 154.169 304.342C154.309 304.208 154.476 304.103 154.658 304.036C154.841 303.969 155.035 303.94 155.229 303.952C155.639 303.968 156.026 304.145 156.306 304.445C156.586 304.745 156.736 305.143 156.725 305.553Z" fill="white"/>
<path d="M73.34 315.078C72.9304 315.062 72.5437 314.885 72.2637 314.585C71.9838 314.285 71.8331 313.887 71.8443 313.477C71.8496 313.274 71.8955 313.074 71.9793 312.889C72.0631 312.704 72.1832 312.538 72.3323 312.4C72.4815 312.262 72.6567 312.156 72.8476 312.087C73.0386 312.019 73.2413 311.989 73.4439 312C73.8516 312 74.2426 312.162 74.5309 312.451C74.8192 312.74 74.9811 313.131 74.9811 313.539C74.9811 313.947 74.8192 314.339 74.5309 314.628C74.2426 314.916 73.8516 315.078 73.4439 315.078H73.34Z" fill="white"/>
<path d="M129.034 314.892C129.023 315.265 128.868 315.619 128.6 315.879C128.332 316.14 127.974 316.285 127.601 316.285C127.417 316.282 127.236 316.243 127.068 316.169C126.9 316.095 126.748 315.988 126.622 315.854C126.496 315.72 126.398 315.562 126.335 315.39C126.271 315.217 126.242 315.034 126.25 314.85C126.261 314.666 126.308 314.486 126.39 314.32C126.471 314.155 126.585 314.008 126.725 313.887C126.864 313.767 127.027 313.676 127.202 313.62C127.378 313.564 127.563 313.544 127.746 313.561C127.921 313.554 128.094 313.585 128.256 313.65C128.418 313.715 128.564 313.814 128.686 313.939C128.807 314.065 128.901 314.214 128.961 314.378C129.021 314.542 129.046 314.717 129.034 314.892Z" fill="white"/>
<path d="M91.4966 333.317C91.8566 333.317 92.2023 333.459 92.4588 333.712C92.7153 333.965 92.8622 334.308 92.8676 334.669C92.8676 335.038 92.721 335.393 92.46 335.654C92.199 335.915 91.8449 336.062 91.4758 336.062C91.1067 336.062 90.7527 335.915 90.4916 335.654C90.2306 335.393 90.084 335.038 90.084 334.669C90.084 334.299 90.2306 333.945 90.4916 333.684C90.7527 333.422 91.1067 333.275 91.4758 333.275L91.4966 333.317Z" fill="white"/>
<path d="M172.492 305.783C172.49 305.96 172.451 306.135 172.379 306.298C172.307 306.46 172.203 306.606 172.073 306.726C171.942 306.847 171.789 306.94 171.622 306.999C171.455 307.059 171.277 307.083 171.1 307.072C170.91 307.096 170.718 307.079 170.535 307.022C170.352 306.966 170.183 306.871 170.04 306.744C169.896 306.617 169.781 306.461 169.702 306.286C169.624 306.112 169.583 305.922 169.583 305.731C169.583 305.539 169.624 305.35 169.702 305.175C169.781 305 169.896 304.844 170.04 304.717C170.183 304.591 170.352 304.496 170.535 304.439C170.718 304.383 170.91 304.366 171.1 304.389C171.284 304.386 171.466 304.421 171.636 304.49C171.806 304.559 171.961 304.661 172.091 304.791C172.221 304.921 172.323 305.076 172.392 305.246C172.461 305.416 172.495 305.599 172.492 305.783Z" fill="white"/>
<path d="M144.801 332.069C144.842 331.742 145 331.441 145.247 331.223C145.494 331.005 145.811 330.885 146.141 330.885C146.47 330.885 146.788 331.005 147.034 331.223C147.281 331.441 147.44 331.742 147.481 332.069C147.478 332.245 147.44 332.418 147.369 332.579C147.298 332.74 147.196 332.885 147.068 333.005C146.94 333.125 146.789 333.218 146.625 333.279C146.46 333.34 146.285 333.367 146.11 333.359C145.766 333.359 145.436 333.223 145.191 332.982C144.947 332.741 144.806 332.413 144.801 332.069Z" fill="white"/>
<path d="M121.95 330.802C121.942 331.048 121.861 331.287 121.717 331.487C121.573 331.688 121.373 331.841 121.142 331.928C120.912 332.014 120.66 332.031 120.42 331.975C120.181 331.918 119.963 331.792 119.794 331.612C119.626 331.432 119.515 331.206 119.475 330.962C119.435 330.719 119.467 330.469 119.569 330.244C119.671 330.019 119.837 329.83 120.046 329.7C120.256 329.57 120.499 329.504 120.745 329.512C120.912 329.509 121.077 329.54 121.23 329.605C121.384 329.67 121.522 329.766 121.635 329.888C121.749 330.009 121.836 330.154 121.89 330.311C121.944 330.469 121.965 330.636 121.95 330.802Z" fill="white"/>
<path d="M86.1782 324.708C86.0213 324.719 85.8638 324.698 85.7154 324.646C85.5671 324.593 85.4311 324.511 85.316 324.403C85.201 324.296 85.1093 324.166 85.0468 324.022C84.9842 323.877 84.9521 323.721 84.9526 323.564C84.929 323.243 85.0305 322.925 85.2357 322.677C85.4409 322.429 85.7339 322.269 86.0536 322.233C86.3882 322.225 86.7138 322.342 86.9671 322.561C87.2205 322.78 87.3835 323.086 87.4246 323.418C87.4332 323.586 87.4071 323.754 87.3481 323.912C87.289 324.069 87.1982 324.213 87.0813 324.334C86.9644 324.455 86.8239 324.551 86.6685 324.615C86.5132 324.679 86.3463 324.711 86.1782 324.708Z" fill="white"/>
<path d="M145.923 322.192C145.914 322.036 145.938 321.88 145.993 321.733C146.048 321.587 146.133 321.453 146.242 321.342C146.352 321.23 146.484 321.143 146.629 321.085C146.774 321.027 146.93 321.001 147.086 321.007C147.251 321.004 147.416 321.034 147.569 321.096C147.723 321.157 147.863 321.249 147.981 321.365C148.099 321.481 148.192 321.619 148.256 321.772C148.32 321.925 148.353 322.089 148.353 322.255C148.337 322.573 148.198 322.872 147.965 323.089C147.733 323.307 147.425 323.425 147.107 323.419C146.949 323.416 146.792 323.383 146.647 323.319C146.502 323.256 146.371 323.165 146.261 323.051C146.151 322.937 146.064 322.803 146.006 322.655C145.948 322.508 145.92 322.351 145.923 322.192Z" fill="white"/>
<path d="M92.5351 302.247C92.7023 302.224 92.8724 302.238 93.0339 302.287C93.1954 302.336 93.3446 302.419 93.4716 302.53C93.5985 302.641 93.7002 302.778 93.7699 302.932C93.8396 303.086 93.8757 303.253 93.8757 303.422C93.8757 303.591 93.8396 303.758 93.7699 303.911C93.7002 304.065 93.5985 304.202 93.4716 304.314C93.3446 304.425 93.1954 304.508 93.0339 304.557C92.8724 304.605 92.7023 304.619 92.5351 304.597C92.3874 304.608 92.2389 304.589 92.0991 304.54C91.9594 304.49 91.8316 304.412 91.7239 304.31C91.6162 304.208 91.5311 304.085 91.474 303.948C91.4169 303.811 91.3892 303.664 91.3926 303.515C91.375 303.355 91.3915 303.193 91.441 303.039C91.4905 302.886 91.5718 302.744 91.6797 302.625C91.7876 302.505 91.9196 302.409 92.067 302.344C92.2145 302.279 92.374 302.246 92.5351 302.247Z" fill="white"/>
<path d="M80.5283 303.099C80.3784 303.102 80.2295 303.075 80.0907 303.018C79.9519 302.961 79.8261 302.877 79.7211 302.77C79.6161 302.663 79.534 302.535 79.4799 302.395C79.4258 302.255 79.4008 302.106 79.4065 301.956C79.395 301.807 79.4145 301.657 79.4636 301.516C79.5127 301.375 79.5905 301.246 79.692 301.137C79.7934 301.027 79.9164 300.94 80.0532 300.881C80.19 300.821 80.3376 300.791 80.4867 300.791C80.8025 300.827 81.0939 300.978 81.3048 301.217C81.5158 301.455 81.6313 301.762 81.6293 302.08C81.6239 302.22 81.5912 302.357 81.533 302.483C81.4747 302.61 81.3921 302.724 81.2898 302.818C81.1876 302.913 81.0677 302.987 80.937 303.035C80.8063 303.083 80.6674 303.105 80.5283 303.099Z" fill="white"/>
<path d="M129.013 340.493C129.03 340.719 128.977 340.946 128.863 341.142C128.748 341.338 128.577 341.495 128.371 341.592C128.166 341.688 127.936 341.72 127.712 341.683C127.488 341.646 127.28 341.542 127.117 341.385C126.953 341.227 126.841 341.024 126.795 340.801C126.75 340.578 126.773 340.347 126.861 340.138C126.949 339.928 127.099 339.751 127.291 339.629C127.482 339.506 127.706 339.445 127.933 339.453C128.074 339.441 128.216 339.459 128.35 339.507C128.484 339.554 128.606 339.629 128.708 339.728C128.81 339.826 128.89 339.945 128.943 340.077C128.995 340.209 129.019 340.351 129.013 340.493Z" fill="white"/>
<path d="M174.278 300.895C174.128 300.89 173.98 300.854 173.845 300.79C173.709 300.726 173.587 300.634 173.488 300.521C173.389 300.408 173.314 300.276 173.267 300.133C173.221 299.99 173.205 299.838 173.219 299.689C173.246 299.396 173.389 299.127 173.615 298.94C173.841 298.753 174.132 298.663 174.424 298.69C174.716 298.718 174.985 298.861 175.172 299.087C175.359 299.313 175.448 299.604 175.421 299.897C175.394 300.178 175.261 300.438 175.049 300.624C174.836 300.81 174.56 300.907 174.278 300.895Z" fill="white"/>
<path d="M171.204 321.297C170.988 321.287 170.78 321.213 170.606 321.085C170.433 320.956 170.302 320.778 170.231 320.573C170.159 320.369 170.151 320.148 170.206 319.939C170.261 319.73 170.378 319.542 170.541 319.4C170.704 319.258 170.906 319.169 171.12 319.143C171.335 319.117 171.552 319.156 171.744 319.254C171.936 319.353 172.094 319.508 172.198 319.698C172.302 319.887 172.346 320.104 172.325 320.319C172.304 320.597 172.175 320.855 171.965 321.038C171.755 321.221 171.481 321.314 171.204 321.297Z" fill="white"/>
<path d="M132.648 324.998C132.488 325.044 132.318 325.052 132.154 325.022C131.99 324.991 131.835 324.923 131.701 324.822C131.568 324.721 131.459 324.59 131.385 324.441C131.31 324.291 131.271 324.126 131.271 323.958C131.271 323.791 131.31 323.626 131.385 323.476C131.459 323.326 131.568 323.196 131.701 323.095C131.835 322.994 131.99 322.926 132.154 322.895C132.318 322.865 132.488 322.873 132.648 322.919C132.789 322.924 132.928 322.957 133.056 323.017C133.184 323.076 133.299 323.161 133.393 323.266C133.488 323.37 133.561 323.493 133.608 323.626C133.655 323.759 133.675 323.901 133.666 324.042C133.646 324.299 133.53 324.54 133.342 324.717C133.154 324.893 132.906 324.994 132.648 324.998Z" fill="white"/>
<path d="M132.753 332.715C133.028 332.715 133.292 332.824 133.487 333.019C133.682 333.214 133.791 333.479 133.791 333.755C133.791 334.03 133.682 334.295 133.487 334.49C133.292 334.685 133.028 334.795 132.753 334.795C132.622 334.785 132.494 334.748 132.379 334.686C132.263 334.624 132.162 334.538 132.081 334.434C132.001 334.33 131.943 334.21 131.912 334.082C131.881 333.954 131.877 333.822 131.901 333.692C131.894 333.452 131.978 333.218 132.136 333.037C132.294 332.856 132.514 332.741 132.753 332.715Z" fill="white"/>
<path d="M117.899 321.922C118.689 322.4 118.917 322.712 118.751 323.232C118.701 323.441 118.576 323.625 118.4 323.748C118.224 323.87 118.008 323.924 117.795 323.898C117.586 323.89 117.385 323.809 117.23 323.668C117.074 323.527 116.973 323.336 116.944 323.128C116.84 322.546 117.047 322.296 117.899 321.922Z" fill="white"/>
<path d="M110.691 136.185C110.088 133.834 109.465 131.526 108.884 129.197C106.238 118.757 103.607 108.317 100.99 97.8768C100.856 97.4054 100.752 96.9262 100.678 96.4418C100.678 96.0467 100.678 95.6516 100.678 95.194C101.364 95.194 101.467 95.7347 101.571 96.1091C102.049 97.5441 102.506 98.9998 102.901 100.456C105.989 111.866 109.064 123.291 112.124 134.729C112.124 135.124 112.353 135.519 112.436 135.831L124.755 134.625C124.755 134.105 124.755 133.523 124.755 132.94C124.422 119.381 124.083 105.821 123.737 92.2617C123.737 90.0364 123.737 87.8112 123.737 85.5859C123.763 85.1379 123.825 84.6928 123.924 84.2549C124.526 83.943 124.817 84.1509 124.941 84.5877C125.029 84.9706 125.084 85.3602 125.108 85.7523C125.253 88.955 125.44 92.1785 125.523 95.3812C125.814 106.057 126.091 116.719 126.354 127.367C126.354 129.446 126.354 131.672 126.52 133.834C126.52 134.105 126.52 134.396 126.52 134.791C131.246 134.954 135.947 135.552 140.563 136.58C140.709 136.122 140.854 135.748 140.958 135.353C143.728 124.816 146.497 114.265 149.267 103.7C149.766 101.787 150.368 99.9149 150.929 98.0224C151.054 97.5857 151.158 97.1281 151.698 96.941C151.854 97.1788 151.947 97.4523 151.969 97.736C151.99 98.0196 151.94 98.3042 151.822 98.5631C151.012 102.14 150.223 105.738 149.33 109.294C147.211 118.175 144.967 127.034 142.724 135.893C142.724 136.205 142.578 136.517 142.474 136.933C144.365 137.536 146.255 138.098 148.104 138.743C149.953 139.387 151.718 140.136 153.63 140.822C153.837 140.489 154.066 140.157 154.274 139.803L169.106 113.516C169.688 112.497 170.311 111.436 170.934 110.542C171.172 110.241 171.444 109.969 171.744 109.731C171.878 109.967 171.938 110.239 171.916 110.509C171.893 110.78 171.79 111.038 171.619 111.249C170.747 113.017 169.854 114.805 168.919 116.532C164.598 124.538 160.236 132.545 155.894 140.552C155.707 140.885 155.541 141.217 155.395 141.509L166.218 148.122C166.385 147.935 166.655 147.644 166.904 147.311L190.71 116.906C192.081 115.138 193.515 113.454 194.865 111.748C195.177 111.374 195.467 110.833 196.174 111.041C196.199 111.29 196.167 111.54 196.08 111.775C195.994 112.009 195.855 112.22 195.675 112.393C194.47 114.098 193.265 115.804 191.998 117.447L168.483 148.33L167.693 149.37L175.483 156.753L176.605 155.921L197.379 139.637C198.126 139.054 198.916 138.535 199.705 137.994C200.495 137.453 200.204 137.682 200.889 137.786C200.889 138.347 200.536 138.597 200.225 138.888C198.75 140.157 197.275 141.425 195.758 142.652C189.651 147.519 183.516 152.371 177.353 157.21L176.377 158.021L177.145 159.04C180.501 163.153 183.263 167.718 185.351 172.6C185.564 173.02 185.646 173.494 185.587 173.961C185.528 174.428 185.33 174.867 185.018 175.22C181.392 179.973 177.03 184.115 172.097 187.49C164.161 192.931 155.276 196.832 145.902 198.991C137.148 201.145 128.128 202.014 119.125 201.57C105.249 200.958 91.6978 197.174 79.5099 190.506C74.337 187.611 69.5195 184.121 65.1555 180.107C64.5637 179.671 64.1424 179.042 63.9642 178.328C63.786 177.615 63.862 176.861 64.1791 176.198C66.684 169.274 70.4212 162.862 75.2098 157.272L76.0823 156.253L75.0436 155.401C68.6038 150.34 62.171 145.28 55.7451 140.219C54.6233 139.346 53.5639 138.41 52.5044 137.474C52.2295 137.181 51.9858 136.861 51.7773 136.517C52.4005 136.101 52.7952 136.517 53.1484 136.704C54.4571 137.62 55.7659 138.514 57.0123 139.47C63.4313 144.399 69.8087 149.349 76.2069 154.299L77.1002 154.964L85.2226 147.789C84.9526 147.456 84.6825 147.082 84.4125 146.729L59.4843 114.473C58.591 113.329 57.7601 112.143 56.9499 110.937C56.719 110.561 56.5242 110.164 56.3683 109.752C57.0123 109.461 57.3031 109.752 57.5731 110.126C58.1963 110.812 58.7988 111.499 59.3804 112.206L83.0622 142.091C84.1009 143.38 85.1395 144.69 86.1366 146.001C86.3236 146.25 86.5313 146.479 86.6975 146.666L97.7906 140.427L97.1881 139.179L82.1689 111.79C81.7534 111.02 81.3588 110.23 81.0056 109.419C80.8711 109.086 80.7803 108.736 80.7356 108.379L80.9641 108.213C81.2113 108.35 81.4356 108.526 81.6288 108.733C82.0651 109.357 82.5013 110.022 82.8752 110.688C88.1517 119.977 93.4697 129.259 98.8292 138.535C99.0577 138.909 99.307 139.304 99.494 139.637L110.691 136.185ZM183.045 172.017L183.232 171.851C183.024 171.456 182.837 171.04 182.629 170.645C175.979 157.859 165.075 147.803 151.802 142.216C141.633 137.771 130.507 135.968 119.457 136.975C108.991 137.784 98.8862 141.171 90.0421 146.832C79.7023 153.261 71.6374 162.775 66.9835 174.035L66.4226 175.532C66.6248 175.47 66.8198 175.386 67.0043 175.283C67.9599 174.659 68.8739 174.014 69.8295 173.411C75.8559 169.715 82.3548 166.854 89.1488 164.905C99.6904 161.827 110.58 160.101 121.555 159.768C133.839 159.271 146.135 160.369 158.137 163.033C166.65 164.802 174.873 167.756 182.567 171.809L183.045 172.017ZM155.188 164.135C155.525 169.458 154.427 174.773 152.009 179.525C149.593 184.214 145.97 188.173 141.515 190.992C137.06 193.811 131.933 195.387 126.666 195.559C119.909 195.835 113.277 193.681 107.97 189.487C104.185 186.626 101.15 182.89 99.1238 178.598C97.0977 174.306 96.1413 169.586 96.3364 164.843C95.921 164.843 95.6094 164.947 95.3185 165.03C89.7922 166.344 84.3913 168.139 79.1775 170.395C74.8926 172.235 70.8354 174.565 67.0874 177.341L66.2357 178.069C66.3811 178.256 66.4226 178.36 66.485 178.423C66.8589 178.797 67.2328 179.172 67.6275 179.525C70.9768 182.561 74.6237 185.25 78.5128 187.553C90.6887 194.695 104.407 198.79 118.502 199.49C125.485 199.945 132.497 199.597 139.4 198.45C148.571 197.011 157.425 194 165.574 189.549C172.239 185.94 178.154 181.09 183.003 175.262C183.273 174.95 183.502 174.617 183.813 174.201C174.821 169.448 165.174 166.056 155.188 164.135ZM98.58 164.323C98.1811 169.423 99.2362 174.533 101.623 179.057C104.009 183.582 107.629 187.335 112.062 189.882C116.934 192.713 122.558 193.978 128.171 193.505C133.785 193.033 139.119 190.846 143.451 187.241C147.709 183.738 150.778 179.001 152.238 173.681C153.181 170.479 153.478 167.121 153.11 163.803C149.392 163.116 145.798 162.576 142.038 162.243C142.02 162.548 142.02 162.853 142.038 163.158C142.604 165.556 142.625 168.051 142.1 170.458C141.574 172.865 140.514 175.124 139 177.066C137.485 179.008 135.554 180.585 133.349 181.68C131.144 182.775 128.721 183.36 126.26 183.392C123.799 183.424 121.362 182.902 119.129 181.865C116.897 180.827 114.925 179.301 113.361 177.399C111.797 175.496 110.679 173.266 110.091 170.873C109.503 168.48 109.46 165.986 109.964 163.574C109.964 163.262 109.964 162.929 110.109 162.472C106.214 162.913 102.345 163.558 98.5176 164.406L98.58 164.323ZM112.498 162.243C111.505 165.055 111.414 168.108 112.237 170.975C113.06 173.842 114.756 176.38 117.089 178.236C119.701 180.319 122.942 181.454 126.281 181.454C129.621 181.454 132.862 180.319 135.474 178.236C137.808 176.34 139.485 173.757 140.269 170.852C141.052 167.947 140.9 164.869 139.836 162.056C130.718 161.238 121.543 161.293 112.436 162.222L112.498 162.243Z" fill="#F0EAD5"/>
<path d="M183.045 172.017L183.232 171.851C183.024 171.456 182.837 171.04 182.63 170.645C175.979 157.859 165.075 147.803 151.802 142.215C141.633 137.771 130.508 135.968 119.457 136.974C108.991 137.784 98.8864 141.17 90.0423 146.832C79.7025 153.261 71.6377 162.775 66.9837 174.034L66.4229 175.532C66.6251 175.47 66.82 175.386 67.0045 175.282C67.9601 174.658 68.8741 174.014 69.8297 173.41C75.8561 169.715 82.355 166.853 89.149 164.905C99.6906 161.826 110.58 160.1 121.556 159.768C133.839 159.271 146.136 160.368 158.138 163.033C166.65 164.802 174.874 167.756 182.567 171.809L183.045 172.017Z" fill="white"/>
<path d="M21.0323 270.449C23.3174 270.719 25.4986 270.345 27.7006 270.782C27.7006 271.135 27.7006 271.364 27.7006 271.697C25.6233 272.05 23.4005 271.697 21.1778 271.884C21.1778 272.653 21.1778 273.381 21.1778 274.109C21.3439 278.795 21.5171 283.489 21.6971 288.189C21.6971 288.625 21.6971 289.083 21.6971 289.644L20.513 289.832C20.513 289.229 20.326 288.771 20.3053 288.293C20.1391 283.135 19.9729 277.998 19.8275 272.841C19.8275 272.529 19.8275 272.217 19.8275 271.822H18.4357L13.2631 271.718C12.8476 271.718 12.3698 271.718 12.2659 271.156C12.1621 270.595 12.9722 270.657 13.4085 270.636H19.7444C19.7444 270.137 19.7444 269.721 19.7444 269.326L19.4951 256.307C19.4951 255.912 19.4951 255.517 19.4951 255.143C20.1183 255.143 20.1806 255.371 20.2014 255.704C20.2014 256.453 20.3676 257.181 20.3884 257.929C20.5753 261.756 20.7415 265.603 20.9077 269.451C20.9492 269.7 20.9908 270.033 21.0323 270.449Z" fill="white"/>
<path d="M77.6614 77.2254C77.8068 73.3988 77.3083 69.801 77.6614 66.2031C78.4508 66.2031 78.3677 66.6815 78.4093 67.035C78.5339 68.054 78.5962 69.1147 78.6378 70.1129C78.7417 72.1926 78.8247 74.0643 78.9078 76.04C78.9078 76.352 78.9078 76.6639 79.0325 77.0591C79.3853 77.0792 79.7391 77.0792 80.0919 77.0591C81.5253 77.0591 82.9794 77.0591 84.4336 77.0591C84.832 77.0838 85.2279 77.1394 85.6177 77.2254C85.6177 78.1405 85.5138 78.2029 84.7867 78.2029L80.4035 78.2445H79.1363C79.1363 78.702 79.1363 79.0763 79.1363 79.4507C79.1363 82.1751 79.3233 84.8995 79.4064 87.603C79.3834 88.0147 79.3348 88.4245 79.261 88.8301C78.5339 89.0588 78.2431 88.8301 78.1808 88.3101C78.1184 87.7902 78.1808 87.1871 78.0561 86.6256L77.8068 79.0971C77.8214 78.82 77.8214 78.5424 77.8068 78.2653H76.6643H71.9072C71.6538 78.2943 71.3972 78.2623 71.1587 78.1718C70.9202 78.0814 70.7067 77.9352 70.5361 77.7454C71.6851 77.3564 72.8985 77.1939 74.1092 77.267L77.6614 77.2254Z" fill="white"/>
<path d="M-3.75006 248.987C-3.62542 245.16 -4.12398 241.583 -3.75006 237.985C-2.98144 237.985 -3.04376 238.443 -3.00222 238.817C-2.89835 239.836 -2.83603 240.897 -2.77371 241.874C-2.77371 243.954 -2.60752 245.826 -2.50365 247.801C-2.50365 248.113 -2.50365 248.425 -2.39979 248.82C-2.04687 248.839 -1.69326 248.839 -1.34034 248.82H3.00131C3.39997 248.828 3.79678 248.877 4.1854 248.966C4.1854 249.902 4.1854 249.944 3.35446 249.944C1.87955 249.944 0.404631 249.944 -1.09106 249.944H-2.35824C-2.35824 250.401 -2.35824 250.775 -2.35824 251.171C-2.35824 253.874 -2.17128 256.598 -2.10896 259.323C-2.12287 259.728 -2.17152 260.132 -2.25437 260.529C-2.96067 260.779 -3.2515 260.529 -3.31382 260.009C-3.38708 259.45 -3.4287 258.888 -3.43846 258.325L-3.68774 250.817C-3.67213 250.533 -3.67213 250.248 -3.68774 249.964H-4.83028H-9.5874C-9.8515 250.006 -10.1218 249.975 -10.3703 249.877C-10.6187 249.778 -10.8361 249.614 -11 249.403C-9.85904 249.011 -8.65055 248.856 -7.44774 248.945C-6.24288 248.966 -5.05879 248.987 -3.75006 248.987Z" fill="white"/>
</g>
</g>
<defs>
<clipPath id="clip0_416_8322">
<rect width="177" height="352" fill="white"/>
</clipPath>
<clipPath id="clip1_416_8322">
<rect width="253" height="344" fill="white" transform="translate(-11 4)"/>
</clipPath>
</defs>
</svg>
