<svg width="228" height="350" viewBox="0 0 228 350" fill="none" xmlns="http://www.w3.org/2000/svg">
<g clip-path="url(#clip0_416_8152)">
<g clip-path="url(#clip1_416_8152)">
<path d="M225.658 300.732C294.827 271.385 327.111 191.522 297.764 122.352C268.417 53.1827 188.554 20.8996 119.384 50.2462C50.2147 79.5927 17.9317 159.456 47.2782 228.626C76.6248 297.795 156.488 330.078 225.658 300.732Z" stroke="#F0EAD5" stroke-width="2" stroke-linecap="round" stroke-linejoin="round"/>
<path d="M172.521 345.571C266.438 345.571 342.572 269.437 342.572 175.52C342.572 81.604 266.438 5.46973 172.521 5.46973C78.605 5.46973 2.4707 81.604 2.4707 175.52C2.4707 269.437 78.605 345.571 172.521 345.571Z" stroke="#F0EAD5" stroke-width="1.2" stroke-linecap="round" stroke-linejoin="round"/>
<path d="M172.521 328.364C256.934 328.364 325.365 259.933 325.365 175.52C325.365 91.1063 256.934 22.6758 172.521 22.6758C88.1073 22.6758 19.6768 91.1063 19.6768 175.52C19.6768 259.933 88.1073 328.364 172.521 328.364Z" stroke="#F0EAD5" stroke-width="0.75" stroke-linecap="round" stroke-linejoin="round" stroke-dasharray="0.5 2.98"/>
<path d="M183.288 237.638V239.138H184.788H290.142L274.063 260.672H161.713V187.787V186.287H160.213H110.404H108.904V187.787V293.144L87.3289 277.062V164.712H160.213H161.713V163.212V113.403V111.903H160.213H54.8571L70.9392 90.3279H183.288V163.212V164.712H184.788H234.639H236.139V163.212V57.8591L257.673 73.9374V163.212V186.287H234.639H184.788H183.288V187.787V237.638Z" stroke="#F0EAD5" stroke-width="3"/>
<path d="M136.626 148.681C142.151 148.681 146.629 144.202 146.629 138.678C146.629 133.153 142.151 128.675 136.626 128.675C131.102 128.675 126.623 133.153 126.623 138.678C126.623 144.202 131.102 148.681 136.626 148.681Z" fill="#F0EAD5"/>
<path d="M218.378 138.843C218.378 140.823 217.79 142.759 216.689 144.405C215.588 146.05 214.024 147.332 212.193 148.088C210.363 148.844 208.35 149.04 206.408 148.651C204.467 148.261 202.685 147.304 201.287 145.901C199.89 144.498 198.941 142.712 198.559 140.769C198.178 138.826 198.382 136.813 199.145 134.986C199.909 133.159 201.197 131.6 202.848 130.506C204.498 129.412 206.436 128.832 208.416 128.84C211.062 128.851 213.596 129.91 215.463 131.784C217.33 133.659 218.378 136.197 218.378 138.843Z" fill="#F0EAD5"/>
<path d="M146.587 212.321C146.595 214.303 146.014 216.243 144.918 217.894C143.822 219.545 142.26 220.834 140.431 221.596C138.602 222.358 136.587 222.56 134.643 222.175C132.698 221.79 130.912 220.837 129.511 219.436C128.109 218.034 127.156 216.248 126.771 214.304C126.387 212.36 126.588 210.345 127.35 208.515C128.113 206.686 129.401 205.124 131.052 204.028C132.704 202.932 134.643 202.351 136.625 202.359C137.933 202.359 139.229 202.617 140.437 203.118C141.646 203.618 142.744 204.352 143.669 205.277C144.594 206.202 145.328 207.3 145.829 208.509C146.329 209.718 146.587 211.013 146.587 212.321Z" fill="#F0EAD5"/>
<path d="M218.378 212.321C218.386 214.303 217.805 216.243 216.709 217.894C215.613 219.545 214.051 220.834 212.222 221.596C210.393 222.358 208.378 222.56 206.434 222.175C204.489 221.79 202.703 220.837 201.302 219.436C199.9 218.034 198.947 216.248 198.562 214.304C198.178 212.36 198.379 210.345 199.141 208.515C199.904 206.686 201.192 205.124 202.843 204.028C204.495 202.932 206.434 202.351 208.416 202.359C211.055 202.37 213.582 203.423 215.448 205.289C217.314 207.155 218.367 209.683 218.378 212.321Z" fill="#F0EAD5"/>
</g>
</g>
<defs>
<clipPath id="clip0_416_8152">
<rect width="228" height="350" fill="white"/>
</clipPath>
<clipPath id="clip1_416_8152">
<rect width="345" height="345" fill="white" transform="translate(0 3)"/>
</clipPath>
</defs>
</svg>
