<svg width="210" height="342" viewBox="0 0 210 342" fill="none" xmlns="http://www.w3.org/2000/svg">
<g clip-path="url(#clip0_416_8192)">
<path d="M171.02 243.585C211.096 243.585 243.585 211.096 243.585 171.02C243.585 130.943 211.096 98.4551 171.02 98.4551C130.943 98.4551 98.4551 130.943 98.4551 171.02C98.4551 211.096 130.943 243.585 171.02 243.585Z" stroke="#F0EAD5" stroke-width="2" stroke-linecap="round" stroke-linejoin="round"/>
<path d="M148.96 150.954C148.962 141.128 150.965 131.407 154.847 122.381C158.729 113.355 164.408 105.214 171.539 98.4549H171.1C159.207 98.4003 147.482 101.268 136.957 106.807C126.431 112.345 117.428 120.385 110.738 130.218C104.047 140.052 99.8755 151.378 98.5885 163.202C97.3014 175.026 98.9388 186.985 103.357 198.027C107.774 209.07 114.837 218.858 123.924 226.531C133.011 234.205 143.844 239.528 155.471 242.034C167.098 244.54 179.162 244.151 190.603 240.901C202.044 237.652 212.512 231.642 221.085 223.399C201.937 223.283 183.61 215.603 170.1 202.033C156.59 188.463 148.991 170.102 148.96 150.954Z" stroke="#F0EAD5" stroke-width="2" stroke-linecap="round" stroke-linejoin="round"/>
<path d="M148.36 76.7934C148.36 76.7934 137.31 35.2651 177.442 2.39355C175.521 9.51393 175.927 17.0619 178.599 23.9356C181.671 31.9141 189.649 41.4086 193.28 54.6929" stroke="#F0EAD5" stroke-width="2" stroke-linecap="round" stroke-linejoin="round"/>
<path d="M176.924 3.27148C176.924 3.27148 160.967 28.8427 166.233 56.8474" stroke="#F0EAD5" stroke-width="2" stroke-linecap="round" stroke-linejoin="round"/>
<path d="M193.679 265.207C193.679 265.207 204.69 306.735 164.558 339.607C166.537 332.531 166.188 325.006 163.56 318.145C160.489 310.166 152.43 300.592 148.84 287.188" stroke="#F0EAD5" stroke-width="2" stroke-linecap="round" stroke-linejoin="round"/>
<path d="M165.076 338.768C165.076 338.768 181.033 313.157 175.807 285.192" stroke="#F0EAD5" stroke-width="2" stroke-linecap="round" stroke-linejoin="round"/>
<path d="M114.013 92.6311C114.013 92.6311 87.923 58.5228 112.417 12.8457C113.374 20.1325 116.63 26.9241 121.712 32.2335C127.576 38.4169 138.507 44.2014 146.884 54.8527" stroke="#F0EAD5" stroke-width="2" stroke-linecap="round" stroke-linejoin="round"/>
<path d="M112.258 13.7627C112.258 13.7627 107.71 43.4428 122.909 67.3386" stroke="#F0EAD5" stroke-width="2" stroke-linecap="round" stroke-linejoin="round"/>
<path d="M227.987 249.369C227.987 249.369 254.077 283.517 229.583 329.155C228.642 321.863 225.383 315.066 220.288 309.767C214.463 303.583 203.573 297.799 195.155 287.227" stroke="#F0EAD5" stroke-width="2" stroke-linecap="round" stroke-linejoin="round"/>
<path d="M88.3624 120.397C88.3624 120.397 51.2224 98.8545 56.4483 47.2334C60.1094 53.5919 65.6977 58.6214 72.4054 61.5948C80.3839 65.1053 92.7108 66.1425 104.718 73.0839" stroke="#F0EAD5" stroke-width="2" stroke-linecap="round" stroke-linejoin="round"/>
<path d="M56.5674 48.1904C56.5674 48.1904 63.5087 77.4717 86.8858 93.6681" stroke="#F0EAD5" stroke-width="2" stroke-linecap="round" stroke-linejoin="round"/>
<path d="M75.2771 155.9C75.2771 155.9 32.7116 150.196 17.7119 100.529C23.5218 105.035 30.6268 107.552 37.9774 107.71C46.5543 107.949 58.4423 104.16 72.1654 105.955" stroke="#F0EAD5" stroke-width="2" stroke-linecap="round" stroke-linejoin="round"/>
<path d="M18.2705 101.367C18.2705 101.367 35.9031 125.702 63.8279 131.646" stroke="#F0EAD5" stroke-width="2" stroke-linecap="round" stroke-linejoin="round"/>
<path d="M76.7934 193.679C76.7934 193.679 35.2651 204.689 2.39355 164.557C9.49445 166.551 17.0494 166.202 23.9356 163.56C31.9141 160.528 41.3687 152.509 54.653 148.919" stroke="#F0EAD5" stroke-width="2" stroke-linecap="round" stroke-linejoin="round"/>
<path d="M3.27148 165.076C3.27148 165.076 28.8427 181.033 56.8474 175.807" stroke="#F0EAD5" stroke-width="2" stroke-linecap="round" stroke-linejoin="round"/>
<path d="M92.6311 227.987C92.6311 227.987 58.5228 254.077 12.8457 229.583C20.1389 228.647 26.9371 225.388 32.2335 220.288C38.5366 214.344 44.2014 203.094 55.5309 194.637" stroke="#F0EAD5" stroke-width="2" stroke-linecap="round" stroke-linejoin="round"/>
<path d="M13.7627 229.742C13.7627 229.742 43.4428 234.529 67.3386 219.131" stroke="#F0EAD5" stroke-width="2" stroke-linecap="round" stroke-linejoin="round"/>
<path d="M120.397 253.638C120.397 253.638 98.8545 290.818 47.2334 285.552C53.6043 281.906 58.6379 276.313 61.5948 269.595C65.0654 261.616 66.1026 249.648 72.9243 237.681" stroke="#F0EAD5" stroke-width="2" stroke-linecap="round" stroke-linejoin="round"/>
<path d="M48.1904 285.432C48.1904 285.432 77.4717 278.49 93.6681 255.113" stroke="#F0EAD5" stroke-width="2" stroke-linecap="round" stroke-linejoin="round"/>
<path d="M155.9 266.723C155.9 266.723 150.196 309.288 100.529 324.328C105.03 318.5 107.547 311.384 107.71 304.022C107.949 295.605 104.279 284.076 105.875 270.592" stroke="#F0EAD5" stroke-width="2" stroke-linecap="round" stroke-linejoin="round"/>
<path d="M101.367 323.729C101.367 323.729 125.702 306.096 131.726 278.331" stroke="#F0EAD5" stroke-width="2" stroke-linecap="round" stroke-linejoin="round"/>
<path d="M186.14 75.2771C186.14 75.2771 191.804 32.7116 241.471 17.7119C236.979 23.5268 234.476 30.6314 234.33 37.9774C234.091 46.5144 237.841 58.2429 236.125 71.8463" stroke="#F0EAD5" stroke-width="2" stroke-linecap="round" stroke-linejoin="round"/>
<path d="M240.673 18.2705C240.673 18.2705 216.298 35.9031 210.274 63.8279" stroke="#F0EAD5" stroke-width="2" stroke-linecap="round" stroke-linejoin="round"/>
<path d="M171.02 267.36C224.227 267.36 267.36 224.227 267.36 171.02C267.36 117.812 224.227 74.6787 171.02 74.6787C117.812 74.6787 74.6787 117.812 74.6787 171.02C74.6787 224.227 117.812 267.36 171.02 267.36Z" stroke="#F0EAD5" stroke-width="2" stroke-linecap="round" stroke-linejoin="round"/>
<path d="M171.02 254.515C217.133 254.515 254.515 217.133 254.515 171.02C254.515 124.907 217.133 87.5244 171.02 87.5244C124.907 87.5244 87.5244 124.907 87.5244 171.02C87.5244 217.133 124.907 254.515 171.02 254.515Z" stroke="#F0EAD5" stroke-width="2" stroke-linecap="round" stroke-linejoin="round" stroke-dasharray="0.49 2.97"/>
</g>
<defs>
<clipPath id="clip0_416_8192">
<rect width="210" height="342" fill="white"/>
</clipPath>
</defs>
</svg>
